<?xml version="1.0" encoding="utf-8" standalone="no"?>
<!DOCTYPE svg PUBLIC "-//W3C//DTD SVG 1.1//EN"
  "http://www.w3.org/Graphics/SVG/1.1/DTD/svg11.dtd">
<!-- Created with matplotlib (http://matplotlib.org/) -->
<svg height="392pt" version="1.1" viewBox="0 0 392 392" width="392pt" xmlns="http://www.w3.org/2000/svg" xmlns:xlink="http://www.w3.org/1999/xlink">
 <defs>
  <style type="text/css">
*{stroke-linecap:square;stroke-linejoin:round;}
  </style>
 </defs>
 <g id="figure_1">
  <g id="patch_1">
   <path d="
M0 392.4
L392.4 392.4
L392.4 -5.68434e-14
L0 -5.68434e-14
z
" style="fill:none;opacity:0.0;"/>
  </g>
  <g id="axes_1">
   <g id="patch_2">
    <path clip-path="url(#p19e5b703d1)" d="
M196.2 224.836
C203.794 224.836 211.079 221.819 216.449 216.449
C221.819 211.079 224.836 203.794 224.836 196.2
C224.836 188.606 221.819 181.321 216.449 175.951
C211.079 170.581 203.794 167.564 196.2 167.564
C188.606 167.564 181.321 170.581 175.951 175.951
C170.581 181.321 167.564 188.606 167.564 196.2
C167.564 203.794 170.581 211.079 175.951 216.449
C181.321 221.819 188.606 224.836 196.2 224.836
z
" style="fill:#bf00bf;opacity:0.6;"/>
   </g>
   <g id="patch_3">
    <path clip-path="url(#p19e5b703d1)" d="
M196.2 253.473
C211.389 253.473 225.958 247.438 236.698 236.698
C247.438 225.958 253.473 211.389 253.473 196.2
C253.473 181.011 247.438 166.442 236.698 155.702
C225.958 144.962 211.389 138.927 196.2 138.927
C181.011 138.927 166.442 144.962 155.702 155.702
C144.962 166.442 138.927 181.011 138.927 196.2
C138.927 211.389 144.962 225.958 155.702 236.698
C166.442 247.438 181.011 253.473 196.2 253.473
z
" style="fill:none;opacity:0.4;stroke:#000000;stroke-width:2.0;"/>
   </g>
   <g id="patch_4">
    <path clip-path="url(#p19e5b703d1)" d="
M253.473 203.359
C255.371 203.359 257.192 202.605 258.535 201.262
C259.877 199.92 260.632 198.099 260.632 196.2
C260.632 194.301 259.877 192.48 258.535 191.138
C257.192 189.795 255.371 189.041 253.473 189.041
C251.574 189.041 249.753 189.795 248.41 191.138
C247.068 192.48 246.314 194.301 246.314 196.2
C246.314 198.099 247.068 199.92 248.41 201.262
C249.753 202.605 251.574 203.359 253.473 203.359
z
" style="fill:#0000ff;opacity:0.6;"/>
   </g>
   <g id="patch_5">
    <path clip-path="url(#p19e5b703d1)" d="
M138.927 203.359
C140.826 203.359 142.647 202.605 143.99 201.262
C145.332 199.92 146.086 198.099 146.086 196.2
C146.086 194.301 145.332 192.48 143.99 191.138
C142.647 189.795 140.826 189.041 138.927 189.041
C137.029 189.041 135.208 189.795 133.865 191.138
C132.523 192.48 131.768 194.301 131.768 196.2
C131.768 198.099 132.523 199.92 133.865 201.262
C135.208 202.605 137.029 203.359 138.927 203.359
z
" style="fill:#0000ff;opacity:0.6;"/>
   </g>
   <g id="patch_6">
    <path clip-path="url(#p19e5b703d1)" d="
M196.2 282.109
C218.983 282.109 240.837 273.057 256.947 256.947
C273.057 240.837 282.109 218.983 282.109 196.2
C282.109 173.417 273.057 151.563 256.947 135.453
C240.837 119.343 218.983 110.291 196.2 110.291
C173.417 110.291 151.563 119.343 135.453 135.453
C119.343 151.563 110.291 173.417 110.291 196.2
C110.291 218.983 119.343 240.837 135.453 256.947
C151.563 273.057 173.417 282.109 196.2 282.109
z
" style="fill:none;opacity:0.4;stroke:#000000;stroke-width:2.0;"/>
   </g>
   <g id="patch_7">
    <path clip-path="url(#p19e5b703d1)" d="
M282.109 203.359
C284.008 203.359 285.829 202.605 287.171 201.262
C288.514 199.92 289.268 198.099 289.268 196.2
C289.268 194.301 288.514 192.48 287.171 191.138
C285.829 189.795 284.008 189.041 282.109 189.041
C280.21 189.041 278.389 189.795 277.047 191.138
C275.704 192.48 274.95 194.301 274.95 196.2
C274.95 198.099 275.704 199.92 277.047 201.262
C278.389 202.605 280.21 203.359 282.109 203.359
z
" style="fill:#0000ff;opacity:0.6;"/>
   </g>
   <g id="patch_8">
    <path clip-path="url(#p19e5b703d1)" d="
M256.947 142.612
C258.846 142.612 260.667 141.858 262.009 140.515
C263.352 139.173 264.106 137.352 264.106 135.453
C264.106 133.554 263.352 131.733 262.009 130.391
C260.667 129.048 258.846 128.294 256.947 128.294
C255.048 128.294 253.227 129.048 251.885 130.391
C250.542 131.733 249.788 133.554 249.788 135.453
C249.788 137.352 250.542 139.173 251.885 140.515
C253.227 141.858 255.048 142.612 256.947 142.612
z
" style="fill:#0000ff;opacity:0.6;"/>
   </g>
   <g id="patch_9">
    <path clip-path="url(#p19e5b703d1)" d="
M196.2 117.45
C198.099 117.45 199.92 116.696 201.262 115.353
C202.605 114.011 203.359 112.19 203.359 110.291
C203.359 108.392 202.605 106.571 201.262 105.229
C199.92 103.886 198.099 103.132 196.2 103.132
C194.301 103.132 192.48 103.886 191.138 105.229
C189.795 106.571 189.041 108.392 189.041 110.291
C189.041 112.19 189.795 114.011 191.138 115.353
C192.48 116.696 194.301 117.45 196.2 117.45
z
" style="fill:#0000ff;opacity:0.6;"/>
   </g>
   <g id="patch_10">
    <path clip-path="url(#p19e5b703d1)" d="
M135.453 142.612
C137.352 142.612 139.173 141.858 140.515 140.515
C141.858 139.173 142.612 137.352 142.612 135.453
C142.612 133.554 141.858 131.733 140.515 130.391
C139.173 129.048 137.352 128.294 135.453 128.294
C133.554 128.294 131.733 129.048 130.391 130.391
C129.048 131.733 128.294 133.554 128.294 135.453
C128.294 137.352 129.048 139.173 130.391 140.515
C131.733 141.858 133.554 142.612 135.453 142.612
z
" style="fill:#0000ff;opacity:0.6;"/>
   </g>
   <g id="patch_11">
    <path clip-path="url(#p19e5b703d1)" d="
M110.291 203.359
C112.19 203.359 114.011 202.605 115.353 201.262
C116.696 199.92 117.45 198.099 117.45 196.2
C117.45 194.301 116.696 192.48 115.353 191.138
C114.011 189.795 112.19 189.041 110.291 189.041
C108.392 189.041 106.571 189.795 105.229 191.138
C103.886 192.48 103.132 194.301 103.132 196.2
C103.132 198.099 103.886 199.92 105.229 201.262
C106.571 202.605 108.392 203.359 110.291 203.359
z
" style="fill:#0000ff;opacity:0.6;"/>
   </g>
   <g id="patch_12">
    <path clip-path="url(#p19e5b703d1)" d="
M135.453 264.106
C137.352 264.106 139.173 263.352 140.515 262.009
C141.858 260.667 142.612 258.846 142.612 256.947
C142.612 255.048 141.858 253.227 140.515 251.885
C139.173 250.542 137.352 249.788 135.453 249.788
C133.554 249.788 131.733 250.542 130.391 251.885
C129.048 253.227 128.294 255.048 128.294 256.947
C128.294 258.846 129.048 260.667 130.391 262.009
C131.733 263.352 133.554 264.106 135.453 264.106
z
" style="fill:#0000ff;opacity:0.6;"/>
   </g>
   <g id="patch_13">
    <path clip-path="url(#p19e5b703d1)" d="
M196.2 289.268
C198.099 289.268 199.92 288.514 201.262 287.171
C202.605 285.829 203.359 284.008 203.359 282.109
C203.359 280.21 202.605 278.389 201.262 277.047
C199.92 275.704 198.099 274.95 196.2 274.95
C194.301 274.95 192.48 275.704 191.138 277.047
C189.795 278.389 189.041 280.21 189.041 282.109
C189.041 284.008 189.795 285.829 191.138 287.171
C192.48 288.514 194.301 289.268 196.2 289.268
z
" style="fill:#0000ff;opacity:0.6;"/>
   </g>
   <g id="patch_14">
    <path clip-path="url(#p19e5b703d1)" d="
M256.947 264.106
C258.846 264.106 260.667 263.352 262.009 262.009
C263.352 260.667 264.106 258.846 264.106 256.947
C264.106 255.048 263.352 253.227 262.009 251.885
C260.667 250.542 258.846 249.788 256.947 249.788
C255.048 249.788 253.227 250.542 251.885 251.885
C250.542 253.227 249.788 255.048 249.788 256.947
C249.788 258.846 250.542 260.667 251.885 262.009
C253.227 263.352 255.048 264.106 256.947 264.106
z
" style="fill:#0000ff;opacity:0.6;"/>
   </g>
   <g id="patch_15">
    <path clip-path="url(#p19e5b703d1)" d="
M196.2 310.745
C226.578 310.745 255.716 298.676 277.196 277.196
C298.676 255.716 310.745 226.578 310.745 196.2
C310.745 165.822 298.676 136.684 277.196 115.204
C255.716 93.7238 226.578 81.6545 196.2 81.6545
C165.822 81.6545 136.684 93.7238 115.204 115.204
C93.7238 136.684 81.6545 165.822 81.6545 196.2
C81.6545 226.578 93.7238 255.716 115.204 277.196
C136.684 298.676 165.822 310.745 196.2 310.745
z
" style="fill:none;opacity:0.4;stroke:#000000;stroke-width:2.0;"/>
   </g>
   <g id="patch_16">
    <path clip-path="url(#p19e5b703d1)" d="
M310.745 203.359
C312.644 203.359 314.465 202.605 315.808 201.262
C317.15 199.92 317.905 198.099 317.905 196.2
C317.905 194.301 317.15 192.48 315.808 191.138
C314.465 189.795 312.644 189.041 310.745 189.041
C308.847 189.041 307.026 189.795 305.683 191.138
C304.341 192.48 303.586 194.301 303.586 196.2
C303.586 198.099 304.341 199.92 305.683 201.262
C307.026 202.605 308.847 203.359 310.745 203.359
z
" style="fill:#0000ff;opacity:0.6;"/>
   </g>
   <g id="patch_17">
    <path clip-path="url(#p19e5b703d1)" d="
M303.838 164.182
C305.736 164.182 307.557 163.428 308.9 162.085
C310.242 160.743 310.997 158.922 310.997 157.023
C310.997 155.125 310.242 153.303 308.9 151.961
C307.557 150.618 305.736 149.864 303.838 149.864
C301.939 149.864 300.118 150.618 298.775 151.961
C297.433 153.303 296.678 155.125 296.678 157.023
C296.678 158.922 297.433 160.743 298.775 162.085
C300.118 163.428 301.939 164.182 303.838 164.182
z
" style="fill:#0000ff;opacity:0.6;"/>
   </g>
   <g id="patch_18">
    <path clip-path="url(#p19e5b703d1)" d="
M283.947 129.731
C285.846 129.731 287.667 128.976 289.009 127.634
C290.352 126.291 291.106 124.47 291.106 122.572
C291.106 120.673 290.352 118.852 289.009 117.509
C287.667 116.167 285.846 115.413 283.947 115.413
C282.048 115.413 280.227 116.167 278.885 117.509
C277.542 118.852 276.788 120.673 276.788 122.572
C276.788 124.47 277.542 126.291 278.885 127.634
C280.227 128.976 282.048 129.731 283.947 129.731
z
" style="fill:#0000ff;opacity:0.6;"/>
   </g>
   <g id="patch_19">
    <path clip-path="url(#p19e5b703d1)" d="
M253.473 104.16
C255.371 104.16 257.192 103.405 258.535 102.063
C259.877 100.72 260.632 98.8993 260.632 97.0007
C260.632 95.1021 259.877 93.281 258.535 91.9385
C257.192 90.596 255.371 89.8416 253.473 89.8416
C251.574 89.8416 249.753 90.596 248.41 91.9385
C247.068 93.281 246.314 95.1021 246.314 97.0007
C246.314 98.8993 247.068 100.72 248.41 102.063
C249.753 103.405 251.574 104.16 253.473 104.16
z
" style="fill:#0000ff;opacity:0.6;"/>
   </g>
   <g id="patch_20">
    <path clip-path="url(#p19e5b703d1)" d="
M216.091 90.5538
C217.989 90.5538 219.81 89.7995 221.153 88.457
C222.495 87.1145 223.25 85.2934 223.25 83.3947
C223.25 81.4961 222.495 79.675 221.153 78.3325
C219.81 76.99 217.989 76.2357 216.091 76.2357
C214.192 76.2357 212.371 76.99 211.028 78.3325
C209.686 79.675 208.932 81.4961 208.932 83.3947
C208.932 85.2934 209.686 87.1145 211.028 88.457
C212.371 89.7995 214.192 90.5538 216.091 90.5538
z
" style="fill:#0000ff;opacity:0.6;"/>
   </g>
   <g id="patch_21">
    <path clip-path="url(#p19e5b703d1)" d="
M176.309 90.5538
C178.208 90.5538 180.029 89.7995 181.372 88.457
C182.714 87.1145 183.468 85.2934 183.468 83.3947
C183.468 81.4961 182.714 79.675 181.372 78.3325
C180.029 76.99 178.208 76.2357 176.309 76.2357
C174.411 76.2357 172.59 76.99 171.247 78.3325
C169.905 79.675 169.15 81.4961 169.15 83.3947
C169.15 85.2934 169.905 87.1145 171.247 88.457
C172.59 89.7995 174.411 90.5538 176.309 90.5538
z
" style="fill:#0000ff;opacity:0.6;"/>
   </g>
   <g id="patch_22">
    <path clip-path="url(#p19e5b703d1)" d="
M138.927 104.16
C140.826 104.16 142.647 103.405 143.99 102.063
C145.332 100.72 146.086 98.8993 146.086 97.0007
C146.086 95.1021 145.332 93.281 143.99 91.9385
C142.647 90.596 140.826 89.8416 138.927 89.8416
C137.029 89.8416 135.208 90.596 133.865 91.9385
C132.523 93.281 131.768 95.1021 131.768 97.0007
C131.768 98.8993 132.523 100.72 133.865 102.063
C135.208 103.405 137.029 104.16 138.927 104.16
z
" style="fill:#0000ff;opacity:0.6;"/>
   </g>
   <g id="patch_23">
    <path clip-path="url(#p19e5b703d1)" d="
M108.453 129.731
C110.352 129.731 112.173 128.976 113.515 127.634
C114.858 126.291 115.612 124.47 115.612 122.572
C115.612 120.673 114.858 118.852 113.515 117.509
C112.173 116.167 110.352 115.413 108.453 115.413
C106.554 115.413 104.733 116.167 103.391 117.509
C102.048 118.852 101.294 120.673 101.294 122.572
C101.294 124.47 102.048 126.291 103.391 127.634
C104.733 128.976 106.554 129.731 108.453 129.731
z
" style="fill:#0000ff;opacity:0.6;"/>
   </g>
   <g id="patch_24">
    <path clip-path="url(#p19e5b703d1)" d="
M88.5625 164.182
C90.4611 164.182 92.2822 163.428 93.6247 162.085
C94.9672 160.743 95.7216 158.922 95.7216 157.023
C95.7216 155.125 94.9672 153.303 93.6247 151.961
C92.2822 150.618 90.4611 149.864 88.5625 149.864
C86.6639 149.864 84.8428 150.618 83.5002 151.961
C82.1577 153.303 81.4034 155.125 81.4034 157.023
C81.4034 158.922 82.1577 160.743 83.5002 162.085
C84.8428 163.428 86.6639 164.182 88.5625 164.182
z
" style="fill:#0000ff;opacity:0.6;"/>
   </g>
   <g id="patch_25">
    <path clip-path="url(#p19e5b703d1)" d="
M81.6545 203.359
C83.5532 203.359 85.3743 202.605 86.7168 201.262
C88.0593 199.92 88.8136 198.099 88.8136 196.2
C88.8136 194.301 88.0593 192.48 86.7168 191.138
C85.3743 189.795 83.5532 189.041 81.6545 189.041
C79.7559 189.041 77.9348 189.795 76.5923 191.138
C75.2498 192.48 74.4955 194.301 74.4955 196.2
C74.4955 198.099 75.2498 199.92 76.5923 201.262
C77.9348 202.605 79.7559 203.359 81.6545 203.359
z
" style="fill:#0000ff;opacity:0.6;"/>
   </g>
   <g id="patch_26">
    <path clip-path="url(#p19e5b703d1)" d="
M88.5625 242.536
C90.4611 242.536 92.2822 241.782 93.6247 240.439
C94.9672 239.097 95.7216 237.275 95.7216 235.377
C95.7216 233.478 94.9672 231.657 93.6247 230.315
C92.2822 228.972 90.4611 228.218 88.5625 228.218
C86.6639 228.218 84.8428 228.972 83.5002 230.315
C82.1577 231.657 81.4034 233.478 81.4034 235.377
C81.4034 237.275 82.1577 239.097 83.5002 240.439
C84.8428 241.782 86.6639 242.536 88.5625 242.536
z
" style="fill:#0000ff;opacity:0.6;"/>
   </g>
   <g id="patch_27">
    <path clip-path="url(#p19e5b703d1)" d="
M108.453 276.987
C110.352 276.987 112.173 276.233 113.515 274.891
C114.858 273.548 115.612 271.727 115.612 269.828
C115.612 267.93 114.858 266.109 113.515 264.766
C112.173 263.424 110.352 262.669 108.453 262.669
C106.554 262.669 104.733 263.424 103.391 264.766
C102.048 266.109 101.294 267.93 101.294 269.828
C101.294 271.727 102.048 273.548 103.391 274.891
C104.733 276.233 106.554 276.987 108.453 276.987
z
" style="fill:#0000ff;opacity:0.6;"/>
   </g>
   <g id="patch_28">
    <path clip-path="url(#p19e5b703d1)" d="
M138.927 302.558
C140.826 302.558 142.647 301.804 143.99 300.462
C145.332 299.119 146.086 297.298 146.086 295.399
C146.086 293.501 145.332 291.68 143.99 290.337
C142.647 288.995 140.826 288.24 138.927 288.24
C137.029 288.24 135.208 288.995 133.865 290.337
C132.523 291.68 131.768 293.501 131.768 295.399
C131.768 297.298 132.523 299.119 133.865 300.462
C135.208 301.804 137.029 302.558 138.927 302.558
z
" style="fill:#0000ff;opacity:0.6;"/>
   </g>
   <g id="patch_29">
    <path clip-path="url(#p19e5b703d1)" d="
M176.309 316.164
C178.208 316.164 180.029 315.41 181.372 314.067
C182.714 312.725 183.468 310.904 183.468 309.005
C183.468 307.107 182.714 305.286 181.372 303.943
C180.029 302.6 178.208 301.846 176.309 301.846
C174.411 301.846 172.59 302.6 171.247 303.943
C169.905 305.286 169.15 307.107 169.15 309.005
C169.15 310.904 169.905 312.725 171.247 314.067
C172.59 315.41 174.411 316.164 176.309 316.164
z
" style="fill:#0000ff;opacity:0.6;"/>
   </g>
   <g id="patch_30">
    <path clip-path="url(#p19e5b703d1)" d="
M216.091 316.164
C217.989 316.164 219.81 315.41 221.153 314.067
C222.495 312.725 223.25 310.904 223.25 309.005
C223.25 307.107 222.495 305.286 221.153 303.943
C219.81 302.6 217.989 301.846 216.091 301.846
C214.192 301.846 212.371 302.6 211.028 303.943
C209.686 305.286 208.932 307.107 208.932 309.005
C208.932 310.904 209.686 312.725 211.028 314.067
C212.371 315.41 214.192 316.164 216.091 316.164
z
" style="fill:#0000ff;opacity:0.6;"/>
   </g>
   <g id="patch_31">
    <path clip-path="url(#p19e5b703d1)" d="
M253.473 302.558
C255.371 302.558 257.192 301.804 258.535 300.462
C259.877 299.119 260.632 297.298 260.632 295.399
C260.632 293.501 259.877 291.68 258.535 290.337
C257.192 288.995 255.371 288.24 253.473 288.24
C251.574 288.24 249.753 288.995 248.41 290.337
C247.068 291.68 246.314 293.501 246.314 295.399
C246.314 297.298 247.068 299.119 248.41 300.462
C249.753 301.804 251.574 302.558 253.473 302.558
z
" style="fill:#0000ff;opacity:0.6;"/>
   </g>
   <g id="patch_32">
    <path clip-path="url(#p19e5b703d1)" d="
M283.947 276.987
C285.846 276.987 287.667 276.233 289.009 274.891
C290.352 273.548 291.106 271.727 291.106 269.828
C291.106 267.93 290.352 266.109 289.009 264.766
C287.667 263.424 285.846 262.669 283.947 262.669
C282.048 262.669 280.227 263.424 278.885 264.766
C277.542 266.109 276.788 267.93 276.788 269.828
C276.788 271.727 277.542 273.548 278.885 274.891
C280.227 276.233 282.048 276.987 283.947 276.987
z
" style="fill:#0000ff;opacity:0.6;"/>
   </g>
   <g id="patch_33">
    <path clip-path="url(#p19e5b703d1)" d="
M303.838 242.536
C305.736 242.536 307.557 241.782 308.9 240.439
C310.242 239.097 310.997 237.275 310.997 235.377
C310.997 233.478 310.242 231.657 308.9 230.315
C307.557 228.972 305.736 228.218 303.838 228.218
C301.939 228.218 300.118 228.972 298.775 230.315
C297.433 231.657 296.678 233.478 296.678 235.377
C296.678 237.275 297.433 239.097 298.775 240.439
C300.118 241.782 301.939 242.536 303.838 242.536
z
" style="fill:#0000ff;opacity:0.6;"/>
   </g>
   <g id="patch_34">
    <path clip-path="url(#p19e5b703d1)" d="
M196.2 339.382
C234.172 339.382 270.594 324.295 297.445 297.445
C324.295 270.594 339.382 234.172 339.382 196.2
C339.382 158.228 324.295 121.806 297.445 94.9552
C270.594 68.1047 234.172 53.0182 196.2 53.0182
C158.228 53.0182 121.806 68.1047 94.9552 94.9552
C68.1047 121.806 53.0182 158.228 53.0182 196.2
C53.0182 234.172 68.1047 270.594 94.9552 297.445
C121.806 324.295 158.228 339.382 196.2 339.382
z
" style="fill:none;opacity:0.4;stroke:#000000;stroke-width:2.0;"/>
   </g>
   <g id="patch_35">
    <path clip-path="url(#p19e5b703d1)" d="
M339.382 203.359
C341.28 203.359 343.102 202.605 344.444 201.262
C345.787 199.92 346.541 198.099 346.541 196.2
C346.541 194.301 345.787 192.48 344.444 191.138
C343.102 189.795 341.28 189.041 339.382 189.041
C337.483 189.041 335.662 189.795 334.32 191.138
C332.977 192.48 332.223 194.301 332.223 196.2
C332.223 198.099 332.977 199.92 334.32 201.262
C335.662 202.605 337.483 203.359 339.382 203.359
z
" style="fill:#0000ff;opacity:0.6;"/>
   </g>
   <g id="patch_36">
    <path clip-path="url(#p19e5b703d1)" d="
M330.747 154.388
C332.646 154.388 334.467 153.634 335.809 152.291
C337.152 150.949 337.906 149.128 337.906 147.229
C337.906 145.33 337.152 143.509 335.809 142.167
C334.467 140.824 332.646 140.07 330.747 140.07
C328.848 140.07 327.027 140.824 325.685 142.167
C324.342 143.509 323.588 145.33 323.588 147.229
C323.588 149.128 324.342 150.949 325.685 152.291
C327.027 153.634 328.848 154.388 330.747 154.388
z
" style="fill:#0000ff;opacity:0.6;"/>
   </g>
   <g id="patch_37">
    <path clip-path="url(#p19e5b703d1)" d="
M305.884 111.324
C307.782 111.324 309.603 110.569 310.946 109.227
C312.288 107.884 313.043 106.063 313.043 104.165
C313.043 102.266 312.288 100.445 310.946 99.1023
C309.603 97.7597 307.782 97.0054 305.884 97.0054
C303.985 97.0054 302.164 97.7597 300.821 99.1023
C299.479 100.445 298.725 102.266 298.725 104.165
C298.725 106.063 299.479 107.884 300.821 109.227
C302.164 110.569 303.985 111.324 305.884 111.324
z
" style="fill:#0000ff;opacity:0.6;"/>
   </g>
   <g id="patch_38">
    <path clip-path="url(#p19e5b703d1)" d="
M221.063 62.3525
C222.962 62.3525 224.783 61.5982 226.126 60.2557
C227.468 58.9132 228.222 57.092 228.222 55.1934
C228.222 53.2948 227.468 51.4737 226.126 50.1312
C224.783 48.7887 222.962 48.0343 221.063 48.0343
C219.165 48.0343 217.344 48.7887 216.001 50.1312
C214.658 51.4737 213.904 53.2948 213.904 55.1934
C213.904 57.092 214.658 58.9132 216.001 60.2557
C217.344 61.5982 219.165 62.3525 221.063 62.3525
z
" style="fill:#0000ff;opacity:0.6;"/>
   </g>
   <g id="patch_39">
    <path clip-path="url(#p19e5b703d1)" d="
M171.337 62.3525
C173.235 62.3525 175.056 61.5982 176.399 60.2557
C177.742 58.9132 178.496 57.092 178.496 55.1934
C178.496 53.2948 177.742 51.4737 176.399 50.1312
C175.056 48.7887 173.235 48.0343 171.337 48.0343
C169.438 48.0343 167.617 48.7887 166.274 50.1312
C164.932 51.4737 164.178 53.2948 164.178 55.1934
C164.178 57.092 164.932 58.9132 166.274 60.2557
C167.617 61.5982 169.438 62.3525 171.337 62.3525
z
" style="fill:#0000ff;opacity:0.6;"/>
   </g>
   <g id="patch_40">
    <path clip-path="url(#p19e5b703d1)" d="
M124.609 79.36
C126.508 79.36 128.329 78.6057 129.671 77.2631
C131.014 75.9206 131.768 74.0995 131.768 72.2009
C131.768 70.3023 131.014 68.4812 129.671 67.1387
C128.329 65.7961 126.508 65.0418 124.609 65.0418
C122.71 65.0418 120.889 65.7961 119.547 67.1387
C118.204 68.4812 117.45 70.3023 117.45 72.2009
C117.45 74.0995 118.204 75.9206 119.547 77.2631
C120.889 78.6057 122.71 79.36 124.609 79.36
z
" style="fill:#0000ff;opacity:0.6;"/>
   </g>
   <g id="patch_41">
    <path clip-path="url(#p19e5b703d1)" d="
M86.5164 111.324
C88.415 111.324 90.2361 110.569 91.5786 109.227
C92.9211 107.884 93.6755 106.063 93.6755 104.165
C93.6755 102.266 92.9211 100.445 91.5786 99.1023
C90.2361 97.7597 88.415 97.0054 86.5164 97.0054
C84.6178 97.0054 82.7966 97.7597 81.4541 99.1023
C80.1116 100.445 79.3573 102.266 79.3573 104.165
C79.3573 106.063 80.1116 107.884 81.4541 109.227
C82.7966 110.569 84.6178 111.324 86.5164 111.324
z
" style="fill:#0000ff;opacity:0.6;"/>
   </g>
   <g id="patch_42">
    <path clip-path="url(#p19e5b703d1)" d="
M61.6531 154.388
C63.5517 154.388 65.3728 153.634 66.7153 152.291
C68.0579 150.949 68.8122 149.128 68.8122 147.229
C68.8122 145.33 68.0579 143.509 66.7153 142.167
C65.3728 140.824 63.5517 140.07 61.6531 140.07
C59.7545 140.07 57.9334 140.824 56.5909 142.167
C55.2483 143.509 54.494 145.33 54.494 147.229
C54.494 149.128 55.2483 150.949 56.5909 152.291
C57.9334 153.634 59.7545 154.388 61.6531 154.388
z
" style="fill:#0000ff;opacity:0.6;"/>
   </g>
   <g id="patch_43">
    <path clip-path="url(#p19e5b703d1)" d="
M53.0182 203.359
C54.9168 203.359 56.7379 202.605 58.0804 201.262
C59.4229 199.92 60.1773 198.099 60.1773 196.2
C60.1773 194.301 59.4229 192.48 58.0804 191.138
C56.7379 189.795 54.9168 189.041 53.0182 189.041
C51.1196 189.041 49.2985 189.795 47.9559 191.138
C46.6134 192.48 45.8591 194.301 45.8591 196.2
C45.8591 198.099 46.6134 199.92 47.9559 201.262
C49.2985 202.605 51.1196 203.359 53.0182 203.359
z
" style="fill:#0000ff;opacity:0.6;"/>
   </g>
   <g id="patch_44">
    <path clip-path="url(#p19e5b703d1)" d="
M61.6531 252.33
C63.5517 252.33 65.3728 251.576 66.7153 250.233
C68.0579 248.891 68.8122 247.07 68.8122 245.171
C68.8122 243.272 68.0579 241.451 66.7153 240.109
C65.3728 238.766 63.5517 238.012 61.6531 238.012
C59.7545 238.012 57.9334 238.766 56.5909 240.109
C55.2483 241.451 54.494 243.272 54.494 245.171
C54.494 247.07 55.2483 248.891 56.5909 250.233
C57.9334 251.576 59.7545 252.33 61.6531 252.33
z
" style="fill:#0000ff;opacity:0.6;"/>
   </g>
   <g id="patch_45">
    <path clip-path="url(#p19e5b703d1)" d="
M86.5164 295.395
C88.415 295.395 90.2361 294.64 91.5786 293.298
C92.9211 291.955 93.6755 290.134 93.6755 288.235
C93.6755 286.337 92.9211 284.516 91.5786 283.173
C90.2361 281.831 88.415 281.076 86.5164 281.076
C84.6178 281.076 82.7966 281.831 81.4541 283.173
C80.1116 284.516 79.3573 286.337 79.3573 288.235
C79.3573 290.134 80.1116 291.955 81.4541 293.298
C82.7966 294.64 84.6178 295.395 86.5164 295.395
z
" style="fill:#0000ff;opacity:0.6;"/>
   </g>
   <g id="patch_46">
    <path clip-path="url(#p19e5b703d1)" d="
M124.609 327.358
C126.508 327.358 128.329 326.604 129.671 325.261
C131.014 323.919 131.768 322.098 131.768 320.199
C131.768 318.3 131.014 316.479 129.671 315.137
C128.329 313.794 126.508 313.04 124.609 313.04
C122.71 313.04 120.889 313.794 119.547 315.137
C118.204 316.479 117.45 318.3 117.45 320.199
C117.45 322.098 118.204 323.919 119.547 325.261
C120.889 326.604 122.71 327.358 124.609 327.358
z
" style="fill:#0000ff;opacity:0.6;"/>
   </g>
   <g id="patch_47">
    <path clip-path="url(#p19e5b703d1)" d="
M171.337 344.366
C173.235 344.366 175.056 343.611 176.399 342.269
C177.742 340.926 178.496 339.105 178.496 337.207
C178.496 335.308 177.742 333.487 176.399 332.144
C175.056 330.802 173.235 330.047 171.337 330.047
C169.438 330.047 167.617 330.802 166.274 332.144
C164.932 333.487 164.178 335.308 164.178 337.207
C164.178 339.105 164.932 340.926 166.274 342.269
C167.617 343.611 169.438 344.366 171.337 344.366
z
" style="fill:#0000ff;opacity:0.6;"/>
   </g>
   <g id="patch_48">
    <path clip-path="url(#p19e5b703d1)" d="
M221.063 344.366
C222.962 344.366 224.783 343.611 226.126 342.269
C227.468 340.926 228.222 339.105 228.222 337.207
C228.222 335.308 227.468 333.487 226.126 332.144
C224.783 330.802 222.962 330.047 221.063 330.047
C219.165 330.047 217.344 330.802 216.001 332.144
C214.658 333.487 213.904 335.308 213.904 337.207
C213.904 339.105 214.658 340.926 216.001 342.269
C217.344 343.611 219.165 344.366 221.063 344.366
z
" style="fill:#0000ff;opacity:0.6;"/>
   </g>
   <g id="patch_49">
    <path clip-path="url(#p19e5b703d1)" d="
M267.791 327.358
C269.69 327.358 271.511 326.604 272.853 325.261
C274.196 323.919 274.95 322.098 274.95 320.199
C274.95 318.3 274.196 316.479 272.853 315.137
C271.511 313.794 269.69 313.04 267.791 313.04
C265.892 313.04 264.071 313.794 262.729 315.137
C261.386 316.479 260.632 318.3 260.632 320.199
C260.632 322.098 261.386 323.919 262.729 325.261
C264.071 326.604 265.892 327.358 267.791 327.358
z
" style="fill:#0000ff;opacity:0.6;"/>
   </g>
   <g id="patch_50">
    <path clip-path="url(#p19e5b703d1)" d="
M305.884 295.395
C307.782 295.395 309.603 294.64 310.946 293.298
C312.288 291.955 313.043 290.134 313.043 288.235
C313.043 286.337 312.288 284.516 310.946 283.173
C309.603 281.831 307.782 281.076 305.884 281.076
C303.985 281.076 302.164 281.831 300.821 283.173
C299.479 284.516 298.725 286.337 298.725 288.235
C298.725 290.134 299.479 291.955 300.821 293.298
C302.164 294.64 303.985 295.395 305.884 295.395
z
" style="fill:#0000ff;opacity:0.6;"/>
   </g>
   <g id="patch_51">
    <path clip-path="url(#p19e5b703d1)" d="
M330.747 252.33
C332.646 252.33 334.467 251.576 335.809 250.233
C337.152 248.891 337.906 247.07 337.906 245.171
C337.906 243.272 337.152 241.451 335.809 240.109
C334.467 238.766 332.646 238.012 330.747 238.012
C328.848 238.012 327.027 238.766 325.685 240.109
C324.342 241.451 323.588 243.272 323.588 245.171
C323.588 247.07 324.342 248.891 325.685 250.233
C327.027 251.576 328.848 252.33 330.747 252.33
z
" style="fill:#0000ff;opacity:0.6;"/>
   </g>
   <g id="patch_52">
    <path clip-path="url(#p19e5b703d1)" d="
M196.2 368.018
C241.767 368.018 285.473 349.914 317.694 317.694
C349.914 285.473 368.018 241.767 368.018 196.2
C368.018 150.633 349.914 106.927 317.694 74.7062
C285.473 42.4857 241.767 24.3818 196.2 24.3818
C150.633 24.3818 106.927 42.4857 74.7062 74.7062
C42.4857 106.927 24.3818 150.633 24.3818 196.2
C24.3818 241.767 42.4857 285.473 74.7062 317.694
C106.927 349.914 150.633 368.018 196.2 368.018
z
" style="fill:none;opacity:0.4;stroke:#000000;stroke-width:2.0;"/>
   </g>
   <g id="patch_53">
    <path clip-path="url(#p19e5b703d1)" d="
M368.018 203.359
C369.917 203.359 371.738 202.605 373.08 201.262
C374.423 199.92 375.177 198.099 375.177 196.2
C375.177 194.301 374.423 192.48 373.08 191.138
C371.738 189.795 369.917 189.041 368.018 189.041
C366.12 189.041 364.298 189.795 362.956 191.138
C361.613 192.48 360.859 194.301 360.859 196.2
C360.859 198.099 361.613 199.92 362.956 201.262
C364.298 202.605 366.12 203.359 368.018 203.359
z
" style="fill:#0000ff;opacity:0.6;"/>
   </g>
   <g id="patch_54">
    <path clip-path="url(#p19e5b703d1)" d="
M317.694 81.8653
C319.592 81.8653 321.414 81.111 322.756 79.7684
C324.099 78.4259 324.853 76.6048 324.853 74.7062
C324.853 72.8076 324.099 70.9865 322.756 69.644
C321.414 68.3014 319.592 67.5471 317.694 67.5471
C315.795 67.5471 313.974 68.3014 312.632 69.644
C311.289 70.9865 310.535 72.8076 310.535 74.7062
C310.535 76.6048 311.289 78.4259 312.632 79.7684
C313.974 81.111 315.795 81.8653 317.694 81.8653
z
" style="fill:#0000ff;opacity:0.6;"/>
   </g>
   <g id="patch_55">
    <path clip-path="url(#p19e5b703d1)" d="
M24.3818 203.359
C26.2804 203.359 28.1015 202.605 29.4441 201.262
C30.7866 199.92 31.5409 198.099 31.5409 196.2
C31.5409 194.301 30.7866 192.48 29.4441 191.138
C28.1015 189.795 26.2804 189.041 24.3818 189.041
C22.4832 189.041 20.6621 189.795 19.3196 191.138
C17.9771 192.48 17.2227 194.301 17.2227 196.2
C17.2227 198.099 17.9771 199.92 19.3196 201.262
C20.6621 202.605 22.4832 203.359 24.3818 203.359
z
" style="fill:#0000ff;opacity:0.6;"/>
   </g>
   <g id="patch_56">
    <path clip-path="url(#p19e5b703d1)" d="
M74.7062 324.853
C76.6048 324.853 78.4259 324.099 79.7684 322.756
C81.111 321.414 81.8653 319.592 81.8653 317.694
C81.8653 315.795 81.111 313.974 79.7684 312.632
C78.4259 311.289 76.6048 310.535 74.7062 310.535
C72.8076 310.535 70.9865 311.289 69.644 312.632
C68.3014 313.974 67.5471 315.795 67.5471 317.694
C67.5471 319.592 68.3014 321.414 69.644 322.756
C70.9865 324.099 72.8076 324.853 74.7062 324.853
z
" style="fill:#0000ff;opacity:0.6;"/>
   </g>
   <g id="patch_57">
    <path clip-path="url(#p19e5b703d1)" d="
M196.2 375.177
C198.099 375.177 199.92 374.423 201.262 373.08
C202.605 371.738 203.359 369.917 203.359 368.018
C203.359 366.12 202.605 364.298 201.262 362.956
C199.92 361.613 198.099 360.859 196.2 360.859
C194.301 360.859 192.48 361.613 191.138 362.956
C189.795 364.298 189.041 366.12 189.041 368.018
C189.041 369.917 189.795 371.738 191.138 373.08
C192.48 374.423 194.301 375.177 196.2 375.177
z
" style="fill:#0000ff;opacity:0.6;"/>
   </g>
   <g id="patch_58">
    <path clip-path="url(#p19e5b703d1)" d="
M317.694 324.853
C319.592 324.853 321.414 324.099 322.756 322.756
C324.099 321.414 324.853 319.592 324.853 317.694
C324.853 315.795 324.099 313.974 322.756 312.632
C321.414 311.289 319.592 310.535 317.694 310.535
C315.795 310.535 313.974 311.289 312.632 312.632
C311.289 313.974 310.535 315.795 310.535 317.694
C310.535 319.592 311.289 321.414 312.632 322.756
C313.974 324.099 315.795 324.853 317.694 324.853
z
" style="fill:#0000ff;opacity:0.6;"/>
   </g>
   <g id="patch_59">
    <path clip-path="url(#p19e5b703d1)" d="
M196.2 31.5409
C198.099 31.5409 199.92 30.7866 201.262 29.4441
C202.605 28.1015 203.359 26.2804 203.359 24.3818
C203.359 22.4832 202.605 20.6621 201.262 19.3196
C199.92 17.9771 198.099 17.2227 196.2 17.2227
C194.301 17.2227 192.48 17.9771 191.138 19.3196
C189.795 20.6621 189.041 22.4832 189.041 24.3818
C189.041 26.2804 189.795 28.1015 191.138 29.4441
C192.48 30.7866 194.301 31.5409 196.2 31.5409
z
" style="fill:none;stroke:#0000ff;stroke-dasharray:1.000000,3.000000;stroke-dashoffset:0.0;stroke-width:2;"/>
   </g>
   <g id="patch_60">
    <path clip-path="url(#p19e5b703d1)" d="
M74.7062 81.8653
C76.6048 81.8653 78.4259 81.111 79.7684 79.7684
C81.111 78.4259 81.8653 76.6048 81.8653 74.7062
C81.8653 72.8076 81.111 70.9865 79.7684 69.644
C78.4259 68.3014 76.6048 67.5471 74.7062 67.5471
C72.8076 67.5471 70.9865 68.3014 69.644 69.644
C68.3014 70.9865 67.5471 72.8076 67.5471 74.7062
C67.5471 76.6048 68.3014 78.4259 69.644 79.7684
C70.9865 81.111 72.8076 81.8653 74.7062 81.8653
z
" style="fill:none;stroke:#0000ff;stroke-dasharray:1.000000,3.000000;stroke-dashoffset:0.0;stroke-width:2;"/>
   </g>
   <g id="patch_61">
    <path clip-path="url(#p19e5b703d1)" d="
M267.791 79.36
C269.69 79.36 271.511 78.6057 272.853 77.2631
C274.196 75.9206 274.95 74.0995 274.95 72.2009
C274.95 70.3023 274.196 68.4812 272.853 67.1387
C271.511 65.7961 269.69 65.0418 267.791 65.0418
C265.892 65.0418 264.071 65.7961 262.729 67.1387
C261.386 68.4812 260.632 70.3023 260.632 72.2009
C260.632 74.0995 261.386 75.9206 262.729 77.2631
C264.071 78.6057 265.892 79.36 267.791 79.36
z
" style="fill:#0000ff;"/>
   </g>
   <g id="patch_62">
    <path clip-path="url(#p19e5b703d1)" d="
M26.1087 33.2678
C28.0073 33.2678 29.8284 32.5134 31.1709 31.1709
C32.5134 29.8284 33.2678 28.0073 33.2678 26.1087
C33.2678 24.2101 32.5134 22.389 31.1709 21.0464
C29.8284 19.7039 28.0073 18.9496 26.1087 18.9496
C24.2101 18.9496 22.389 19.7039 21.0464 21.0464
C19.7039 22.389 18.9496 24.2101 18.9496 26.1087
C18.9496 28.0073 19.7039 29.8284 21.0464 31.1709
C22.389 32.5134 24.2101 33.2678 26.1087 33.2678
z
" style="fill:#0000ff;"/>
   </g>
   <g id="matplotlib.axis_1"/>
   <g id="matplotlib.axis_2"/>
   <g id="text_1">
    <!-- Xe -->
    <defs>
     <path d="
M38.0938 23
C38.5 23.4062 38.5 23.6094 38.5 24.625
C38.5 34.9688 33.0938 44 21.7031 44
C11.0938 44 2.70312 33.8906 2.70312 21.6094
C2.70312 8.60938 12.2031 -1 22.7969 -1
C34 -1 38.4062 9.46875 38.4062 11.5469
C38.4062 12.25 37.7969 12.25 37.5938 12.25
C36.9062 12.25 36.7969 12.0469 36.4062 10.875
C34.2031 4.14062 28.7031 0.796875 23.5 0.796875
C19.2031 0.796875 14.9062 3.17188 12.2031 7.5
C9.09375 12.5469 9.09375 18.375 9.09375 23
z

M9.20312 24.5
C9.90625 39.1406 17.5938 42.4062 21.5938 42.4062
C28.4062 42.4062 33 35.8906 33.0938 24.5
z
" id="CMR17-101"/>
     <path d="
M36.5 37.4688
L51.2969 58.6406
C52.7969 60.7188 55.7969 65 64 65
L64 67.6875
C61.7031 67.4844 57.9062 67.4844 55.5 67.4844
C52.2031 67.4844 48.0938 67.4844 45.5938 67.6875
L45.5938 65.0938
C48.7969 64.7969 49.5938 62.8125 49.5938 61.2188
C49.5938 60.0469 49.0938 59.25 48.4062 58.25
L35.2031 39.2656
L20.4062 60.7188
C19.7031 61.8125 19.5938 62.1094 19.5938 62.4062
C19.5938 63.3125 20.7031 65 24 65
L24 67.4844
C20.7969 67.4844 15.9062 67.4844 12.5938 67.4844
C10 67.4844 5 67.4844 2.59375 67.6875
L2.59375 65
C8.09375 65 9.90625 64.8125 12.0938 61.7344
L31.4062 33.7969
L14 8.57812
C9.70312 2.39062 3.20312 2.39062 1.29688 2.39062
L1.29688 -0.203125
C3.59375 0 7.40625 0 9.79688 0
C12.5 0 17.2031 0 19.7031 -0.203125
L19.7031 2.39062
C16.5938 2.6875 15.7031 4.67188 15.7031 6.26562
C15.7031 7.54688 16.2031 8.25 16.7031 8.9375
L32.7031 32
L50.0938 6.59375
C50.9062 5.5 50.9062 5.20312 50.9062 4.90625
C50.9062 4.10938 50 2.39062 46.5 2.39062
L46.5 0
C49.7031 0 54.5938 0 57.9062 0
C60.5 0 65.5 0 67.9062 -0.203125
L67.9062 2.39062
C61.5 2.39062 60.5 2.875 58.5 5.67188
z
" id="CMR17-88"/>
    </defs>
    <g transform="translate(185.244197054 203.006392836)scale(0.2 -0.2)">
     <use transform="scale(0.996264009963)" xlink:href="#CMR17-88"/>
     <use transform="translate(69.0724298042 0.0)scale(0.996264009963)" xlink:href="#CMR17-101"/>
    </g>
   </g>
   <g id="text_2">
    <g id="patch_63">
     <path d="
M239.324 176.148
L252.462 176.148
L252.462 159.304
L239.324 159.304
z
" style="fill:#ffffff;stroke:#ffffff;stroke-width:2.0;"/>
    </g>
    <!-- 1 -->
    <defs>
     <path d="
M26.5938 63.3125
C26.5938 65.4062 26.5 65.5 25.0938 65.5
C21.2031 61.1875 15.2969 59.7969 9.70312 59.7969
C9.40625 59.7969 8.90625 59.7969 8.79688 59.5
C8.70312 59.2969 8.70312 59.0938 8.70312 57
C11.7969 57 17 57.5938 21 59.9844
L21 7.20312
C21 3.6875 20.7969 2.5 12.2031 2.5
L9.20312 2.5
L9.20312 0
C14 0 19 0 23.7969 0
C28.5938 0 33.5938 0 38.4062 0
L38.4062 2.5
L35.4062 2.5
C26.7969 2.5 26.5938 3.59375 26.5938 7.15625
z
" id="CMR17-49"/>
    </defs>
    <g transform="translate(241.324035578 174.148134812)scale(0.2 -0.2)">
     <use transform="scale(0.996264009963)" xlink:href="#CMR17-49"/>
    </g>
   </g>
   <g id="text_3">
    <g id="patch_64">
     <path d="
M264.171 161.911
L277.309 161.911
L277.309 145.067
L264.171 145.067
z
" style="fill:#ffffff;stroke:#ffffff;stroke-width:2.0;"/>
    </g>
    <!-- 2 -->
    <defs>
     <path d="
M41.7031 15.4531
L39.9062 15.4531
C38.9062 8.375 38.0938 7.17188 37.7031 6.5625
C37.2031 5.76562 30 5.76562 28.5938 5.76562
L9.40625 5.76562
C13 9.67188 20 16.75 28.5 24.9531
C34.5938 30.7344 41.7031 37.5312 41.7031 47.4219
C41.7031 59.2188 32.2969 66 21.7969 66
C10.7969 66 4.09375 56.3125 4.09375 47.3438
C4.09375 43.4375 7 42.9375 8.20312 42.9375
C9.20312 42.9375 12.2031 43.5469 12.2031 47.0312
C12.2031 50.1094 9.59375 51 8.20312 51
C7.59375 51 7 50.9062 6.59375 50.7031
C8.5 59.2188 14.2969 63.4062 20.4062 63.4062
C29.0938 63.4062 34.7969 56.5156 34.7969 47.4219
C34.7969 38.7344 29.7031 31.25 24 24.75
L4.09375 2.28125
L4.09375 0
L39.2969 0
z
" id="CMR17-50"/>
    </defs>
    <g transform="translate(266.170577223 159.911186733)scale(0.2 -0.2)">
     <use transform="scale(0.996264009963)" xlink:href="#CMR17-50"/>
    </g>
   </g>
   <g id="text_4">
    <g id="patch_65">
     <path d="
M289.017 147.674
L302.155 147.674
L302.155 130.83
L289.017 130.83
z
" style="fill:#ffffff;stroke:#ffffff;stroke-width:2.0;"/>
    </g>
    <!-- 3 -->
    <defs>
     <path d="
M22.0938 33.7031
C31 33.7031 34.9062 25.9688 34.9062 17.0312
C34.9062 5 28.5 0.390625 22.7031 0.390625
C17.4062 0.390625 8.79688 3.03125 6.09375 10.8281
C6.59375 10.625 7.09375 10.625 7.59375 10.625
C10 10.625 11.7969 12.2188 11.7969 14.8125
C11.7969 17.7031 9.59375 19 7.59375 19
C5.90625 19 3.29688 18.2031 3.29688 14.4688
C3.29688 5.23438 12.2969 -2 22.9062 -2
C34 -2 42.5 6.71875 42.5 16.9531
C42.5 26.6719 34.5 33.6875 25 34.7969
C32.5938 36.375 39.9062 43.0625 39.9062 52.0156
C39.9062 59.6875 32 65.2969 23 65.2969
C13.9062 65.2969 5.90625 59.8281 5.90625 52.0156
C5.90625 48.5938 8.5 48 9.79688 48
C11.9062 48 13.7031 49.2969 13.7031 51.8906
C13.7031 54.4688 11.9062 55.7656 9.79688 55.7656
C9.40625 55.7656 8.90625 55.7656 8.5 55.5625
C11.4062 61.8594 19.2969 63 22.7969 63
C26.2969 63 32.9062 61.3281 32.9062 51.875
C32.9062 49.1094 32.5 44.1875 29.0938 39.8438
C26.0938 36 22.7031 36 19.4062 35.5938
C18.9062 35.5938 16.5938 35.5938 16.2031 35.5938
C15.5 35.4844 15.0938 35.3906 15.0938 34.5938
C15.0938 33.8125 15.2031 33.7031 17.2031 33.7031
z
" id="CMR17-51"/>
    </defs>
    <g transform="translate(291.017118868 145.674238654)scale(0.2 -0.2)">
     <use transform="scale(0.996264009963)" xlink:href="#CMR17-51"/>
    </g>
   </g>
   <g id="text_5">
    <g id="patch_66">
     <path d="
M313.864 133.437
L327.002 133.437
L327.002 116.593
L313.864 116.593
z
" style="fill:#ffffff;stroke:#ffffff;stroke-width:2.0;"/>
    </g>
    <!-- 4 -->
    <defs>
     <path d="
M33.5938 64.3281
C33.5938 66.4062 33.5 66.5 31.7031 66.5
L2 19.5938
L2 17
L27.7969 17
L27.7969 7.14062
C27.7969 3.5 27.5938 2.5 20.5938 2.5
L18.7031 2.5
L18.7031 0
C21.9062 0 27.2969 0 30.7031 0
C34.0938 0 39.5 0 42.7031 0
L42.7031 2.5
L40.7969 2.5
C33.7969 2.5 33.5938 3.5 33.5938 7.14062
L33.5938 17
L43.7969 17
L43.7969 19.5938
L33.5938 19.5938
z

M28.0938 57.7656
L28.0938 19.5938
L4 19.5938
z
" id="CMR17-52"/>
    </defs>
    <g transform="translate(315.863660512 131.437290575)scale(0.2 -0.2)">
     <use transform="scale(0.996264009963)" xlink:href="#CMR17-52"/>
    </g>
   </g>
   <g id="text_6">
    <g id="patch_67">
     <path d="
M338.71 119.2
L351.848 119.2
L351.848 102.356
L338.71 102.356
z
" style="fill:#ffffff;stroke:#ffffff;stroke-width:2.0;"/>
    </g>
    <!-- 5 -->
    <defs>
     <path d="
M11.4062 57.6875
C12.4062 57.2812 16.5 56 20.7031 56
C30 56 35.0938 61.0156 38 63.9219
C38 64.7344 38 65.25 37.4062 65.25
C37.2969 65.25 37.0938 65.25 36.2969 64.8281
C32.7969 63.3125 28.7031 62.0781 23.7031 62.0781
C20.7031 62.0781 16.2031 62.5 11.2969 64.7344
C10.2031 65.25 10 65.25 9.90625 65.25
C9.40625 65.25 9.29688 65.1406 9.29688 63.1562
L9.29688 34.2812
C9.29688 32.5 9.29688 32 10.2969 32
C10.7969 32 11 32.2031 11.5 32.9062
C14.7031 37.4844 19.0938 39.4062 24.0938 39.4062
C27.5938 39.4062 35.0938 37.2188 35.0938 20.1406
C35.0938 16.9531 35.0938 11.1719 32.0938 6.57812
C29.5938 2.48438 25.7031 0.390625 21.4062 0.390625
C14.7969 0.390625 8.09375 5 6.29688 12.7188
C6.70312 12.6094 7.5 12.4219 7.90625 12.4219
C9.20312 12.4219 11.7031 13.125 11.7031 16.2188
C11.7031 18.9062 9.79688 20 7.90625 20
C5.59375 20 4.09375 18.5938 4.09375 15.7969
C4.09375 7.09375 11 -2 21.5938 -2
C31.9062 -2 41.7031 6.875 41.7031 19.75
C41.7031 31.7188 33.9062 41 24.2031 41
C19.0938 41 14.7969 39.0938 11.4062 35.4531
z
" id="CMR17-53"/>
    </defs>
    <g transform="translate(340.710202157 117.200342496)scale(0.2 -0.2)">
     <use transform="scale(0.996264009963)" xlink:href="#CMR17-53"/>
    </g>
   </g>
   <g id="patch_68">
    <path d="
M198.332 22.501
Q241.813 25.3903 263.761 60.6011
L266.307 59.0142
Q266.895 64.6954 266.921 70.402
Q262.396 66.9071 257.82 64.3039
L260.366 62.717
Q239.503 29.2456 198.067 26.4922
L198.332 22.501
z
" style="fill:#008000;"/>
   </g>
   <g id="patch_69">
    <path clip-path="url(#p19e5b703d1)" d="
M73.2913 73.2913
Q50.407 50.407 29.1038 29.1038" style="fill:none;stroke:#008000;stroke-linecap:round;stroke-width:2.0;"/>
    <path clip-path="url(#p19e5b703d1)" d="
M32.4979 39.2861
L29.1038 29.1038
L39.2861 32.4979
L32.4979 39.2861
z
" style="fill:#008000;stroke:#008000;stroke-linecap:round;stroke-width:2.0;"/>
   </g>
  </g>
 </g>
 <defs>
  <clipPath id="p19e5b703d1">
   <rect height="378.0" width="378.0" x="7.2" y="7.2"/>
  </clipPath>
 </defs>
</svg>
