<?xml version="1.0" encoding="UTF-8" standalone="no"?>
<!-- Created with matplotlib (http://matplotlib.org/) -->

<svg
   xmlns:dc="http://purl.org/dc/elements/1.1/"
   xmlns:cc="http://creativecommons.org/ns#"
   xmlns:rdf="http://www.w3.org/1999/02/22-rdf-syntax-ns#"
   xmlns:svg="http://www.w3.org/2000/svg"
   xmlns="http://www.w3.org/2000/svg"
   xmlns:xlink="http://www.w3.org/1999/xlink"
   xmlns:sodipodi="http://sodipodi.sourceforge.net/DTD/sodipodi-0.dtd"
   xmlns:inkscape="http://www.inkscape.org/namespaces/inkscape"
   height="442pt"
   version="1.1"
   viewBox="0 0 837 442"
   width="837pt"
   id="svg2"
   inkscape:version="0.48.4 r9939"
   sodipodi:docname="ionization_impact.svg">
  <metadata
     id="metadata793">
    <rdf:RDF>
      <cc:Work
         rdf:about="">
        <dc:format>image/svg+xml</dc:format>
        <dc:type
           rdf:resource="http://purl.org/dc/dcmitype/StillImage" />
        <dc:title></dc:title>
      </cc:Work>
    </rdf:RDF>
  </metadata>
  <sodipodi:namedview
     pagecolor="#ffffff"
     bordercolor="#666666"
     borderopacity="1"
     objecttolerance="10"
     gridtolerance="10"
     guidetolerance="10"
     inkscape:pageopacity="0"
     inkscape:pageshadow="2"
     inkscape:window-width="1680"
     inkscape:window-height="985"
     id="namedview791"
     showgrid="false"
     inkscape:zoom="1.4190045"
     inkscape:cx="523.125"
     inkscape:cy="276.25"
     inkscape:window-x="-2"
     inkscape:window-y="-3"
     inkscape:window-maximized="1"
     inkscape:current-layer="svg2" />
  <defs
     id="defs4">
    <style
       type="text/css"
       id="style6">
*{stroke-linecap:square;stroke-linejoin:round;}
  </style>
  </defs>
  <g
     id="figure_1">
    <g
       id="patch_1">
      <path
         d=" M0 442.674 L837.298 442.674 L837.298 0 L0 0 z "
         style="fill:none;opacity:0.0;"
         id="path10" />
    </g>
    <g
       id="axes_1">
      <g
         id="patch_2">
        <path
           d=" M87.1006 385.2 L421.901 385.2 L421.901 7.2 L87.1006 7.2 z "
           style="fill:none;opacity:0.0;"
           id="path14" />
      </g>
      <g
         id="patch_3">
        <path
           clip-path="url(#p17c28643c0)"
           d=" M87.1006 215.368 L421.901 215.368 L421.901 -2.71277 L87.1006 -2.71277 z "
           style="fill:url(#h97499df24c);opacity:0.5;stroke:#000000;"
           id="path17" />
      </g>
      <g
         id="line2d_1">
        <path
           clip-path="url(#p17c28643c0)"
           d=" M235.932 312.637 L273.069 312.637"
           style="fill:none;stroke:#bf00bf;stroke-width:3.0;"
           id="path20" />
      </g>
      <g
         id="line2d_2">
        <path
           clip-path="url(#p17c28643c0)"
           d=" M87.1006 226.158 L103.187 227.305 L117.263 228.529 L129.328 229.798 L139.717 231.104 L149.101 232.505 L157.144 233.92 L164.517 235.44 L170.884 236.969 L176.582 238.548 L181.944 240.262 L186.636 241.983 L190.992 243.808 L195.014 245.731 L198.701 247.737 L202.052 249.805 L205.068 251.907 L208.084 254.281 L210.765 256.666 L213.446 259.363 L215.792 262.03 L218.138 265.04 L220.149 267.948 L222.16 271.217 L224.171 274.92 L226.182 279.148 L227.857 283.16 L229.533 287.709 L231.209 292.914 L232.884 298.925 L234.56 305.947 L235.901 312.475 L237.241 320.017 L238.582 328.829 L239.922 339.263 L241.263 351.809 L242.268 363.023 L243.274 376.246 L243.944 386.461 M265.057 386.461 L266.063 371.583 L267.403 355.353 L268.744 342.178 L270.084 331.269 L271.425 322.089 L272.765 314.256 L274.441 305.947 L276.117 298.925 L277.792 292.914 L279.468 287.709 L281.144 283.16 L283.155 278.402 L285.165 274.269 L287.176 270.644 L289.187 267.44 L291.533 264.141 L293.879 261.236 L296.225 258.657 L298.906 256.043 L301.587 253.727 L304.603 251.418 L307.955 249.158 L311.306 247.164 L314.992 245.226 L319.014 243.365 L323.371 241.594 L328.063 239.921 L333.425 238.253 L339.122 236.712 L345.49 235.219 L352.528 233.794 L360.571 232.396 L369.619 231.058 L379.674 229.798 L391.068 228.594 L404.138 227.439 L419.219 226.333 L421.901 226.158 L421.901 226.158"
           style="fill:none;stroke:#000000;stroke-width:3.0;"
           id="path23" />
      </g>
      <g
         id="line2d_3">
        <defs
           id="defs26">
          <path
             d=" M0 7 C1.85642 7 3.63706 6.26244 4.94975 4.94975 C6.26244 3.63706 7 1.85642 7 0 C7 -1.85642 6.26244 -3.63706 4.94975 -4.94975 C3.63706 -6.26244 1.85642 -7 0 -7 C-1.85642 -7 -3.63706 -6.26244 -4.94975 -4.94975 C-6.26244 -3.63706 -7 -1.85642 -7 0 C-7 1.85642 -6.26244 3.63706 -4.94975 4.94975 C-3.63706 6.26244 -1.85642 7 0 7 z "
             id="mdfd1f8ea2e"
             style="stroke:#000000;stroke-linecap:butt;stroke-width:0.5;" />
        </defs>
        <g
           clip-path="url(#p17c28643c0)"
           id="g29">
          <use
             style="fill:#0000ff;stroke:#000000;stroke-linecap:butt;stroke-width:0.5;"
             x="128.950550548"
             xlink:href="#mdfd1f8ea2e"
             y="17.1127715441"
             id="use31" />
        </g>
      </g>
      <g
         id="line2d_4">
        <defs
           id="defs34">
          <path
             d=" M0 7 C1.85642 7 3.63706 6.26244 4.94975 4.94975 C6.26244 3.63706 7 1.85642 7 0 C7 -1.85642 6.26244 -3.63706 4.94975 -4.94975 C3.63706 -6.26244 1.85642 -7 0 -7 C-1.85642 -7 -3.63706 -6.26244 -4.94975 -4.94975 C-6.26244 -3.63706 -7 -1.85642 -7 0 C-7 1.85642 -6.26244 3.63706 -4.94975 4.94975 C-3.63706 6.26244 -1.85642 7 0 7 z "
             id="m04a53dd351"
             style="stroke:#000000;stroke-linecap:butt;stroke-width:0.5;" />
        </defs>
        <g
           clip-path="url(#p17c28643c0)"
           id="g37">
          <use
             style="fill:#008000;stroke:#000000;stroke-linecap:butt;stroke-width:0.5;"
             x="254.500550548"
             xlink:href="#m04a53dd351"
             y="312.637273201"
             id="use39" />
        </g>
      </g>
      <g
         id="line2d_5">
        <path
           clip-path="url(#p17c28643c0)"
           d=" M87.1006 215.368 L421.901 215.368"
           style="fill:none;stroke:#000000;stroke-dasharray:1.000000,3.000000;stroke-dashoffset:0.0;stroke-linecap:butt;stroke-width:3.0;"
           id="path42" />
      </g>
      <g
         id="patch_4">
        <path
           d=" M87.1006 7.2 L421.901 7.2"
           style="fill:none;stroke:#000000;"
           id="path45" />
      </g>
      <g
         id="patch_5">
        <path
           d=" M421.901 385.2 L421.901 7.2"
           style="fill:none;stroke:#000000;"
           id="path48" />
      </g>
      <g
         id="matplotlib.axis_1">
        <g
           id="xtick_1">
          <g
             id="line2d_6">
            <defs
               id="defs53">
              <path
                 d=" M0 0 L0 -4"
                 id="mcb557df647"
                 style="stroke:#000000;stroke-linecap:butt;stroke-width:0.5;" />
            </defs>
            <g
               id="g56">
              <use
                 style="stroke:#000000;stroke-linecap:butt;stroke-width:0.5;"
                 x="87.1005505478"
                 xlink:href="#mcb557df647"
                 y="385.2"
                 id="use58" />
            </g>
          </g>
          <g
             id="text_1">
            <!-- $-20$ -->
            <defs
               id="defs61">
              <path
                 d=" M65.9062 23 C67.5938 23 69.4062 23 69.4062 25 C69.4062 27 67.5938 27 65.9062 27 L11.7969 27 C10.0938 27 8.29688 27 8.29688 25 C8.29688 23 10.0938 23 11.7969 23 z "
                 id="CMSY10-0" />
              <path
                 d=" M41.7031 15.4531 L39.9062 15.4531 C38.9062 8.375 38.0938 7.17188 37.7031 6.5625 C37.2031 5.76562 30 5.76562 28.5938 5.76562 L9.40625 5.76562 C13 9.67188 20 16.75 28.5 24.9531 C34.5938 30.7344 41.7031 37.5312 41.7031 47.4219 C41.7031 59.2188 32.2969 66 21.7969 66 C10.7969 66 4.09375 56.3125 4.09375 47.3438 C4.09375 43.4375 7 42.9375 8.20312 42.9375 C9.20312 42.9375 12.2031 43.5469 12.2031 47.0312 C12.2031 50.1094 9.59375 51 8.20312 51 C7.59375 51 7 50.9062 6.59375 50.7031 C8.5 59.2188 14.2969 63.4062 20.4062 63.4062 C29.0938 63.4062 34.7969 56.5156 34.7969 47.4219 C34.7969 38.7344 29.7031 31.25 24 24.75 L4.09375 2.28125 L4.09375 0 L39.2969 0 z "
                 id="CMR17-50" />
              <path
                 d=" M42 31.6406 C42 37.75 41.9062 48.125 37.7031 56.1094 C34 63.1094 28.0938 65.5938 22.9062 65.5938 C18.0938 65.5938 12 63.4062 8.20312 56.2031 C4.20312 48.7188 3.79688 39.4375 3.79688 31.6406 C3.79688 25.9531 3.90625 17.2812 7 9.67188 C11.2969 -0.609375 19 -2 22.9062 -2 C27.5 -2 34.5 -0.109375 38.5938 9.375 C41.5938 16.2812 42 24.3594 42 31.6406 M22.9062 -0.40625 C16.5 -0.40625 12.7031 5.07812 11.2969 12.6875 C10.2031 18.5625 10.2031 27.1562 10.2031 32.75 C10.2031 40.4375 10.2031 46.8281 11.5 52.9219 C13.4062 61.3906 19 64 22.9062 64 C27 64 32.2969 61.2969 34.2031 53.125 C35.5 47.4375 35.5938 40.7344 35.5938 32.75 C35.5938 26.25 35.5938 18.2656 34.4062 12.375 C32.2969 1.48438 26.4062 -0.40625 22.9062 -0.40625"
                 id="CMR17-48" />
            </defs>
            <g
               transform="translate(66.8363390095 406.60541755)scale(0.24 -0.24)"
               id="g66">
              <use
                 transform="translate(0.0 8.30225582289)scale(0.996264009963)"
                 xlink:href="#CMSY10-0"
                 id="use68" />
              <use
                 transform="translate(77.4874676506 8.30225582289)scale(0.996264009963)"
                 xlink:href="#CMR17-50"
                 id="use70" />
              <use
                 transform="translate(123.177944768 8.30225582289)scale(0.996264009963)"
                 xlink:href="#CMR17-48"
                 id="use72" />
            </g>
          </g>
        </g>
        <g
           id="xtick_2">
          <g
             id="line2d_7">
            <g
               id="g76">
              <use
                 style="stroke:#000000;stroke-linecap:butt;stroke-width:0.5;"
                 x="128.950550548"
                 xlink:href="#mcb557df647"
                 y="385.2"
                 id="use78" />
            </g>
          </g>
          <g
             id="text_2">
            <!-- $-15$ -->
            <defs
               id="defs81">
              <path
                 d=" M26.5938 63.3125 C26.5938 65.4062 26.5 65.5 25.0938 65.5 C21.2031 61.1875 15.2969 59.7969 9.70312 59.7969 C9.40625 59.7969 8.90625 59.7969 8.79688 59.5 C8.70312 59.2969 8.70312 59.0938 8.70312 57 C11.7969 57 17 57.5938 21 59.9844 L21 7.20312 C21 3.6875 20.7969 2.5 12.2031 2.5 L9.20312 2.5 L9.20312 0 C14 0 19 0 23.7969 0 C28.5938 0 33.5938 0 38.4062 0 L38.4062 2.5 L35.4062 2.5 C26.7969 2.5 26.5938 3.59375 26.5938 7.15625 z "
                 id="CMR17-49" />
              <path
                 d=" M11.4062 57.6875 C12.4062 57.2812 16.5 56 20.7031 56 C30 56 35.0938 61.0156 38 63.9219 C38 64.7344 38 65.25 37.4062 65.25 C37.2969 65.25 37.0938 65.25 36.2969 64.8281 C32.7969 63.3125 28.7031 62.0781 23.7031 62.0781 C20.7031 62.0781 16.2031 62.5 11.2969 64.7344 C10.2031 65.25 10 65.25 9.90625 65.25 C9.40625 65.25 9.29688 65.1406 9.29688 63.1562 L9.29688 34.2812 C9.29688 32.5 9.29688 32 10.2969 32 C10.7969 32 11 32.2031 11.5 32.9062 C14.7031 37.4844 19.0938 39.4062 24.0938 39.4062 C27.5938 39.4062 35.0938 37.2188 35.0938 20.1406 C35.0938 16.9531 35.0938 11.1719 32.0938 6.57812 C29.5938 2.48438 25.7031 0.390625 21.4062 0.390625 C14.7969 0.390625 8.09375 5 6.29688 12.7188 C6.70312 12.6094 7.5 12.4219 7.90625 12.4219 C9.20312 12.4219 11.7031 13.125 11.7031 16.2188 C11.7031 18.9062 9.79688 20 7.90625 20 C5.59375 20 4.09375 18.5938 4.09375 15.7969 C4.09375 7.09375 11 -2 21.5938 -2 C31.9062 -2 41.7031 6.875 41.7031 19.75 C41.7031 31.7188 33.9062 41 24.2031 41 C19.0938 41 14.7969 39.0938 11.4062 35.4531 z "
                 id="CMR17-53" />
            </defs>
            <g
               transform="translate(108.686339009 406.60541755)scale(0.24 -0.24)"
               id="g85">
              <use
                 transform="translate(0.0 8.30225582289)scale(0.996264009963)"
                 xlink:href="#CMSY10-0"
                 id="use87" />
              <use
                 transform="translate(77.4874676506 8.30225582289)scale(0.996264009963)"
                 xlink:href="#CMR17-49"
                 id="use89" />
              <use
                 transform="translate(123.177944768 8.30225582289)scale(0.996264009963)"
                 xlink:href="#CMR17-53"
                 id="use91" />
            </g>
          </g>
        </g>
        <g
           id="xtick_3">
          <g
             id="line2d_8">
            <g
               id="g95">
              <use
                 style="stroke:#000000;stroke-linecap:butt;stroke-width:0.5;"
                 x="170.800550548"
                 xlink:href="#mcb557df647"
                 y="385.2"
                 id="use97" />
            </g>
          </g>
          <g
             id="text_3">
            <!-- $-10$ -->
            <g
               transform="translate(150.536339009 406.60541755)scale(0.24 -0.24)"
               id="g100">
              <use
                 transform="translate(0.0 8.30225582289)scale(0.996264009963)"
                 xlink:href="#CMSY10-0"
                 id="use102" />
              <use
                 transform="translate(77.4874676506 8.30225582289)scale(0.996264009963)"
                 xlink:href="#CMR17-49"
                 id="use104" />
              <use
                 transform="translate(123.177944768 8.30225582289)scale(0.996264009963)"
                 xlink:href="#CMR17-48"
                 id="use106" />
            </g>
          </g>
        </g>
        <g
           id="xtick_4">
          <g
             id="line2d_9">
            <g
               id="g110">
              <use
                 style="stroke:#000000;stroke-linecap:butt;stroke-width:0.5;"
                 x="212.650550548"
                 xlink:href="#mcb557df647"
                 y="385.2"
                 id="use112" />
            </g>
          </g>
          <g
             id="text_4">
            <!-- $-5$ -->
            <g
               transform="translate(197.869196264 406.60541755)scale(0.24 -0.24)"
               id="g115">
              <use
                 transform="translate(0.0 8.30225582289)scale(0.996264009963)"
                 xlink:href="#CMSY10-0"
                 id="use117" />
              <use
                 transform="translate(77.4874676506 8.30225582289)scale(0.996264009963)"
                 xlink:href="#CMR17-53"
                 id="use119" />
            </g>
          </g>
        </g>
        <g
           id="xtick_5">
          <g
             id="line2d_10">
            <g
               id="g123">
              <use
                 style="stroke:#000000;stroke-linecap:butt;stroke-width:0.5;"
                 x="254.500550548"
                 xlink:href="#mcb557df647"
                 y="385.2"
                 id="use125" />
            </g>
          </g>
          <g
             id="text_5">
            <!-- $0$ -->
            <g
               transform="translate(249.017693294 404.612874329)scale(0.24 -0.24)"
               id="g128">
              <use
                 transform="scale(0.996264009963)"
                 xlink:href="#CMR17-48"
                 id="use130" />
            </g>
          </g>
        </g>
        <g
           id="xtick_6">
          <g
             id="line2d_11">
            <g
               id="g134">
              <use
                 style="stroke:#000000;stroke-linecap:butt;stroke-width:0.5;"
                 x="296.350550548"
                 xlink:href="#mcb557df647"
                 y="385.2"
                 id="use136" />
            </g>
          </g>
          <g
             id="text_6">
            <!-- $5$ -->
            <g
               transform="translate(290.867693294 404.612874329)scale(0.24 -0.24)"
               id="g139">
              <use
                 transform="scale(0.996264009963)"
                 xlink:href="#CMR17-53"
                 id="use141" />
            </g>
          </g>
        </g>
        <g
           id="xtick_7">
          <g
             id="line2d_12">
            <g
               id="g145">
              <use
                 style="stroke:#000000;stroke-linecap:butt;stroke-width:0.5;"
                 x="338.200550548"
                 xlink:href="#mcb557df647"
                 y="385.2"
                 id="use147" />
            </g>
          </g>
          <g
             id="text_7">
            <!-- $10$ -->
            <g
               transform="translate(327.23483604 404.612874329)scale(0.24 -0.24)"
               id="g150">
              <use
                 transform="scale(0.996264009963)"
                 xlink:href="#CMR17-49"
                 id="use152" />
              <use
                 transform="translate(45.6904771171 0.0)scale(0.996264009963)"
                 xlink:href="#CMR17-48"
                 id="use154" />
            </g>
          </g>
        </g>
        <g
           id="xtick_8">
          <g
             id="line2d_13">
            <g
               id="g158">
              <use
                 style="stroke:#000000;stroke-linecap:butt;stroke-width:0.5;"
                 x="380.050550548"
                 xlink:href="#mcb557df647"
                 y="385.2"
                 id="use160" />
            </g>
          </g>
          <g
             id="text_8">
            <!-- $15$ -->
            <g
               transform="translate(369.08483604 404.612874329)scale(0.24 -0.24)"
               id="g163">
              <use
                 transform="scale(0.996264009963)"
                 xlink:href="#CMR17-49"
                 id="use165" />
              <use
                 transform="translate(45.6904771171 0.0)scale(0.996264009963)"
                 xlink:href="#CMR17-53"
                 id="use167" />
            </g>
          </g>
        </g>
        <g
           id="text_10">
          <!-- r [bohr] -->
          <defs
             id="defs183">
            <path
               d=" M23.5 -25 L23.5 -21.5156 L14.0938 -21.5156 L14.0938 71 L23.5 71 L23.5 74.4844 L10.5938 74.4844 L10.5938 -25 z "
               id="CMR17-91" />
            <path
               d=" M14.2969 74.4844 L1.40625 74.4844 L1.40625 71 L10.7969 71 L10.7969 -21.5156 L1.40625 -21.5156 L1.40625 -25 L14.2969 -25 z "
               id="CMR17-93" />
            <path
               d=" M15 68.6875 L3.09375 67.5938 L3.09375 65 C9 65 9.90625 64.4062 9.90625 59.6406 L9.90625 -0.203125 L11.7031 -0.203125 L14.5938 6.89062 C17.5 2.20312 21.7969 -1 27.5938 -1 C37.5938 -1 47.7031 7.8125 47.7031 21.4062 C47.7031 34.1875 38.7031 43.5938 28.5938 43.5938 C22.4062 43.5938 18 40.2969 15 36.4062 z  M15.2031 31.3125 C15.2031 33.0938 15.2031 33.4062 16.5938 35.5 C20.5 41.5156 26.0938 42 28 42 C31 42 41.2969 40.3906 41.2969 21.5 C41.2969 1.6875 29.5 0.59375 27.0938 0.59375 C24 0.59375 19.5 1.78125 16.2969 7.59375 C15.2031 9.5 15.2031 9.70312 15.2031 11.4844 z "
               id="CMR17-98" />
            <path
               d=" M41.5 30.2031 C41.5 35.2969 40.5 43.5938 28.7031 43.5938 C20.5 43.5938 16.5 37 15.2969 33.7031 L15.2031 33.7031 L15.2031 68.6875 L3.29688 67.5938 L3.29688 65 C9.20312 65 10.0938 64.4062 10.0938 59.6406 L10.0938 6.65625 C10.0938 2.875 9.70312 2.39062 3.29688 2.39062 L3.29688 -0.203125 C5.70312 0 10.0938 0 12.7031 0 C15.2969 0 19.7969 0 22.2031 -0.203125 L22.2031 2.39062 C15.7969 2.39062 15.4062 2.78125 15.4062 6.6875 L15.4062 25.9062 C15.4062 35.1094 21 42 28 42 C35.4062 42 36.2031 35.4062 36.2031 30.5938 L36.2031 6.6875 C36.2031 2.875 35.7969 2.39062 29.4062 2.39062 L29.4062 -0.203125 C31.7969 0 36.2031 0 38.7969 0 C41.4062 0 45.9062 0 48.2969 -0.203125 L48.2969 2.39062 C41.9062 2.39062 41.5 2.78125 41.5 6.6875 z "
               id="CMR17-104" />
            <path
               d=" M15 23.3906 C15 33 19.0938 42 26.5938 42 C27.2969 42 28 41.9062 28.7031 41.5938 C28.7031 41.5938 26.5 40.8906 26.5 38.3125 C26.5 35.9062 28.4062 34.9062 29.9062 34.9062 C31.0938 34.9062 33.2969 35.6094 33.2969 38.4062 C33.2969 41.6094 30.0938 43.5938 26.7031 43.5938 C19.0938 43.5938 15.7969 36.2031 14.7969 32.7031 L14.7031 32.7031 L14.7031 43.5938 L3.09375 42.5 L3.09375 39.9062 C9 39.9062 9.90625 39.2969 9.90625 34.5 L9.90625 6.6875 C9.90625 2.875 9.5 2.39062 3.09375 2.39062 L3.09375 -0.203125 C5.5 0 10.0938 0 12.7031 0 C15.5938 0 20.7031 0 23.4062 -0.203125 L23.4062 2.39062 C16.2031 2.39062 15 2.39062 15 6.875 z "
               id="CMR17-114" />
            <path
               d=" M43.0938 21.1875 C43.0938 34 33.7969 44 22.9062 44 C12 44 2.70312 34 2.70312 21.1875 C2.70312 8.60938 12 -1 22.9062 -1 C33.7969 -1 43.0938 8.60938 43.0938 21.1875 M22.9062 0.796875 C18.2031 0.796875 14.2031 3.59375 11.9062 7.5 C9.40625 11.9844 9.09375 17.5938 9.09375 22 C9.09375 26.2031 9.29688 31.4062 11.9062 35.9062 C13.9062 39.2031 17.7969 42.4062 22.9062 42.4062 C27.4062 42.4062 31.2031 39.9062 33.5938 36.4062 C36.7031 31.7031 36.7031 25.1094 36.7031 22 C36.7031 18.0938 36.5 12.1094 33.7969 7.29688 C31 2.70312 26.7031 0.796875 22.9062 0.796875"
               id="CMR17-111" />
          </defs>
          <g
             transform="translate(218.444963102 435.47422252)scale(0.24 -0.24)"
             id="g191">
            <use
               transform="translate(0.0 24.8232640781)scale(0.996264009963)"
               xlink:href="#CMR17-114"
               id="use193" />
            <use
               transform="translate(65.3567341464 24.8232640781)scale(0.996264009963)"
               xlink:href="#CMR17-91"
               id="use195" />
            <use
               transform="translate(90.2277926282 24.8232640781)scale(0.996264009963)"
               xlink:href="#CMR17-98"
               id="use197" />
            <use
               transform="translate(143.725601139 24.8232640781)scale(0.996264009963)"
               xlink:href="#CMR17-111"
               id="use199" />
            <use
               transform="translate(189.416078256 24.8232640781)scale(0.996264009963)"
               xlink:href="#CMR17-104"
               id="use201" />
            <use
               transform="translate(240.311448037 24.8232640781)scale(0.996264009963)"
               xlink:href="#CMR17-114"
               id="use203" />
            <use
               transform="translate(275.592215836 24.8232640781)scale(0.996264009963)"
               xlink:href="#CMR17-93"
               id="use205" />
          </g>
        </g>
      </g>
      <g
         id="matplotlib.axis_2">
        <g
           id="ytick_1">
          <g
             id="line2d_15">
            <defs
               id="defs210">
              <path
                 d=" M0 0 L4 0"
                 id="mc8fcea1516"
                 style="stroke:#000000;stroke-linecap:butt;stroke-width:0.5;" />
            </defs>
            <g
               id="g213">
              <use
                 style="stroke:#000000;stroke-linecap:butt;stroke-width:0.5;"
                 x="87.1005505478"
                 xlink:href="#mc8fcea1516"
                 y="344.843503722"
                 id="use215" />
            </g>
          </g>
          <g
             id="text_11">
            <!-- $-0.6$ -->
            <defs
               id="defs218">
              <path
                 d=" M10.5938 34 C10.5938 57.6562 21.7969 63 28.2969 63 C30.4062 63 35.5 62.6406 37.5 59 C35.9062 59 32.9062 59 32.9062 55.5156 C32.9062 52.8281 35.0938 51.9219 36.5 51.9219 C37.4062 51.9219 40.0938 52.3125 40.0938 55.625 C40.0938 61.7812 35.0938 65.2969 28.2031 65.2969 C16.2969 65.2969 3.79688 52.9688 3.79688 31 C3.79688 3.95312 15.0938 -2 23.0938 -2 C32.7969 -2 42 6.67188 42 20.0469 C42 32.5156 33.9062 41.5938 23.7031 41.5938 C17.5938 41.5938 13.0938 37.6094 10.5938 30.625 z  M23.0938 0.390625 C10.7969 0.390625 10.7969 18.75 10.7969 22.4375 C10.7969 29.625 14.2031 40 23.5 40 C25.2031 40 30.0938 40 33.4062 33.125 C35.2031 29.2188 35.2031 25.1406 35.2031 20.1406 C35.2031 14.75 35.2031 10.7812 33.0938 6.78125 C30.9062 2.67188 27.7031 0.390625 23.0938 0.390625"
                 id="CMR17-54" />
              <path
                 d=" M18.4062 4.79688 C18.4062 7.6875 16 9.67188 13.5938 9.67188 C10.7031 9.67188 8.70312 7.28125 8.70312 4.89062 C8.70312 2 11.0938 0 13.5 0 C16.4062 0 18.4062 2.39062 18.4062 4.79688"
                 id="CMMI12-58" />
            </defs>
            <g
               transform="translate(36.0688049696 353.546212497)scale(0.24 -0.24)"
               id="g222">
              <use
                 transform="translate(0.0 8.30225582289)scale(0.996264009963)"
                 xlink:href="#CMSY10-0"
                 id="use224" />
              <use
                 transform="translate(77.4874676506 8.30225582289)scale(0.996264009963)"
                 xlink:href="#CMR17-48"
                 id="use226" />
              <use
                 transform="translate(123.177944768 8.30225582289)scale(0.996264009963)"
                 xlink:href="#CMMI12-58"
                 id="use228" />
              <use
                 transform="translate(150.275121857 8.30225582289)scale(0.996264009963)"
                 xlink:href="#CMR17-54"
                 id="use230" />
            </g>
          </g>
        </g>
        <g
           id="ytick_2">
          <g
             id="line2d_16">
            <g
               id="g234">
              <use
                 style="stroke:#000000;stroke-linecap:butt;stroke-width:0.5;"
                 x="87.1005505478"
                 xlink:href="#mc8fcea1516"
                 y="301.685069956"
                 id="use236" />
            </g>
          </g>
          <g
             id="text_12">
            <!-- $-0.4$ -->
            <defs
               id="defs239">
              <path
                 d=" M33.5938 64.3281 C33.5938 66.4062 33.5 66.5 31.7031 66.5 L2 19.5938 L2 17 L27.7969 17 L27.7969 7.14062 C27.7969 3.5 27.5938 2.5 20.5938 2.5 L18.7031 2.5 L18.7031 0 C21.9062 0 27.2969 0 30.7031 0 C34.0938 0 39.5 0 42.7031 0 L42.7031 2.5 L40.7969 2.5 C33.7969 2.5 33.5938 3.5 33.5938 7.14062 L33.5938 17 L43.7969 17 L43.7969 19.5938 L33.5938 19.5938 z  M28.0938 57.7656 L28.0938 19.5938 L4 19.5938 z "
                 id="CMR17-52" />
            </defs>
            <g
               transform="translate(36.0688049696 310.387778731)scale(0.24 -0.24)"
               id="g242">
              <use
                 transform="translate(0.0 8.30225582289)scale(0.996264009963)"
                 xlink:href="#CMSY10-0"
                 id="use244" />
              <use
                 transform="translate(77.4874676506 8.30225582289)scale(0.996264009963)"
                 xlink:href="#CMR17-48"
                 id="use246" />
              <use
                 transform="translate(123.177944768 8.30225582289)scale(0.996264009963)"
                 xlink:href="#CMMI12-58"
                 id="use248" />
              <use
                 transform="translate(150.275121857 8.30225582289)scale(0.996264009963)"
                 xlink:href="#CMR17-52"
                 id="use250" />
            </g>
          </g>
        </g>
        <g
           id="ytick_3">
          <g
             id="line2d_17">
            <g
               id="g254">
              <use
                 style="stroke:#000000;stroke-linecap:butt;stroke-width:0.5;"
                 x="87.1005505478"
                 xlink:href="#mc8fcea1516"
                 y="258.526636191"
                 id="use256" />
            </g>
          </g>
          <g
             id="text_13">
            <!-- $-0.2$ -->
            <g
               transform="translate(36.0688049696 267.229344966)scale(0.24 -0.24)"
               id="g259">
              <use
                 transform="translate(0.0 8.30225582289)scale(0.996264009963)"
                 xlink:href="#CMSY10-0"
                 id="use261" />
              <use
                 transform="translate(77.4874676506 8.30225582289)scale(0.996264009963)"
                 xlink:href="#CMR17-48"
                 id="use263" />
              <use
                 transform="translate(123.177944768 8.30225582289)scale(0.996264009963)"
                 xlink:href="#CMMI12-58"
                 id="use265" />
              <use
                 transform="translate(150.275121857 8.30225582289)scale(0.996264009963)"
                 xlink:href="#CMR17-50"
                 id="use267" />
            </g>
          </g>
        </g>
        <g
           id="ytick_4">
          <g
             id="line2d_18">
            <g
               id="g271">
              <use
                 style="stroke:#000000;stroke-linecap:butt;stroke-width:0.5;"
                 x="87.1005505478"
                 xlink:href="#mc8fcea1516"
                 y="215.368202425"
                 id="use273" />
            </g>
          </g>
          <g
             id="text_14">
            <!-- $0.0$ -->
            <g
               transform="translate(54.66579903 223.074639589)scale(0.24 -0.24)"
               id="g276">
              <use
                 transform="scale(0.996264009963)"
                 xlink:href="#CMR17-48"
                 id="use278" />
              <use
                 transform="translate(45.6904771171 0.0)scale(0.996264009963)"
                 xlink:href="#CMMI12-58"
                 id="use280" />
              <use
                 transform="translate(72.7876542069 0.0)scale(0.996264009963)"
                 xlink:href="#CMR17-48"
                 id="use282" />
            </g>
          </g>
        </g>
        <g
           id="ytick_5">
          <g
             id="line2d_19">
            <g
               id="g286">
              <use
                 style="stroke:#000000;stroke-linecap:butt;stroke-width:0.5;"
                 x="87.1005505478"
                 xlink:href="#mc8fcea1516"
                 y="172.20976866"
                 id="use288" />
            </g>
          </g>
          <g
             id="text_15">
            <!-- $0.2$ -->
            <g
               transform="translate(54.66579903 179.916205824)scale(0.24 -0.24)"
               id="g291">
              <use
                 transform="scale(0.996264009963)"
                 xlink:href="#CMR17-48"
                 id="use293" />
              <use
                 transform="translate(45.6904771171 0.0)scale(0.996264009963)"
                 xlink:href="#CMMI12-58"
                 id="use295" />
              <use
                 transform="translate(72.7876542069 0.0)scale(0.996264009963)"
                 xlink:href="#CMR17-50"
                 id="use297" />
            </g>
          </g>
        </g>
        <g
           id="ytick_6">
          <g
             id="line2d_20">
            <g
               id="g301">
              <use
                 style="stroke:#000000;stroke-linecap:butt;stroke-width:0.5;"
                 x="87.1005505478"
                 xlink:href="#mc8fcea1516"
                 y="129.051334894"
                 id="use303" />
            </g>
          </g>
          <g
             id="text_16">
            <!-- $0.4$ -->
            <g
               transform="translate(54.66579903 136.757772058)scale(0.24 -0.24)"
               id="g306">
              <use
                 transform="scale(0.996264009963)"
                 xlink:href="#CMR17-48"
                 id="use308" />
              <use
                 transform="translate(45.6904771171 0.0)scale(0.996264009963)"
                 xlink:href="#CMMI12-58"
                 id="use310" />
              <use
                 transform="translate(72.7876542069 0.0)scale(0.996264009963)"
                 xlink:href="#CMR17-52"
                 id="use312" />
            </g>
          </g>
        </g>
        <g
           id="ytick_7">
          <g
             id="line2d_21">
            <g
               id="g316">
              <use
                 style="stroke:#000000;stroke-linecap:butt;stroke-width:0.5;"
                 x="87.1005505478"
                 xlink:href="#mc8fcea1516"
                 y="85.8929011283"
                 id="use318" />
            </g>
          </g>
          <g
             id="text_17">
            <!-- $0.6$ -->
            <g
               transform="translate(54.66579903 93.5993382927)scale(0.24 -0.24)"
               id="g321">
              <use
                 transform="scale(0.996264009963)"
                 xlink:href="#CMR17-48"
                 id="use323" />
              <use
                 transform="translate(45.6904771171 0.0)scale(0.996264009963)"
                 xlink:href="#CMMI12-58"
                 id="use325" />
              <use
                 transform="translate(72.7876542069 0.0)scale(0.996264009963)"
                 xlink:href="#CMR17-54"
                 id="use327" />
            </g>
          </g>
        </g>
        <g
           id="ytick_8">
          <g
             id="line2d_22">
            <g
               id="g331">
              <use
                 style="stroke:#000000;stroke-linecap:butt;stroke-width:0.5;"
                 x="87.1005505478"
                 xlink:href="#mc8fcea1516"
                 y="42.7344673627"
                 id="use333" />
            </g>
          </g>
          <g
             id="text_18">
            <!-- $0.8$ -->
            <defs
               id="defs336">
              <path
                 d=" M27.2031 35.375 C33.5 38.5625 39.9062 43.3281 39.9062 50.9844 C39.9062 60.0312 31.0938 65.2969 23 65.2969 C13.9062 65.2969 5.90625 58.7344 5.90625 49.6875 C5.90625 47.2031 6.5 42.9219 10.4062 39.1406 C11.4062 38.1562 15.5938 35.1719 18.2969 33.2812 C13.7969 30.9844 3.29688 25.5312 3.29688 14.5938 C3.29688 4.35938 13.0938 -2 22.7969 -2 C33.5 -2 42.5 5.65625 42.5 15.7969 C42.5 24.8438 36.4062 29.0312 32.4062 31.7031 z  M14.0938 44.125 C13.2969 44.625 9.29688 47.7031 9.29688 52.375 C9.29688 58.4375 15.5938 63 22.7969 63 C30.7031 63 36.5 57.4531 36.5 50.9844 C36.5 41.7344 26.0938 36.4688 25.5938 36.4688 C25.5 36.4688 25.4062 36.4688 24.5938 37.0781 z  M32.5 23.7344 C34 22.6406 38.7969 19.375 38.7969 13.2969 C38.7969 5.95312 31.4062 0.390625 23 0.390625 C13.9062 0.390625 7 6.84375 7 14.6875 C7 22.5469 13.0938 29.0938 20 32.1875 z "
                 id="CMR17-56" />
            </defs>
            <g
               transform="translate(54.66579903 50.4409045271)scale(0.24 -0.24)"
               id="g339">
              <use
                 transform="scale(0.996264009963)"
                 xlink:href="#CMR17-48"
                 id="use341" />
              <use
                 transform="translate(45.6904771171 0.0)scale(0.996264009963)"
                 xlink:href="#CMMI12-58"
                 id="use343" />
              <use
                 transform="translate(72.7876542069 0.0)scale(0.996264009963)"
                 xlink:href="#CMR17-56"
                 id="use345" />
            </g>
          </g>
        </g>
        <g
           id="text_19">
          <!-- Energy [Hartree] -->
          <defs
             id="defs348">
            <path
               d=" M60.7031 25.0781 L58.9062 25.0781 C56.7031 10.5156 55.4062 2.59375 37.7969 2.59375 L23.9062 2.59375 C19.9062 2.59375 19.7031 3.07812 19.7031 6.46875 L19.7031 34 L29.0938 34 C38.5 34 39.4062 30.5625 39.4062 22.125 L41.2031 22.125 L41.2031 48 L39.4062 48 C39.4062 39.9219 38.5 36.5938 29.0938 36.5938 L19.7031 36.5938 L19.7031 61.1406 C19.7031 64.5 19.9062 65 23.9062 65 L37.5938 65 C53.0938 65 54.9062 58.8594 56.2969 45.6562 L58.0938 45.6562 L55.7031 67.5781 L5.09375 67.5781 L5.09375 65 C12 65 13.0938 65 13.0938 60.5312 L13.0938 7.04688 C13.0938 2.59375 12 2.59375 5.09375 2.59375 L5.09375 0 L57.0938 0 z "
               id="CMR17-69" />
            <path
               d=" M36 25.8281 C36 32.375 36 35.8438 31.7969 39.7344 C28.0938 43 23.7969 44 20.4062 44 C12.5 44 6.79688 37.6094 6.79688 30.7969 C6.79688 27 9.79688 27 10.4062 27 C11.7031 27 14 27.7812 14 30.5312 C14 33 12.0938 34.0781 10.4062 34.0781 C10 34.0781 9.5 33.9688 9.20312 33.875 C11.2969 40.5 16.7031 42.4062 20.2031 42.4062 C25.2031 42.4062 30.7031 37.9531 30.7031 29.4531 L30.7031 25 C24.7969 25 17.7031 24.2031 12.0938 21.2031 C5.79688 17.7031 4 12.7031 4 8.90625 C4 1.20312 13 -1 18.2969 -1 C23.7969 -1 28.9062 2.17188 31.0938 7.98438 C31.2969 3.64062 34.0938 -0.28125 38.5 -0.28125 C40.5938 -0.28125 45.9062 1.09375 45.9062 8.85938 L45.9062 14.375 L44.0938 14.375 L44.0938 8.78125 C44.0938 2.78125 41.4062 2 40.0938 2 C36 2 36 7.15625 36 11.5312 z  M30.7031 13.5938 C30.7031 4.95312 24.5 0.59375 19 0.59375 C14 0.59375 10.0938 4.29688 10.0938 8.90625 C10.0938 11.8906 11.4062 17.1875 17.2031 20.3906 C22 23.0938 27.5 23.5 30.7031 23.5 z "
               id="CMR17-97" />
            <path
               d=" M41.5 30.2031 C41.5 35.2969 40.5 43.5938 28.7031 43.5938 C20.7969 43.5938 16.7031 37.5 15.2031 33.5 L15.0938 33.5 L15.0938 43.5938 L3.29688 42.5 L3.29688 39.9062 C9.20312 39.9062 10.0938 39.2969 10.0938 34.5 L10.0938 6.6875 C10.0938 2.875 9.70312 2.39062 3.29688 2.39062 L3.29688 -0.203125 C5.70312 0 10.0938 0 12.7031 0 C15.2969 0 19.7969 0 22.2031 -0.203125 L22.2031 2.39062 C15.7969 2.39062 15.4062 2.78125 15.4062 6.6875 L15.4062 25.9062 C15.4062 35.1094 21 42 28 42 C35.4062 42 36.2031 35.4062 36.2031 30.5938 L36.2031 6.6875 C36.2031 2.875 35.7969 2.39062 29.4062 2.39062 L29.4062 -0.203125 C31.7969 0 36.2031 0 38.7969 0 C41.4062 0 45.9062 0 48.2969 -0.203125 L48.2969 2.39062 C41.9062 2.39062 41.5 2.78125 41.5 6.6875 z "
               id="CMR17-110" />
            <path
               d=" M39 34.3281 C41.5 40.4062 46 40.4062 47.4062 40.4062 L47.4062 43 C45.5 43 43 43 41.0938 43 C39 43 35.7031 43 33.7031 43.0938 L33.7031 40.5 C37.5 40.2031 37.5938 37.4062 37.5938 36.6094 C37.5938 35.625 37.4062 35.125 36.9062 33.9219 L26 7.01562 L14.0938 36.0312 C13.5938 37.2188 13.5938 37.9062 13.5938 38.0156 C13.5938 40.2031 15.9062 40.4062 18.2969 40.4062 L18.2969 43.0938 C15.9062 43 11.5938 43 9.09375 43 C6.40625 43 3.20312 43 1 43.0938 L1 40.4062 C6.40625 40.4062 7 39.9062 8.29688 36.7188 L23.2031 0.234375 C18.7031 -11.5312 16.0938 -18.4062 9.79688 -18.4062 C8.70312 -18.4062 6.20312 -18.1094 4.40625 -16.3125 C6.70312 -16.1094 7.70312 -14.7188 7.70312 -13.0156 C7.70312 -11.3281 6.5 -9.82812 4.5 -9.82812 C2.29688 -9.82812 1.20312 -11.3281 1.20312 -13.125 C1.20312 -17.1094 5.29688 -20 9.79688 -20 C15.5938 -20 19.2031 -14.4062 21.2031 -9.4375 z "
               id="CMR17-121" />
            <path
               d=" M15.0938 40 L29.0938 40 L29.0938 42.5781 L15.0938 42.5781 L15.0938 61 L13.2969 61 C13.0938 50.7031 9.59375 41.6875 1.09375 41.6875 L1.09375 40 L9.79688 40 L9.79688 12.0469 C9.79688 10.1562 9.79688 -1 21.4062 -1 C27.2969 -1 30.7031 4.78125 30.7031 12.1406 L30.7031 17.8125 L28.9062 17.8125 L28.9062 12.2344 C28.9062 5.375 26.2031 0.796875 22 0.796875 C19.0938 0.796875 15.0938 2.78125 15.0938 11.8438 z "
               id="CMR17-116" />
            <path
               d=" M56.0938 61.0156 C56.0938 65.5 57.2031 65.5 64.0938 65.5 L64.0938 68 C61.2031 68 55.9062 68 52.7969 68 C49.7031 68 44.4062 68 41.5 68 L41.5 65.5 C48.4062 65.5 49.5 65.5 49.5 61 L49.5 36.5781 L19.7031 36.5781 L19.7031 61 C19.7031 65.5 20.7969 65.5 27.7031 65.5 L27.7031 68 C24.7969 68 19.5 68 16.4062 68 C13.2969 68 8 68 5.09375 68 L5.09375 65.5 C12 65.5 13.0938 65.5 13.0938 61.0156 L13.0938 6.98438 C13.0938 2.5 12 2.5 5.09375 2.5 L5.09375 0 C8 0 13.2969 0 16.4062 0 C19.5 0 24.7969 0 27.7031 0 L27.7031 2.5 C20.7969 2.5 19.7031 2.5 19.7031 6.96875 L19.7031 34 L49.5 34 L49.5 6.96875 C49.5 2.5 48.4062 2.5 41.5 2.5 L41.5 0 C44.4062 0 49.7031 0 52.7969 0 C55.9062 0 61.2031 0 64.0938 0 L64.0938 2.5 C57.2031 2.5 56.0938 2.5 56.0938 6.98438 z "
               id="CMR17-72" />
            <path
               d=" M11.0938 18.1875 C13 16.6875 16.2969 15 20.2969 15 C28.2031 15 35 21.2031 35 29.5 C35 32.0938 34.2031 36.0938 31.2031 39.2031 C34 42.0625 38.0938 43 40.4062 43 C40.7969 43 41.4062 43 41.9062 42.7656 C41.5 42.6719 40.5938 42.2812 40.5938 40.7344 C40.5938 39.4844 41.5 38.6094 42.7969 38.6094 C44.2969 38.6094 45.0938 39.5781 45.0938 40.8438 C45.0938 42.6719 43.5938 44.5938 40.4062 44.5938 C36.4062 44.5938 32.9062 42.7812 30.0938 40.3125 C27.0938 43.0156 23.5 44 20.2969 44 C12.4062 44 5.59375 37.7969 5.59375 29.5 C5.59375 23.7812 8.90625 20.1875 9.90625 19.1875 C6.90625 15.6875 6.90625 11.6094 6.90625 11.1094 C6.90625 8.51562 7.90625 4.71875 11.2969 2.625 C6.09375 1.32812 2 -2.64062 2 -7.59375 C2 -14.7344 11.5 -20 22.9062 -20 C33.9062 -20 43.7969 -14.9375 43.7969 -7.48438 C43.7969 6 29 6 21.2969 6 C19 6 14.9062 6 14.4062 6.10938 C11.2969 6.60938 9.20312 9.40625 9.20312 12.8906 C9.20312 13.7812 9.20312 16 11.0938 18.1875 M20.2969 16.6875 C11.5 16.6875 11.5 27.5 11.5 29.5156 C11.5 31.5 11.5 42.3125 20.2969 42.3125 C29.0938 42.3125 29.0938 31.5 29.0938 29.5156 C29.0938 27.5 29.0938 16.6875 20.2969 16.6875 M22.9062 -18.2969 C12.9062 -18.2969 6 -13.0469 6 -7.59375 C6 -4.51562 7.70312 -1.64062 9.90625 -0.0625 C12.4062 1.625 13.4062 1.625 20.2031 1.625 C28.4062 1.625 39.7969 1.625 39.7969 -7.59375 C39.7969 -13.0469 32.9062 -18.2969 22.9062 -18.2969"
               id="CMR17-103" />
            <path
               d=" M38.0938 23 C38.5 23.4062 38.5 23.6094 38.5 24.625 C38.5 34.9688 33.0938 44 21.7031 44 C11.0938 44 2.70312 33.8906 2.70312 21.6094 C2.70312 8.60938 12.2031 -1 22.7969 -1 C34 -1 38.4062 9.46875 38.4062 11.5469 C38.4062 12.25 37.7969 12.25 37.5938 12.25 C36.9062 12.25 36.7969 12.0469 36.4062 10.875 C34.2031 4.14062 28.7031 0.796875 23.5 0.796875 C19.2031 0.796875 14.9062 3.17188 12.2031 7.5 C9.09375 12.5469 9.09375 18.375 9.09375 23 z  M9.20312 24.5 C9.90625 39.1406 17.5938 42.4062 21.5938 42.4062 C28.4062 42.4062 33 35.8906 33.0938 24.5 z "
               id="CMR17-101" />
          </defs>
          <g
             transform="translate(31.0688049696 275.955109927)rotate(-90.0)scale(0.24 -0.24)"
             id="g358">
            <use
               transform="translate(0.0 24.8232640781)scale(0.996264009963)"
               xlink:href="#CMR17-69"
               id="use360" />
            <use
               transform="translate(62.5863005186 24.8232640781)scale(0.996264009963)"
               xlink:href="#CMR17-110"
               id="use362" />
            <use
               transform="translate(113.481670299 24.8232640781)scale(0.996264009963)"
               xlink:href="#CMR17-101"
               id="use364" />
            <use
               transform="translate(153.967330762 24.8232640781)scale(0.996264009963)"
               xlink:href="#CMR17-114"
               id="use366" />
            <use
               transform="translate(189.248098561 24.8232640781)scale(0.996264009963)"
               xlink:href="#CMR17-103"
               id="use368" />
            <use
               transform="translate(234.938575678 24.8232640781)scale(0.996264009963)"
               xlink:href="#CMR17-121"
               id="use370" />
            <use
               transform="translate(313.307457873 24.8232640781)scale(0.996264009963)"
               xlink:href="#CMR17-91"
               id="use372" />
            <use
               transform="translate(338.178516355 24.8232640781)scale(0.996264009963)"
               xlink:href="#CMR17-72"
               id="use374" />
            <use
               transform="translate(407.250946159 24.8232640781)scale(0.996264009963)"
               xlink:href="#CMR17-97"
               id="use376" />
            <use
               transform="translate(452.941423276 24.8232640781)scale(0.996264009963)"
               xlink:href="#CMR17-114"
               id="use378" />
            <use
               transform="translate(488.222191075 24.8232640781)scale(0.996264009963)"
               xlink:href="#CMR17-116"
               id="use380" />
            <use
               transform="translate(523.502958875 24.8232640781)scale(0.996264009963)"
               xlink:href="#CMR17-114"
               id="use382" />
            <use
               transform="translate(558.783726674 24.8232640781)scale(0.996264009963)"
               xlink:href="#CMR17-101"
               id="use384" />
            <use
               transform="translate(599.269387137 24.8232640781)scale(0.996264009963)"
               xlink:href="#CMR17-101"
               id="use386" />
            <use
               transform="translate(639.7550476 24.8232640781)scale(0.996264009963)"
               xlink:href="#CMR17-93"
               id="use388" />
          </g>
        </g>
      </g>
      <g
         id="patch_6">
        <path
           d=" M87.1006 385.2 L421.901 385.2"
           style="fill:none;stroke:#000000;"
           id="path391" />
      </g>
      <g
         id="patch_7">
        <path
           d=" M87.1006 385.2 L87.1006 7.2"
           style="fill:none;stroke:#000000;"
           id="path394" />
      </g>
      <g
         id="patch_8">
        <path
           clip-path="url(#p17c28643c0)"
           d=" M128.951 212.251 Q128.951 116.239 128.951 20.2282"
           style="fill:none;stroke:#0000ff;stroke-linecap:round;"
           id="path397" />
        <path
           clip-path="url(#p17c28643c0)"
           d=" M133.751 202.651 L128.951 212.251 L124.151 202.651 L133.751 202.651 z "
           style="fill:#0000ff;stroke:#0000ff;stroke-linecap:round;"
           id="path399" />
        <path
           clip-path="url(#p17c28643c0)"
           d=" M124.151 29.8282 L128.951 20.2282 L133.751 29.8282 L124.151 29.8282 z "
           style="fill:#0000ff;stroke:#0000ff;stroke-linecap:round;"
           id="path401" />
      </g>
      <rect
         style="color:#000000;fill:#ffffff;fill-opacity:1;fill-rule:nonzero;stroke:none;stroke-width:1;marker:none;visibility:visible;display:inline;overflow:visible;enable-background:accumulate"
         id="rect3789-7"
         width="29.781446"
         height="29.445326"
         x="98.428154"
         y="99.159988" />
      <g
         id="text_20">
        <!-- $K_e$ -->
        <defs
           id="defs404">
          <path
             d=" M50 40.1719 C49.9062 40.4688 49.5 41.2656 49.5 41.5781 C49.5 41.6719 49.5938 41.7656 51.2969 43.0625 L61 50.6562 C74.4062 61.0156 78.7969 64.5 85.7031 65.1094 C86.4062 65.2031 87.4062 65.2031 87.4062 66.9062 C87.4062 67.5 87.0938 68 86.2969 68 C85.2031 68 84 68 82.9062 68 L79.0938 68 C76 68 72.7031 68 69.7031 68 C69 68 67.7969 68 67.7969 66.2656 C67.7969 65.2969 68.5 65.2031 69.0938 65.2031 C70.2031 65.0938 71.5 64.7031 71.5 63.2969 C71.5 61.3125 68.5 58.9062 67.7031 58.3125 L28.5 27.875 L36.7969 60.8125 C37.7031 64.2031 37.9062 65.2031 45 65.2031 C46.9062 65.2031 47.7969 65.2031 47.7969 67.0312 C47.7969 68 46.7969 68 46.2969 68 C44.5 68 42.4062 68 40.5 68 L28.7031 68 C26.9062 68 24.7031 68 22.9062 68 C22.0938 68 21 68 21 66.1719 C21 65.2031 21.9062 65.2031 23.4062 65.2031 C29.5 65.2031 29.5 64.4062 29.5 63.2969 C29.5 63.1094 29.5 62.5 29.0938 61 L15.5938 7.39062 C14.7031 3.89062 14.5 2.89062 7.5 2.89062 C5.59375 2.89062 4.59375 2.89062 4.59375 1.09375 C4.59375 0 5.5 0 6.09375 0 C8 0 10 0 11.9062 0 L23.5938 0 C25.5 0 27.5938 0 29.5 0 C30.2969 0 31.4062 0 31.4062 1.89062 C31.4062 2.89062 30.5 2.89062 29 2.89062 C22.9062 2.89062 22.9062 3.6875 22.9062 4.6875 C22.9062 5.39062 23.5 7.875 23.9062 9.46875 L27.7969 24.8906 L43 36.7344 C45.9062 30.3438 51.2031 17.5469 55.2969 7.78125 C55.5938 7.17188 55.7969 6.57812 55.7969 5.875 C55.7969 2.89062 51.7969 2.89062 50.9062 2.89062 C50 2.89062 49 2.89062 49 1 C49 0 50.0938 0 50.4062 0 C53.9062 0 57.5938 0 61.0938 0 L65.9062 0 C67.4062 0 69.0938 0 70.5938 0 C71.2031 0 72.2969 0 72.2969 1.89062 C72.2969 2.89062 71.4062 2.89062 70.4062 2.89062 C66.7031 2.89062 65.4062 3.6875 63.9062 7.28125 z "
             id="CMMI12-75" />
          <path
             d=" M17.9062 23.1094 C20.5938 23.1094 27.4062 23.1094 32.2031 24.9219 C39.7969 27.8594 40.5 33.7188 40.5 35.5312 C40.5 39.9688 36.7031 44 30.0938 44 C19.5938 44 4.5 34.5312 4.5 16.7656 C4.5 6.28125 10.5 -1 19.5938 -1 C33.2031 -1 41.7969 9.53125 41.7969 10.8125 C41.7969 11.4062 41.2031 11.9062 40.7969 11.9062 C40.5 11.9062 40.4062 11.8125 39.5 10.9219 C33.0938 2.48438 23.5938 1 19.7969 1 C14.0938 1 11.0938 5.46875 11.0938 12.8438 C11.0938 14.2344 11.0938 16.7344 12.5938 23.1094 z  M13.0938 25 C17.4062 40.5 26.9062 42.0156 30.0938 42.0156 C34.5 42.0156 37.5 39.4062 37.5 35.5781 C37.5 25 21.5 25 17.2969 25 z "
             id="CMMI12-101" />
        </defs>
        <g
           style="fill:#0000ff;"
           transform="translate(101.43675341 126.203119483)scale(0.24 -0.24)"
           id="g408">
          <use
             transform="translate(0.0 14.9439145441)scale(0.996264009963)"
             xlink:href="#CMMI12-75"
             id="use410" />
          <use
             transform="translate(82.9926107176 0.0)scale(0.697381766617)"
             xlink:href="#CMMI12-101"
             id="use412" />
        </g>
      </g>
      <g
         id="patch_9">
        <path
           clip-path="url(#p17c28643c0)"
           d=" M130.951 17.1128 Q170.801 17.1128 209.533 17.1128"
           style="fill:none;stroke:#0000ff;stroke-linecap:round;"
           id="path415" />
        <path
           clip-path="url(#p17c28643c0)"
           d=" M199.933 12.3128 L209.533 17.1128 L199.933 21.9128 L199.933 12.3128 z "
           style="fill:#0000ff;stroke:#0000ff;stroke-linecap:round;"
           id="path417" />
      </g>
      <rect
         style="color:#000000;fill:#ffffff;fill-opacity:1;fill-rule:nonzero;stroke:none;stroke-width:1;marker:none;visibility:visible;display:inline;overflow:visible;enable-background:accumulate"
         id="rect3789"
         width="24.541859"
         height="21.302832"
         x="201.19342"
         y="25.286053"
         transform="scale(0.8,0.8)" />
      <g
         id="text_21"
         transform="translate(0,4.8)"
         style="stroke-linecap:square;stroke-linejoin:round">
        <!-- $v_e$ -->
        <defs
           id="defs420">
          <path
             d="m 45.7031,37.3281 c 0,6.2813 -3.2031,6.6719 -4,6.6719 -2.4062,0 -4.6093,-2.3906 -4.6093,-4.3906 0,-1.1875 0.7031,-1.8906 1.1093,-2.2813 1,-0.9062 3.5938,-3.5937 3.5938,-8.7812 0,-4.2031 -6,-27.5469 -18,-27.5469 C 17.7031,1 16.5,6.09375 16.5,9.78125 c 0,4.98435 2.2969,11.96875 5,19.15625 1.5938,4.0937 2,5.0937 2,7.0781 C 23.5,40.2188 20.5,44 15.5938,44 6.40625,44 2.70312,29.5312 2.70312,28.7344 c 0,-0.3906 0.39063,-0.8906 1.09376,-0.8906 0.90624,0 1,0.3906 1.40624,1.7968 2.39063,8.5782 6.29688,12.375 10.09378,12.375 0.9062,0 2.6093,0 2.6093,-3.2968 0,-2.5938 -1.1093,-5.4844 -2.6093,-9.2813 C 10.5,16.6719 10.5,13.5781 10.5,11.1719 10.5,8.98438 10.7969,4.89062 13.9062,2.09375 17.5,-1 22.5,-1 23.4062,-1 40,-1 45.7031,31.625 45.7031,37.3281"
             id="CMMI12-118"
             inkscape:connector-curvature="0"
             style="stroke-linecap:square;stroke-linejoin:round" />
        </defs>
        <g
           style="fill:#0000ff;stroke-linecap:square;stroke-linejoin:round"
           transform="matrix(0.24,0,0,-0.24,161.3435,30.994051)"
           id="g423">
          <use
             transform="matrix(0.99626401,0,0,0.99626401,0,14.943915)"
             xlink:href="#CMMI12-118"
             id="use425"
             style="stroke-linecap:square;stroke-linejoin:round"
             x="0"
             y="0"
             width="837"
             height="442" />
          <use
             transform="matrix(0.69738177,0,0,0.69738177,47.160581,0)"
             xlink:href="#CMMI12-101"
             id="use427"
             style="stroke-linecap:square;stroke-linejoin:round"
             x="0"
             y="0"
             width="837"
             height="442" />
        </g>
      </g>
      <g
         id="text_22">
        <!-- a) -->
        <defs
           id="defs430">
          <path
             d=" M26.2969 24.6719 C26.2969 31.8438 25.5938 43.9844 19.5938 56.8281 C14.7969 67.1875 6.59375 74.4531 5.40625 74.4531 C5.09375 74.4531 4.70312 74.3438 4.70312 73.8438 C4.70312 73.6562 4.79688 73.5469 4.90625 73.3438 C9.70312 68.375 21.9062 55.7344 21.9062 24.7812 C21.9062 -6.28125 9.79688 -18.9219 4.90625 -23.9062 C4.79688 -24.0938 4.70312 -24.2031 4.70312 -24.3906 C4.70312 -24.8906 5.09375 -25 5.40625 -25 C6.5 -25 15 -17.625 19.9062 -6.67188 C24.9062 4.375 26.2969 15.125 26.2969 24.6719"
             id="CMR17-41" />
        </defs>
        <g
           transform="translate(103.840550548 378.901675596)scale(0.24 -0.24)"
           id="g433">
          <use
             transform="translate(0.0 24.8232640781)scale(0.996264009963)"
             xlink:href="#CMR17-97"
             id="use435" />
          <use
             transform="translate(45.6904771171 24.8232640781)scale(0.996264009963)"
             xlink:href="#CMR17-41"
             id="use437" />
        </g>
      </g>
    </g>
    <g
       id="axes_2">
      <g
         id="patch_10">
        <path
           d=" M421.901 385.2 L756.701 385.2 L756.701 7.2 L421.901 7.2 z "
           style="fill:none;opacity:0.0;"
           id="path441" />
      </g>
      <g
         id="patch_11">
        <path
           clip-path="url(#p5de7dd6b9f)"
           d=" M421.901 215.368 L756.701 215.368 L756.701 -2.71277 L421.901 -2.71277 z "
           style="fill:url(#h97499df24c);opacity:0.5;stroke:#000000;"
           id="path444" />
      </g>
      <g
         id="line2d_23">
        <path
           clip-path="url(#p5de7dd6b9f)"
           d=" M570.732 312.637 L607.869 312.637"
           style="fill:none;stroke:#bf00bf;stroke-width:3.0;"
           id="path447" />
      </g>
      <g
         id="line2d_24">
        <path
           clip-path="url(#p5de7dd6b9f)"
           d=" M421.901 226.158 L437.987 227.305 L452.063 228.529 L464.128 229.798 L474.517 231.104 L483.901 232.505 L491.944 233.92 L499.317 235.44 L505.684 236.969 L511.382 238.548 L516.744 240.262 L521.436 241.983 L525.792 243.808 L529.814 245.731 L533.501 247.737 L536.852 249.805 L539.868 251.907 L542.884 254.281 L545.565 256.666 L548.246 259.363 L550.592 262.03 L552.938 265.04 L554.949 267.948 L556.96 271.217 L558.971 274.92 L560.982 279.148 L562.657 283.16 L564.333 287.709 L566.009 292.914 L567.684 298.925 L569.36 305.947 L570.701 312.475 L572.041 320.017 L573.382 328.829 L574.722 339.263 L576.063 351.809 L577.068 363.023 L578.074 376.246 L578.744 386.461 M599.857 386.461 L600.863 371.583 L602.203 355.353 L603.544 342.178 L604.884 331.269 L606.225 322.089 L607.565 314.256 L609.241 305.947 L610.917 298.925 L612.592 292.914 L614.268 287.709 L615.944 283.16 L617.955 278.402 L619.965 274.269 L621.976 270.644 L623.987 267.44 L626.333 264.141 L628.679 261.236 L631.025 258.657 L633.706 256.043 L636.387 253.727 L639.403 251.418 L642.755 249.158 L646.106 247.164 L649.792 245.226 L653.814 243.365 L658.171 241.594 L662.863 239.921 L668.225 238.253 L673.922 236.712 L680.29 235.219 L687.328 233.794 L695.371 232.396 L704.419 231.058 L714.474 229.798 L725.868 228.594 L738.938 227.439 L754.019 226.333 L756.701 226.158 L756.701 226.158"
           style="fill:none;stroke:#000000;stroke-width:3.0;"
           id="path450" />
      </g>
      <g
         id="line2d_25">
        <g
           clip-path="url(#p5de7dd6b9f)"
           id="g453">
          <use
             style="fill:#0000ff;stroke:#000000;stroke-linecap:butt;stroke-width:0.5;"
             x="589.300550548"
             xlink:href="#mdfd1f8ea2e"
             y="149.727068357"
             id="use455" />
        </g>
      </g>
      <g
         id="line2d_26">
        <defs
           id="defs458">
          <path
             d=" M0 7 C1.85642 7 3.63706 6.26244 4.94975 4.94975 C6.26244 3.63706 7 1.85642 7 0 C7 -1.85642 6.26244 -3.63706 4.94975 -4.94975 C3.63706 -6.26244 1.85642 -7 0 -7 C-1.85642 -7 -3.63706 -6.26244 -4.94975 -4.94975 C-6.26244 -3.63706 -7 -1.85642 -7 0 C-7 1.85642 -6.26244 3.63706 -4.94975 4.94975 C-3.63706 6.26244 -1.85642 7 0 7 z "
             id="mac5b7cb608"
             style="stroke:#000000;stroke-linecap:butt;stroke-width:0.5;" />
        </defs>
        <g
           clip-path="url(#p5de7dd6b9f)"
           id="g461">
          <use
             style="fill:#008000;opacity:0.4;stroke:#000000;stroke-linecap:butt;stroke-width:0.5;"
             x="589.300550548"
             xlink:href="#mac5b7cb608"
             y="312.637273201"
             id="use463" />
        </g>
      </g>
      <g
         id="line2d_27">
        <g
           clip-path="url(#p5de7dd6b9f)"
           id="g466">
          <use
             style="fill:#008000;stroke:#000000;stroke-linecap:butt;stroke-width:0.5;"
             x="589.300550548"
             xlink:href="#m04a53dd351"
             y="164.875022373"
             id="use468" />
        </g>
      </g>
      <g
         id="line2d_28">
        <path
           clip-path="url(#p5de7dd6b9f)"
           d=" M421.901 215.368 L756.701 215.368"
           style="fill:none;stroke:#000000;stroke-dasharray:1.000000,3.000000;stroke-dashoffset:0.0;stroke-linecap:butt;stroke-width:3.0;"
           id="path471" />
      </g>
      <g
         id="patch_12">
        <path
           d=" M421.901 7.2 L756.701 7.2"
           style="fill:none;stroke:#000000;"
           id="path474" />
      </g>
      <g
         id="matplotlib.axis_3">
        <g
           id="ytick_9">
          <g
             id="line2d_29">
            <defs
               id="defs479">
              <path
                 d=" M0 0 L-4 0"
                 id="m0d5b0a6425"
                 style="stroke:#000000;stroke-linecap:butt;stroke-width:0.5;" />
            </defs>
            <g
               id="g482">
              <use
                 style="stroke:#000000;stroke-linecap:butt;stroke-width:0.5;"
                 x="756.700550548"
                 xlink:href="#m0d5b0a6425"
                 y="373.97254713"
                 id="use484" />
            </g>
          </g>
          <g
             id="text_23">
            <!-- $-20$ -->
            <g
               transform="translate(760.700550548 382.675255905)scale(0.24 -0.24)"
               id="g487">
              <use
                 transform="translate(0.0 8.30225582289)scale(0.996264009963)"
                 xlink:href="#CMSY10-0"
                 id="use489" />
              <use
                 transform="translate(77.4874676506 8.30225582289)scale(0.996264009963)"
                 xlink:href="#CMR17-50"
                 id="use491" />
              <use
                 transform="translate(123.177944768 8.30225582289)scale(0.996264009963)"
                 xlink:href="#CMR17-48"
                 id="use493" />
            </g>
          </g>
        </g>
        <g
           id="ytick_10">
          <g
             id="line2d_30">
            <g
               id="g497">
              <use
                 style="stroke:#000000;stroke-linecap:butt;stroke-width:0.5;"
                 x="756.700550548"
                 xlink:href="#m0d5b0a6425"
                 y="294.670374778"
                 id="use499" />
            </g>
          </g>
          <g
             id="text_24">
            <!-- $-10$ -->
            <g
               transform="translate(760.700550548 303.373083553)scale(0.24 -0.24)"
               id="g502">
              <use
                 transform="translate(0.0 8.30225582289)scale(0.996264009963)"
                 xlink:href="#CMSY10-0"
                 id="use504" />
              <use
                 transform="translate(77.4874676506 8.30225582289)scale(0.996264009963)"
                 xlink:href="#CMR17-49"
                 id="use506" />
              <use
                 transform="translate(123.177944768 8.30225582289)scale(0.996264009963)"
                 xlink:href="#CMR17-48"
                 id="use508" />
            </g>
          </g>
        </g>
        <g
           id="ytick_11">
          <g
             id="line2d_31">
            <g
               id="g512">
              <use
                 style="stroke:#000000;stroke-linecap:butt;stroke-width:0.5;"
                 x="756.700550548"
                 xlink:href="#m0d5b0a6425"
                 y="215.368202425"
                 id="use514" />
            </g>
          </g>
          <g
             id="text_25">
            <!-- $0$ -->
            <g
               transform="translate(760.700550548 223.074639589)scale(0.24 -0.24)"
               id="g517">
              <use
                 transform="scale(0.996264009963)"
                 xlink:href="#CMR17-48"
                 id="use519" />
            </g>
          </g>
        </g>
        <g
           id="ytick_12">
          <g
             id="line2d_32">
            <g
               id="g523">
              <use
                 style="stroke:#000000;stroke-linecap:butt;stroke-width:0.5;"
                 x="756.700550548"
                 xlink:href="#m0d5b0a6425"
                 y="136.066030073"
                 id="use525" />
            </g>
          </g>
          <g
             id="text_26">
            <!-- $10$ -->
            <g
               transform="translate(760.700550548 143.772467237)scale(0.24 -0.24)"
               id="g528">
              <use
                 transform="scale(0.996264009963)"
                 xlink:href="#CMR17-49"
                 id="use530" />
              <use
                 transform="translate(45.6904771171 0.0)scale(0.996264009963)"
                 xlink:href="#CMR17-48"
                 id="use532" />
            </g>
          </g>
        </g>
        <g
           id="ytick_13">
          <g
             id="line2d_33">
            <g
               id="g536">
              <use
                 style="stroke:#000000;stroke-linecap:butt;stroke-width:0.5;"
                 x="756.700550548"
                 xlink:href="#m0d5b0a6425"
                 y="56.7638577203"
                 id="use538" />
            </g>
          </g>
          <g
             id="text_27">
            <!-- $20$ -->
            <g
               transform="translate(760.700550548 64.4702948846)scale(0.24 -0.24)"
               id="g541">
              <use
                 transform="scale(0.996264009963)"
                 xlink:href="#CMR17-50"
                 id="use543" />
              <use
                 transform="translate(45.6904771171 0.0)scale(0.996264009963)"
                 xlink:href="#CMR17-48"
                 id="use545" />
            </g>
          </g>
        </g>
        <g
           id="text_28">
          <!-- Energy [eV] -->
          <defs
             id="defs548">
            <path
               d=" M59 58.5156 C59.9062 60.7188 61.5 65 68.2031 65 L68.2031 67.6875 C65.9062 67.4844 63.2969 67.4844 60.7969 67.4844 C58.4062 67.4844 54.2969 67.4844 52 67.6875 L52 65 C57 65 57.2031 61.5 57.2031 60.9062 C57.2031 59.7969 56.9062 59.1094 56.5938 58.3125 L36.9062 6.96875 L16.2969 60.625 C16 61.3281 15.7969 61.8281 15.7969 62.3125 C15.7969 65 19.7969 65 21.9062 65 L21.9062 67.4844 C18.7031 67.4844 14 67.4844 10.7031 67.4844 C8.09375 67.4844 3.40625 67.4844 1 67.6875 L1 65 C6.79688 65 7.90625 64.6094 9.09375 61.4219 L32.9062 -0.40625 C33.4062 -1.79688 33.5 -2 34.5938 -2 C35.7031 -2 35.7969 -1.79688 36.2969 -0.40625 z "
               id="CMR17-86" />
          </defs>
          <g
             transform="translate(830.097778594 252.912909475)rotate(-90.0)scale(0.24 -0.24)"
             id="g551">
            <use
               transform="translate(0.0 24.8232640781)scale(0.996264009963)"
               xlink:href="#CMR17-69"
               id="use553" />
            <use
               transform="translate(62.5863005186 24.8232640781)scale(0.996264009963)"
               xlink:href="#CMR17-110"
               id="use555" />
            <use
               transform="translate(113.481670299 24.8232640781)scale(0.996264009963)"
               xlink:href="#CMR17-101"
               id="use557" />
            <use
               transform="translate(153.967330762 24.8232640781)scale(0.996264009963)"
               xlink:href="#CMR17-114"
               id="use559" />
            <use
               transform="translate(189.248098561 24.8232640781)scale(0.996264009963)"
               xlink:href="#CMR17-103"
               id="use561" />
            <use
               transform="translate(234.938575678 24.8232640781)scale(0.996264009963)"
               xlink:href="#CMR17-121"
               id="use563" />
            <use
               transform="translate(313.307457873 24.8232640781)scale(0.996264009963)"
               xlink:href="#CMR17-91"
               id="use565" />
            <use
               transform="translate(338.178516355 24.8232640781)scale(0.996264009963)"
               xlink:href="#CMR17-101"
               id="use567" />
            <use
               transform="translate(378.664176817 24.8232640781)scale(0.996264009963)"
               xlink:href="#CMR17-86"
               id="use569" />
            <use
               transform="translate(447.736606622 24.8232640781)scale(0.996264009963)"
               xlink:href="#CMR17-93"
               id="use571" />
          </g>
        </g>
      </g>
      <g
         id="patch_13">
        <path
           d=" M756.701 385.2 L756.701 7.2"
           style="fill:none;stroke:#000000;"
           id="path574" />
      </g>
      <g
         id="matplotlib.axis_4">
        <g
           id="xtick_11">
          <g
             id="line2d_35">
            <g
               id="g594">
              <use
                 style="stroke:#000000;stroke-linecap:butt;stroke-width:0.5;"
                 x="463.750550548"
                 xlink:href="#mcb557df647"
                 y="385.2"
                 id="use596" />
            </g>
          </g>
          <g
             id="text_30">
            <!-- $-15$ -->
            <g
               transform="translate(443.486339009 406.60541755)scale(0.24 -0.24)"
               id="g599">
              <use
                 transform="translate(0.0 8.30225582289)scale(0.996264009963)"
                 xlink:href="#CMSY10-0"
                 id="use601" />
              <use
                 transform="translate(77.4874676506 8.30225582289)scale(0.996264009963)"
                 xlink:href="#CMR17-49"
                 id="use603" />
              <use
                 transform="translate(123.177944768 8.30225582289)scale(0.996264009963)"
                 xlink:href="#CMR17-53"
                 id="use605" />
            </g>
          </g>
        </g>
        <g
           id="xtick_12">
          <g
             id="line2d_36">
            <g
               id="g609">
              <use
                 style="stroke:#000000;stroke-linecap:butt;stroke-width:0.5;"
                 x="505.600550548"
                 xlink:href="#mcb557df647"
                 y="385.2"
                 id="use611" />
            </g>
          </g>
          <g
             id="text_31">
            <!-- $-10$ -->
            <g
               transform="translate(485.336339009 406.60541755)scale(0.24 -0.24)"
               id="g614">
              <use
                 transform="translate(0.0 8.30225582289)scale(0.996264009963)"
                 xlink:href="#CMSY10-0"
                 id="use616" />
              <use
                 transform="translate(77.4874676506 8.30225582289)scale(0.996264009963)"
                 xlink:href="#CMR17-49"
                 id="use618" />
              <use
                 transform="translate(123.177944768 8.30225582289)scale(0.996264009963)"
                 xlink:href="#CMR17-48"
                 id="use620" />
            </g>
          </g>
        </g>
        <g
           id="xtick_13">
          <g
             id="line2d_37">
            <g
               id="g624">
              <use
                 style="stroke:#000000;stroke-linecap:butt;stroke-width:0.5;"
                 x="547.450550548"
                 xlink:href="#mcb557df647"
                 y="385.2"
                 id="use626" />
            </g>
          </g>
          <g
             id="text_32">
            <!-- $-5$ -->
            <g
               transform="translate(532.669196264 406.60541755)scale(0.24 -0.24)"
               id="g629">
              <use
                 transform="translate(0.0 8.30225582289)scale(0.996264009963)"
                 xlink:href="#CMSY10-0"
                 id="use631" />
              <use
                 transform="translate(77.4874676506 8.30225582289)scale(0.996264009963)"
                 xlink:href="#CMR17-53"
                 id="use633" />
            </g>
          </g>
        </g>
        <g
           id="xtick_14">
          <g
             id="line2d_38">
            <g
               id="g637">
              <use
                 style="stroke:#000000;stroke-linecap:butt;stroke-width:0.5;"
                 x="589.300550548"
                 xlink:href="#mcb557df647"
                 y="385.2"
                 id="use639" />
            </g>
          </g>
          <g
             id="text_33">
            <!-- $0$ -->
            <g
               transform="translate(583.817693294 404.612874329)scale(0.24 -0.24)"
               id="g642">
              <use
                 transform="scale(0.996264009963)"
                 xlink:href="#CMR17-48"
                 id="use644" />
            </g>
          </g>
        </g>
        <g
           id="xtick_15">
          <g
             id="line2d_39">
            <g
               id="g648">
              <use
                 style="stroke:#000000;stroke-linecap:butt;stroke-width:0.5;"
                 x="631.150550548"
                 xlink:href="#mcb557df647"
                 y="385.2"
                 id="use650" />
            </g>
          </g>
          <g
             id="text_34">
            <!-- $5$ -->
            <g
               transform="translate(625.667693294 404.612874329)scale(0.24 -0.24)"
               id="g653">
              <use
                 transform="scale(0.996264009963)"
                 xlink:href="#CMR17-53"
                 id="use655" />
            </g>
          </g>
        </g>
        <g
           id="xtick_16">
          <g
             id="line2d_40">
            <g
               id="g659">
              <use
                 style="stroke:#000000;stroke-linecap:butt;stroke-width:0.5;"
                 x="673.000550548"
                 xlink:href="#mcb557df647"
                 y="385.2"
                 id="use661" />
            </g>
          </g>
          <g
             id="text_35">
            <!-- $10$ -->
            <g
               transform="translate(662.03483604 404.612874329)scale(0.24 -0.24)"
               id="g664">
              <use
                 transform="scale(0.996264009963)"
                 xlink:href="#CMR17-49"
                 id="use666" />
              <use
                 transform="translate(45.6904771171 0.0)scale(0.996264009963)"
                 xlink:href="#CMR17-48"
                 id="use668" />
            </g>
          </g>
        </g>
        <g
           id="xtick_17">
          <g
             id="line2d_41">
            <g
               id="g672">
              <use
                 style="stroke:#000000;stroke-linecap:butt;stroke-width:0.5;"
                 x="714.850550548"
                 xlink:href="#mcb557df647"
                 y="385.2"
                 id="use674" />
            </g>
          </g>
          <g
             id="text_36">
            <!-- $15$ -->
            <g
               transform="translate(703.88483604 404.612874329)scale(0.24 -0.24)"
               id="g677">
              <use
                 transform="scale(0.996264009963)"
                 xlink:href="#CMR17-49"
                 id="use679" />
              <use
                 transform="translate(45.6904771171 0.0)scale(0.996264009963)"
                 xlink:href="#CMR17-53"
                 id="use681" />
            </g>
          </g>
        </g>
        <g
           id="xtick_18">
          <g
             id="line2d_42">
            <g
               id="g685">
              <use
                 style="stroke:#000000;stroke-linecap:butt;stroke-width:0.5;"
                 x="756.700550548"
                 xlink:href="#mcb557df647"
                 y="385.2"
                 id="use687" />
            </g>
          </g>
          <g
             id="text_37">
            <!-- $20$ -->
            <g
               transform="translate(745.73483604 404.612874329)scale(0.24 -0.24)"
               id="g690">
              <use
                 transform="scale(0.996264009963)"
                 xlink:href="#CMR17-50"
                 id="use692" />
              <use
                 transform="translate(45.6904771171 0.0)scale(0.996264009963)"
                 xlink:href="#CMR17-48"
                 id="use694" />
            </g>
          </g>
        </g>
        <g
           id="text_38">
          <!-- r [bohr] -->
          <g
             transform="translate(553.244963102 435.47422252)scale(0.24 -0.24)"
             id="g697">
            <use
               transform="translate(0.0 24.8232640781)scale(0.996264009963)"
               xlink:href="#CMR17-114"
               id="use699" />
            <use
               transform="translate(65.3567341464 24.8232640781)scale(0.996264009963)"
               xlink:href="#CMR17-91"
               id="use701" />
            <use
               transform="translate(90.2277926282 24.8232640781)scale(0.996264009963)"
               xlink:href="#CMR17-98"
               id="use703" />
            <use
               transform="translate(143.725601139 24.8232640781)scale(0.996264009963)"
               xlink:href="#CMR17-111"
               id="use705" />
            <use
               transform="translate(189.416078256 24.8232640781)scale(0.996264009963)"
               xlink:href="#CMR17-104"
               id="use707" />
            <use
               transform="translate(240.311448037 24.8232640781)scale(0.996264009963)"
               xlink:href="#CMR17-114"
               id="use709" />
            <use
               transform="translate(275.592215836 24.8232640781)scale(0.996264009963)"
               xlink:href="#CMR17-93"
               id="use711" />
          </g>
        </g>
      </g>
      <g
         id="patch_14">
        <path
           d=" M421.901 385.2 L756.701 385.2"
           style="fill:none;stroke:#000000;"
           id="path714" />
      </g>
      <g
         id="patch_15">
        <path
           d=" M421.901 385.2 L421.901 7.2"
           style="fill:none;stroke:#000000;"
           id="path717" />
      </g>
      <g
         id="patch_16">
        <path
           clip-path="url(#p5de7dd6b9f)"
           d=" M589.301 212.25 Q589.301 190.12 589.301 167.991"
           style="fill:none;stroke:#0000ff;stroke-linecap:round;"
           id="path720" />
        <path
           clip-path="url(#p5de7dd6b9f)"
           d=" M594.101 202.65 L589.301 212.25 L584.501 202.65 L594.101 202.65 z "
           style="fill:#0000ff;stroke:#0000ff;stroke-linecap:round;"
           id="path722" />
        <path
           clip-path="url(#p5de7dd6b9f)"
           d=" M584.501 177.591 L589.301 167.991 L594.101 177.591 L584.501 177.591 z "
           style="fill:#0000ff;stroke:#0000ff;stroke-linecap:round;"
           id="path724" />
      </g>
      <rect
         style="color:#000000;fill:#ffffff;fill-opacity:1;fill-rule:nonzero;stroke:none;stroke-width:1;marker:none;visibility:visible;display:inline;overflow:visible;enable-background:accumulate"
         id="rect3789-7-6"
         width="29.781445"
         height="29.445324"
         x="548.70209"
         y="173.77686" />
      <g
         id="text_39">
        <!-- $K_e'$   . -->
        <defs
           id="defs727">
          <path
             d=" M25.2969 47.5 C25.7969 48.7031 26.2031 49.5938 26.2031 50.5938 C26.2031 53.5 23.5938 55.9062 20.5 55.9062 C17.7031 55.9062 15.9062 54 15.2031 51.4062 L3.29688 7.70312 C3.29688 7.5 2.90625 6.40625 2.90625 6.29688 C2.90625 5.20312 5.5 4.5 6.29688 4.5 C6.90625 4.5 7 4.79688 7.59375 6.09375 z "
             id="CMSY10-48" />
          <path
             d=" M16.5938 4.07812 C16.5938 6.5625 14.5938 8.15625 12.5 8.15625 C10.5 8.15625 8.40625 6.5625 8.40625 4.07812 C8.40625 1.59375 10.4062 0 12.5 0 C14.5 0 16.5938 1.59375 16.5938 4.07812"
             id="CMR17-46" />
        </defs>
        <g
           style="fill:#0000ff;"
           transform="translate(548.101333622 202.064793913)scale(0.24 -0.24)"
           id="g731">
          <use
             transform="translate(0.0 24.629350142)scale(0.996264009963)"
             xlink:href="#CMMI12-75"
             id="use733" />
          <use
             transform="translate(90.1474208048 60.7829890839)scale(0.697381766617)"
             xlink:href="#CMSY10-48"
             id="use735" />
          <use
             transform="translate(82.9926107176 0.0)scale(0.697381766617)"
             xlink:href="#CMMI12-101"
             id="use737" />
        </g>
      </g>
      <g
         id="patch_17">
        <path
           clip-path="url(#p5de7dd6b9f)"
           d=" M591.301 149.727 Q610.226 149.727 628.033 149.727"
           style="fill:none;stroke:#0000ff;stroke-linecap:round;"
           id="path742" />
        <path
           clip-path="url(#p5de7dd6b9f)"
           d=" M618.433 144.927 L628.033 149.727 L618.433 154.527 L618.433 144.927 z "
           style="fill:#0000ff;stroke:#0000ff;stroke-linecap:round;"
           id="path744" />
      </g>
      <g
         id="patch_18">
        <path
           clip-path="url(#p5de7dd6b9f)"
           d=" M589.301 212.25 Q589.301 190.12 589.301 167.991"
           style="fill:none;stroke:#008000;stroke-linecap:round;"
           id="path747" />
        <path
           clip-path="url(#p5de7dd6b9f)"
           d=" M594.101 202.65 L589.301 212.25 L584.501 202.65 L594.101 202.65 z "
           style="fill:#008000;stroke:#008000;stroke-linecap:round;"
           id="path749" />
        <path
           clip-path="url(#p5de7dd6b9f)"
           d=" M584.501 177.591 L589.301 167.991 L594.101 177.591 L584.501 177.591 z "
           style="fill:#008000;stroke:#008000;stroke-linecap:round;"
           id="path751" />
      </g>
      <rect
         style="color:#000000;fill:#ffffff;fill-opacity:1;fill-rule:nonzero;stroke:none;stroke-width:1;marker:none;visibility:visible;display:inline;overflow:visible;enable-background:accumulate"
         id="rect3789-7-6-1"
         width="29.781445"
         height="29.445324"
         x="596.9754"
         y="174.7059" />
      <g
         id="text_40">
        <!-- .$K_e'$ -->
        <g
           style="fill:#008000;"
           transform="translate(589.300550548 202.064793913)scale(0.24 -0.24)"
           id="g754">
          <use
             transform="translate(24.8710584819 24.629350142)scale(0.996264009963)"
             xlink:href="#CMMI12-75"
             id="use758" />
          <use
             transform="translate(115.018479287 60.7829890839)scale(0.697381766617)"
             xlink:href="#CMSY10-48"
             id="use760" />
          <use
             transform="translate(107.863669199 0.0)scale(0.697381766617)"
             xlink:href="#CMMI12-101"
             id="use762" />
        </g>
      </g>
      <g
         id="patch_19">
        <path
           clip-path="url(#p5de7dd6b9f)"
           d=" M591.301 164.875 Q610.226 164.875 628.033 164.875"
           style="fill:none;stroke:#008000;stroke-linecap:round;"
           id="path765" />
        <path
           clip-path="url(#p5de7dd6b9f)"
           d=" M618.433 160.075 L628.033 164.875 L618.433 169.675 L618.433 160.075 z "
           style="fill:#008000;stroke:#008000;stroke-linecap:round;"
           id="path767" />
      </g>
      <g
         id="text_41">
        <!-- b) -->
        <g
           transform="translate(438.640550548 378.901675596)scale(0.24 -0.24)"
           id="g770">
          <use
             transform="translate(0.0 24.8232640781)scale(0.996264009963)"
             xlink:href="#CMR17-98"
             id="use772" />
          <use
             transform="translate(50.8953697803 24.8232640781)scale(0.996264009963)"
             xlink:href="#CMR17-41"
             id="use774" />
        </g>
      </g>
    </g>
  </g>
  <defs
     id="defs776">
    <clipPath
       id="p5de7dd6b9f">
      <rect
         height="378.0"
         width="334.8"
         x="421.900550548"
         y="7.2"
         id="rect779" />
    </clipPath>
    <clipPath
       id="p17c28643c0">
      <rect
         height="378.0"
         width="334.8"
         x="87.1005505478"
         y="7.2"
         id="rect782" />
    </clipPath>
  </defs>
  <defs
     id="defs784">
    <pattern
       height="72"
       id="h97499df24c"
       patternUnits="userSpaceOnUse"
       width="72"
       x="0"
       y="0">
      <rect
         fill="none"
         height="73"
         width="73"
         x="0"
         y="0"
         id="rect787" />
      <path
         d=" M-36 36 L36 -36 M-24 48 L48 -24 M-12 60 L60 -12 M0 72 L72 0 M12 84 L84 12 M24 96 L96 24 M36 108 L108 36"
         style="fill:#000000;stroke:#000000;stroke-linecap:butt;stroke-linejoin:miter;stroke-width:1.0;"
         id="path789" />
    </pattern>
  </defs>
</svg>
