<?xml version="1.0" encoding="utf-8" standalone="no"?>
<!DOCTYPE svg PUBLIC "-//W3C//DTD SVG 1.1//EN"
  "http://www.w3.org/Graphics/SVG/1.1/DTD/svg11.dtd">
<!-- Created with matplotlib (http://matplotlib.org/) -->
<svg height="395pt" version="1.1" viewBox="0 0 608 395" width="608pt" xmlns="http://www.w3.org/2000/svg" xmlns:xlink="http://www.w3.org/1999/xlink">
 <defs>
  <style type="text/css">
*{stroke-linecap:square;stroke-linejoin:round;}
  </style>
 </defs>
 <g id="figure_1">
  <g id="patch_1">
   <path d="
M0 395.836
L608.607 395.836
L608.607 0
L0 0
z
" style="fill:none;opacity:0.0;"/>
  </g>
  <g id="axes_1">
   <g id="patch_2">
    <path clip-path="url(#pae471e049b)" d="
M197.033 233.675
L199.894 242.257
L197.176 242.257
L197.176 305.188
L196.89 305.188
L196.89 242.257
L194.173 242.257
z
" style="stroke:#000000;stroke-width:3;"/>
   </g>
   <g id="patch_3">
    <path clip-path="url(#pae471e049b)" d="
M268.547 305.188
L259.965 308.049
L259.965 305.331
L197.033 305.331
L197.033 305.045
L259.965 305.045
L259.965 302.328
z
" style="stroke:#000000;stroke-width:3;"/>
   </g>
   <g id="patch_4">
    <path clip-path="url(#pae471e049b)" d="
M163.321 338.9
L167.367 330.809
L169.288 332.731
L196.932 305.087
L197.134 305.29
L169.491 332.933
L171.412 334.855
z
" style="stroke:#000000;stroke-width:3;"/>
   </g>
   <g id="line2d_1">
    <path clip-path="url(#pae471e049b)" d="
M125.52 376.702
L411.574 376.702" style="fill:none;stroke:#000000;stroke-width:3;"/>
    <defs>
     <path d="
M0 6
C1.59122 6 3.11748 5.3678 4.24264 4.24264
C5.3678 3.11748 6 1.59122 6 0
C6 -1.59122 5.3678 -3.11748 4.24264 -4.24264
C3.11748 -5.3678 1.59122 -6 0 -6
C-1.59122 -6 -3.11748 -5.3678 -4.24264 -4.24264
C-5.3678 -3.11748 -6 -1.59122 -6 0
C-6 1.59122 -5.3678 3.11748 -4.24264 4.24264
C-3.11748 5.3678 -1.59122 6 0 6
z
" id="m84070c25e2" style="stroke:#000000;stroke-linecap:butt;stroke-width:0.5;"/>
    </defs>
    <g clip-path="url(#pae471e049b)">
     <use style="stroke:#000000;stroke-linecap:butt;stroke-width:0.5;" x="125.51957062" xlink:href="#m84070c25e2" y="376.701970052"/>
     <use style="stroke:#000000;stroke-linecap:butt;stroke-width:0.5;" x="411.573624674" xlink:href="#m84070c25e2" y="376.701970052"/>
    </g>
   </g>
   <g id="line2d_2">
    <path clip-path="url(#pae471e049b)" d="
M411.574 376.702
L411.574 90.6479" style="fill:none;stroke:#000000;stroke-width:3;"/>
    <g clip-path="url(#pae471e049b)">
     <use style="stroke:#000000;stroke-linecap:butt;stroke-width:0.5;" x="411.573624674" xlink:href="#m84070c25e2" y="376.701970052"/>
     <use style="stroke:#000000;stroke-linecap:butt;stroke-width:0.5;" x="411.573624674" xlink:href="#m84070c25e2" y="90.6479159983"/>
    </g>
   </g>
   <g id="line2d_3">
    <path clip-path="url(#pae471e049b)" d="
M411.574 90.6479
L125.52 90.6479" style="fill:none;stroke:#000000;stroke-width:3;"/>
    <g clip-path="url(#pae471e049b)">
     <use style="stroke:#000000;stroke-linecap:butt;stroke-width:0.5;" x="411.573624674" xlink:href="#m84070c25e2" y="90.6479159983"/>
     <use style="stroke:#000000;stroke-linecap:butt;stroke-width:0.5;" x="125.51957062" xlink:href="#m84070c25e2" y="90.6479159983"/>
    </g>
   </g>
   <g id="line2d_4">
    <path clip-path="url(#pae471e049b)" d="
M411.574 90.6479
L483.087 19.1344" style="fill:none;stroke:#000000;stroke-width:3;"/>
    <g clip-path="url(#pae471e049b)">
     <use style="stroke:#000000;stroke-linecap:butt;stroke-width:0.5;" x="411.573624674" xlink:href="#m84070c25e2" y="90.6479159983"/>
     <use style="stroke:#000000;stroke-linecap:butt;stroke-width:0.5;" x="483.087138188" xlink:href="#m84070c25e2" y="19.1344024848"/>
    </g>
   </g>
   <g id="line2d_5">
    <path clip-path="url(#pae471e049b)" d="
M125.52 90.6479
L125.52 376.702" style="fill:none;stroke:#000000;stroke-width:3;"/>
    <g clip-path="url(#pae471e049b)">
     <use style="stroke:#000000;stroke-linecap:butt;stroke-width:0.5;" x="125.51957062" xlink:href="#m84070c25e2" y="90.6479159983"/>
     <use style="stroke:#000000;stroke-linecap:butt;stroke-width:0.5;" x="125.51957062" xlink:href="#m84070c25e2" y="376.701970052"/>
    </g>
   </g>
   <g id="line2d_6">
    <path clip-path="url(#pae471e049b)" d="
M411.574 376.702
L483.087 305.188" style="fill:none;stroke:#000000;stroke-width:3;"/>
    <g clip-path="url(#pae471e049b)">
     <use style="stroke:#000000;stroke-linecap:butt;stroke-width:0.5;" x="411.573624674" xlink:href="#m84070c25e2" y="376.701970052"/>
     <use style="stroke:#000000;stroke-linecap:butt;stroke-width:0.5;" x="483.087138188" xlink:href="#m84070c25e2" y="305.188456539"/>
    </g>
   </g>
   <g id="line2d_7">
    <path clip-path="url(#pae471e049b)" d="
M483.087 305.188
L483.087 19.1344" style="fill:none;stroke:#000000;stroke-width:3;"/>
    <g clip-path="url(#pae471e049b)">
     <use style="stroke:#000000;stroke-linecap:butt;stroke-width:0.5;" x="483.087138188" xlink:href="#m84070c25e2" y="305.188456539"/>
     <use style="stroke:#000000;stroke-linecap:butt;stroke-width:0.5;" x="483.087138188" xlink:href="#m84070c25e2" y="19.1344024848"/>
    </g>
   </g>
   <g id="line2d_8">
    <path clip-path="url(#pae471e049b)" d="
M483.087 19.1344
L197.033 19.1344" style="fill:none;stroke:#000000;stroke-width:3;"/>
    <g clip-path="url(#pae471e049b)">
     <use style="stroke:#000000;stroke-linecap:butt;stroke-width:0.5;" x="483.087138188" xlink:href="#m84070c25e2" y="19.1344024848"/>
     <use style="stroke:#000000;stroke-linecap:butt;stroke-width:0.5;" x="197.033084134" xlink:href="#m84070c25e2" y="19.1344024848"/>
    </g>
   </g>
   <g id="line2d_9">
    <path clip-path="url(#pae471e049b)" d="
M197.033 19.1344
L125.52 90.6479" style="fill:none;stroke:#000000;stroke-width:3;"/>
    <g clip-path="url(#pae471e049b)">
     <use style="stroke:#000000;stroke-linecap:butt;stroke-width:0.5;" x="197.033084134" xlink:href="#m84070c25e2" y="19.1344024848"/>
     <use style="stroke:#000000;stroke-linecap:butt;stroke-width:0.5;" x="125.51957062" xlink:href="#m84070c25e2" y="90.6479159983"/>
    </g>
   </g>
   <g id="line2d_10">
    <path clip-path="url(#pae471e049b)" d="
M125.52 376.702
L197.033 305.188" style="fill:none;opacity:0.4;stroke:#000000;stroke-width:3;"/>
    <defs>
     <path d="
M0 6
C1.59122 6 3.11748 5.3678 4.24264 4.24264
C5.3678 3.11748 6 1.59122 6 0
C6 -1.59122 5.3678 -3.11748 4.24264 -4.24264
C3.11748 -5.3678 1.59122 -6 0 -6
C-1.59122 -6 -3.11748 -5.3678 -4.24264 -4.24264
C-5.3678 -3.11748 -6 -1.59122 -6 0
C-6 1.59122 -5.3678 3.11748 -4.24264 4.24264
C-3.11748 5.3678 -1.59122 6 0 6
z
" id="m4c044d8d00" style="stroke:#000000;stroke-linecap:butt;stroke-width:0.5;"/>
    </defs>
    <g clip-path="url(#pae471e049b)">
     <use style="opacity:0.4;stroke:#000000;stroke-linecap:butt;stroke-width:0.5;" x="125.51957062" xlink:href="#m4c044d8d00" y="376.701970052"/>
     <use style="opacity:0.4;stroke:#000000;stroke-linecap:butt;stroke-width:0.5;" x="197.033084134" xlink:href="#m4c044d8d00" y="305.188456539"/>
    </g>
   </g>
   <g id="line2d_11">
    <path clip-path="url(#pae471e049b)" d="
M197.033 305.188
L483.087 305.188" style="fill:none;opacity:0.4;stroke:#000000;stroke-width:3;"/>
    <g clip-path="url(#pae471e049b)">
     <use style="opacity:0.4;stroke:#000000;stroke-linecap:butt;stroke-width:0.5;" x="197.033084134" xlink:href="#m4c044d8d00" y="305.188456539"/>
     <use style="opacity:0.4;stroke:#000000;stroke-linecap:butt;stroke-width:0.5;" x="483.087138188" xlink:href="#m4c044d8d00" y="305.188456539"/>
    </g>
   </g>
   <g id="line2d_12">
    <path clip-path="url(#pae471e049b)" d="
M197.033 305.188
L197.033 19.1344" style="fill:none;opacity:0.4;stroke:#000000;stroke-width:3;"/>
    <g clip-path="url(#pae471e049b)">
     <use style="opacity:0.4;stroke:#000000;stroke-linecap:butt;stroke-width:0.5;" x="197.033084134" xlink:href="#m4c044d8d00" y="305.188456539"/>
     <use style="opacity:0.4;stroke:#000000;stroke-linecap:butt;stroke-width:0.5;" x="197.033084134" xlink:href="#m4c044d8d00" y="19.1344024848"/>
    </g>
   </g>
   <g id="line2d_13">
    <defs>
     <path d="
M0 7
C1.85642 7 3.63706 6.26244 4.94975 4.94975
C6.26244 3.63706 7 1.85642 7 0
C7 -1.85642 6.26244 -3.63706 4.94975 -4.94975
C3.63706 -6.26244 1.85642 -7 0 -7
C-1.85642 -7 -3.63706 -6.26244 -4.94975 -4.94975
C-6.26244 -3.63706 -7 -1.85642 -7 0
C-7 1.85642 -6.26244 3.63706 -4.94975 4.94975
C-3.63706 6.26244 -1.85642 7 0 7
z
" id="mb691c48749" style="stroke:#008000;stroke-linecap:butt;stroke-width:0.5;"/>
    </defs>
    <g clip-path="url(#pae471e049b)">
     <use style="fill:#008000;stroke:#008000;stroke-linecap:butt;stroke-width:0.5;" x="197.033084134" xlink:href="#mb691c48749" y="305.188456539"/>
    </g>
   </g>
   <g id="matplotlib.axis_1"/>
   <g id="matplotlib.axis_2"/>
   <g id="text_1">
    <!-- x -->
    <defs>
     <path d="
M26 23.0938
C29 26.9844 32.4062 31.3594 35.2031 34.625
C38.5 38.4062 42.2969 40 46.7031 40
L46.7031 42.5938
C45 42.5938 41.5 42.5938 39.7031 42.5938
C37 42.5938 33.9062 42.5938 31.5938 42.6875
L31.5938 40.0938
C33 39.8906 33.7969 38.8906 33.7969 37.5
C33.7969 35.7031 32.7969 34.6094 32.2969 33.9219
L24.9062 24.5781
L16.0938 36.0312
C15.2031 37.125 15.2031 37.3125 15.2031 37.8125
C15.2031 39.0156 16.2031 40 17.9062 40
L17.9062 42.6875
C15.5 42.5938 11.2031 42.5938 8.70312 42.5938
C6 42.5938 2.79688 42.5938 0.59375 42.6875
L0.59375 40
C6 40 7.20312 39.5938 9.59375 36.6094
L21.0938 21.7969
C21.2969 21.5938 21.7969 21 21.7969 20.7031
C21.7969 20.2969 13.0938 9.67188 12 8.28125
C7.5 2.89062 2.79688 2.5 0.09375 2.5
L0.09375 0
C1.79688 0 5.29688 0 7.09375 0
C9.09375 0 13.5 0 15.2969 -0.09375
L15.2969 2.5
C14.7031 2.59375 13.0938 2.79688 13.0938 5.07812
C13.0938 6.875 13.9062 7.96875 14.7969 9.15625
L23.0938 19.3125
L31.7969 8
C32.5938 6.90625 33.7969 5.40625 33.7969 4.70312
C33.7969 3.29688 32.5938 2.5 31 2.5
L31 -0.09375
C33.4062 0 37.7031 0 40.2031 0
C42.9062 0 46.0938 0 48.2969 -0.09375
L48.2969 2.5
C43.2969 2.5 41.7969 2.6875 39.4062 5.78125
z
" id="CMR17-120"/>
    </defs>
    <g transform="translate(247.092543593 301.612780863)scale(0.24 -0.24)">
     <use transform="scale(0.996264009963)" xlink:href="#CMR17-120"/>
    </g>
   </g>
   <g id="text_2">
    <!-- y -->
    <defs>
     <path d="
M39 34.3281
C41.5 40.4062 46 40.4062 47.4062 40.4062
L47.4062 43
C45.5 43 43 43 41.0938 43
C39 43 35.7031 43 33.7031 43.0938
L33.7031 40.5
C37.5 40.2031 37.5938 37.4062 37.5938 36.6094
C37.5938 35.625 37.4062 35.125 36.9062 33.9219
L26 7.01562
L14.0938 36.0312
C13.5938 37.2188 13.5938 37.9062 13.5938 38.0156
C13.5938 40.2031 15.9062 40.4062 18.2969 40.4062
L18.2969 43.0938
C15.9062 43 11.5938 43 9.09375 43
C6.40625 43 3.20312 43 1 43.0938
L1 40.4062
C6.40625 40.4062 7 39.9062 8.29688 36.7188
L23.2031 0.234375
C18.7031 -11.5312 16.0938 -18.4062 9.79688 -18.4062
C8.70312 -18.4062 6.20312 -18.1094 4.40625 -16.3125
C6.70312 -16.1094 7.70312 -14.7188 7.70312 -13.0156
C7.70312 -11.3281 6.5 -9.82812 4.5 -9.82812
C2.29688 -9.82812 1.20312 -11.3281 1.20312 -13.125
C1.20312 -17.1094 5.29688 -20 9.79688 -20
C15.5938 -20 19.2031 -14.4062 21.2031 -9.4375
z
" id="CMR17-121"/>
    </defs>
    <g transform="translate(182.730381431 266.931105723)scale(0.24 -0.24)">
     <use transform="translate(0.0 19.3781832532)scale(0.996264009963)" xlink:href="#CMR17-121"/>
    </g>
   </g>
   <g id="text_3">
    <!-- z -->
    <defs>
     <path d="
M36.0938 40.7031
C36.9062 41.7188 36.9062 41.9062 36.9062 42.1094
C36.9062 43 36.5 43 34.7031 43
L4.29688 43
L3.29688 27.5
L5.09375 27.5
C5.79688 37.2031 6.90625 41.4062 18.4062 41.4062
L30.5938 41.4062
L2 1.5
C2 0.09375 2.09375 0 4.20312 0
L35.7969 0
L37.2031 18
L35.4062 18
C34.5938 6.90625 33.2969 1.79688 21.0938 1.79688
L8.29688 1.79688
z
" id="CMR17-122"/>
    </defs>
    <g transform="translate(182.730381431 333.793861944)scale(0.24 -0.24)">
     <use transform="scale(0.996264009963)" xlink:href="#CMR17-122"/>
    </g>
   </g>
   <g id="text_4">
    <!-- (i,j,k+1) -->
    <defs>
     <path d="
M37.7031 23.5156
L64.2031 23.5156
C65.5938 23.5156 67.2969 23.5156 67.2969 25.2031
C67.2969 27 65.7031 27 64.2031 27
L37.7031 27
L37.7031 53.3281
C37.7031 54.7188 37.7031 56.4219 36 56.4219
C34.2031 56.4219 34.2031 54.8281 34.2031 53.3281
L34.2031 27
L7.70312 27
C6.29688 27 4.59375 27 4.59375 25.3125
C4.59375 23.5156 6.20312 23.5156 7.70312 23.5156
L34.2031 23.5156
L34.2031 -2.90625
C34.2031 -4.29688 34.2031 -6 35.9062 -6
C37.7031 -6 37.7031 -4.40625 37.7031 -2.90625
z
" id="CMR17-43"/>
     <path d="
M26.2969 24.6719
C26.2969 31.8438 25.5938 43.9844 19.5938 56.8281
C14.7969 67.1875 6.59375 74.4531 5.40625 74.4531
C5.09375 74.4531 4.70312 74.3438 4.70312 73.8438
C4.70312 73.6562 4.79688 73.5469 4.90625 73.3438
C9.70312 68.375 21.9062 55.7344 21.9062 24.7812
C21.9062 -6.28125 9.79688 -18.9219 4.90625 -23.9062
C4.79688 -24.0938 4.70312 -24.2031 4.70312 -24.3906
C4.70312 -24.8906 5.09375 -25 5.40625 -25
C6.5 -25 15 -17.625 19.9062 -6.67188
C24.9062 4.375 26.2969 15.125 26.2969 24.6719" id="CMR17-41"/>
     <path d="
M18.2031 61.9219
C18.2031 64.1094 16.4062 66 14.0938 66
C11.9062 66 10 64.2188 10 61.9219
C10 59.7344 11.7969 57.8438 14.0938 57.8438
C16.2969 57.8438 18.2031 59.6406 18.2031 61.9219
M5.70312 43.0312
L5.70312 40.4375
C12.2969 40.4375 13.0938 39.7344 13.0938 34.9219
L13.0938 -5.60938
C13.0938 -10.5938 12.2031 -18.4062 6.29688 -18.4062
C5.59375 -18.4062 2.90625 -18.4062 0.703125 -16.9062
C1.40625 -16.7969 3.90625 -16.1094 3.90625 -13.2969
C3.90625 -11.3906 2.59375 -9.70312 0.296875 -9.70312
C-1.90625 -9.70312 -3.29688 -11.2031 -3.29688 -13.4062
C-3.29688 -17.4062 1.09375 -20 6.20312 -20
C13.0938 -20 18.2031 -13.7031 18.2031 -5.1875
L18.2031 44.1406
z
" id="CMR17-106"/>
     <path d="
M15.5 61.0781
C15.5 63.2656 13.7031 65.1562 11.4062 65.1562
C9.20312 65.1562 7.29688 63.375 7.29688 61.0781
C7.29688 58.8906 9.09375 57 11.4062 57
C13.5938 57 15.5 58.7969 15.5 61.0781
M3.79688 42.2812
L3.79688 39.7031
C9.40625 39.7031 10.2031 39.0938 10.2031 34.3281
L10.2031 6.67188
C10.2031 2.875 9.79688 2.39062 3.40625 2.39062
L3.40625 -0.203125
C5.79688 0 10.0938 0 12.5938 0
C15 0 19.0938 0 21.4062 -0.203125
L21.4062 2.39062
C15.5 2.39062 15.2969 2.98438 15.2969 6.5625
L15.2969 43.375
z
" id="CMR17-105"/>
     <path d="
M26.0938 26.1406
C26 26.3438 25.5 26.9375 25.5 27.2344
C25.5 27.4375 32.5938 33.9219 33.5 34.7188
C39.2031 39.5 42.7969 40 45.4062 40
L45.4062 42.6875
C44.7969 42.6875 44.5938 42.6875 44.5 42.6875
L39.5938 42.6875
C36.7969 42.6875 32.5 42.6875 29.7969 42.6875
L29.7969 40.0938
C31.2031 39.9844 32.2031 39.1875 32.2031 37.7969
C32.2031 35.8125 30.2031 33.9219 30.0938 33.9219
L15 20.1562
L15 68.6875
L3.09375 67.5938
L3.09375 65
C9 65 9.90625 64.4062 9.90625 59.6406
L9.90625 6.65625
C9.90625 2.875 9.5 2.39062 3.09375 2.39062
L3.09375 -0.203125
C5.5 0 9.90625 0 12.4062 0
C14.9062 0 19.2969 0 21.7031 -0.203125
L21.7031 2.39062
C15.2969 2.39062 14.9062 2.78125 14.9062 6.6875
L14.9062 17.6562
L21.7969 23.9375
L31.9062 8.96875
C33.0938 7.17188 34.0938 5.76562 34.0938 4.46875
C34.0938 2.6875 32.2969 2.39062 31.0938 2.39062
L31.0938 -0.203125
C33.5 0 37.7969 0 40.2969 0
C42.0938 0 45.7969 0 47.5 0
L47.5 2.39062
C42.7969 2.39062 41.7031 3.28125 38.7031 7.67188
z
" id="CMR17-107"/>
     <path d="
M30.5938 -24.3906
C30.5938 -24.2969 30.5938 -24.0938 30.2969 -23.7969
C25.7031 -19.125 13.4062 -6.375 13.4062 24.6875
C13.4062 55.75 25.5 68.3906 30.4062 73.3594
C30.4062 73.4688 30.5938 73.6719 30.5938 73.9531
C30.5938 74.25 30.2969 74.4531 29.9062 74.4531
C28.7969 74.4531 20.2969 67.0781 15.4062 56.125
C10.4062 45.0781 9 34.3281 9 24.7812
C9 17.6094 9.70312 5.46875 15.7031 -7.375
C20.5 -17.7344 28.7031 -25 29.9062 -25
C30.4062 -25 30.5938 -24.7969 30.5938 -24.3906" id="CMR17-40"/>
     <path d="
M15.7969 1.59375
C16 0.6875 16 0.375 16 -1.21875
C16 -7.25 14 -12.7656 9.79688 -17.7969
C9.29688 -18.2812 9.29688 -18.4844 9.29688 -18.7031
C9.29688 -19.0938 9.70312 -19.5 10.0938 -19.5
C10.7031 -19.5 17.5938 -12.4844 17.5938 -1.35938
C17.5938 1.9375 17.2031 8.15625 12.5 8.15625
C10.2969 8.15625 8.40625 6.67188 8.40625 4.07812
C8.40625 1.5 10.2969 0 12.5 0
C13.7031 0 15 0.5 15.7969 1.59375" id="CMR17-44"/>
     <path d="
M26.5938 63.3125
C26.5938 65.4062 26.5 65.5 25.0938 65.5
C21.2031 61.1875 15.2969 59.7969 9.70312 59.7969
C9.40625 59.7969 8.90625 59.7969 8.79688 59.5
C8.70312 59.2969 8.70312 59.0938 8.70312 57
C11.7969 57 17 57.5938 21 59.9844
L21 7.20312
C21 3.6875 20.7969 2.5 12.2031 2.5
L9.20312 2.5
L9.20312 0
C14 0 19 0 23.7969 0
C28.5938 0 33.5938 0 38.4062 0
L38.4062 2.5
L35.4062 2.5
C26.7969 2.5 26.5938 3.59375 26.5938 7.15625
z
" id="CMR17-49"/>
    </defs>
    <g transform="translate(35.3772637278 388.636372537)scale(0.24 -0.24)">
     <use transform="translate(0.0 24.8232640781)scale(0.996264009963)" xlink:href="#CMR17-40"/>
     <use transform="translate(35.2807677995 24.8232640781)scale(0.996264009963)" xlink:href="#CMR17-105"/>
     <use transform="translate(60.1518262813 24.8232640781)scale(0.996264009963)" xlink:href="#CMR17-44"/>
     <use transform="translate(85.0228847632 24.8232640781)scale(0.996264009963)" xlink:href="#CMR17-106"/>
     <use transform="translate(112.496397178 24.8232640781)scale(0.996264009963)" xlink:href="#CMR17-44"/>
     <use transform="translate(137.367455659 24.8232640781)scale(0.996264009963)" xlink:href="#CMR17-107"/>
     <use transform="translate(185.660371507 24.8232640781)scale(0.996264009963)" xlink:href="#CMR17-43"/>
     <use transform="translate(257.375159923 24.8232640781)scale(0.996264009963)" xlink:href="#CMR17-49"/>
     <use transform="translate(303.06563704 24.8232640781)scale(0.996264009963)" xlink:href="#CMR17-41"/>
    </g>
   </g>
   <g id="text_5">
    <!-- (i+1,j,k+1) -->
    <g transform="translate(420.512813863 388.636372537)scale(0.24 -0.24)">
     <use transform="translate(0.0 24.8232640781)scale(0.996264009963)" xlink:href="#CMR17-40"/>
     <use transform="translate(35.2807677995 24.8232640781)scale(0.996264009963)" xlink:href="#CMR17-105"/>
     <use transform="translate(60.1518262813 24.8232640781)scale(0.996264009963)" xlink:href="#CMR17-43"/>
     <use transform="translate(131.866614697 24.8232640781)scale(0.996264009963)" xlink:href="#CMR17-49"/>
     <use transform="translate(177.557091814 24.8232640781)scale(0.996264009963)" xlink:href="#CMR17-44"/>
     <use transform="translate(202.428150296 24.8232640781)scale(0.996264009963)" xlink:href="#CMR17-106"/>
     <use transform="translate(229.90166271 24.8232640781)scale(0.996264009963)" xlink:href="#CMR17-44"/>
     <use transform="translate(254.772721192 24.8232640781)scale(0.996264009963)" xlink:href="#CMR17-107"/>
     <use transform="translate(303.06563704 24.8232640781)scale(0.996264009963)" xlink:href="#CMR17-43"/>
     <use transform="translate(374.780425455 24.8232640781)scale(0.996264009963)" xlink:href="#CMR17-49"/>
     <use transform="translate(420.470902572 24.8232640781)scale(0.996264009963)" xlink:href="#CMR17-41"/>
    </g>
   </g>
   <g id="text_6">
    <!-- (i,j+1,k+1) -->
    <g transform="translate(7.2 102.582318483)scale(0.24 -0.24)">
     <use transform="translate(0.0 24.8232640781)scale(0.996264009963)" xlink:href="#CMR17-40"/>
     <use transform="translate(35.2807677995 24.8232640781)scale(0.996264009963)" xlink:href="#CMR17-105"/>
     <use transform="translate(60.1518262813 24.8232640781)scale(0.996264009963)" xlink:href="#CMR17-44"/>
     <use transform="translate(85.0228847632 24.8232640781)scale(0.996264009963)" xlink:href="#CMR17-106"/>
     <use transform="translate(112.496397178 24.8232640781)scale(0.996264009963)" xlink:href="#CMR17-43"/>
     <use transform="translate(184.211185593 24.8232640781)scale(0.996264009963)" xlink:href="#CMR17-49"/>
     <use transform="translate(229.90166271 24.8232640781)scale(0.996264009963)" xlink:href="#CMR17-44"/>
     <use transform="translate(254.772721192 24.8232640781)scale(0.996264009963)" xlink:href="#CMR17-107"/>
     <use transform="translate(303.06563704 24.8232640781)scale(0.996264009963)" xlink:href="#CMR17-43"/>
     <use transform="translate(374.780425455 24.8232640781)scale(0.996264009963)" xlink:href="#CMR17-49"/>
     <use transform="translate(420.470902572 24.8232640781)scale(0.996264009963)" xlink:href="#CMR17-41"/>
    </g>
   </g>
   <g id="text_7">
    <!-- (i+1,j+1,k+1) -->
    <g transform="translate(420.512813863 102.582318483)scale(0.24 -0.24)">
     <use transform="translate(0.0 24.8232640781)scale(0.996264009963)" xlink:href="#CMR17-40"/>
     <use transform="translate(35.2807677995 24.8232640781)scale(0.996264009963)" xlink:href="#CMR17-105"/>
     <use transform="translate(60.1518262813 24.8232640781)scale(0.996264009963)" xlink:href="#CMR17-43"/>
     <use transform="translate(131.866614697 24.8232640781)scale(0.996264009963)" xlink:href="#CMR17-49"/>
     <use transform="translate(177.557091814 24.8232640781)scale(0.996264009963)" xlink:href="#CMR17-44"/>
     <use transform="translate(202.428150296 24.8232640781)scale(0.996264009963)" xlink:href="#CMR17-106"/>
     <use transform="translate(229.90166271 24.8232640781)scale(0.996264009963)" xlink:href="#CMR17-43"/>
     <use transform="translate(301.616451126 24.8232640781)scale(0.996264009963)" xlink:href="#CMR17-49"/>
     <use transform="translate(347.306928243 24.8232640781)scale(0.996264009963)" xlink:href="#CMR17-44"/>
     <use transform="translate(372.177986725 24.8232640781)scale(0.996264009963)" xlink:href="#CMR17-107"/>
     <use transform="translate(420.470902572 24.8232640781)scale(0.996264009963)" xlink:href="#CMR17-43"/>
     <use transform="translate(492.185690988 24.8232640781)scale(0.996264009963)" xlink:href="#CMR17-49"/>
     <use transform="translate(537.876168105 24.8232640781)scale(0.996264009963)" xlink:href="#CMR17-41"/>
    </g>
   </g>
   <g id="text_8">
    <!-- (i,j,k) -->
    <g transform="translate(135.068040969 317.122859024)scale(0.24 -0.24)">
     <use transform="translate(0.0 24.8232640781)scale(0.996264009963)" xlink:href="#CMR17-40"/>
     <use transform="translate(35.2807677995 24.8232640781)scale(0.996264009963)" xlink:href="#CMR17-105"/>
     <use transform="translate(60.1518262813 24.8232640781)scale(0.996264009963)" xlink:href="#CMR17-44"/>
     <use transform="translate(85.0228847632 24.8232640781)scale(0.996264009963)" xlink:href="#CMR17-106"/>
     <use transform="translate(112.496397178 24.8232640781)scale(0.996264009963)" xlink:href="#CMR17-44"/>
     <use transform="translate(137.367455659 24.8232640781)scale(0.996264009963)" xlink:href="#CMR17-107"/>
     <use transform="translate(185.660371507 24.8232640781)scale(0.996264009963)" xlink:href="#CMR17-41"/>
    </g>
   </g>
   <g id="text_9">
    <!-- (i+1,j,k+1) -->
    <g transform="translate(492.026327377 317.122859024)scale(0.24 -0.24)">
     <use transform="translate(0.0 24.8232640781)scale(0.996264009963)" xlink:href="#CMR17-40"/>
     <use transform="translate(35.2807677995 24.8232640781)scale(0.996264009963)" xlink:href="#CMR17-105"/>
     <use transform="translate(60.1518262813 24.8232640781)scale(0.996264009963)" xlink:href="#CMR17-43"/>
     <use transform="translate(131.866614697 24.8232640781)scale(0.996264009963)" xlink:href="#CMR17-49"/>
     <use transform="translate(177.557091814 24.8232640781)scale(0.996264009963)" xlink:href="#CMR17-44"/>
     <use transform="translate(202.428150296 24.8232640781)scale(0.996264009963)" xlink:href="#CMR17-106"/>
     <use transform="translate(229.90166271 24.8232640781)scale(0.996264009963)" xlink:href="#CMR17-44"/>
     <use transform="translate(254.772721192 24.8232640781)scale(0.996264009963)" xlink:href="#CMR17-107"/>
     <use transform="translate(303.06563704 24.8232640781)scale(0.996264009963)" xlink:href="#CMR17-43"/>
     <use transform="translate(374.780425455 24.8232640781)scale(0.996264009963)" xlink:href="#CMR17-49"/>
     <use transform="translate(420.470902572 24.8232640781)scale(0.996264009963)" xlink:href="#CMR17-41"/>
    </g>
   </g>
   <g id="text_10">
    <!-- (i,j+1,k) -->
    <g transform="translate(106.890777241 31.0688049696)scale(0.24 -0.24)">
     <use transform="translate(0.0 24.8232640781)scale(0.996264009963)" xlink:href="#CMR17-40"/>
     <use transform="translate(35.2807677995 24.8232640781)scale(0.996264009963)" xlink:href="#CMR17-105"/>
     <use transform="translate(60.1518262813 24.8232640781)scale(0.996264009963)" xlink:href="#CMR17-44"/>
     <use transform="translate(85.0228847632 24.8232640781)scale(0.996264009963)" xlink:href="#CMR17-106"/>
     <use transform="translate(112.496397178 24.8232640781)scale(0.996264009963)" xlink:href="#CMR17-43"/>
     <use transform="translate(184.211185593 24.8232640781)scale(0.996264009963)" xlink:href="#CMR17-49"/>
     <use transform="translate(229.90166271 24.8232640781)scale(0.996264009963)" xlink:href="#CMR17-44"/>
     <use transform="translate(254.772721192 24.8232640781)scale(0.996264009963)" xlink:href="#CMR17-107"/>
     <use transform="translate(303.06563704 24.8232640781)scale(0.996264009963)" xlink:href="#CMR17-41"/>
    </g>
   </g>
   <g id="text_11">
    <!-- (i+1,j+1,k) -->
    <g transform="translate(492.026327377 31.0688049696)scale(0.24 -0.24)">
     <use transform="translate(0.0 24.8232640781)scale(0.996264009963)" xlink:href="#CMR17-40"/>
     <use transform="translate(35.2807677995 24.8232640781)scale(0.996264009963)" xlink:href="#CMR17-105"/>
     <use transform="translate(60.1518262813 24.8232640781)scale(0.996264009963)" xlink:href="#CMR17-43"/>
     <use transform="translate(131.866614697 24.8232640781)scale(0.996264009963)" xlink:href="#CMR17-49"/>
     <use transform="translate(177.557091814 24.8232640781)scale(0.996264009963)" xlink:href="#CMR17-44"/>
     <use transform="translate(202.428150296 24.8232640781)scale(0.996264009963)" xlink:href="#CMR17-106"/>
     <use transform="translate(229.90166271 24.8232640781)scale(0.996264009963)" xlink:href="#CMR17-43"/>
     <use transform="translate(301.616451126 24.8232640781)scale(0.996264009963)" xlink:href="#CMR17-49"/>
     <use transform="translate(347.306928243 24.8232640781)scale(0.996264009963)" xlink:href="#CMR17-44"/>
     <use transform="translate(372.177986725 24.8232640781)scale(0.996264009963)" xlink:href="#CMR17-107"/>
     <use transform="translate(420.470902572 24.8232640781)scale(0.996264009963)" xlink:href="#CMR17-41"/>
    </g>
   </g>
   <g id="text_12">
    <!-- $\psi_{i,j,k}$ -->
    <defs>
     <path d="
M47 66.625
C47 66.7188 47.4062 68 47.4062 68.1094
C47.4062 69 46.5938 69 46.2969 69
C45.4062 69 45.2969 68.5 44.9062 67.0156
L28.4062 1.20312
C20.0938 2.20312 17 6.39062 17 12.375
C17 14.5625 17 16.8594 21.7031 29.2344
C23 32.8281 23.5 34.125 23.5 35.9219
C23.5 40.4062 20.2969 44 15.5938 44
C6.40625 44 2.70312 29.5312 2.70312 28.7344
C2.70312 28.3438 3.09375 27.8438 3.79688 27.8438
C4.70312 27.8438 4.79688 28.2344 5.20312 29.625
C7.59375 38.2344 11.5938 41.9062 15.2969 41.9062
C16.2031 41.9062 17.9062 41.9062 17.9062 38.7188
C17.9062 38.3125 17.9062 36.125 16.2031 31.7344
C10.7969 17.5469 10.7969 15.3594 10.7969 13.0625
C10.7969 3.48438 18.7969 -0.21875 27.7969 -0.90625
C27 -4.01562 26.2969 -7.25 25.5 -10.3594
C23.9062 -16.375 23.2031 -19.1875 23.2031 -19.5938
C23.2031 -20.5 24 -20.5 24.2969 -20.5
C24.5 -20.5 24.9062 -20.5 25.0938 -20.0938
C25.5 -19.7031 29.5938 -2.8125 30 -1
C33.7031 -1 41.5938 -1 50.5938 8.28125
C53.9062 11.875 56.9062 16.4688 58.5938 20.75
C59.5938 23.3438 62 32.2344 62 37.3281
C62 43.3125 59 44 58 44
C55.5938 44 53.4062 41.6094 53.4062 39.6094
C53.4062 38.4219 54.0938 37.7188 54.5 37.3281
C55.4062 36.4219 58.0938 33.7344 58.0938 28.5469
C58.0938 24.9531 56.0938 17.5625 49.7031 10.375
C41.2969 1 33.5938 1 30.5938 1
z
" id="CMMI12-32"/>
     <path d="
M28.0938 66.5156
C28.2031 66.9219 28.4062 67.5156 28.4062 68
C28.4062 69 27.4062 69 27.2031 69
C27.0938 69 23.5 68.6406 21.7031 68.3906
C20 68.3906 18.5 68.0938 16.7031 68.0938
C14.2969 67.8906 13.5938 67.7969 13.5938 66
C13.5938 65 14.5938 65 15.5938 65
C20.7031 65 20.7031 64.0938 20.7031 63.0938
C20.7031 62.7188 20.7031 62.5156 20.2031 60.7188
L5.90625 3.875
C5.5 2.375 5.5 2.1875 5.5 1.57812
C5.5 -0.59375 7.20312 -1 8.20312 -1
C11 -1 11.5938 1.20312 12.4062 4.29688
L17.0938 22.9531
C24.2969 22.1562 28.5938 19.1562 28.5938 14.375
C28.5938 13.7656 28.5938 13.375 28.2969 11.875
C27.9062 10.375 27.9062 9.1875 27.9062 8.6875
C27.9062 2.89062 31.7031 -1 36.7969 -1
C41.4062 -1 43.7969 3.1875 44.5938 4.59375
C46.7031 8.28125 48 13.875 48 14.2656
C48 14.7656 47.5938 15.1719 47 15.1719
C46.0938 15.1719 46 14.7656 45.5938 13.1719
C44.2031 7.98438 42.0938 1 37 1
C35 1 33.7031 2 33.7031 5.78125
C33.7031 7.6875 34.0938 9.875 34.5 11.375
C34.9062 13.1719 34.9062 13.2656 34.9062 14.4688
C34.9062 20.3594 29.5938 23.6562 20.4062 24.8438
C24 27.0469 27.5938 30.9375 29 32.4375
C34.7031 38.8125 38.5938 42.0156 43.2031 42.0156
C45.5 42.0156 46.0938 41.4062 46.7969 40.8125
C43.0938 40.4062 41.7031 37.8125 41.7031 35.8281
C41.7031 33.4219 43.5938 32.625 45 32.625
C47.7031 32.625 50.0938 34.9219 50.0938 38.125
C50.0938 41.0156 47.7969 44 43.2969 44
C37.7969 44 33.2969 40.1094 26.2031 32.125
C25.2031 30.9375 21.5 27.1406 17.7969 25.75
z
" id="CMMI12-107"/>
     <path d="
M35 31.6875
C35.4062 33.2969 35.4062 34.6719 35.4062 35.0781
C35.4062 40.8281 31.0938 44 26.5938 44
C16.5 44 11.0938 29.5156 11.0938 28.8281
C11.0938 28.3281 11.5 27.9375 12.0938 27.9375
C12.9062 27.9375 13 28.3281 13.5 29.3125
C17.5 38.9375 22.5 42.0156 26.2969 42.0156
C28.4062 42.0156 29.5 40.9062 29.5 37.4531
C29.5 35.0781 29.2031 34.0781 28.7969 32.2969
L19.2969 -5.10938
C17.4062 -12.4375 12.7031 -18 7.20312 -18
C6.79688 -18 4.70312 -18 2.79688 -17
C5.20312 -16.5 7.09375 -14.625 7.09375 -12.25
C7.09375 -10.6562 5.90625 -9.0625 3.70312 -9.0625
C1.09375 -9.0625 -1.29688 -11.25 -1.29688 -14.2344
C-1.29688 -18.2969 3.09375 -20 7.20312 -20
C14.0938 -20 23.2031 -14.9375 25.7031 -5
z

M39.0938 62.7031
C39.0938 65.2031 37 66 35.7969 66
C33.0938 66 30.7969 63.4062 30.7969 61.2031
C30.7969 59.7188 32 57.9219 34.2031 57.9219
C36.5 57.9219 39.0938 60.1094 39.0938 62.7031" id="CMMI12-106"/>
     <path d="
M28.2969 14.2656
C28.2969 14.7656 27.9062 15.1719 27.2969 15.1719
C26.4062 15.1719 26.2969 14.875 25.7969 13.1719
C23.2031 4.09375 19.0938 1 15.7969 1
C14.5938 1 13.2031 1.29688 13.2031 4.29688
C13.2031 6.98438 14.4062 9.98438 15.5 12.9688
L22.5 31.5312
C22.7969 32.3281 23.5 34.125 23.5 36.0156
C23.5 40.2188 20.5 44 15.5938 44
C6.40625 44 2.70312 29.5312 2.70312 28.7344
C2.70312 28.3438 3.09375 27.8438 3.79688 27.8438
C4.70312 27.8438 4.79688 28.2344 5.20312 29.625
C7.59375 37.9375 11.4062 41.9062 15.2969 41.9062
C16.2031 41.9062 17.9062 41.9062 17.9062 38.7188
C17.9062 36.125 16.5938 32.8281 15.7969 30.6406
L8.79688 12.0781
C8.20312 10.4844 7.59375 8.875 7.59375 7.07812
C7.59375 2.59375 10.7031 -1 15.5 -1
C24.7031 -1 28.2969 13.5781 28.2969 14.2656
M27.5 62.7031
C27.5 64.2031 26.2969 66 24.0938 66
C21.7969 66 19.2031 63.7969 19.2031 61.2031
C19.2031 58.7188 21.2969 57.9219 22.5 57.9219
C25.2031 57.9219 27.5 60.5156 27.5 62.7031" id="CMMI12-105"/>
     <path d="
M19.5 -0.484375
C19.5 5.35938 17.5938 9.67188 13.5 9.67188
C10.2969 9.67188 8.70312 7.07812 8.70312 4.89062
C8.70312 2.6875 10.2031 0 13.5938 0
C14.9062 0 16 0.40625 16.9062 1.29688
C17.0938 1.5 17.2031 1.5 17.2969 1.5
C17.5 1.5 17.5 0.078125 17.5 -0.421875
C17.5 -3.75 16.9062 -10.2969 11.0938 -16.875
C10 -18.0781 10 -18.2812 10 -18.4844
C10 -19 10.5 -19.5 11 -19.5
C11.7969 -19.5 19.5 -12.0469 19.5 -0.484375" id="CMMI12-59"/>
    </defs>
    <g style="fill:#008000;" transform="translate(204.184435485 335.78515201)scale(0.24 -0.24)">
     <use transform="translate(0.0 28.5040564436)scale(0.996264009963)" xlink:href="#CMMI12-32"/>
     <use transform="translate(63.4188869377 13.5601418995)scale(0.697381766617)" xlink:href="#CMMI12-105"/>
     <use transform="translate(86.7137942189 13.5601418995)scale(0.697381766617)" xlink:href="#CMMI12-59"/>
     <use transform="translate(105.681726971 13.5601418995)scale(0.697381766617)" xlink:href="#CMMI12-106"/>
     <use transform="translate(134.061721669 13.5601418995)scale(0.697381766617)" xlink:href="#CMMI12-59"/>
     <use transform="translate(153.029654421 13.5601418995)scale(0.697381766617)" xlink:href="#CMMI12-107"/>
    </g>
   </g>
  </g>
 </g>
 <defs>
  <clipPath id="pae471e049b">
   <rect height="378.0" width="378.0" x="115.303354404" y="8.91818626861"/>
  </clipPath>
 </defs>
</svg>
