<?xml version="1.0" encoding="utf-8" standalone="no"?>
<!DOCTYPE svg PUBLIC "-//W3C//DTD SVG 1.1//EN"
  "http://www.w3.org/Graphics/SVG/1.1/DTD/svg11.dtd">
<!-- Created with matplotlib (http://matplotlib.org/) -->
<svg height="442pt" version="1.1" viewBox="0 0 725 442" width="725pt" xmlns="http://www.w3.org/2000/svg" xmlns:xlink="http://www.w3.org/1999/xlink">
 <defs>
  <style type="text/css">
*{stroke-linecap:square;stroke-linejoin:round;}
  </style>
 </defs>
 <g id="figure_1">
  <g id="patch_1">
   <path d="
M4.44089e-16 442.674
L725.698 442.674
L725.698 0
L4.44089e-16 0
z
" style="fill:none;opacity:0.0;"/>
  </g>
  <g id="axes_1">
   <g id="patch_2">
    <path d="
M87.1006 385.2
L366.101 385.2
L366.101 7.2
L87.1006 7.2
z
" style="fill:none;opacity:0.0;"/>
   </g>
   <g id="line2d_1">
    <path clip-path="url(#p7645076065)" d="
M87.1006 65.5027
L97.4339 67.037
L106.65 68.6285
L114.749 70.2435
L122.29 71.9726
L128.992 73.7339
L135.137 75.5751
L140.722 77.4776
L145.749 79.4146
L150.497 81.479
L154.965 83.6719
L158.875 85.828
L162.506 88.0657
L166.137 90.5721
L169.488 93.1686
L172.56 95.8316
L175.353 98.5295
L178.146 101.538
L180.659 104.559
L183.173 107.93
L185.407 111.271
L187.641 114.996
L189.875 119.173
L191.83 123.269
L193.785 127.853
L195.74 133.018
L197.695 138.881
L199.371 144.577
L201.046 151.02
L202.722 158.367
L204.398 166.823
L205.794 174.91
L207.191 184.161
L208.587 194.846
L209.983 207.327
L211.38 222.098
L212.497 236.021
L213.614 252.339
L214.731 271.728
L215.848 295.147
L216.965 323.996
L218.083 360.412
L218.641 382.453
M234.56 382.453
L235.677 341.084
L236.794 308.781
L237.911 282.859
L239.028 261.598
L240.146 243.843
L241.542 225.384
L242.938 210.079
L244.335 197.185
L245.731 186.174
L247.128 176.66
L248.803 166.823
L250.479 158.367
L252.155 151.02
L253.83 144.577
L255.785 137.996
L257.74 132.241
L259.695 127.165
L261.65 122.656
L263.884 118.082
L266.119 114.025
L268.353 110.402
L270.866 106.764
L273.38 103.516
L276.173 100.294
L278.965 97.4158
L282.037 94.5845
L285.11 92.0506
L288.461 89.5733
L292.092 87.1757
L296.001 84.8742
L300.191 82.6797
L304.659 80.5985
L309.407 78.6334
L314.713 76.6877
L320.299 74.8776
L326.443 73.1205
L333.146 71.4348
L340.686 69.7751
L348.785 68.2206
L358.001 66.6848
L366.101 65.5027
L366.101 65.5027" style="fill:none;stroke:#0000ff;stroke-width:3.0;"/>
   </g>
   <g id="line2d_2">
    <path clip-path="url(#p7645076065)" d="
M211.126 219.22
L242.075 219.22" style="fill:none;stroke:#bf00bf;stroke-width:3.0;"/>
   </g>
   <g id="line2d_3">
    <defs>
     <path d="
M0 7
C1.85642 7 3.63706 6.26244 4.94975 4.94975
C6.26244 3.63706 7 1.85642 7 0
C7 -1.85642 6.26244 -3.63706 4.94975 -4.94975
C3.63706 -6.26244 1.85642 -7 0 -7
C-1.85642 -7 -3.63706 -6.26244 -4.94975 -4.94975
C-6.26244 -3.63706 -7 -1.85642 -7 0
C-7 1.85642 -6.26244 3.63706 -4.94975 4.94975
C-3.63706 6.26244 -1.85642 7 0 7
z
" id="m04a53dd351" style="stroke:#000000;stroke-linecap:butt;stroke-width:0.5;"/>
    </defs>
    <g clip-path="url(#p7645076065)">
     <use style="fill:#008000;stroke:#000000;stroke-linecap:butt;stroke-width:0.5;" x="226.600550548" xlink:href="#m04a53dd351" y="219.220020237"/>
    </g>
   </g>
   <g id="line2d_4">
    <path clip-path="url(#p7645076065)" d="
M115.001 219.22
L119.134 219.003
L120.586 219.221
L123.937 219.877
L124.831 219.766
L125.725 219.445
L126.954 218.733
L128.518 217.83
L129.3 217.642
L129.97 217.729
L130.64 218.084
L131.31 218.704
L132.316 220.007
L133.88 222.069
L134.438 222.498
L134.885 222.627
L135.332 222.531
L135.779 222.19
L136.337 221.412
L137.008 220.013
L138.013 217.282
L139.242 214.04
L139.801 213.07
L140.247 212.681
L140.583 212.658
L140.918 212.886
L141.253 213.375
L141.7 214.431
L142.258 216.353
L143.04 219.908
L144.828 228.417
L145.386 230.006
L145.721 230.499
L145.945 230.61
L146.168 230.534
L146.503 230.061
L146.838 229.149
L147.285 227.271
L147.956 223.197
L148.961 215.269
L150.19 205.905
L150.748 203.048
L151.195 201.797
L151.419 201.57
L151.642 201.626
L151.865 201.974
L152.201 203.048
L152.647 205.486
L153.206 209.999
L153.988 218.366
L155.775 238.241
L156.334 242.039
L156.669 243.324
L156.892 243.715
L157.116 243.717
L157.339 243.32
L157.674 241.974
L158.121 238.822
L158.68 232.926
L159.462 221.983
L161.249 196.092
L161.808 191.101
L162.255 189.007
L162.478 188.665
L162.59 188.676
L162.813 189.068
L163.148 190.575
L163.595 194.232
L164.154 201.156
L164.936 214.026
L166.723 244.35
L167.282 250.236
L167.728 252.795
L167.952 253.284
L168.064 253.326
L168.287 252.999
L168.51 252.13
L168.846 249.838
L169.292 245.073
L169.963 234.914
L171.415 207.503
L172.309 193.367
L172.867 187.709
L173.202 185.808
L173.426 185.21
L173.649 185.156
L173.873 185.645
L174.208 187.373
L174.655 191.408
L175.213 198.814
L176.107 214.172
L177.447 237.285
L178.118 245.291
L178.565 248.489
L178.9 249.629
L179.123 249.775
L179.346 249.433
L179.682 248.032
L180.128 244.632
L180.687 238.313
L181.581 225.186
L182.921 205.514
L183.592 198.69
L184.038 195.918
L184.374 194.872
L184.597 194.675
L184.82 194.873
L185.044 195.454
L185.379 197.004
L185.826 200.199
L186.496 206.85
L188.842 232.175
L189.401 235.392
L189.847 236.676
L190.071 236.878
L190.294 236.792
L190.518 236.427
L190.853 235.392
L191.3 233.205
L191.97 228.614
L194.316 211.169
L194.874 208.939
L195.321 208.015
L195.656 207.83
L195.88 207.941
L196.215 208.435
L196.662 209.638
L197.332 212.345
L199.901 224.009
L200.46 225.257
L200.907 225.735
L201.242 225.794
L201.577 225.613
L202.024 225.04
L202.583 223.894
L203.588 221.158
L204.817 217.911
L205.487 216.671
L206.046 216.048
L206.492 215.831
L206.939 215.851
L207.386 216.082
L208.056 216.739
L209.174 218.273
L210.402 219.856
L211.184 220.505
L211.855 220.769
L212.525 220.773
L213.307 220.511
L214.424 219.852
L215.988 218.944
L216.993 218.627
L217.999 218.571
L219.228 218.771
L222.467 219.437
L224.031 219.441
L226.601 219.22
L226.601 219.22" style="fill:none;opacity:0.5;stroke:#ff0000;stroke-width:3.0;"/>
   </g>
   <g id="line2d_5">
    <defs>
     <path d="
M-15 15
L15 -15
M-15 -15
L15 15" id="m31aff6f551" style="stroke:#ff0000;stroke-linecap:butt;stroke-width:3;"/>
    </defs>
    <g clip-path="url(#p7645076065)">
     <use style="fill:#ff0000;stroke:#ff0000;stroke-linecap:butt;stroke-width:3;" x="226.600550548" xlink:href="#m31aff6f551" y="175.996067173"/>
    </g>
   </g>
   <g id="line2d_6">
    <path clip-path="url(#p7645076065)" d="
M87.1006 46.3242
L366.101 46.3242" style="fill:none;stroke:#000000;stroke-dasharray:1.000000,3.000000;stroke-dashoffset:0.0;stroke-linecap:butt;stroke-width:3.0;"/>
   </g>
   <g id="patch_3">
    <path d="
M87.1006 7.2
L366.101 7.2" style="fill:none;stroke:#000000;"/>
   </g>
   <g id="patch_4">
    <path d="
M366.101 385.2
L366.101 7.2" style="fill:none;stroke:#000000;"/>
   </g>
   <g id="matplotlib.axis_1">
    <g id="xtick_1">
     <g id="line2d_7">
      <defs>
       <path d="
M0 0
L0 -4" id="mcb557df647" style="stroke:#000000;stroke-linecap:butt;stroke-width:0.5;"/>
      </defs>
      <g>
       <use style="stroke:#000000;stroke-linecap:butt;stroke-width:0.5;" x="87.1005505478" xlink:href="#mcb557df647" y="385.2"/>
      </g>
     </g>
     <g id="text_1">
      <!-- $-20$ -->
      <defs>
       <path d="
M65.9062 23
C67.5938 23 69.4062 23 69.4062 25
C69.4062 27 67.5938 27 65.9062 27
L11.7969 27
C10.0938 27 8.29688 27 8.29688 25
C8.29688 23 10.0938 23 11.7969 23
z
" id="CMSY10-0"/>
       <path d="
M41.7031 15.4531
L39.9062 15.4531
C38.9062 8.375 38.0938 7.17188 37.7031 6.5625
C37.2031 5.76562 30 5.76562 28.5938 5.76562
L9.40625 5.76562
C13 9.67188 20 16.75 28.5 24.9531
C34.5938 30.7344 41.7031 37.5312 41.7031 47.4219
C41.7031 59.2188 32.2969 66 21.7969 66
C10.7969 66 4.09375 56.3125 4.09375 47.3438
C4.09375 43.4375 7 42.9375 8.20312 42.9375
C9.20312 42.9375 12.2031 43.5469 12.2031 47.0312
C12.2031 50.1094 9.59375 51 8.20312 51
C7.59375 51 7 50.9062 6.59375 50.7031
C8.5 59.2188 14.2969 63.4062 20.4062 63.4062
C29.0938 63.4062 34.7969 56.5156 34.7969 47.4219
C34.7969 38.7344 29.7031 31.25 24 24.75
L4.09375 2.28125
L4.09375 0
L39.2969 0
z
" id="CMR17-50"/>
       <path d="
M42 31.6406
C42 37.75 41.9062 48.125 37.7031 56.1094
C34 63.1094 28.0938 65.5938 22.9062 65.5938
C18.0938 65.5938 12 63.4062 8.20312 56.2031
C4.20312 48.7188 3.79688 39.4375 3.79688 31.6406
C3.79688 25.9531 3.90625 17.2812 7 9.67188
C11.2969 -0.609375 19 -2 22.9062 -2
C27.5 -2 34.5 -0.109375 38.5938 9.375
C41.5938 16.2812 42 24.3594 42 31.6406
M22.9062 -0.40625
C16.5 -0.40625 12.7031 5.07812 11.2969 12.6875
C10.2031 18.5625 10.2031 27.1562 10.2031 32.75
C10.2031 40.4375 10.2031 46.8281 11.5 52.9219
C13.4062 61.3906 19 64 22.9062 64
C27 64 32.2969 61.2969 34.2031 53.125
C35.5 47.4375 35.5938 40.7344 35.5938 32.75
C35.5938 26.25 35.5938 18.2656 34.4062 12.375
C32.2969 1.48438 26.4062 -0.40625 22.9062 -0.40625" id="CMR17-48"/>
      </defs>
      <g transform="translate(66.8363390095 406.60541755)scale(0.24 -0.24)">
       <use transform="translate(0.0 8.30225582289)scale(0.996264009963)" xlink:href="#CMSY10-0"/>
       <use transform="translate(77.4874676506 8.30225582289)scale(0.996264009963)" xlink:href="#CMR17-50"/>
       <use transform="translate(123.177944768 8.30225582289)scale(0.996264009963)" xlink:href="#CMR17-48"/>
      </g>
     </g>
    </g>
    <g id="xtick_2">
     <g id="line2d_8">
      <g>
       <use style="stroke:#000000;stroke-linecap:butt;stroke-width:0.5;" x="121.975550548" xlink:href="#mcb557df647" y="385.2"/>
      </g>
     </g>
     <g id="text_2">
      <!-- $-15$ -->
      <defs>
       <path d="
M26.5938 63.3125
C26.5938 65.4062 26.5 65.5 25.0938 65.5
C21.2031 61.1875 15.2969 59.7969 9.70312 59.7969
C9.40625 59.7969 8.90625 59.7969 8.79688 59.5
C8.70312 59.2969 8.70312 59.0938 8.70312 57
C11.7969 57 17 57.5938 21 59.9844
L21 7.20312
C21 3.6875 20.7969 2.5 12.2031 2.5
L9.20312 2.5
L9.20312 0
C14 0 19 0 23.7969 0
C28.5938 0 33.5938 0 38.4062 0
L38.4062 2.5
L35.4062 2.5
C26.7969 2.5 26.5938 3.59375 26.5938 7.15625
z
" id="CMR17-49"/>
       <path d="
M11.4062 57.6875
C12.4062 57.2812 16.5 56 20.7031 56
C30 56 35.0938 61.0156 38 63.9219
C38 64.7344 38 65.25 37.4062 65.25
C37.2969 65.25 37.0938 65.25 36.2969 64.8281
C32.7969 63.3125 28.7031 62.0781 23.7031 62.0781
C20.7031 62.0781 16.2031 62.5 11.2969 64.7344
C10.2031 65.25 10 65.25 9.90625 65.25
C9.40625 65.25 9.29688 65.1406 9.29688 63.1562
L9.29688 34.2812
C9.29688 32.5 9.29688 32 10.2969 32
C10.7969 32 11 32.2031 11.5 32.9062
C14.7031 37.4844 19.0938 39.4062 24.0938 39.4062
C27.5938 39.4062 35.0938 37.2188 35.0938 20.1406
C35.0938 16.9531 35.0938 11.1719 32.0938 6.57812
C29.5938 2.48438 25.7031 0.390625 21.4062 0.390625
C14.7969 0.390625 8.09375 5 6.29688 12.7188
C6.70312 12.6094 7.5 12.4219 7.90625 12.4219
C9.20312 12.4219 11.7031 13.125 11.7031 16.2188
C11.7031 18.9062 9.79688 20 7.90625 20
C5.59375 20 4.09375 18.5938 4.09375 15.7969
C4.09375 7.09375 11 -2 21.5938 -2
C31.9062 -2 41.7031 6.875 41.7031 19.75
C41.7031 31.7188 33.9062 41 24.2031 41
C19.0938 41 14.7969 39.0938 11.4062 35.4531
z
" id="CMR17-53"/>
      </defs>
      <g transform="translate(101.711339009 406.60541755)scale(0.24 -0.24)">
       <use transform="translate(0.0 8.30225582289)scale(0.996264009963)" xlink:href="#CMSY10-0"/>
       <use transform="translate(77.4874676506 8.30225582289)scale(0.996264009963)" xlink:href="#CMR17-49"/>
       <use transform="translate(123.177944768 8.30225582289)scale(0.996264009963)" xlink:href="#CMR17-53"/>
      </g>
     </g>
    </g>
    <g id="xtick_3">
     <g id="line2d_9">
      <g>
       <use style="stroke:#000000;stroke-linecap:butt;stroke-width:0.5;" x="156.850550548" xlink:href="#mcb557df647" y="385.2"/>
      </g>
     </g>
     <g id="text_3">
      <!-- $-10$ -->
      <g transform="translate(136.586339009 406.60541755)scale(0.24 -0.24)">
       <use transform="translate(0.0 8.30225582289)scale(0.996264009963)" xlink:href="#CMSY10-0"/>
       <use transform="translate(77.4874676506 8.30225582289)scale(0.996264009963)" xlink:href="#CMR17-49"/>
       <use transform="translate(123.177944768 8.30225582289)scale(0.996264009963)" xlink:href="#CMR17-48"/>
      </g>
     </g>
    </g>
    <g id="xtick_4">
     <g id="line2d_10">
      <g>
       <use style="stroke:#000000;stroke-linecap:butt;stroke-width:0.5;" x="191.725550548" xlink:href="#mcb557df647" y="385.2"/>
      </g>
     </g>
     <g id="text_4">
      <!-- $-5$ -->
      <g transform="translate(176.944196264 406.60541755)scale(0.24 -0.24)">
       <use transform="translate(0.0 8.30225582289)scale(0.996264009963)" xlink:href="#CMSY10-0"/>
       <use transform="translate(77.4874676506 8.30225582289)scale(0.996264009963)" xlink:href="#CMR17-53"/>
      </g>
     </g>
    </g>
    <g id="xtick_5">
     <g id="line2d_11">
      <g>
       <use style="stroke:#000000;stroke-linecap:butt;stroke-width:0.5;" x="226.600550548" xlink:href="#mcb557df647" y="385.2"/>
      </g>
     </g>
     <g id="text_5">
      <!-- $0$ -->
      <g transform="translate(221.117693294 404.612874329)scale(0.24 -0.24)">
       <use transform="scale(0.996264009963)" xlink:href="#CMR17-48"/>
      </g>
     </g>
    </g>
    <g id="xtick_6">
     <g id="line2d_12">
      <g>
       <use style="stroke:#000000;stroke-linecap:butt;stroke-width:0.5;" x="261.475550548" xlink:href="#mcb557df647" y="385.2"/>
      </g>
     </g>
     <g id="text_6">
      <!-- $5$ -->
      <g transform="translate(255.992693294 404.612874329)scale(0.24 -0.24)">
       <use transform="scale(0.996264009963)" xlink:href="#CMR17-53"/>
      </g>
     </g>
    </g>
    <g id="xtick_7">
     <g id="line2d_13">
      <g>
       <use style="stroke:#000000;stroke-linecap:butt;stroke-width:0.5;" x="296.350550548" xlink:href="#mcb557df647" y="385.2"/>
      </g>
     </g>
     <g id="text_7">
      <!-- $10$ -->
      <g transform="translate(285.38483604 404.612874329)scale(0.24 -0.24)">
       <use transform="scale(0.996264009963)" xlink:href="#CMR17-49"/>
       <use transform="translate(45.6904771171 0.0)scale(0.996264009963)" xlink:href="#CMR17-48"/>
      </g>
     </g>
    </g>
    <g id="xtick_8">
     <g id="line2d_14">
      <g>
       <use style="stroke:#000000;stroke-linecap:butt;stroke-width:0.5;" x="331.225550548" xlink:href="#mcb557df647" y="385.2"/>
      </g>
     </g>
     <g id="text_8">
      <!-- $15$ -->
      <g transform="translate(320.25983604 404.612874329)scale(0.24 -0.24)">
       <use transform="scale(0.996264009963)" xlink:href="#CMR17-49"/>
       <use transform="translate(45.6904771171 0.0)scale(0.996264009963)" xlink:href="#CMR17-53"/>
      </g>
     </g>
    </g>
    <g id="xtick_9">
     <g id="line2d_15">
      <g>
       <use style="stroke:#000000;stroke-linecap:butt;stroke-width:0.5;" x="366.100550548" xlink:href="#mcb557df647" y="385.2"/>
      </g>
     </g>
    </g>
    <g id="text_9">
     <!-- r [bohr] -->
     <defs>
      <path d="
M23.5 -25
L23.5 -21.5156
L14.0938 -21.5156
L14.0938 71
L23.5 71
L23.5 74.4844
L10.5938 74.4844
L10.5938 -25
z
" id="CMR17-91"/>
      <path d="
M14.2969 74.4844
L1.40625 74.4844
L1.40625 71
L10.7969 71
L10.7969 -21.5156
L1.40625 -21.5156
L1.40625 -25
L14.2969 -25
z
" id="CMR17-93"/>
      <path d="
M15 68.6875
L3.09375 67.5938
L3.09375 65
C9 65 9.90625 64.4062 9.90625 59.6406
L9.90625 -0.203125
L11.7031 -0.203125
L14.5938 6.89062
C17.5 2.20312 21.7969 -1 27.5938 -1
C37.5938 -1 47.7031 7.8125 47.7031 21.4062
C47.7031 34.1875 38.7031 43.5938 28.5938 43.5938
C22.4062 43.5938 18 40.2969 15 36.4062
z

M15.2031 31.3125
C15.2031 33.0938 15.2031 33.4062 16.5938 35.5
C20.5 41.5156 26.0938 42 28 42
C31 42 41.2969 40.3906 41.2969 21.5
C41.2969 1.6875 29.5 0.59375 27.0938 0.59375
C24 0.59375 19.5 1.78125 16.2969 7.59375
C15.2031 9.5 15.2031 9.70312 15.2031 11.4844
z
" id="CMR17-98"/>
      <path d="
M41.5 30.2031
C41.5 35.2969 40.5 43.5938 28.7031 43.5938
C20.5 43.5938 16.5 37 15.2969 33.7031
L15.2031 33.7031
L15.2031 68.6875
L3.29688 67.5938
L3.29688 65
C9.20312 65 10.0938 64.4062 10.0938 59.6406
L10.0938 6.65625
C10.0938 2.875 9.70312 2.39062 3.29688 2.39062
L3.29688 -0.203125
C5.70312 0 10.0938 0 12.7031 0
C15.2969 0 19.7969 0 22.2031 -0.203125
L22.2031 2.39062
C15.7969 2.39062 15.4062 2.78125 15.4062 6.6875
L15.4062 25.9062
C15.4062 35.1094 21 42 28 42
C35.4062 42 36.2031 35.4062 36.2031 30.5938
L36.2031 6.6875
C36.2031 2.875 35.7969 2.39062 29.4062 2.39062
L29.4062 -0.203125
C31.7969 0 36.2031 0 38.7969 0
C41.4062 0 45.9062 0 48.2969 -0.203125
L48.2969 2.39062
C41.9062 2.39062 41.5 2.78125 41.5 6.6875
z
" id="CMR17-104"/>
      <path d="
M15 23.3906
C15 33 19.0938 42 26.5938 42
C27.2969 42 28 41.9062 28.7031 41.5938
C28.7031 41.5938 26.5 40.8906 26.5 38.3125
C26.5 35.9062 28.4062 34.9062 29.9062 34.9062
C31.0938 34.9062 33.2969 35.6094 33.2969 38.4062
C33.2969 41.6094 30.0938 43.5938 26.7031 43.5938
C19.0938 43.5938 15.7969 36.2031 14.7969 32.7031
L14.7031 32.7031
L14.7031 43.5938
L3.09375 42.5
L3.09375 39.9062
C9 39.9062 9.90625 39.2969 9.90625 34.5
L9.90625 6.6875
C9.90625 2.875 9.5 2.39062 3.09375 2.39062
L3.09375 -0.203125
C5.5 0 10.0938 0 12.7031 0
C15.5938 0 20.7031 0 23.4062 -0.203125
L23.4062 2.39062
C16.2031 2.39062 15 2.39062 15 6.875
z
" id="CMR17-114"/>
      <path d="
M43.0938 21.1875
C43.0938 34 33.7969 44 22.9062 44
C12 44 2.70312 34 2.70312 21.1875
C2.70312 8.60938 12 -1 22.9062 -1
C33.7969 -1 43.0938 8.60938 43.0938 21.1875
M22.9062 0.796875
C18.2031 0.796875 14.2031 3.59375 11.9062 7.5
C9.40625 11.9844 9.09375 17.5938 9.09375 22
C9.09375 26.2031 9.29688 31.4062 11.9062 35.9062
C13.9062 39.2031 17.7969 42.4062 22.9062 42.4062
C27.4062 42.4062 31.2031 39.9062 33.5938 36.4062
C36.7031 31.7031 36.7031 25.1094 36.7031 22
C36.7031 18.0938 36.5 12.1094 33.7969 7.29688
C31 2.70312 26.7031 0.796875 22.9062 0.796875" id="CMR17-111"/>
     </defs>
     <g transform="translate(190.544963102 435.47422252)scale(0.24 -0.24)">
      <use transform="translate(0.0 24.8232640781)scale(0.996264009963)" xlink:href="#CMR17-114"/>
      <use transform="translate(65.3567341464 24.8232640781)scale(0.996264009963)" xlink:href="#CMR17-91"/>
      <use transform="translate(90.2277926282 24.8232640781)scale(0.996264009963)" xlink:href="#CMR17-98"/>
      <use transform="translate(143.725601139 24.8232640781)scale(0.996264009963)" xlink:href="#CMR17-111"/>
      <use transform="translate(189.416078256 24.8232640781)scale(0.996264009963)" xlink:href="#CMR17-104"/>
      <use transform="translate(240.311448037 24.8232640781)scale(0.996264009963)" xlink:href="#CMR17-114"/>
      <use transform="translate(275.592215836 24.8232640781)scale(0.996264009963)" xlink:href="#CMR17-93"/>
     </g>
    </g>
   </g>
   <g id="matplotlib.axis_2">
    <g id="ytick_1">
     <g id="line2d_16">
      <defs>
       <path d="
M0 0
L4 0" id="mc8fcea1516" style="stroke:#000000;stroke-linecap:butt;stroke-width:0.5;"/>
      </defs>
      <g>
       <use style="stroke:#000000;stroke-linecap:butt;stroke-width:0.5;" x="87.1005505478" xlink:href="#mc8fcea1516" y="353.180741184"/>
      </g>
     </g>
     <g id="text_10">
      <!-- $-0.8$ -->
      <defs>
       <path d="
M27.2031 35.375
C33.5 38.5625 39.9062 43.3281 39.9062 50.9844
C39.9062 60.0312 31.0938 65.2969 23 65.2969
C13.9062 65.2969 5.90625 58.7344 5.90625 49.6875
C5.90625 47.2031 6.5 42.9219 10.4062 39.1406
C11.4062 38.1562 15.5938 35.1719 18.2969 33.2812
C13.7969 30.9844 3.29688 25.5312 3.29688 14.5938
C3.29688 4.35938 13.0938 -2 22.7969 -2
C33.5 -2 42.5 5.65625 42.5 15.7969
C42.5 24.8438 36.4062 29.0312 32.4062 31.7031
z

M14.0938 44.125
C13.2969 44.625 9.29688 47.7031 9.29688 52.375
C9.29688 58.4375 15.5938 63 22.7969 63
C30.7031 63 36.5 57.4531 36.5 50.9844
C36.5 41.7344 26.0938 36.4688 25.5938 36.4688
C25.5 36.4688 25.4062 36.4688 24.5938 37.0781
z

M32.5 23.7344
C34 22.6406 38.7969 19.375 38.7969 13.2969
C38.7969 5.95312 31.4062 0.390625 23 0.390625
C13.9062 0.390625 7 6.84375 7 14.6875
C7 22.5469 13.0938 29.0938 20 32.1875
z
" id="CMR17-56"/>
       <path d="
M18.4062 4.79688
C18.4062 7.6875 16 9.67188 13.5938 9.67188
C10.7031 9.67188 8.70312 7.28125 8.70312 4.89062
C8.70312 2 11.0938 0 13.5 0
C16.4062 0 18.4062 2.39062 18.4062 4.79688" id="CMMI12-58"/>
      </defs>
      <g transform="translate(36.0688049696 361.883449959)scale(0.24 -0.24)">
       <use transform="translate(0.0 8.30225582289)scale(0.996264009963)" xlink:href="#CMSY10-0"/>
       <use transform="translate(77.4874676506 8.30225582289)scale(0.996264009963)" xlink:href="#CMR17-48"/>
       <use transform="translate(123.177944768 8.30225582289)scale(0.996264009963)" xlink:href="#CMMI12-58"/>
       <use transform="translate(150.275121857 8.30225582289)scale(0.996264009963)" xlink:href="#CMR17-56"/>
      </g>
     </g>
    </g>
    <g id="ytick_2">
     <g id="line2d_17">
      <g>
       <use style="stroke:#000000;stroke-linecap:butt;stroke-width:0.5;" x="87.1005505478" xlink:href="#mc8fcea1516" y="276.466607883"/>
      </g>
     </g>
     <g id="text_11">
      <!-- $-0.6$ -->
      <defs>
       <path d="
M10.5938 34
C10.5938 57.6562 21.7969 63 28.2969 63
C30.4062 63 35.5 62.6406 37.5 59
C35.9062 59 32.9062 59 32.9062 55.5156
C32.9062 52.8281 35.0938 51.9219 36.5 51.9219
C37.4062 51.9219 40.0938 52.3125 40.0938 55.625
C40.0938 61.7812 35.0938 65.2969 28.2031 65.2969
C16.2969 65.2969 3.79688 52.9688 3.79688 31
C3.79688 3.95312 15.0938 -2 23.0938 -2
C32.7969 -2 42 6.67188 42 20.0469
C42 32.5156 33.9062 41.5938 23.7031 41.5938
C17.5938 41.5938 13.0938 37.6094 10.5938 30.625
z

M23.0938 0.390625
C10.7969 0.390625 10.7969 18.75 10.7969 22.4375
C10.7969 29.625 14.2031 40 23.5 40
C25.2031 40 30.0938 40 33.4062 33.125
C35.2031 29.2188 35.2031 25.1406 35.2031 20.1406
C35.2031 14.75 35.2031 10.7812 33.0938 6.78125
C30.9062 2.67188 27.7031 0.390625 23.0938 0.390625" id="CMR17-54"/>
      </defs>
      <g transform="translate(36.0688049696 285.169316659)scale(0.24 -0.24)">
       <use transform="translate(0.0 8.30225582289)scale(0.996264009963)" xlink:href="#CMSY10-0"/>
       <use transform="translate(77.4874676506 8.30225582289)scale(0.996264009963)" xlink:href="#CMR17-48"/>
       <use transform="translate(123.177944768 8.30225582289)scale(0.996264009963)" xlink:href="#CMMI12-58"/>
       <use transform="translate(150.275121857 8.30225582289)scale(0.996264009963)" xlink:href="#CMR17-54"/>
      </g>
     </g>
    </g>
    <g id="ytick_3">
     <g id="line2d_18">
      <g>
       <use style="stroke:#000000;stroke-linecap:butt;stroke-width:0.5;" x="87.1005505478" xlink:href="#mc8fcea1516" y="199.752474583"/>
      </g>
     </g>
     <g id="text_12">
      <!-- $-0.4$ -->
      <defs>
       <path d="
M33.5938 64.3281
C33.5938 66.4062 33.5 66.5 31.7031 66.5
L2 19.5938
L2 17
L27.7969 17
L27.7969 7.14062
C27.7969 3.5 27.5938 2.5 20.5938 2.5
L18.7031 2.5
L18.7031 0
C21.9062 0 27.2969 0 30.7031 0
C34.0938 0 39.5 0 42.7031 0
L42.7031 2.5
L40.7969 2.5
C33.7969 2.5 33.5938 3.5 33.5938 7.14062
L33.5938 17
L43.7969 17
L43.7969 19.5938
L33.5938 19.5938
z

M28.0938 57.7656
L28.0938 19.5938
L4 19.5938
z
" id="CMR17-52"/>
      </defs>
      <g transform="translate(36.0688049696 208.455183359)scale(0.24 -0.24)">
       <use transform="translate(0.0 8.30225582289)scale(0.996264009963)" xlink:href="#CMSY10-0"/>
       <use transform="translate(77.4874676506 8.30225582289)scale(0.996264009963)" xlink:href="#CMR17-48"/>
       <use transform="translate(123.177944768 8.30225582289)scale(0.996264009963)" xlink:href="#CMMI12-58"/>
       <use transform="translate(150.275121857 8.30225582289)scale(0.996264009963)" xlink:href="#CMR17-52"/>
      </g>
     </g>
    </g>
    <g id="ytick_4">
     <g id="line2d_19">
      <g>
       <use style="stroke:#000000;stroke-linecap:butt;stroke-width:0.5;" x="87.1005505478" xlink:href="#mc8fcea1516" y="123.038341283"/>
      </g>
     </g>
     <g id="text_13">
      <!-- $-0.2$ -->
      <g transform="translate(36.0688049696 131.741050058)scale(0.24 -0.24)">
       <use transform="translate(0.0 8.30225582289)scale(0.996264009963)" xlink:href="#CMSY10-0"/>
       <use transform="translate(77.4874676506 8.30225582289)scale(0.996264009963)" xlink:href="#CMR17-48"/>
       <use transform="translate(123.177944768 8.30225582289)scale(0.996264009963)" xlink:href="#CMMI12-58"/>
       <use transform="translate(150.275121857 8.30225582289)scale(0.996264009963)" xlink:href="#CMR17-50"/>
      </g>
     </g>
    </g>
    <g id="ytick_5">
     <g id="line2d_20">
      <g>
       <use style="stroke:#000000;stroke-linecap:butt;stroke-width:0.5;" x="87.1005505478" xlink:href="#mc8fcea1516" y="46.3242079831"/>
      </g>
     </g>
     <g id="text_14">
      <!-- $0.0$ -->
      <g transform="translate(54.66579903 54.0306451474)scale(0.24 -0.24)">
       <use transform="scale(0.996264009963)" xlink:href="#CMR17-48"/>
       <use transform="translate(45.6904771171 0.0)scale(0.996264009963)" xlink:href="#CMMI12-58"/>
       <use transform="translate(72.7876542069 0.0)scale(0.996264009963)" xlink:href="#CMR17-48"/>
      </g>
     </g>
    </g>
    <g id="text_15">
     <!-- Energy [Hartree] -->
     <defs>
      <path d="
M60.7031 25.0781
L58.9062 25.0781
C56.7031 10.5156 55.4062 2.59375 37.7969 2.59375
L23.9062 2.59375
C19.9062 2.59375 19.7031 3.07812 19.7031 6.46875
L19.7031 34
L29.0938 34
C38.5 34 39.4062 30.5625 39.4062 22.125
L41.2031 22.125
L41.2031 48
L39.4062 48
C39.4062 39.9219 38.5 36.5938 29.0938 36.5938
L19.7031 36.5938
L19.7031 61.1406
C19.7031 64.5 19.9062 65 23.9062 65
L37.5938 65
C53.0938 65 54.9062 58.8594 56.2969 45.6562
L58.0938 45.6562
L55.7031 67.5781
L5.09375 67.5781
L5.09375 65
C12 65 13.0938 65 13.0938 60.5312
L13.0938 7.04688
C13.0938 2.59375 12 2.59375 5.09375 2.59375
L5.09375 0
L57.0938 0
z
" id="CMR17-69"/>
      <path d="
M36 25.8281
C36 32.375 36 35.8438 31.7969 39.7344
C28.0938 43 23.7969 44 20.4062 44
C12.5 44 6.79688 37.6094 6.79688 30.7969
C6.79688 27 9.79688 27 10.4062 27
C11.7031 27 14 27.7812 14 30.5312
C14 33 12.0938 34.0781 10.4062 34.0781
C10 34.0781 9.5 33.9688 9.20312 33.875
C11.2969 40.5 16.7031 42.4062 20.2031 42.4062
C25.2031 42.4062 30.7031 37.9531 30.7031 29.4531
L30.7031 25
C24.7969 25 17.7031 24.2031 12.0938 21.2031
C5.79688 17.7031 4 12.7031 4 8.90625
C4 1.20312 13 -1 18.2969 -1
C23.7969 -1 28.9062 2.17188 31.0938 7.98438
C31.2969 3.64062 34.0938 -0.28125 38.5 -0.28125
C40.5938 -0.28125 45.9062 1.09375 45.9062 8.85938
L45.9062 14.375
L44.0938 14.375
L44.0938 8.78125
C44.0938 2.78125 41.4062 2 40.0938 2
C36 2 36 7.15625 36 11.5312
z

M30.7031 13.5938
C30.7031 4.95312 24.5 0.59375 19 0.59375
C14 0.59375 10.0938 4.29688 10.0938 8.90625
C10.0938 11.8906 11.4062 17.1875 17.2031 20.3906
C22 23.0938 27.5 23.5 30.7031 23.5
z
" id="CMR17-97"/>
      <path d="
M41.5 30.2031
C41.5 35.2969 40.5 43.5938 28.7031 43.5938
C20.7969 43.5938 16.7031 37.5 15.2031 33.5
L15.0938 33.5
L15.0938 43.5938
L3.29688 42.5
L3.29688 39.9062
C9.20312 39.9062 10.0938 39.2969 10.0938 34.5
L10.0938 6.6875
C10.0938 2.875 9.70312 2.39062 3.29688 2.39062
L3.29688 -0.203125
C5.70312 0 10.0938 0 12.7031 0
C15.2969 0 19.7969 0 22.2031 -0.203125
L22.2031 2.39062
C15.7969 2.39062 15.4062 2.78125 15.4062 6.6875
L15.4062 25.9062
C15.4062 35.1094 21 42 28 42
C35.4062 42 36.2031 35.4062 36.2031 30.5938
L36.2031 6.6875
C36.2031 2.875 35.7969 2.39062 29.4062 2.39062
L29.4062 -0.203125
C31.7969 0 36.2031 0 38.7969 0
C41.4062 0 45.9062 0 48.2969 -0.203125
L48.2969 2.39062
C41.9062 2.39062 41.5 2.78125 41.5 6.6875
z
" id="CMR17-110"/>
      <path d="
M39 34.3281
C41.5 40.4062 46 40.4062 47.4062 40.4062
L47.4062 43
C45.5 43 43 43 41.0938 43
C39 43 35.7031 43 33.7031 43.0938
L33.7031 40.5
C37.5 40.2031 37.5938 37.4062 37.5938 36.6094
C37.5938 35.625 37.4062 35.125 36.9062 33.9219
L26 7.01562
L14.0938 36.0312
C13.5938 37.2188 13.5938 37.9062 13.5938 38.0156
C13.5938 40.2031 15.9062 40.4062 18.2969 40.4062
L18.2969 43.0938
C15.9062 43 11.5938 43 9.09375 43
C6.40625 43 3.20312 43 1 43.0938
L1 40.4062
C6.40625 40.4062 7 39.9062 8.29688 36.7188
L23.2031 0.234375
C18.7031 -11.5312 16.0938 -18.4062 9.79688 -18.4062
C8.70312 -18.4062 6.20312 -18.1094 4.40625 -16.3125
C6.70312 -16.1094 7.70312 -14.7188 7.70312 -13.0156
C7.70312 -11.3281 6.5 -9.82812 4.5 -9.82812
C2.29688 -9.82812 1.20312 -11.3281 1.20312 -13.125
C1.20312 -17.1094 5.29688 -20 9.79688 -20
C15.5938 -20 19.2031 -14.4062 21.2031 -9.4375
z
" id="CMR17-121"/>
      <path d="
M15.0938 40
L29.0938 40
L29.0938 42.5781
L15.0938 42.5781
L15.0938 61
L13.2969 61
C13.0938 50.7031 9.59375 41.6875 1.09375 41.6875
L1.09375 40
L9.79688 40
L9.79688 12.0469
C9.79688 10.1562 9.79688 -1 21.4062 -1
C27.2969 -1 30.7031 4.78125 30.7031 12.1406
L30.7031 17.8125
L28.9062 17.8125
L28.9062 12.2344
C28.9062 5.375 26.2031 0.796875 22 0.796875
C19.0938 0.796875 15.0938 2.78125 15.0938 11.8438
z
" id="CMR17-116"/>
      <path d="
M56.0938 61.0156
C56.0938 65.5 57.2031 65.5 64.0938 65.5
L64.0938 68
C61.2031 68 55.9062 68 52.7969 68
C49.7031 68 44.4062 68 41.5 68
L41.5 65.5
C48.4062 65.5 49.5 65.5 49.5 61
L49.5 36.5781
L19.7031 36.5781
L19.7031 61
C19.7031 65.5 20.7969 65.5 27.7031 65.5
L27.7031 68
C24.7969 68 19.5 68 16.4062 68
C13.2969 68 8 68 5.09375 68
L5.09375 65.5
C12 65.5 13.0938 65.5 13.0938 61.0156
L13.0938 6.98438
C13.0938 2.5 12 2.5 5.09375 2.5
L5.09375 0
C8 0 13.2969 0 16.4062 0
C19.5 0 24.7969 0 27.7031 0
L27.7031 2.5
C20.7969 2.5 19.7031 2.5 19.7031 6.96875
L19.7031 34
L49.5 34
L49.5 6.96875
C49.5 2.5 48.4062 2.5 41.5 2.5
L41.5 0
C44.4062 0 49.7031 0 52.7969 0
C55.9062 0 61.2031 0 64.0938 0
L64.0938 2.5
C57.2031 2.5 56.0938 2.5 56.0938 6.98438
z
" id="CMR17-72"/>
      <path d="
M11.0938 18.1875
C13 16.6875 16.2969 15 20.2969 15
C28.2031 15 35 21.2031 35 29.5
C35 32.0938 34.2031 36.0938 31.2031 39.2031
C34 42.0625 38.0938 43 40.4062 43
C40.7969 43 41.4062 43 41.9062 42.7656
C41.5 42.6719 40.5938 42.2812 40.5938 40.7344
C40.5938 39.4844 41.5 38.6094 42.7969 38.6094
C44.2969 38.6094 45.0938 39.5781 45.0938 40.8438
C45.0938 42.6719 43.5938 44.5938 40.4062 44.5938
C36.4062 44.5938 32.9062 42.7812 30.0938 40.3125
C27.0938 43.0156 23.5 44 20.2969 44
C12.4062 44 5.59375 37.7969 5.59375 29.5
C5.59375 23.7812 8.90625 20.1875 9.90625 19.1875
C6.90625 15.6875 6.90625 11.6094 6.90625 11.1094
C6.90625 8.51562 7.90625 4.71875 11.2969 2.625
C6.09375 1.32812 2 -2.64062 2 -7.59375
C2 -14.7344 11.5 -20 22.9062 -20
C33.9062 -20 43.7969 -14.9375 43.7969 -7.48438
C43.7969 6 29 6 21.2969 6
C19 6 14.9062 6 14.4062 6.10938
C11.2969 6.60938 9.20312 9.40625 9.20312 12.8906
C9.20312 13.7812 9.20312 16 11.0938 18.1875
M20.2969 16.6875
C11.5 16.6875 11.5 27.5 11.5 29.5156
C11.5 31.5 11.5 42.3125 20.2969 42.3125
C29.0938 42.3125 29.0938 31.5 29.0938 29.5156
C29.0938 27.5 29.0938 16.6875 20.2969 16.6875
M22.9062 -18.2969
C12.9062 -18.2969 6 -13.0469 6 -7.59375
C6 -4.51562 7.70312 -1.64062 9.90625 -0.0625
C12.4062 1.625 13.4062 1.625 20.2031 1.625
C28.4062 1.625 39.7969 1.625 39.7969 -7.59375
C39.7969 -13.0469 32.9062 -18.2969 22.9062 -18.2969" id="CMR17-103"/>
      <path d="
M38.0938 23
C38.5 23.4062 38.5 23.6094 38.5 24.625
C38.5 34.9688 33.0938 44 21.7031 44
C11.0938 44 2.70312 33.8906 2.70312 21.6094
C2.70312 8.60938 12.2031 -1 22.7969 -1
C34 -1 38.4062 9.46875 38.4062 11.5469
C38.4062 12.25 37.7969 12.25 37.5938 12.25
C36.9062 12.25 36.7969 12.0469 36.4062 10.875
C34.2031 4.14062 28.7031 0.796875 23.5 0.796875
C19.2031 0.796875 14.9062 3.17188 12.2031 7.5
C9.09375 12.5469 9.09375 18.375 9.09375 23
z

M9.20312 24.5
C9.90625 39.1406 17.5938 42.4062 21.5938 42.4062
C28.4062 42.4062 33 35.8906 33.0938 24.5
z
" id="CMR17-101"/>
     </defs>
     <g transform="translate(31.0688049696 275.955109927)rotate(-90.0)scale(0.24 -0.24)">
      <use transform="translate(0.0 24.8232640781)scale(0.996264009963)" xlink:href="#CMR17-69"/>
      <use transform="translate(62.5863005186 24.8232640781)scale(0.996264009963)" xlink:href="#CMR17-110"/>
      <use transform="translate(113.481670299 24.8232640781)scale(0.996264009963)" xlink:href="#CMR17-101"/>
      <use transform="translate(153.967330762 24.8232640781)scale(0.996264009963)" xlink:href="#CMR17-114"/>
      <use transform="translate(189.248098561 24.8232640781)scale(0.996264009963)" xlink:href="#CMR17-103"/>
      <use transform="translate(234.938575678 24.8232640781)scale(0.996264009963)" xlink:href="#CMR17-121"/>
      <use transform="translate(313.307457873 24.8232640781)scale(0.996264009963)" xlink:href="#CMR17-91"/>
      <use transform="translate(338.178516355 24.8232640781)scale(0.996264009963)" xlink:href="#CMR17-72"/>
      <use transform="translate(407.250946159 24.8232640781)scale(0.996264009963)" xlink:href="#CMR17-97"/>
      <use transform="translate(452.941423276 24.8232640781)scale(0.996264009963)" xlink:href="#CMR17-114"/>
      <use transform="translate(488.222191075 24.8232640781)scale(0.996264009963)" xlink:href="#CMR17-116"/>
      <use transform="translate(523.502958875 24.8232640781)scale(0.996264009963)" xlink:href="#CMR17-114"/>
      <use transform="translate(558.783726674 24.8232640781)scale(0.996264009963)" xlink:href="#CMR17-101"/>
      <use transform="translate(599.269387137 24.8232640781)scale(0.996264009963)" xlink:href="#CMR17-101"/>
      <use transform="translate(639.7550476 24.8232640781)scale(0.996264009963)" xlink:href="#CMR17-93"/>
     </g>
    </g>
   </g>
   <g id="patch_5">
    <path d="
M87.1006 385.2
L366.101 385.2" style="fill:none;stroke:#000000;"/>
   </g>
   <g id="patch_6">
    <path d="
M87.1006 385.2
L87.1006 7.2" style="fill:none;stroke:#000000;"/>
   </g>
   <g id="patch_7">
    <path clip-path="url(#p7645076065)" d="
M226.601 217.218
Q226.601 175.996 226.601 138.129" style="fill:none;stroke:#0000ff;stroke-linecap:round;stroke-width:3.0;"/>
    <path clip-path="url(#p7645076065)" d="
M221.801 147.729
L226.601 138.129
L231.401 147.729
L221.801 147.729
z
" style="fill:#0000ff;stroke:#0000ff;stroke-linecap:round;stroke-width:3.0;"/>
   </g>
   <g id="patch_8">
    <path clip-path="url(#p7645076065)" d="
M226.589 219.22
Q226.595 219.22 223.246 219.22" style="fill:none;stroke:#ff0000;stroke-linecap:round;stroke-width:3.0;"/>
    <path clip-path="url(#p7645076065)" d="
M213.646 214.42
L223.246 219.22
L213.646 224.02
L213.646 214.42
z
" style="fill:#ff0000;stroke:#ff0000;stroke-linecap:round;stroke-width:3.0;"/>
   </g>
  </g>
  <g id="axes_2">
   <g id="patch_9">
    <path d="
M366.101 385.2
L645.101 385.2
L645.101 7.2
L366.101 7.2
z
" style="fill:none;opacity:0.0;"/>
   </g>
   <g id="line2d_21">
    <path clip-path="url(#p1651d0686e)" d="
M366.101 111.611
L370.569 114.427
L374.758 117.327
L378.668 120.296
L382.299 123.316
L385.929 126.63
L389.281 129.994
L392.353 133.376
L395.425 137.09
L398.218 140.803
L401.01 144.89
L403.524 148.942
L406.037 153.41
L408.551 158.366
L410.785 163.257
L413.019 168.691
L415.254 174.772
L417.209 180.727
L419.164 187.395
L421.119 194.923
L422.794 202.205
L424.47 210.417
L426.146 219.764
L427.821 230.516
L429.218 240.811
L430.614 252.619
L432.01 266.32
L433.407 282.436
L434.803 301.704
L435.92 320.093
L437.037 341.964
L438.155 368.448
L438.713 383.916
M458.821 386.11
L459.938 362.908
L461.056 344.177
L462.173 328.852
L463.29 316.191
L464.407 305.663
L465.524 296.874
L466.641 289.534
L467.758 283.419
L468.875 278.36
L469.992 274.224
L471.11 270.911
L472.227 268.341
L473.065 266.865
L473.902 265.755
L474.74 264.994
L475.578 264.573
L476.416 264.483
L477.254 264.722
L478.092 265.289
L478.929 266.186
L479.767 267.419
L480.605 268.999
L481.722 271.669
L482.839 275.024
L483.956 279.124
L485.074 284.046
L486.191 289.892
L487.308 296.793
L488.425 304.918
L489.542 314.487
L490.659 325.79
L491.776 339.212
L492.893 355.278
L494.01 374.72
L494.569 386.016
M516.632 386.016
L517.749 364.521
L518.866 346.874
L519.983 332.207
L521.101 319.9
L522.497 307.165
L523.893 296.793
L525.29 288.337
L526.686 281.476
L527.803 276.977
L528.92 273.258
L530.037 270.252
L531.155 267.907
L531.992 266.559
L532.83 265.551
L533.668 264.875
L534.506 264.527
L535.344 264.506
L536.182 264.816
L537.019 265.463
L537.857 266.455
L538.695 267.808
L539.533 269.537
L540.65 272.47
L541.767 276.184
L542.884 280.766
L544.001 286.335
L545.119 293.038
L546.236 301.071
L547.353 310.688
L548.47 322.226
L549.587 336.141
L550.704 353.059
L551.821 373.867
L552.38 386.11
M572.488 383.916
L573.605 354.54
L574.722 330.532
L575.839 310.519
L577.236 289.714
L578.632 272.441
L580.028 257.846
L581.425 245.334
L583.101 232.469
L584.776 221.45
L586.452 211.89
L588.128 203.504
L590.083 194.923
L592.037 187.395
L593.992 180.727
L595.947 174.772
L598.182 168.691
L600.416 163.257
L602.65 158.366
L605.164 153.41
L607.677 148.942
L610.47 144.463
L613.263 140.416
L616.056 136.737
L619.128 133.055
L622.2 129.701
L625.551 126.364
L629.182 123.073
L632.812 120.074
L636.722 117.125
L640.911 114.244
L645.101 111.611
L645.101 111.611" style="fill:none;stroke:#0000ff;stroke-width:3.0;"/>
   </g>
   <g id="line2d_22">
    <path clip-path="url(#p1651d0686e)" d="
M490.126 305.668
L521.075 305.668" style="fill:none;stroke:#bf00bf;stroke-width:3.0;"/>
   </g>
   <g id="line2d_23">
    <defs>
     <path d="
M0 7
C1.85642 7 3.63706 6.26244 4.94975 4.94975
C6.26244 3.63706 7 1.85642 7 0
C7 -1.85642 6.26244 -3.63706 4.94975 -4.94975
C3.63706 -6.26244 1.85642 -7 0 -7
C-1.85642 -7 -3.63706 -6.26244 -4.94975 -4.94975
C-6.26244 -3.63706 -7 -1.85642 -7 0
C-7 1.85642 -6.26244 3.63706 -4.94975 4.94975
C-3.63706 6.26244 -1.85642 7 0 7
z
" id="m96609a6c6a" style="stroke:#000000;stroke-linecap:butt;stroke-width:0.5;"/>
    </defs>
    <g clip-path="url(#p1651d0686e)">
     <use style="fill:#008000;opacity:0.6;stroke:#000000;stroke-linecap:butt;stroke-width:0.5;" x="505.600550548" xlink:href="#m96609a6c6a" y="305.667926363"/>
    </g>
   </g>
   <g id="line2d_24">
    <g clip-path="url(#p1651d0686e)">
     <use style="fill:#008000;stroke:#000000;stroke-linecap:butt;stroke-width:0.5;" x="505.600550548" xlink:href="#m04a53dd351" y="219.220020237"/>
    </g>
   </g>
   <g id="line2d_25">
    <path clip-path="url(#p1651d0686e)" d="
M394.001 305.668
L398.134 305.451
L399.586 305.669
L402.937 306.325
L403.831 306.214
L404.725 305.893
L405.954 305.181
L407.518 304.278
L408.3 304.089
L408.97 304.177
L409.64 304.532
L410.31 305.152
L411.316 306.455
L412.88 308.517
L413.438 308.946
L413.885 309.075
L414.332 308.979
L414.779 308.638
L415.337 307.86
L416.008 306.461
L417.013 303.73
L418.242 300.487
L418.801 299.518
L419.247 299.129
L419.583 299.106
L419.918 299.334
L420.253 299.823
L420.7 300.879
L421.258 302.801
L422.04 306.356
L423.828 314.865
L424.386 316.453
L424.721 316.947
L424.945 317.057
L425.168 316.982
L425.503 316.509
L425.838 315.597
L426.285 313.719
L426.956 309.645
L427.961 301.717
L429.19 292.353
L429.748 289.496
L430.195 288.245
L430.419 288.018
L430.642 288.074
L430.865 288.422
L431.201 289.496
L431.647 291.933
L432.206 296.447
L432.988 304.814
L434.775 324.689
L435.334 328.487
L435.669 329.772
L435.892 330.163
L436.116 330.165
L436.339 329.767
L436.674 328.422
L437.121 325.27
L437.68 319.374
L438.462 308.431
L440.249 282.54
L440.808 277.549
L441.255 275.455
L441.478 275.113
L441.59 275.124
L441.813 275.516
L442.148 277.023
L442.595 280.68
L443.154 287.603
L443.936 300.474
L445.723 330.798
L446.282 336.684
L446.728 339.243
L446.952 339.732
L447.064 339.774
L447.287 339.447
L447.51 338.578
L447.846 336.286
L448.292 331.521
L448.963 321.361
L450.415 293.951
L451.309 279.815
L451.867 274.157
L452.202 272.256
L452.426 271.657
L452.649 271.603
L452.873 272.093
L453.208 273.821
L453.655 277.856
L454.213 285.262
L455.107 300.62
L456.447 323.732
L457.118 331.739
L457.565 334.937
L457.9 336.077
L458.123 336.223
L458.346 335.881
L458.682 334.48
L459.128 331.08
L459.687 324.761
L460.581 311.634
L461.921 291.962
L462.592 285.138
L463.038 282.366
L463.374 281.32
L463.597 281.123
L463.82 281.32
L464.044 281.902
L464.379 283.452
L464.826 286.647
L465.496 293.298
L467.842 318.622
L468.401 321.84
L468.847 323.124
L469.071 323.326
L469.294 323.239
L469.518 322.875
L469.853 321.84
L470.3 319.653
L470.97 315.062
L473.316 297.617
L473.874 295.387
L474.321 294.463
L474.656 294.278
L474.88 294.389
L475.215 294.882
L475.662 296.086
L476.332 298.793
L478.901 310.457
L479.46 311.705
L479.907 312.182
L480.242 312.242
L480.577 312.061
L481.024 311.487
L481.583 310.342
L482.588 307.606
L483.817 304.358
L484.487 303.119
L485.046 302.496
L485.492 302.279
L485.939 302.299
L486.386 302.53
L487.056 303.187
L488.174 304.721
L489.402 306.304
L490.184 306.953
L490.855 307.217
L491.525 307.221
L492.307 306.959
L493.424 306.3
L494.988 305.392
L495.993 305.075
L496.999 305.019
L498.228 305.219
L501.467 305.885
L503.031 305.889
L505.601 305.668
L505.601 305.668" style="fill:none;stroke:#ff0000;stroke-width:3.0;"/>
   </g>
   <g id="line2d_26">
    <path clip-path="url(#p1651d0686e)" d="
M366.101 46.3242
L645.101 46.3242" style="fill:none;stroke:#000000;stroke-dasharray:1.000000,3.000000;stroke-dashoffset:0.0;stroke-linecap:butt;stroke-width:3.0;"/>
   </g>
   <g id="matplotlib.axis_3">
    <g id="ytick_6">
     <g id="line2d_27">
      <defs>
       <path d="
M0 0
L-4 0" id="m0d5b0a6425" style="stroke:#000000;stroke-linecap:butt;stroke-width:0.5;"/>
      </defs>
      <g>
       <use style="stroke:#000000;stroke-linecap:butt;stroke-width:0.5;" x="645.100550548" xlink:href="#m0d5b0a6425" y="328.243494205"/>
      </g>
     </g>
     <g id="text_16">
      <!-- $-20$ -->
      <g transform="translate(649.100550548 336.946202981)scale(0.24 -0.24)">
       <use transform="translate(0.0 8.30225582289)scale(0.996264009963)" xlink:href="#CMSY10-0"/>
       <use transform="translate(77.4874676506 8.30225582289)scale(0.996264009963)" xlink:href="#CMR17-50"/>
       <use transform="translate(123.177944768 8.30225582289)scale(0.996264009963)" xlink:href="#CMR17-48"/>
      </g>
     </g>
    </g>
    <g id="ytick_7">
     <g id="line2d_28">
      <g>
       <use style="stroke:#000000;stroke-linecap:butt;stroke-width:0.5;" x="645.100550548" xlink:href="#m0d5b0a6425" y="257.76367265"/>
      </g>
     </g>
     <g id="text_17">
      <!-- $-15$ -->
      <g transform="translate(649.100550548 266.466381425)scale(0.24 -0.24)">
       <use transform="translate(0.0 8.30225582289)scale(0.996264009963)" xlink:href="#CMSY10-0"/>
       <use transform="translate(77.4874676506 8.30225582289)scale(0.996264009963)" xlink:href="#CMR17-49"/>
       <use transform="translate(123.177944768 8.30225582289)scale(0.996264009963)" xlink:href="#CMR17-53"/>
      </g>
     </g>
    </g>
    <g id="ytick_8">
     <g id="line2d_29">
      <g>
       <use style="stroke:#000000;stroke-linecap:butt;stroke-width:0.5;" x="645.100550548" xlink:href="#m0d5b0a6425" y="187.283851094"/>
      </g>
     </g>
     <g id="text_18">
      <!-- $-10$ -->
      <g transform="translate(649.100550548 195.986559869)scale(0.24 -0.24)">
       <use transform="translate(0.0 8.30225582289)scale(0.996264009963)" xlink:href="#CMSY10-0"/>
       <use transform="translate(77.4874676506 8.30225582289)scale(0.996264009963)" xlink:href="#CMR17-49"/>
       <use transform="translate(123.177944768 8.30225582289)scale(0.996264009963)" xlink:href="#CMR17-48"/>
      </g>
     </g>
    </g>
    <g id="ytick_9">
     <g id="line2d_30">
      <g>
       <use style="stroke:#000000;stroke-linecap:butt;stroke-width:0.5;" x="645.100550548" xlink:href="#m0d5b0a6425" y="116.804029539"/>
      </g>
     </g>
     <g id="text_19">
      <!-- $-5$ -->
      <g transform="translate(649.100550548 125.506738314)scale(0.24 -0.24)">
       <use transform="translate(0.0 8.30225582289)scale(0.996264009963)" xlink:href="#CMSY10-0"/>
       <use transform="translate(77.4874676506 8.30225582289)scale(0.996264009963)" xlink:href="#CMR17-53"/>
      </g>
     </g>
    </g>
    <g id="ytick_10">
     <g id="line2d_31">
      <g>
       <use style="stroke:#000000;stroke-linecap:butt;stroke-width:0.5;" x="645.100550548" xlink:href="#m0d5b0a6425" y="46.3242079831"/>
      </g>
     </g>
     <g id="text_20">
      <!-- $0$ -->
      <g transform="translate(649.100550548 54.0306451474)scale(0.24 -0.24)">
       <use transform="scale(0.996264009963)" xlink:href="#CMR17-48"/>
      </g>
     </g>
    </g>
    <g id="text_21">
     <!-- Energy [eV] -->
     <defs>
      <path d="
M59 58.5156
C59.9062 60.7188 61.5 65 68.2031 65
L68.2031 67.6875
C65.9062 67.4844 63.2969 67.4844 60.7969 67.4844
C58.4062 67.4844 54.2969 67.4844 52 67.6875
L52 65
C57 65 57.2031 61.5 57.2031 60.9062
C57.2031 59.7969 56.9062 59.1094 56.5938 58.3125
L36.9062 6.96875
L16.2969 60.625
C16 61.3281 15.7969 61.8281 15.7969 62.3125
C15.7969 65 19.7969 65 21.9062 65
L21.9062 67.4844
C18.7031 67.4844 14 67.4844 10.7031 67.4844
C8.09375 67.4844 3.40625 67.4844 1 67.6875
L1 65
C6.79688 65 7.90625 64.6094 9.09375 61.4219
L32.9062 -0.40625
C33.4062 -1.79688 33.5 -2 34.5938 -2
C35.7031 -2 35.7969 -1.79688 36.2969 -0.40625
z
" id="CMR17-86"/>
     </defs>
     <g transform="translate(718.497778594 252.912909475)rotate(-90.0)scale(0.24 -0.24)">
      <use transform="translate(0.0 24.8232640781)scale(0.996264009963)" xlink:href="#CMR17-69"/>
      <use transform="translate(62.5863005186 24.8232640781)scale(0.996264009963)" xlink:href="#CMR17-110"/>
      <use transform="translate(113.481670299 24.8232640781)scale(0.996264009963)" xlink:href="#CMR17-101"/>
      <use transform="translate(153.967330762 24.8232640781)scale(0.996264009963)" xlink:href="#CMR17-114"/>
      <use transform="translate(189.248098561 24.8232640781)scale(0.996264009963)" xlink:href="#CMR17-103"/>
      <use transform="translate(234.938575678 24.8232640781)scale(0.996264009963)" xlink:href="#CMR17-121"/>
      <use transform="translate(313.307457873 24.8232640781)scale(0.996264009963)" xlink:href="#CMR17-91"/>
      <use transform="translate(338.178516355 24.8232640781)scale(0.996264009963)" xlink:href="#CMR17-101"/>
      <use transform="translate(378.664176817 24.8232640781)scale(0.996264009963)" xlink:href="#CMR17-86"/>
      <use transform="translate(447.736606622 24.8232640781)scale(0.996264009963)" xlink:href="#CMR17-93"/>
     </g>
    </g>
   </g>
   <g id="patch_10">
    <path d="
M366.101 7.2
L645.101 7.2" style="fill:none;stroke:#000000;"/>
   </g>
   <g id="patch_11">
    <path d="
M645.101 385.2
L645.101 7.2" style="fill:none;stroke:#000000;"/>
   </g>
   <g id="matplotlib.axis_4">
    <g id="xtick_10">
     <g id="line2d_32">
      <g>
       <use style="stroke:#000000;stroke-linecap:butt;stroke-width:0.5;" x="366.100550548" xlink:href="#mcb557df647" y="385.2"/>
      </g>
     </g>
    </g>
    <g id="xtick_11">
     <g id="line2d_33">
      <g>
       <use style="stroke:#000000;stroke-linecap:butt;stroke-width:0.5;" x="400.975550548" xlink:href="#mcb557df647" y="385.2"/>
      </g>
     </g>
     <g id="text_22">
      <!-- $-15$ -->
      <g transform="translate(380.711339009 406.60541755)scale(0.24 -0.24)">
       <use transform="translate(0.0 8.30225582289)scale(0.996264009963)" xlink:href="#CMSY10-0"/>
       <use transform="translate(77.4874676506 8.30225582289)scale(0.996264009963)" xlink:href="#CMR17-49"/>
       <use transform="translate(123.177944768 8.30225582289)scale(0.996264009963)" xlink:href="#CMR17-53"/>
      </g>
     </g>
    </g>
    <g id="xtick_12">
     <g id="line2d_34">
      <g>
       <use style="stroke:#000000;stroke-linecap:butt;stroke-width:0.5;" x="435.850550548" xlink:href="#mcb557df647" y="385.2"/>
      </g>
     </g>
     <g id="text_23">
      <!-- $-10$ -->
      <g transform="translate(415.586339009 406.60541755)scale(0.24 -0.24)">
       <use transform="translate(0.0 8.30225582289)scale(0.996264009963)" xlink:href="#CMSY10-0"/>
       <use transform="translate(77.4874676506 8.30225582289)scale(0.996264009963)" xlink:href="#CMR17-49"/>
       <use transform="translate(123.177944768 8.30225582289)scale(0.996264009963)" xlink:href="#CMR17-48"/>
      </g>
     </g>
    </g>
    <g id="xtick_13">
     <g id="line2d_35">
      <g>
       <use style="stroke:#000000;stroke-linecap:butt;stroke-width:0.5;" x="470.725550548" xlink:href="#mcb557df647" y="385.2"/>
      </g>
     </g>
     <g id="text_24">
      <!-- $-5$ -->
      <g transform="translate(455.944196264 406.60541755)scale(0.24 -0.24)">
       <use transform="translate(0.0 8.30225582289)scale(0.996264009963)" xlink:href="#CMSY10-0"/>
       <use transform="translate(77.4874676506 8.30225582289)scale(0.996264009963)" xlink:href="#CMR17-53"/>
      </g>
     </g>
    </g>
    <g id="xtick_14">
     <g id="line2d_36">
      <g>
       <use style="stroke:#000000;stroke-linecap:butt;stroke-width:0.5;" x="505.600550548" xlink:href="#mcb557df647" y="385.2"/>
      </g>
     </g>
     <g id="text_25">
      <!-- $0$ -->
      <g transform="translate(500.117693294 404.612874329)scale(0.24 -0.24)">
       <use transform="scale(0.996264009963)" xlink:href="#CMR17-48"/>
      </g>
     </g>
    </g>
    <g id="xtick_15">
     <g id="line2d_37">
      <g>
       <use style="stroke:#000000;stroke-linecap:butt;stroke-width:0.5;" x="540.475550548" xlink:href="#mcb557df647" y="385.2"/>
      </g>
     </g>
     <g id="text_26">
      <!-- $5$ -->
      <g transform="translate(534.992693294 404.612874329)scale(0.24 -0.24)">
       <use transform="scale(0.996264009963)" xlink:href="#CMR17-53"/>
      </g>
     </g>
    </g>
    <g id="xtick_16">
     <g id="line2d_38">
      <g>
       <use style="stroke:#000000;stroke-linecap:butt;stroke-width:0.5;" x="575.350550548" xlink:href="#mcb557df647" y="385.2"/>
      </g>
     </g>
     <g id="text_27">
      <!-- $10$ -->
      <g transform="translate(564.38483604 404.612874329)scale(0.24 -0.24)">
       <use transform="scale(0.996264009963)" xlink:href="#CMR17-49"/>
       <use transform="translate(45.6904771171 0.0)scale(0.996264009963)" xlink:href="#CMR17-48"/>
      </g>
     </g>
    </g>
    <g id="xtick_17">
     <g id="line2d_39">
      <g>
       <use style="stroke:#000000;stroke-linecap:butt;stroke-width:0.5;" x="610.225550548" xlink:href="#mcb557df647" y="385.2"/>
      </g>
     </g>
     <g id="text_28">
      <!-- $15$ -->
      <g transform="translate(599.25983604 404.612874329)scale(0.24 -0.24)">
       <use transform="scale(0.996264009963)" xlink:href="#CMR17-49"/>
       <use transform="translate(45.6904771171 0.0)scale(0.996264009963)" xlink:href="#CMR17-53"/>
      </g>
     </g>
    </g>
    <g id="xtick_18">
     <g id="line2d_40">
      <g>
       <use style="stroke:#000000;stroke-linecap:butt;stroke-width:0.5;" x="645.100550548" xlink:href="#mcb557df647" y="385.2"/>
      </g>
     </g>
     <g id="text_29">
      <!-- $20$ -->
      <g transform="translate(634.13483604 404.612874329)scale(0.24 -0.24)">
       <use transform="scale(0.996264009963)" xlink:href="#CMR17-50"/>
       <use transform="translate(45.6904771171 0.0)scale(0.996264009963)" xlink:href="#CMR17-48"/>
      </g>
     </g>
    </g>
    <g id="text_30">
     <!-- r [bohr] -->
     <g transform="translate(469.544963102 435.47422252)scale(0.24 -0.24)">
      <use transform="translate(0.0 24.8232640781)scale(0.996264009963)" xlink:href="#CMR17-114"/>
      <use transform="translate(65.3567341464 24.8232640781)scale(0.996264009963)" xlink:href="#CMR17-91"/>
      <use transform="translate(90.2277926282 24.8232640781)scale(0.996264009963)" xlink:href="#CMR17-98"/>
      <use transform="translate(143.725601139 24.8232640781)scale(0.996264009963)" xlink:href="#CMR17-111"/>
      <use transform="translate(189.416078256 24.8232640781)scale(0.996264009963)" xlink:href="#CMR17-104"/>
      <use transform="translate(240.311448037 24.8232640781)scale(0.996264009963)" xlink:href="#CMR17-114"/>
      <use transform="translate(275.592215836 24.8232640781)scale(0.996264009963)" xlink:href="#CMR17-93"/>
     </g>
    </g>
   </g>
   <g id="patch_12">
    <path d="
M366.101 385.2
L645.101 385.2" style="fill:none;stroke:#000000;"/>
   </g>
   <g id="patch_13">
    <path d="
M366.101 385.2
L366.101 7.2" style="fill:none;stroke:#000000;"/>
   </g>
   <g id="patch_14">
    <path clip-path="url(#p1651d0686e)" d="
M505.601 303.666
Q505.601 262.444 505.601 224.577" style="fill:none;stroke:#0000ff;stroke-linecap:round;stroke-width:3.0;"/>
    <path clip-path="url(#p1651d0686e)" d="
M500.801 234.177
L505.601 224.577
L510.401 234.177
L500.801 234.177
z
" style="fill:#0000ff;stroke:#0000ff;stroke-linecap:round;stroke-width:3.0;"/>
   </g>
   <g id="patch_15">
    <path clip-path="url(#p1651d0686e)" d="
M505.589 305.668
Q505.595 305.668 502.246 305.668" style="fill:none;stroke:#ff0000;stroke-linecap:round;stroke-width:3.0;"/>
    <path clip-path="url(#p1651d0686e)" d="
M492.646 300.868
L502.246 305.668
L492.646 310.468
L492.646 300.868
z
" style="fill:#ff0000;stroke:#ff0000;stroke-linecap:round;stroke-width:3.0;"/>
   </g>
  </g>
 </g>
 <defs>
  <clipPath id="p1651d0686e">
   <rect height="378.0" width="279.0" x="366.100550548" y="7.2"/>
  </clipPath>
  <clipPath id="p7645076065">
   <rect height="378.0" width="279.0" x="87.1005505478" y="7.2"/>
  </clipPath>
 </defs>
</svg>
