<?xml version="1.0" encoding="utf-8" standalone="no"?>
<!DOCTYPE svg PUBLIC "-//W3C//DTD SVG 1.1//EN"
  "http://www.w3.org/Graphics/SVG/1.1/DTD/svg11.dtd">
<!-- Created with matplotlib (http://matplotlib.org/) -->
<svg height="446pt" version="1.1" viewBox="0 0 837 446" width="837pt" xmlns="http://www.w3.org/2000/svg" xmlns:xlink="http://www.w3.org/1999/xlink">
 <defs>
  <style type="text/css">
*{stroke-linecap:square;stroke-linejoin:round;}
  </style>
 </defs>
 <g id="figure_1">
  <g id="patch_1">
   <path d="
M0 446.566
L837.298 446.566
L837.298 0
L0 0
z
" style="fill:none;opacity:0.0;"/>
  </g>
  <g id="axes_1">
   <g id="patch_2">
    <path d="
M87.1006 200.091
L421.901 200.091
L421.901 11.0913
L87.1006 11.0913
z
" style="fill:none;opacity:0.0;"/>
   </g>
   <g id="line2d_1">
    <path clip-path="url(#p22fa55cf72)" d="
M87.1006 85.1104
L105.868 86.0953
L121.619 87.1367
L135.025 88.2393
L146.419 89.3916
L156.474 90.6307
L165.187 91.9303
L172.56 93.2458
L179.263 94.6655
L184.96 96.0874
L190.322 97.6563
L195.014 99.261
L199.371 100.996
L203.057 102.693
L206.409 104.462
L209.425 106.279
L212.441 108.356
L215.122 110.47
L217.803 112.893
L220.149 115.323
L222.495 118.109
L224.506 120.844
L226.517 123.972
L228.192 126.945
L229.868 130.321
L231.544 134.191
L233.219 138.669
L234.895 143.914
L236.236 148.802
L237.576 154.465
L238.917 161.102
L240.257 168.988
L241.598 178.513
L242.603 187.065
L243.609 197.197
L243.944 201.003
M265.057 201.003
L266.063 190.247
L267.403 178.513
L268.744 168.988
L270.084 161.102
L271.425 154.465
L272.765 148.802
L274.441 142.794
L276.117 137.718
L277.792 133.372
L279.468 129.61
L281.144 126.32
L283.155 122.881
L285.165 119.893
L287.176 117.272
L289.522 114.595
L291.868 112.255
L294.549 109.915
L297.23 107.869
L300.246 105.854
L303.598 103.906
L307.284 102.048
L311.306 100.297
L315.663 98.6596
L320.355 97.1385
L325.717 95.6456
L331.749 94.2137
L338.452 92.8641
L345.825 91.6084
L354.203 90.4068
L363.922 89.2435
L374.982 88.1481
L387.717 87.112
L402.798 86.1152
L420.56 85.1734
L421.901 85.1104
L421.901 85.1104" style="fill:none;stroke:#0000ff;stroke-width:3.0;"/>
   </g>
   <g id="line2d_2">
    <path clip-path="url(#p22fa55cf72)" d="
M87.1006 147.631
L421.901 147.631" style="fill:none;stroke:#bf00bf;stroke-width:3.0;"/>
   </g>
   <g id="line2d_3">
    <path clip-path="url(#p22fa55cf72)" d="
M87.1006 96.577
L421.901 96.577" style="fill:none;stroke:#0000ff;stroke-dasharray:6.000000,6.000000;stroke-dashoffset:0.0;stroke-linecap:butt;stroke-width:3.0;"/>
   </g>
   <g id="line2d_4">
    <path clip-path="url(#p22fa55cf72)" d="
M87.1006 90.0995
L421.901 90.0995" style="fill:none;stroke:#ff0000;stroke-dasharray:6.000000,6.000000;stroke-dashoffset:0.0;stroke-linecap:butt;stroke-width:3.0;"/>
   </g>
   <g id="line2d_5">
    <path clip-path="url(#p22fa55cf72)" d="
M87.1006 87.2586
L421.901 87.2586" style="fill:none;stroke:#008000;stroke-dasharray:6.000000,6.000000;stroke-dashoffset:0.0;stroke-linecap:butt;stroke-width:3.0;"/>
   </g>
   <g id="line2d_6">
    <path clip-path="url(#p22fa55cf72)" d="
M87.1006 80.4332
L421.901 80.4332" style="fill:none;stroke:#bf00bf;stroke-dasharray:6.000000,6.000000;stroke-dashoffset:0.0;stroke-linecap:butt;stroke-width:3.0;"/>
   </g>
   <g id="line2d_7">
    <defs>
     <path d="
M0 7
C1.85642 7 3.63706 6.26244 4.94975 4.94975
C6.26244 3.63706 7 1.85642 7 0
C7 -1.85642 6.26244 -3.63706 4.94975 -4.94975
C3.63706 -6.26244 1.85642 -7 0 -7
C-1.85642 -7 -3.63706 -6.26244 -4.94975 -4.94975
C-6.26244 -3.63706 -7 -1.85642 -7 0
C-7 1.85642 -6.26244 3.63706 -4.94975 4.94975
C-3.63706 6.26244 -1.85642 7 0 7
z
" id="mdfd1f8ea2e" style="stroke:#000000;stroke-linecap:butt;stroke-width:0.5;"/>
    </defs>
    <g clip-path="url(#p22fa55cf72)">
     <use style="fill:#0000ff;stroke:#000000;stroke-linecap:butt;stroke-width:0.5;" x="128.950550548" xlink:href="#mdfd1f8ea2e" y="14.2445527433"/>
    </g>
   </g>
   <g id="line2d_8">
    <defs>
     <path d="
M0 7
C1.85642 7 3.63706 6.26244 4.94975 4.94975
C6.26244 3.63706 7 1.85642 7 0
C7 -1.85642 6.26244 -3.63706 4.94975 -4.94975
C3.63706 -6.26244 1.85642 -7 0 -7
C-1.85642 -7 -3.63706 -6.26244 -4.94975 -4.94975
C-6.26244 -3.63706 -7 -1.85642 -7 0
C-7 1.85642 -6.26244 3.63706 -4.94975 4.94975
C-3.63706 6.26244 -1.85642 7 0 7
z
" id="m04a53dd351" style="stroke:#000000;stroke-linecap:butt;stroke-width:0.5;"/>
    </defs>
    <g clip-path="url(#p22fa55cf72)">
     <use style="fill:#008000;stroke:#000000;stroke-linecap:butt;stroke-width:0.5;" x="254.500550548" xlink:href="#m04a53dd351" y="147.631445402"/>
    </g>
   </g>
   <g id="line2d_9">
    <path clip-path="url(#p22fa55cf72)" d="
M87.1006 77.3099
L421.901 77.3099" style="fill:none;stroke:#000000;stroke-dasharray:1.000000,3.000000;stroke-dashoffset:0.0;stroke-linecap:butt;stroke-width:3.0;"/>
   </g>
   <g id="patch_3">
    <path d="
M87.1006 11.0913
L421.901 11.0913" style="fill:none;stroke:#000000;"/>
   </g>
   <g id="patch_4">
    <path d="
M421.901 200.091
L421.901 11.0913" style="fill:none;stroke:#000000;"/>
   </g>
   <g id="matplotlib.axis_1">
    <g id="ytick_1">
     <g id="line2d_10">
      <defs>
       <path d="
M0 0
L4 0" id="mc8fcea1516" style="stroke:#000000;stroke-linecap:butt;stroke-width:0.5;"/>
      </defs>
      <g>
       <use style="stroke:#000000;stroke-linecap:butt;stroke-width:0.5;" x="87.1005505478" xlink:href="#mc8fcea1516" y="170.915212397"/>
      </g>
     </g>
     <g id="text_1">
      <!-- $-0.6$ -->
      <defs>
       <path d="
M65.9062 23
C67.5938 23 69.4062 23 69.4062 25
C69.4062 27 67.5938 27 65.9062 27
L11.7969 27
C10.0938 27 8.29688 27 8.29688 25
C8.29688 23 10.0938 23 11.7969 23
z
" id="CMSY10-0"/>
       <path d="
M42 31.6406
C42 37.75 41.9062 48.125 37.7031 56.1094
C34 63.1094 28.0938 65.5938 22.9062 65.5938
C18.0938 65.5938 12 63.4062 8.20312 56.2031
C4.20312 48.7188 3.79688 39.4375 3.79688 31.6406
C3.79688 25.9531 3.90625 17.2812 7 9.67188
C11.2969 -0.609375 19 -2 22.9062 -2
C27.5 -2 34.5 -0.109375 38.5938 9.375
C41.5938 16.2812 42 24.3594 42 31.6406
M22.9062 -0.40625
C16.5 -0.40625 12.7031 5.07812 11.2969 12.6875
C10.2031 18.5625 10.2031 27.1562 10.2031 32.75
C10.2031 40.4375 10.2031 46.8281 11.5 52.9219
C13.4062 61.3906 19 64 22.9062 64
C27 64 32.2969 61.2969 34.2031 53.125
C35.5 47.4375 35.5938 40.7344 35.5938 32.75
C35.5938 26.25 35.5938 18.2656 34.4062 12.375
C32.2969 1.48438 26.4062 -0.40625 22.9062 -0.40625" id="CMR17-48"/>
       <path d="
M10.5938 34
C10.5938 57.6562 21.7969 63 28.2969 63
C30.4062 63 35.5 62.6406 37.5 59
C35.9062 59 32.9062 59 32.9062 55.5156
C32.9062 52.8281 35.0938 51.9219 36.5 51.9219
C37.4062 51.9219 40.0938 52.3125 40.0938 55.625
C40.0938 61.7812 35.0938 65.2969 28.2031 65.2969
C16.2969 65.2969 3.79688 52.9688 3.79688 31
C3.79688 3.95312 15.0938 -2 23.0938 -2
C32.7969 -2 42 6.67188 42 20.0469
C42 32.5156 33.9062 41.5938 23.7031 41.5938
C17.5938 41.5938 13.0938 37.6094 10.5938 30.625
z

M23.0938 0.390625
C10.7969 0.390625 10.7969 18.75 10.7969 22.4375
C10.7969 29.625 14.2031 40 23.5 40
C25.2031 40 30.0938 40 33.4062 33.125
C35.2031 29.2188 35.2031 25.1406 35.2031 20.1406
C35.2031 14.75 35.2031 10.7812 33.0938 6.78125
C30.9062 2.67188 27.7031 0.390625 23.0938 0.390625" id="CMR17-54"/>
       <path d="
M18.4062 4.79688
C18.4062 7.6875 16 9.67188 13.5938 9.67188
C10.7031 9.67188 8.70312 7.28125 8.70312 4.89062
C8.70312 2 11.0938 0 13.5 0
C16.4062 0 18.4062 2.39062 18.4062 4.79688" id="CMMI12-58"/>
      </defs>
      <g transform="translate(36.0688049696 179.617921172)scale(0.24 -0.24)">
       <use transform="translate(0.0 8.30225582289)scale(0.996264009963)" xlink:href="#CMSY10-0"/>
       <use transform="translate(77.4874676506 8.30225582289)scale(0.996264009963)" xlink:href="#CMR17-48"/>
       <use transform="translate(123.177944768 8.30225582289)scale(0.996264009963)" xlink:href="#CMMI12-58"/>
       <use transform="translate(150.275121857 8.30225582289)scale(0.996264009963)" xlink:href="#CMR17-54"/>
      </g>
     </g>
    </g>
    <g id="ytick_2">
     <g id="line2d_11">
      <g>
       <use style="stroke:#000000;stroke-linecap:butt;stroke-width:0.5;" x="87.1005505478" xlink:href="#mc8fcea1516" y="139.713457351"/>
      </g>
     </g>
     <g id="text_2">
      <!-- $-0.4$ -->
      <defs>
       <path d="
M33.5938 64.3281
C33.5938 66.4062 33.5 66.5 31.7031 66.5
L2 19.5938
L2 17
L27.7969 17
L27.7969 7.14062
C27.7969 3.5 27.5938 2.5 20.5938 2.5
L18.7031 2.5
L18.7031 0
C21.9062 0 27.2969 0 30.7031 0
C34.0938 0 39.5 0 42.7031 0
L42.7031 2.5
L40.7969 2.5
C33.7969 2.5 33.5938 3.5 33.5938 7.14062
L33.5938 17
L43.7969 17
L43.7969 19.5938
L33.5938 19.5938
z

M28.0938 57.7656
L28.0938 19.5938
L4 19.5938
z
" id="CMR17-52"/>
      </defs>
      <g transform="translate(36.0688049696 148.416166126)scale(0.24 -0.24)">
       <use transform="translate(0.0 8.30225582289)scale(0.996264009963)" xlink:href="#CMSY10-0"/>
       <use transform="translate(77.4874676506 8.30225582289)scale(0.996264009963)" xlink:href="#CMR17-48"/>
       <use transform="translate(123.177944768 8.30225582289)scale(0.996264009963)" xlink:href="#CMMI12-58"/>
       <use transform="translate(150.275121857 8.30225582289)scale(0.996264009963)" xlink:href="#CMR17-52"/>
      </g>
     </g>
    </g>
    <g id="ytick_3">
     <g id="line2d_12">
      <g>
       <use style="stroke:#000000;stroke-linecap:butt;stroke-width:0.5;" x="87.1005505478" xlink:href="#mc8fcea1516" y="108.511702304"/>
      </g>
     </g>
     <g id="text_3">
      <!-- $-0.2$ -->
      <defs>
       <path d="
M41.7031 15.4531
L39.9062 15.4531
C38.9062 8.375 38.0938 7.17188 37.7031 6.5625
C37.2031 5.76562 30 5.76562 28.5938 5.76562
L9.40625 5.76562
C13 9.67188 20 16.75 28.5 24.9531
C34.5938 30.7344 41.7031 37.5312 41.7031 47.4219
C41.7031 59.2188 32.2969 66 21.7969 66
C10.7969 66 4.09375 56.3125 4.09375 47.3438
C4.09375 43.4375 7 42.9375 8.20312 42.9375
C9.20312 42.9375 12.2031 43.5469 12.2031 47.0312
C12.2031 50.1094 9.59375 51 8.20312 51
C7.59375 51 7 50.9062 6.59375 50.7031
C8.5 59.2188 14.2969 63.4062 20.4062 63.4062
C29.0938 63.4062 34.7969 56.5156 34.7969 47.4219
C34.7969 38.7344 29.7031 31.25 24 24.75
L4.09375 2.28125
L4.09375 0
L39.2969 0
z
" id="CMR17-50"/>
      </defs>
      <g transform="translate(36.0688049696 117.214411079)scale(0.24 -0.24)">
       <use transform="translate(0.0 8.30225582289)scale(0.996264009963)" xlink:href="#CMSY10-0"/>
       <use transform="translate(77.4874676506 8.30225582289)scale(0.996264009963)" xlink:href="#CMR17-48"/>
       <use transform="translate(123.177944768 8.30225582289)scale(0.996264009963)" xlink:href="#CMMI12-58"/>
       <use transform="translate(150.275121857 8.30225582289)scale(0.996264009963)" xlink:href="#CMR17-50"/>
      </g>
     </g>
    </g>
    <g id="ytick_4">
     <g id="line2d_13">
      <g>
       <use style="stroke:#000000;stroke-linecap:butt;stroke-width:0.5;" x="87.1005505478" xlink:href="#mc8fcea1516" y="77.3099472575"/>
      </g>
     </g>
     <g id="text_4">
      <!-- $0.0$ -->
      <g transform="translate(54.66579903 85.0163844218)scale(0.24 -0.24)">
       <use transform="scale(0.996264009963)" xlink:href="#CMR17-48"/>
       <use transform="translate(45.6904771171 0.0)scale(0.996264009963)" xlink:href="#CMMI12-58"/>
       <use transform="translate(72.7876542069 0.0)scale(0.996264009963)" xlink:href="#CMR17-48"/>
      </g>
     </g>
    </g>
    <g id="ytick_5">
     <g id="line2d_14">
      <g>
       <use style="stroke:#000000;stroke-linecap:butt;stroke-width:0.5;" x="87.1005505478" xlink:href="#mc8fcea1516" y="46.1081922109"/>
      </g>
     </g>
     <g id="text_5">
      <!-- $0.2$ -->
      <g transform="translate(54.66579903 53.8146293753)scale(0.24 -0.24)">
       <use transform="scale(0.996264009963)" xlink:href="#CMR17-48"/>
       <use transform="translate(45.6904771171 0.0)scale(0.996264009963)" xlink:href="#CMMI12-58"/>
       <use transform="translate(72.7876542069 0.0)scale(0.996264009963)" xlink:href="#CMR17-50"/>
      </g>
     </g>
    </g>
    <g id="ytick_6">
     <g id="line2d_15">
      <g>
       <use style="stroke:#000000;stroke-linecap:butt;stroke-width:0.5;" x="87.1005505478" xlink:href="#mc8fcea1516" y="14.9064371643"/>
      </g>
     </g>
     <g id="text_6">
      <!-- $0.4$ -->
      <g transform="translate(54.66579903 22.6128743287)scale(0.24 -0.24)">
       <use transform="scale(0.996264009963)" xlink:href="#CMR17-48"/>
       <use transform="translate(45.6904771171 0.0)scale(0.996264009963)" xlink:href="#CMMI12-58"/>
       <use transform="translate(72.7876542069 0.0)scale(0.996264009963)" xlink:href="#CMR17-52"/>
      </g>
     </g>
    </g>
    <g id="text_7">
     <!-- Energy [Hartree] -->
     <defs>
      <path d="
M60.7031 25.0781
L58.9062 25.0781
C56.7031 10.5156 55.4062 2.59375 37.7969 2.59375
L23.9062 2.59375
C19.9062 2.59375 19.7031 3.07812 19.7031 6.46875
L19.7031 34
L29.0938 34
C38.5 34 39.4062 30.5625 39.4062 22.125
L41.2031 22.125
L41.2031 48
L39.4062 48
C39.4062 39.9219 38.5 36.5938 29.0938 36.5938
L19.7031 36.5938
L19.7031 61.1406
C19.7031 64.5 19.9062 65 23.9062 65
L37.5938 65
C53.0938 65 54.9062 58.8594 56.2969 45.6562
L58.0938 45.6562
L55.7031 67.5781
L5.09375 67.5781
L5.09375 65
C12 65 13.0938 65 13.0938 60.5312
L13.0938 7.04688
C13.0938 2.59375 12 2.59375 5.09375 2.59375
L5.09375 0
L57.0938 0
z
" id="CMR17-69"/>
      <path d="
M36 25.8281
C36 32.375 36 35.8438 31.7969 39.7344
C28.0938 43 23.7969 44 20.4062 44
C12.5 44 6.79688 37.6094 6.79688 30.7969
C6.79688 27 9.79688 27 10.4062 27
C11.7031 27 14 27.7812 14 30.5312
C14 33 12.0938 34.0781 10.4062 34.0781
C10 34.0781 9.5 33.9688 9.20312 33.875
C11.2969 40.5 16.7031 42.4062 20.2031 42.4062
C25.2031 42.4062 30.7031 37.9531 30.7031 29.4531
L30.7031 25
C24.7969 25 17.7031 24.2031 12.0938 21.2031
C5.79688 17.7031 4 12.7031 4 8.90625
C4 1.20312 13 -1 18.2969 -1
C23.7969 -1 28.9062 2.17188 31.0938 7.98438
C31.2969 3.64062 34.0938 -0.28125 38.5 -0.28125
C40.5938 -0.28125 45.9062 1.09375 45.9062 8.85938
L45.9062 14.375
L44.0938 14.375
L44.0938 8.78125
C44.0938 2.78125 41.4062 2 40.0938 2
C36 2 36 7.15625 36 11.5312
z

M30.7031 13.5938
C30.7031 4.95312 24.5 0.59375 19 0.59375
C14 0.59375 10.0938 4.29688 10.0938 8.90625
C10.0938 11.8906 11.4062 17.1875 17.2031 20.3906
C22 23.0938 27.5 23.5 30.7031 23.5
z
" id="CMR17-97"/>
      <path d="
M41.5 30.2031
C41.5 35.2969 40.5 43.5938 28.7031 43.5938
C20.7969 43.5938 16.7031 37.5 15.2031 33.5
L15.0938 33.5
L15.0938 43.5938
L3.29688 42.5
L3.29688 39.9062
C9.20312 39.9062 10.0938 39.2969 10.0938 34.5
L10.0938 6.6875
C10.0938 2.875 9.70312 2.39062 3.29688 2.39062
L3.29688 -0.203125
C5.70312 0 10.0938 0 12.7031 0
C15.2969 0 19.7969 0 22.2031 -0.203125
L22.2031 2.39062
C15.7969 2.39062 15.4062 2.78125 15.4062 6.6875
L15.4062 25.9062
C15.4062 35.1094 21 42 28 42
C35.4062 42 36.2031 35.4062 36.2031 30.5938
L36.2031 6.6875
C36.2031 2.875 35.7969 2.39062 29.4062 2.39062
L29.4062 -0.203125
C31.7969 0 36.2031 0 38.7969 0
C41.4062 0 45.9062 0 48.2969 -0.203125
L48.2969 2.39062
C41.9062 2.39062 41.5 2.78125 41.5 6.6875
z
" id="CMR17-110"/>
      <path d="
M14.2969 74.4844
L1.40625 74.4844
L1.40625 71
L10.7969 71
L10.7969 -21.5156
L1.40625 -21.5156
L1.40625 -25
L14.2969 -25
z
" id="CMR17-93"/>
      <path d="
M39 34.3281
C41.5 40.4062 46 40.4062 47.4062 40.4062
L47.4062 43
C45.5 43 43 43 41.0938 43
C39 43 35.7031 43 33.7031 43.0938
L33.7031 40.5
C37.5 40.2031 37.5938 37.4062 37.5938 36.6094
C37.5938 35.625 37.4062 35.125 36.9062 33.9219
L26 7.01562
L14.0938 36.0312
C13.5938 37.2188 13.5938 37.9062 13.5938 38.0156
C13.5938 40.2031 15.9062 40.4062 18.2969 40.4062
L18.2969 43.0938
C15.9062 43 11.5938 43 9.09375 43
C6.40625 43 3.20312 43 1 43.0938
L1 40.4062
C6.40625 40.4062 7 39.9062 8.29688 36.7188
L23.2031 0.234375
C18.7031 -11.5312 16.0938 -18.4062 9.79688 -18.4062
C8.70312 -18.4062 6.20312 -18.1094 4.40625 -16.3125
C6.70312 -16.1094 7.70312 -14.7188 7.70312 -13.0156
C7.70312 -11.3281 6.5 -9.82812 4.5 -9.82812
C2.29688 -9.82812 1.20312 -11.3281 1.20312 -13.125
C1.20312 -17.1094 5.29688 -20 9.79688 -20
C15.5938 -20 19.2031 -14.4062 21.2031 -9.4375
z
" id="CMR17-121"/>
      <path d="
M15.0938 40
L29.0938 40
L29.0938 42.5781
L15.0938 42.5781
L15.0938 61
L13.2969 61
C13.0938 50.7031 9.59375 41.6875 1.09375 41.6875
L1.09375 40
L9.79688 40
L9.79688 12.0469
C9.79688 10.1562 9.79688 -1 21.4062 -1
C27.2969 -1 30.7031 4.78125 30.7031 12.1406
L30.7031 17.8125
L28.9062 17.8125
L28.9062 12.2344
C28.9062 5.375 26.2031 0.796875 22 0.796875
C19.0938 0.796875 15.0938 2.78125 15.0938 11.8438
z
" id="CMR17-116"/>
      <path d="
M15 23.3906
C15 33 19.0938 42 26.5938 42
C27.2969 42 28 41.9062 28.7031 41.5938
C28.7031 41.5938 26.5 40.8906 26.5 38.3125
C26.5 35.9062 28.4062 34.9062 29.9062 34.9062
C31.0938 34.9062 33.2969 35.6094 33.2969 38.4062
C33.2969 41.6094 30.0938 43.5938 26.7031 43.5938
C19.0938 43.5938 15.7969 36.2031 14.7969 32.7031
L14.7031 32.7031
L14.7031 43.5938
L3.09375 42.5
L3.09375 39.9062
C9 39.9062 9.90625 39.2969 9.90625 34.5
L9.90625 6.6875
C9.90625 2.875 9.5 2.39062 3.09375 2.39062
L3.09375 -0.203125
C5.5 0 10.0938 0 12.7031 0
C15.5938 0 20.7031 0 23.4062 -0.203125
L23.4062 2.39062
C16.2031 2.39062 15 2.39062 15 6.875
z
" id="CMR17-114"/>
      <path d="
M38.0938 23
C38.5 23.4062 38.5 23.6094 38.5 24.625
C38.5 34.9688 33.0938 44 21.7031 44
C11.0938 44 2.70312 33.8906 2.70312 21.6094
C2.70312 8.60938 12.2031 -1 22.7969 -1
C34 -1 38.4062 9.46875 38.4062 11.5469
C38.4062 12.25 37.7969 12.25 37.5938 12.25
C36.9062 12.25 36.7969 12.0469 36.4062 10.875
C34.2031 4.14062 28.7031 0.796875 23.5 0.796875
C19.2031 0.796875 14.9062 3.17188 12.2031 7.5
C9.09375 12.5469 9.09375 18.375 9.09375 23
z

M9.20312 24.5
C9.90625 39.1406 17.5938 42.4062 21.5938 42.4062
C28.4062 42.4062 33 35.8906 33.0938 24.5
z
" id="CMR17-101"/>
      <path d="
M11.0938 18.1875
C13 16.6875 16.2969 15 20.2969 15
C28.2031 15 35 21.2031 35 29.5
C35 32.0938 34.2031 36.0938 31.2031 39.2031
C34 42.0625 38.0938 43 40.4062 43
C40.7969 43 41.4062 43 41.9062 42.7656
C41.5 42.6719 40.5938 42.2812 40.5938 40.7344
C40.5938 39.4844 41.5 38.6094 42.7969 38.6094
C44.2969 38.6094 45.0938 39.5781 45.0938 40.8438
C45.0938 42.6719 43.5938 44.5938 40.4062 44.5938
C36.4062 44.5938 32.9062 42.7812 30.0938 40.3125
C27.0938 43.0156 23.5 44 20.2969 44
C12.4062 44 5.59375 37.7969 5.59375 29.5
C5.59375 23.7812 8.90625 20.1875 9.90625 19.1875
C6.90625 15.6875 6.90625 11.6094 6.90625 11.1094
C6.90625 8.51562 7.90625 4.71875 11.2969 2.625
C6.09375 1.32812 2 -2.64062 2 -7.59375
C2 -14.7344 11.5 -20 22.9062 -20
C33.9062 -20 43.7969 -14.9375 43.7969 -7.48438
C43.7969 6 29 6 21.2969 6
C19 6 14.9062 6 14.4062 6.10938
C11.2969 6.60938 9.20312 9.40625 9.20312 12.8906
C9.20312 13.7812 9.20312 16 11.0938 18.1875
M20.2969 16.6875
C11.5 16.6875 11.5 27.5 11.5 29.5156
C11.5 31.5 11.5 42.3125 20.2969 42.3125
C29.0938 42.3125 29.0938 31.5 29.0938 29.5156
C29.0938 27.5 29.0938 16.6875 20.2969 16.6875
M22.9062 -18.2969
C12.9062 -18.2969 6 -13.0469 6 -7.59375
C6 -4.51562 7.70312 -1.64062 9.90625 -0.0625
C12.4062 1.625 13.4062 1.625 20.2031 1.625
C28.4062 1.625 39.7969 1.625 39.7969 -7.59375
C39.7969 -13.0469 32.9062 -18.2969 22.9062 -18.2969" id="CMR17-103"/>
      <path d="
M56.0938 61.0156
C56.0938 65.5 57.2031 65.5 64.0938 65.5
L64.0938 68
C61.2031 68 55.9062 68 52.7969 68
C49.7031 68 44.4062 68 41.5 68
L41.5 65.5
C48.4062 65.5 49.5 65.5 49.5 61
L49.5 36.5781
L19.7031 36.5781
L19.7031 61
C19.7031 65.5 20.7969 65.5 27.7031 65.5
L27.7031 68
C24.7969 68 19.5 68 16.4062 68
C13.2969 68 8 68 5.09375 68
L5.09375 65.5
C12 65.5 13.0938 65.5 13.0938 61.0156
L13.0938 6.98438
C13.0938 2.5 12 2.5 5.09375 2.5
L5.09375 0
C8 0 13.2969 0 16.4062 0
C19.5 0 24.7969 0 27.7031 0
L27.7031 2.5
C20.7969 2.5 19.7031 2.5 19.7031 6.96875
L19.7031 34
L49.5 34
L49.5 6.96875
C49.5 2.5 48.4062 2.5 41.5 2.5
L41.5 0
C44.4062 0 49.7031 0 52.7969 0
C55.9062 0 61.2031 0 64.0938 0
L64.0938 2.5
C57.2031 2.5 56.0938 2.5 56.0938 6.98438
z
" id="CMR17-72"/>
      <path d="
M23.5 -25
L23.5 -21.5156
L14.0938 -21.5156
L14.0938 71
L23.5 71
L23.5 74.4844
L10.5938 74.4844
L10.5938 -25
z
" id="CMR17-91"/>
     </defs>
     <g transform="translate(31.0688049696 185.346392945)rotate(-90.0)scale(0.24 -0.24)">
      <use transform="translate(0.0 24.8232640781)scale(0.996264009963)" xlink:href="#CMR17-69"/>
      <use transform="translate(62.5863005186 24.8232640781)scale(0.996264009963)" xlink:href="#CMR17-110"/>
      <use transform="translate(113.481670299 24.8232640781)scale(0.996264009963)" xlink:href="#CMR17-101"/>
      <use transform="translate(153.967330762 24.8232640781)scale(0.996264009963)" xlink:href="#CMR17-114"/>
      <use transform="translate(189.248098561 24.8232640781)scale(0.996264009963)" xlink:href="#CMR17-103"/>
      <use transform="translate(234.938575678 24.8232640781)scale(0.996264009963)" xlink:href="#CMR17-121"/>
      <use transform="translate(313.307457873 24.8232640781)scale(0.996264009963)" xlink:href="#CMR17-91"/>
      <use transform="translate(338.178516355 24.8232640781)scale(0.996264009963)" xlink:href="#CMR17-72"/>
      <use transform="translate(407.250946159 24.8232640781)scale(0.996264009963)" xlink:href="#CMR17-97"/>
      <use transform="translate(452.941423276 24.8232640781)scale(0.996264009963)" xlink:href="#CMR17-114"/>
      <use transform="translate(488.222191075 24.8232640781)scale(0.996264009963)" xlink:href="#CMR17-116"/>
      <use transform="translate(523.502958875 24.8232640781)scale(0.996264009963)" xlink:href="#CMR17-114"/>
      <use transform="translate(558.783726674 24.8232640781)scale(0.996264009963)" xlink:href="#CMR17-101"/>
      <use transform="translate(599.269387137 24.8232640781)scale(0.996264009963)" xlink:href="#CMR17-101"/>
      <use transform="translate(639.7550476 24.8232640781)scale(0.996264009963)" xlink:href="#CMR17-93"/>
     </g>
    </g>
   </g>
   <g id="patch_5">
    <path d="
M87.1006 200.091
L421.901 200.091" style="fill:none;stroke:#000000;"/>
   </g>
   <g id="patch_6">
    <path d="
M87.1006 200.091
L87.1006 11.0913" style="fill:none;stroke:#000000;"/>
   </g>
   <g id="patch_7">
    <path clip-path="url(#p22fa55cf72)" d="
M128.951 74.1942
Q128.951 45.7792 128.951 17.3641" style="fill:none;stroke:#0000ff;stroke-linecap:round;"/>
    <path clip-path="url(#p22fa55cf72)" d="
M133.751 64.5942
L128.951 74.1942
L124.151 64.5942
L133.751 64.5942
z
" style="fill:#0000ff;stroke:#0000ff;stroke-linecap:round;"/>
    <path clip-path="url(#p22fa55cf72)" d="
M124.151 26.9641
L128.951 17.3641
L133.751 26.9641
L124.151 26.9641
z
" style="fill:#0000ff;stroke:#0000ff;stroke-linecap:round;"/>
   </g>
   <g id="text_8">
    <!-- $K_e$ -->
    <defs>
     <path d="
M50 40.1719
C49.9062 40.4688 49.5 41.2656 49.5 41.5781
C49.5 41.6719 49.5938 41.7656 51.2969 43.0625
L61 50.6562
C74.4062 61.0156 78.7969 64.5 85.7031 65.1094
C86.4062 65.2031 87.4062 65.2031 87.4062 66.9062
C87.4062 67.5 87.0938 68 86.2969 68
C85.2031 68 84 68 82.9062 68
L79.0938 68
C76 68 72.7031 68 69.7031 68
C69 68 67.7969 68 67.7969 66.2656
C67.7969 65.2969 68.5 65.2031 69.0938 65.2031
C70.2031 65.0938 71.5 64.7031 71.5 63.2969
C71.5 61.3125 68.5 58.9062 67.7031 58.3125
L28.5 27.875
L36.7969 60.8125
C37.7031 64.2031 37.9062 65.2031 45 65.2031
C46.9062 65.2031 47.7969 65.2031 47.7969 67.0312
C47.7969 68 46.7969 68 46.2969 68
C44.5 68 42.4062 68 40.5 68
L28.7031 68
C26.9062 68 24.7031 68 22.9062 68
C22.0938 68 21 68 21 66.1719
C21 65.2031 21.9062 65.2031 23.4062 65.2031
C29.5 65.2031 29.5 64.4062 29.5 63.2969
C29.5 63.1094 29.5 62.5 29.0938 61
L15.5938 7.39062
C14.7031 3.89062 14.5 2.89062 7.5 2.89062
C5.59375 2.89062 4.59375 2.89062 4.59375 1.09375
C4.59375 0 5.5 0 6.09375 0
C8 0 10 0 11.9062 0
L23.5938 0
C25.5 0 27.5938 0 29.5 0
C30.2969 0 31.4062 0 31.4062 1.89062
C31.4062 2.89062 30.5 2.89062 29 2.89062
C22.9062 2.89062 22.9062 3.6875 22.9062 4.6875
C22.9062 5.39062 23.5 7.875 23.9062 9.46875
L27.7969 24.8906
L43 36.7344
C45.9062 30.3438 51.2031 17.5469 55.2969 7.78125
C55.5938 7.17188 55.7969 6.57812 55.7969 5.875
C55.7969 2.89062 51.7969 2.89062 50.9062 2.89062
C50 2.89062 49 2.89062 49 1
C49 0 50.0938 0 50.4062 0
C53.9062 0 57.5938 0 61.0938 0
L65.9062 0
C67.4062 0 69.0938 0 70.5938 0
C71.2031 0 72.2969 0 72.2969 1.89062
C72.2969 2.89062 71.4062 2.89062 70.4062 2.89062
C66.7031 2.89062 65.4062 3.6875 63.9062 7.28125
z
" id="CMMI12-75"/>
     <path d="
M17.9062 23.1094
C20.5938 23.1094 27.4062 23.1094 32.2031 24.9219
C39.7969 27.8594 40.5 33.7188 40.5 35.5312
C40.5 39.9688 36.7031 44 30.0938 44
C19.5938 44 4.5 34.5312 4.5 16.7656
C4.5 6.28125 10.5 -1 19.5938 -1
C33.2031 -1 41.7969 9.53125 41.7969 10.8125
C41.7969 11.4062 41.2031 11.9062 40.7969 11.9062
C40.5 11.9062 40.4062 11.8125 39.5 10.9219
C33.0938 2.48438 23.5938 1 19.7969 1
C14.0938 1 11.0938 5.46875 11.0938 12.8438
C11.0938 14.2344 11.0938 16.7344 12.5938 23.1094
z

M13.0938 25
C17.4062 40.5 26.9062 42.0156 30.0938 42.0156
C34.5 42.0156 37.5 39.4062 37.5 35.5781
C37.5 25 21.5 25 17.2969 25
z
" id="CMMI12-101"/>
    </defs>
    <g style="fill:#0000ff;" transform="translate(101.43675341 55.7398824991)scale(0.24 -0.24)">
     <use transform="translate(0.0 14.9439145441)scale(0.996264009963)" xlink:href="#CMMI12-75"/>
     <use transform="translate(82.9926107176 0.0)scale(0.697381766617)" xlink:href="#CMMI12-101"/>
    </g>
   </g>
   <g id="patch_8">
    <path clip-path="url(#p22fa55cf72)" d="
M130.951 14.2446
Q170.801 14.2446 209.533 14.2446" style="fill:none;stroke:#0000ff;stroke-linecap:round;"/>
    <path clip-path="url(#p22fa55cf72)" d="
M199.933 9.44455
L209.533 14.2446
L199.933 19.0446
L199.933 9.44455
z
" style="fill:#0000ff;stroke:#0000ff;stroke-linecap:round;"/>
   </g>
   <g id="text_9">
    <!-- $v_e$ -->
    <defs>
     <path d="
M45.7031 37.3281
C45.7031 43.6094 42.5 44 41.7031 44
C39.2969 44 37.0938 41.6094 37.0938 39.6094
C37.0938 38.4219 37.7969 37.7188 38.2031 37.3281
C39.2031 36.4219 41.7969 33.7344 41.7969 28.5469
C41.7969 24.3438 35.7969 1 23.7969 1
C17.7031 1 16.5 6.09375 16.5 9.78125
C16.5 14.7656 18.7969 21.75 21.5 28.9375
C23.0938 33.0312 23.5 34.0312 23.5 36.0156
C23.5 40.2188 20.5 44 15.5938 44
C6.40625 44 2.70312 29.5312 2.70312 28.7344
C2.70312 28.3438 3.09375 27.8438 3.79688 27.8438
C4.70312 27.8438 4.79688 28.2344 5.20312 29.6406
C7.59375 38.2188 11.5 42.0156 15.2969 42.0156
C16.2031 42.0156 17.9062 42.0156 17.9062 38.7188
C17.9062 36.125 16.7969 33.2344 15.2969 29.4375
C10.5 16.6719 10.5 13.5781 10.5 11.1719
C10.5 8.98438 10.7969 4.89062 13.9062 2.09375
C17.5 -1 22.5 -1 23.4062 -1
C40 -1 45.7031 31.625 45.7031 37.3281" id="CMMI12-118"/>
    </defs>
    <g style="fill:#0000ff;" transform="translate(161.343498927 28.1258322956)scale(0.24 -0.24)">
     <use transform="translate(0.0 14.9439145441)scale(0.996264009963)" xlink:href="#CMMI12-118"/>
     <use transform="translate(47.1605806838 0.0)scale(0.697381766617)" xlink:href="#CMMI12-101"/>
    </g>
   </g>
   <g id="text_10">
    <!-- a) -->
    <defs>
     <path d="
M26.2969 24.6719
C26.2969 31.8438 25.5938 43.9844 19.5938 56.8281
C14.7969 67.1875 6.59375 74.4531 5.40625 74.4531
C5.09375 74.4531 4.70312 74.3438 4.70312 73.8438
C4.70312 73.6562 4.79688 73.5469 4.90625 73.3438
C9.70312 68.375 21.9062 55.7344 21.9062 24.7812
C21.9062 -6.28125 9.79688 -18.9219 4.90625 -23.9062
C4.79688 -24.0938 4.70312 -24.2031 4.70312 -24.3906
C4.70312 -24.8906 5.09375 -25 5.40625 -25
C6.5 -25 15 -17.625 19.9062 -6.67188
C24.9062 4.375 26.2969 15.125 26.2969 24.6719" id="CMR17-41"/>
    </defs>
    <g transform="translate(103.840550548 197.188352766)scale(0.24 -0.24)">
     <use transform="translate(0.0 24.8232640781)scale(0.996264009963)" xlink:href="#CMR17-97"/>
     <use transform="translate(45.6904771171 24.8232640781)scale(0.996264009963)" xlink:href="#CMR17-41"/>
    </g>
   </g>
  </g>
  <g id="axes_2">
   <g id="patch_9">
    <path d="
M421.901 200.091
L756.701 200.091
L756.701 11.0913
L421.901 11.0913
z
" style="fill:none;opacity:0.0;"/>
   </g>
   <g id="line2d_16">
    <path clip-path="url(#pc68816fddf)" d="
M421.901 85.1104
L440.668 86.0953
L456.419 87.1367
L469.825 88.2393
L481.219 89.3916
L491.274 90.6307
L499.987 91.9303
L507.36 93.2458
L514.063 94.6655
L519.76 96.0874
L525.122 97.6563
L529.814 99.261
L534.171 100.996
L537.857 102.693
L541.209 104.462
L544.225 106.279
L547.241 108.356
L549.922 110.47
L552.603 112.893
L554.949 115.323
L557.295 118.109
L559.306 120.844
L561.317 123.972
L562.992 126.945
L564.668 130.321
L566.344 134.191
L568.019 138.669
L569.695 143.914
L571.036 148.802
L572.376 154.465
L573.717 161.102
L575.057 168.988
L576.398 178.513
L577.403 187.065
L578.409 197.197
L578.744 201.003
M599.857 201.003
L600.863 190.247
L602.203 178.513
L603.544 168.988
L604.884 161.102
L606.225 154.465
L607.565 148.802
L609.241 142.794
L610.917 137.718
L612.592 133.372
L614.268 129.61
L615.944 126.32
L617.955 122.881
L619.965 119.893
L621.976 117.272
L624.322 114.595
L626.668 112.255
L629.349 109.915
L632.03 107.869
L635.046 105.854
L638.398 103.906
L642.084 102.048
L646.106 100.297
L650.463 98.6596
L655.155 97.1385
L660.517 95.6456
L666.549 94.2137
L673.252 92.8641
L680.625 91.6084
L689.003 90.4068
L698.722 89.2435
L709.782 88.1481
L722.517 87.112
L737.598 86.1152
L755.36 85.1734
L756.701 85.1104
L756.701 85.1104" style="fill:none;stroke:#0000ff;stroke-width:3.0;"/>
   </g>
   <g id="line2d_17">
    <path clip-path="url(#pc68816fddf)" d="
M421.901 147.631
L756.701 147.631" style="fill:none;stroke:#bf00bf;stroke-width:3.0;"/>
   </g>
   <g id="line2d_18">
    <path clip-path="url(#pc68816fddf)" d="
M421.901 96.577
L756.701 96.577" style="fill:none;stroke:#0000ff;stroke-dasharray:6.000000,6.000000;stroke-dashoffset:0.0;stroke-linecap:butt;stroke-width:3.0;"/>
   </g>
   <g id="line2d_19">
    <path clip-path="url(#pc68816fddf)" d="
M421.901 90.0995
L756.701 90.0995" style="fill:none;stroke:#ff0000;stroke-dasharray:6.000000,6.000000;stroke-dashoffset:0.0;stroke-linecap:butt;stroke-width:3.0;"/>
   </g>
   <g id="line2d_20">
    <path clip-path="url(#pc68816fddf)" d="
M421.901 87.2586
L756.701 87.2586" style="fill:none;stroke:#008000;stroke-dasharray:6.000000,6.000000;stroke-dashoffset:0.0;stroke-linecap:butt;stroke-width:3.0;"/>
   </g>
   <g id="line2d_21">
    <path clip-path="url(#pc68816fddf)" d="
M421.901 80.4332
L756.701 80.4332" style="fill:none;stroke:#bf00bf;stroke-dasharray:6.000000,6.000000;stroke-dashoffset:0.0;stroke-linecap:butt;stroke-width:3.0;"/>
   </g>
   <g id="line2d_22">
    <g clip-path="url(#pc68816fddf)">
     <use style="fill:#0000ff;stroke:#000000;stroke-linecap:butt;stroke-width:0.5;" x="589.300550548" xlink:href="#mdfd1f8ea2e" y="65.2989671464"/>
    </g>
   </g>
   <g id="line2d_23">
    <g clip-path="url(#pc68816fddf)">
     <use style="fill:#008000;stroke:#000000;stroke-linecap:butt;stroke-width:0.5;" x="589.300550548" xlink:href="#m04a53dd351" y="96.5770309988"/>
    </g>
   </g>
   <g id="line2d_24">
    <defs>
     <path d="
M0 7
C1.85642 7 3.63706 6.26244 4.94975 4.94975
C6.26244 3.63706 7 1.85642 7 0
C7 -1.85642 6.26244 -3.63706 4.94975 -4.94975
C3.63706 -6.26244 1.85642 -7 0 -7
C-1.85642 -7 -3.63706 -6.26244 -4.94975 -4.94975
C-6.26244 -3.63706 -7 -1.85642 -7 0
C-7 1.85642 -6.26244 3.63706 -4.94975 4.94975
C-3.63706 6.26244 -1.85642 7 0 7
z
" id="mac5b7cb608" style="stroke:#000000;stroke-linecap:butt;stroke-width:0.5;"/>
    </defs>
    <g clip-path="url(#pc68816fddf)">
     <use style="fill:#008000;opacity:0.4;stroke:#000000;stroke-linecap:butt;stroke-width:0.5;" x="589.300550548" xlink:href="#mac5b7cb608" y="147.631445402"/>
    </g>
   </g>
   <g id="line2d_25">
    <path clip-path="url(#pc68816fddf)" d="
M421.901 77.3099
L756.701 77.3099" style="fill:none;stroke:#000000;stroke-dasharray:1.000000,3.000000;stroke-dashoffset:0.0;stroke-linecap:butt;stroke-width:3.0;"/>
   </g>
   <g id="matplotlib.axis_2">
    <g id="ytick_7">
     <g id="line2d_26">
      <defs>
       <path d="
M0 0
L-4 0" id="m0d5b0a6425" style="stroke:#000000;stroke-linecap:butt;stroke-width:0.5;"/>
      </defs>
      <g>
       <use style="stroke:#000000;stroke-linecap:butt;stroke-width:0.5;" x="756.700550548" xlink:href="#m0d5b0a6425" y="191.97430092"/>
      </g>
     </g>
     <g id="text_11">
      <!-- $-20$ -->
      <g transform="translate(760.700550548 200.677009695)scale(0.24 -0.24)">
       <use transform="translate(0.0 8.30225582289)scale(0.996264009963)" xlink:href="#CMSY10-0"/>
       <use transform="translate(77.4874676506 8.30225582289)scale(0.996264009963)" xlink:href="#CMR17-50"/>
       <use transform="translate(123.177944768 8.30225582289)scale(0.996264009963)" xlink:href="#CMR17-48"/>
      </g>
     </g>
    </g>
    <g id="ytick_8">
     <g id="line2d_27">
      <g>
       <use style="stroke:#000000;stroke-linecap:butt;stroke-width:0.5;" x="756.700550548" xlink:href="#m0d5b0a6425" y="163.308212504"/>
      </g>
     </g>
     <g id="text_12">
      <!-- $-15$ -->
      <defs>
       <path d="
M26.5938 63.3125
C26.5938 65.4062 26.5 65.5 25.0938 65.5
C21.2031 61.1875 15.2969 59.7969 9.70312 59.7969
C9.40625 59.7969 8.90625 59.7969 8.79688 59.5
C8.70312 59.2969 8.70312 59.0938 8.70312 57
C11.7969 57 17 57.5938 21 59.9844
L21 7.20312
C21 3.6875 20.7969 2.5 12.2031 2.5
L9.20312 2.5
L9.20312 0
C14 0 19 0 23.7969 0
C28.5938 0 33.5938 0 38.4062 0
L38.4062 2.5
L35.4062 2.5
C26.7969 2.5 26.5938 3.59375 26.5938 7.15625
z
" id="CMR17-49"/>
       <path d="
M11.4062 57.6875
C12.4062 57.2812 16.5 56 20.7031 56
C30 56 35.0938 61.0156 38 63.9219
C38 64.7344 38 65.25 37.4062 65.25
C37.2969 65.25 37.0938 65.25 36.2969 64.8281
C32.7969 63.3125 28.7031 62.0781 23.7031 62.0781
C20.7031 62.0781 16.2031 62.5 11.2969 64.7344
C10.2031 65.25 10 65.25 9.90625 65.25
C9.40625 65.25 9.29688 65.1406 9.29688 63.1562
L9.29688 34.2812
C9.29688 32.5 9.29688 32 10.2969 32
C10.7969 32 11 32.2031 11.5 32.9062
C14.7031 37.4844 19.0938 39.4062 24.0938 39.4062
C27.5938 39.4062 35.0938 37.2188 35.0938 20.1406
C35.0938 16.9531 35.0938 11.1719 32.0938 6.57812
C29.5938 2.48438 25.7031 0.390625 21.4062 0.390625
C14.7969 0.390625 8.09375 5 6.29688 12.7188
C6.70312 12.6094 7.5 12.4219 7.90625 12.4219
C9.20312 12.4219 11.7031 13.125 11.7031 16.2188
C11.7031 18.9062 9.79688 20 7.90625 20
C5.59375 20 4.09375 18.5938 4.09375 15.7969
C4.09375 7.09375 11 -2 21.5938 -2
C31.9062 -2 41.7031 6.875 41.7031 19.75
C41.7031 31.7188 33.9062 41 24.2031 41
C19.0938 41 14.7969 39.0938 11.4062 35.4531
z
" id="CMR17-53"/>
      </defs>
      <g transform="translate(760.700550548 172.010921279)scale(0.24 -0.24)">
       <use transform="translate(0.0 8.30225582289)scale(0.996264009963)" xlink:href="#CMSY10-0"/>
       <use transform="translate(77.4874676506 8.30225582289)scale(0.996264009963)" xlink:href="#CMR17-49"/>
       <use transform="translate(123.177944768 8.30225582289)scale(0.996264009963)" xlink:href="#CMR17-53"/>
      </g>
     </g>
    </g>
    <g id="ytick_9">
     <g id="line2d_28">
      <g>
       <use style="stroke:#000000;stroke-linecap:butt;stroke-width:0.5;" x="756.700550548" xlink:href="#m0d5b0a6425" y="134.642124089"/>
      </g>
     </g>
     <g id="text_13">
      <!-- $-10$ -->
      <g transform="translate(760.700550548 143.344832864)scale(0.24 -0.24)">
       <use transform="translate(0.0 8.30225582289)scale(0.996264009963)" xlink:href="#CMSY10-0"/>
       <use transform="translate(77.4874676506 8.30225582289)scale(0.996264009963)" xlink:href="#CMR17-49"/>
       <use transform="translate(123.177944768 8.30225582289)scale(0.996264009963)" xlink:href="#CMR17-48"/>
      </g>
     </g>
    </g>
    <g id="ytick_10">
     <g id="line2d_29">
      <g>
       <use style="stroke:#000000;stroke-linecap:butt;stroke-width:0.5;" x="756.700550548" xlink:href="#m0d5b0a6425" y="105.976035673"/>
      </g>
     </g>
     <g id="text_14">
      <!-- $-5$ -->
      <g transform="translate(760.700550548 114.678744448)scale(0.24 -0.24)">
       <use transform="translate(0.0 8.30225582289)scale(0.996264009963)" xlink:href="#CMSY10-0"/>
       <use transform="translate(77.4874676506 8.30225582289)scale(0.996264009963)" xlink:href="#CMR17-53"/>
      </g>
     </g>
    </g>
    <g id="ytick_11">
     <g id="line2d_30">
      <g>
       <use style="stroke:#000000;stroke-linecap:butt;stroke-width:0.5;" x="756.700550548" xlink:href="#m0d5b0a6425" y="77.3099472575"/>
      </g>
     </g>
     <g id="text_15">
      <!-- $0$ -->
      <g transform="translate(760.700550548 85.0163844218)scale(0.24 -0.24)">
       <use transform="scale(0.996264009963)" xlink:href="#CMR17-48"/>
      </g>
     </g>
    </g>
    <g id="ytick_12">
     <g id="line2d_31">
      <g>
       <use style="stroke:#000000;stroke-linecap:butt;stroke-width:0.5;" x="756.700550548" xlink:href="#m0d5b0a6425" y="48.643858842"/>
      </g>
     </g>
     <g id="text_16">
      <!-- $5$ -->
      <g transform="translate(760.700550548 56.3502960063)scale(0.24 -0.24)">
       <use transform="scale(0.996264009963)" xlink:href="#CMR17-53"/>
      </g>
     </g>
    </g>
    <g id="ytick_13">
     <g id="line2d_32">
      <g>
       <use style="stroke:#000000;stroke-linecap:butt;stroke-width:0.5;" x="756.700550548" xlink:href="#m0d5b0a6425" y="19.9777704264"/>
      </g>
     </g>
     <g id="text_17">
      <!-- $10$ -->
      <g transform="translate(760.700550548 27.6842075908)scale(0.24 -0.24)">
       <use transform="scale(0.996264009963)" xlink:href="#CMR17-49"/>
       <use transform="translate(45.6904771171 0.0)scale(0.996264009963)" xlink:href="#CMR17-48"/>
      </g>
     </g>
    </g>
    <g id="text_18">
     <!-- Energy [eV] -->
     <defs>
      <path d="
M59 58.5156
C59.9062 60.7188 61.5 65 68.2031 65
L68.2031 67.6875
C65.9062 67.4844 63.2969 67.4844 60.7969 67.4844
C58.4062 67.4844 54.2969 67.4844 52 67.6875
L52 65
C57 65 57.2031 61.5 57.2031 60.9062
C57.2031 59.7969 56.9062 59.1094 56.5938 58.3125
L36.9062 6.96875
L16.2969 60.625
C16 61.3281 15.7969 61.8281 15.7969 62.3125
C15.7969 65 19.7969 65 21.9062 65
L21.9062 67.4844
C18.7031 67.4844 14 67.4844 10.7031 67.4844
C8.09375 67.4844 3.40625 67.4844 1 67.6875
L1 65
C6.79688 65 7.90625 64.6094 9.09375 61.4219
L32.9062 -0.40625
C33.4062 -1.79688 33.5 -2 34.5938 -2
C35.7031 -2 35.7969 -1.79688 36.2969 -0.40625
z
" id="CMR17-86"/>
     </defs>
     <g transform="translate(830.097778594 162.304192493)rotate(-90.0)scale(0.24 -0.24)">
      <use transform="translate(0.0 24.8232640781)scale(0.996264009963)" xlink:href="#CMR17-69"/>
      <use transform="translate(62.5863005186 24.8232640781)scale(0.996264009963)" xlink:href="#CMR17-110"/>
      <use transform="translate(113.481670299 24.8232640781)scale(0.996264009963)" xlink:href="#CMR17-101"/>
      <use transform="translate(153.967330762 24.8232640781)scale(0.996264009963)" xlink:href="#CMR17-114"/>
      <use transform="translate(189.248098561 24.8232640781)scale(0.996264009963)" xlink:href="#CMR17-103"/>
      <use transform="translate(234.938575678 24.8232640781)scale(0.996264009963)" xlink:href="#CMR17-121"/>
      <use transform="translate(313.307457873 24.8232640781)scale(0.996264009963)" xlink:href="#CMR17-91"/>
      <use transform="translate(338.178516355 24.8232640781)scale(0.996264009963)" xlink:href="#CMR17-101"/>
      <use transform="translate(378.664176817 24.8232640781)scale(0.996264009963)" xlink:href="#CMR17-86"/>
      <use transform="translate(447.736606622 24.8232640781)scale(0.996264009963)" xlink:href="#CMR17-93"/>
     </g>
    </g>
   </g>
   <g id="patch_10">
    <path d="
M421.901 11.0913
L756.701 11.0913" style="fill:none;stroke:#000000;"/>
   </g>
   <g id="patch_11">
    <path d="
M756.701 200.091
L756.701 11.0913" style="fill:none;stroke:#000000;"/>
   </g>
   <g id="patch_12">
    <path d="
M421.901 200.091
L756.701 200.091" style="fill:none;stroke:#000000;"/>
   </g>
   <g id="patch_13">
    <path d="
M421.901 200.091
L421.901 11.0913" style="fill:none;stroke:#000000;"/>
   </g>
   <g id="patch_14">
    <path clip-path="url(#pc68816fddf)" d="
M589.301 74.1891
Q589.301 71.3024 589.301 68.4157" style="fill:none;stroke:#0000ff;stroke-linecap:round;"/>
    <path clip-path="url(#pc68816fddf)" d="
M594.101 64.5891
L589.301 74.1891
L584.501 64.5891
L594.101 64.5891
z
" style="fill:#0000ff;stroke:#0000ff;stroke-linecap:round;"/>
    <path clip-path="url(#pc68816fddf)" d="
M584.501 78.0157
L589.301 68.4157
L594.101 78.0157
L584.501 78.0157
z
" style="fill:#0000ff;stroke:#0000ff;stroke-linecap:round;"/>
   </g>
   <g id="text_19">
    <!-- $K_e'$   . -->
    <defs>
     <path d="
M25.2969 47.5
C25.7969 48.7031 26.2031 49.5938 26.2031 50.5938
C26.2031 53.5 23.5938 55.9062 20.5 55.9062
C17.7031 55.9062 15.9062 54 15.2031 51.4062
L3.29688 7.70312
C3.29688 7.5 2.90625 6.40625 2.90625 6.29688
C2.90625 5.20312 5.5 4.5 6.29688 4.5
C6.90625 4.5 7 4.79688 7.59375 6.09375
z
" id="CMSY10-48"/>
     <path d="
M16.5938 4.07812
C16.5938 6.5625 14.5938 8.15625 12.5 8.15625
C10.5 8.15625 8.40625 6.5625 8.40625 4.07812
C8.40625 1.59375 10.4062 0 12.5 0
C14.5 0 16.5938 1.59375 16.5938 4.07812" id="CMR17-46"/>
    </defs>
    <g style="fill:#0000ff;" transform="translate(548.101333622 83.2476387161)scale(0.24 -0.24)">
     <use transform="translate(0.0 24.629350142)scale(0.996264009963)" xlink:href="#CMMI12-75"/>
     <use transform="translate(90.1474208048 60.7829890839)scale(0.697381766617)" xlink:href="#CMSY10-48"/>
     <use transform="translate(82.9926107176 0.0)scale(0.697381766617)" xlink:href="#CMMI12-101"/>
     <use transform="translate(145.214965364 24.629350142)scale(0.996264009963)" xlink:href="#CMR17-46"/>
    </g>
   </g>
   <g id="patch_15">
    <path clip-path="url(#pc68816fddf)" d="
M591.301 65.299
Q610.226 65.299 628.033 65.299" style="fill:none;stroke:#0000ff;stroke-linecap:round;"/>
    <path clip-path="url(#pc68816fddf)" d="
M618.433 60.499
L628.033 65.299
L618.433 70.099
L618.433 60.499
z
" style="fill:#0000ff;stroke:#0000ff;stroke-linecap:round;"/>
   </g>
   <g id="text_20">
    <!-- $v_e'$ -->
    <g style="fill:#0000ff;" transform="translate(600.768498927 65.2989671464)scale(0.24 -0.24)">
     <use transform="translate(0.0 24.629350142)scale(0.996264009963)" xlink:href="#CMMI12-118"/>
     <use transform="translate(50.7351733976 60.7829890839)scale(0.697381766617)" xlink:href="#CMSY10-48"/>
     <use transform="translate(47.1605806838 0.0)scale(0.697381766617)" xlink:href="#CMMI12-101"/>
    </g>
   </g>
   <g id="patch_16">
    <path clip-path="url(#pc68816fddf)" d="
M589.301 145.634
Q589.301 122.104 589.301 99.6922" style="fill:none;stroke:#008000;stroke-linecap:round;"/>
    <path clip-path="url(#pc68816fddf)" d="
M584.501 109.292
L589.301 99.6922
L594.101 109.292
L584.501 109.292
z
" style="fill:#008000;stroke:#008000;stroke-linecap:round;"/>
   </g>
   <g id="text_21">
    <!-- b) -->
    <defs>
     <path d="
M15 68.6875
L3.09375 67.5938
L3.09375 65
C9 65 9.90625 64.4062 9.90625 59.6406
L9.90625 -0.203125
L11.7031 -0.203125
L14.5938 6.89062
C17.5 2.20312 21.7969 -1 27.5938 -1
C37.5938 -1 47.7031 7.8125 47.7031 21.4062
C47.7031 34.1875 38.7031 43.5938 28.5938 43.5938
C22.4062 43.5938 18 40.2969 15 36.4062
z

M15.2031 31.3125
C15.2031 33.0938 15.2031 33.4062 16.5938 35.5
C20.5 41.5156 26.0938 42 28 42
C31 42 41.2969 40.3906 41.2969 21.5
C41.2969 1.6875 29.5 0.59375 27.0938 0.59375
C24 0.59375 19.5 1.78125 16.2969 7.59375
C15.2031 9.5 15.2031 9.70312 15.2031 11.4844
z
" id="CMR17-98"/>
    </defs>
    <g transform="translate(438.640550548 197.188352766)scale(0.24 -0.24)">
     <use transform="translate(0.0 24.8232640781)scale(0.996264009963)" xlink:href="#CMR17-98"/>
     <use transform="translate(50.8953697803 24.8232640781)scale(0.996264009963)" xlink:href="#CMR17-41"/>
    </g>
   </g>
  </g>
  <g id="axes_3">
   <g id="patch_17">
    <path d="
M87.1006 389.091
L421.901 389.091
L421.901 200.091
L87.1006 200.091
z
" style="fill:none;opacity:0.0;"/>
   </g>
   <g id="line2d_33">
    <path clip-path="url(#p782bbe7bf0)" d="
M87.1006 274.11
L105.868 275.095
L121.619 276.137
L135.025 277.239
L146.419 278.392
L156.474 279.631
L165.187 280.93
L172.56 282.246
L179.263 283.665
L184.96 285.087
L190.322 286.656
L195.014 288.261
L199.371 289.996
L203.057 291.693
L206.409 293.462
L209.425 295.279
L212.441 297.356
L215.122 299.47
L217.803 301.893
L220.149 304.323
L222.495 307.109
L224.506 309.844
L226.517 312.972
L228.192 315.945
L229.868 319.321
L231.544 323.191
L233.219 327.669
L234.895 332.914
L236.236 337.802
L237.576 343.465
L238.917 350.102
L240.257 357.988
L241.598 367.513
L242.603 376.065
L243.609 386.197
L243.944 390.003
M265.057 390.003
L266.063 379.247
L267.403 367.513
L268.744 357.988
L270.084 350.102
L271.425 343.465
L272.765 337.802
L274.441 331.794
L276.117 326.718
L277.792 322.372
L279.468 318.61
L281.144 315.32
L283.155 311.881
L285.165 308.893
L287.176 306.272
L289.522 303.595
L291.868 301.255
L294.549 298.915
L297.23 296.869
L300.246 294.854
L303.598 292.906
L307.284 291.048
L311.306 289.297
L315.663 287.66
L320.355 286.139
L325.717 284.646
L331.749 283.214
L338.452 281.864
L345.825 280.608
L354.203 279.407
L363.922 278.244
L374.982 277.148
L387.717 276.112
L402.798 275.115
L420.56 274.173
L421.901 274.11
L421.901 274.11" style="fill:none;stroke:#0000ff;stroke-width:3.0;"/>
   </g>
   <g id="line2d_34">
    <path clip-path="url(#p782bbe7bf0)" d="
M87.1006 336.631
L421.901 336.631" style="fill:none;stroke:#bf00bf;stroke-width:3.0;"/>
   </g>
   <g id="line2d_35">
    <path clip-path="url(#p782bbe7bf0)" d="
M87.1006 285.577
L421.901 285.577" style="fill:none;stroke:#0000ff;stroke-dasharray:6.000000,6.000000;stroke-dashoffset:0.0;stroke-linecap:butt;stroke-width:3.0;"/>
   </g>
   <g id="line2d_36">
    <path clip-path="url(#p782bbe7bf0)" d="
M87.1006 279.1
L421.901 279.1" style="fill:none;stroke:#ff0000;stroke-dasharray:6.000000,6.000000;stroke-dashoffset:0.0;stroke-linecap:butt;stroke-width:3.0;"/>
   </g>
   <g id="line2d_37">
    <path clip-path="url(#p782bbe7bf0)" d="
M87.1006 276.259
L421.901 276.259" style="fill:none;stroke:#008000;stroke-dasharray:6.000000,6.000000;stroke-dashoffset:0.0;stroke-linecap:butt;stroke-width:3.0;"/>
   </g>
   <g id="line2d_38">
    <path clip-path="url(#p782bbe7bf0)" d="
M87.1006 269.433
L421.901 269.433" style="fill:none;stroke:#bf00bf;stroke-dasharray:6.000000,6.000000;stroke-dashoffset:0.0;stroke-linecap:butt;stroke-width:3.0;"/>
   </g>
   <g id="line2d_39">
    <g clip-path="url(#p782bbe7bf0)">
     <use style="fill:#0000ff;stroke:#000000;stroke-linecap:butt;stroke-width:0.5;" x="380.050550548" xlink:href="#mdfd1f8ea2e" y="254.298967146"/>
    </g>
   </g>
   <g id="line2d_40">
    <defs>
     <path d="
M0 7
C1.85642 7 3.63706 6.26244 4.94975 4.94975
C6.26244 3.63706 7 1.85642 7 0
C7 -1.85642 6.26244 -3.63706 4.94975 -4.94975
C3.63706 -6.26244 1.85642 -7 0 -7
C-1.85642 -7 -3.63706 -6.26244 -4.94975 -4.94975
C-6.26244 -3.63706 -7 -1.85642 -7 0
C-7 1.85642 -6.26244 3.63706 -4.94975 4.94975
C-3.63706 6.26244 -1.85642 7 0 7
z
" id="m6c731a90aa" style="stroke:#000000;stroke-linecap:butt;stroke-width:0.5;"/>
    </defs>
    <g clip-path="url(#p782bbe7bf0)">
     <use style="fill:#ff0000;stroke:#000000;stroke-linecap:butt;stroke-width:0.5;" x="128.950550548" xlink:href="#m6c731a90aa" y="237.643858842"/>
    </g>
   </g>
   <g id="line2d_41">
    <g clip-path="url(#p782bbe7bf0)">
     <use style="fill:#008000;stroke:#000000;stroke-linecap:butt;stroke-width:0.5;" x="254.500550548" xlink:href="#m04a53dd351" y="285.577030999"/>
    </g>
   </g>
   <g id="line2d_42">
    <path clip-path="url(#p782bbe7bf0)" d="
M87.1006 266.31
L421.901 266.31" style="fill:none;stroke:#000000;stroke-dasharray:1.000000,3.000000;stroke-dashoffset:0.0;stroke-linecap:butt;stroke-width:3.0;"/>
   </g>
   <g id="patch_18">
    <path d="
M87.1006 200.091
L421.901 200.091" style="fill:none;stroke:#000000;"/>
   </g>
   <g id="patch_19">
    <path d="
M421.901 389.091
L421.901 200.091" style="fill:none;stroke:#000000;"/>
   </g>
   <g id="matplotlib.axis_3">
    <g id="xtick_1">
     <g id="line2d_43">
      <defs>
       <path d="
M0 0
L0 -4" id="mcb557df647" style="stroke:#000000;stroke-linecap:butt;stroke-width:0.5;"/>
      </defs>
      <g>
       <use style="stroke:#000000;stroke-linecap:butt;stroke-width:0.5;" x="87.1005505478" xlink:href="#mcb557df647" y="389.091283018"/>
      </g>
     </g>
     <g id="text_22">
      <!-- $-20$ -->
      <g transform="translate(66.8363390095 410.496700568)scale(0.24 -0.24)">
       <use transform="translate(0.0 8.30225582289)scale(0.996264009963)" xlink:href="#CMSY10-0"/>
       <use transform="translate(77.4874676506 8.30225582289)scale(0.996264009963)" xlink:href="#CMR17-50"/>
       <use transform="translate(123.177944768 8.30225582289)scale(0.996264009963)" xlink:href="#CMR17-48"/>
      </g>
     </g>
    </g>
    <g id="xtick_2">
     <g id="line2d_44">
      <g>
       <use style="stroke:#000000;stroke-linecap:butt;stroke-width:0.5;" x="128.950550548" xlink:href="#mcb557df647" y="389.091283018"/>
      </g>
     </g>
     <g id="text_23">
      <!-- $-15$ -->
      <g transform="translate(108.686339009 410.496700568)scale(0.24 -0.24)">
       <use transform="translate(0.0 8.30225582289)scale(0.996264009963)" xlink:href="#CMSY10-0"/>
       <use transform="translate(77.4874676506 8.30225582289)scale(0.996264009963)" xlink:href="#CMR17-49"/>
       <use transform="translate(123.177944768 8.30225582289)scale(0.996264009963)" xlink:href="#CMR17-53"/>
      </g>
     </g>
    </g>
    <g id="xtick_3">
     <g id="line2d_45">
      <g>
       <use style="stroke:#000000;stroke-linecap:butt;stroke-width:0.5;" x="170.800550548" xlink:href="#mcb557df647" y="389.091283018"/>
      </g>
     </g>
     <g id="text_24">
      <!-- $-10$ -->
      <g transform="translate(150.536339009 410.496700568)scale(0.24 -0.24)">
       <use transform="translate(0.0 8.30225582289)scale(0.996264009963)" xlink:href="#CMSY10-0"/>
       <use transform="translate(77.4874676506 8.30225582289)scale(0.996264009963)" xlink:href="#CMR17-49"/>
       <use transform="translate(123.177944768 8.30225582289)scale(0.996264009963)" xlink:href="#CMR17-48"/>
      </g>
     </g>
    </g>
    <g id="xtick_4">
     <g id="line2d_46">
      <g>
       <use style="stroke:#000000;stroke-linecap:butt;stroke-width:0.5;" x="212.650550548" xlink:href="#mcb557df647" y="389.091283018"/>
      </g>
     </g>
     <g id="text_25">
      <!-- $-5$ -->
      <g transform="translate(197.869196264 410.496700568)scale(0.24 -0.24)">
       <use transform="translate(0.0 8.30225582289)scale(0.996264009963)" xlink:href="#CMSY10-0"/>
       <use transform="translate(77.4874676506 8.30225582289)scale(0.996264009963)" xlink:href="#CMR17-53"/>
      </g>
     </g>
    </g>
    <g id="xtick_5">
     <g id="line2d_47">
      <g>
       <use style="stroke:#000000;stroke-linecap:butt;stroke-width:0.5;" x="254.500550548" xlink:href="#mcb557df647" y="389.091283018"/>
      </g>
     </g>
     <g id="text_26">
      <!-- $0$ -->
      <g transform="translate(249.017693294 408.504157346)scale(0.24 -0.24)">
       <use transform="scale(0.996264009963)" xlink:href="#CMR17-48"/>
      </g>
     </g>
    </g>
    <g id="xtick_6">
     <g id="line2d_48">
      <g>
       <use style="stroke:#000000;stroke-linecap:butt;stroke-width:0.5;" x="296.350550548" xlink:href="#mcb557df647" y="389.091283018"/>
      </g>
     </g>
     <g id="text_27">
      <!-- $5$ -->
      <g transform="translate(290.867693294 408.504157346)scale(0.24 -0.24)">
       <use transform="scale(0.996264009963)" xlink:href="#CMR17-53"/>
      </g>
     </g>
    </g>
    <g id="xtick_7">
     <g id="line2d_49">
      <g>
       <use style="stroke:#000000;stroke-linecap:butt;stroke-width:0.5;" x="338.200550548" xlink:href="#mcb557df647" y="389.091283018"/>
      </g>
     </g>
     <g id="text_28">
      <!-- $10$ -->
      <g transform="translate(327.23483604 408.504157346)scale(0.24 -0.24)">
       <use transform="scale(0.996264009963)" xlink:href="#CMR17-49"/>
       <use transform="translate(45.6904771171 0.0)scale(0.996264009963)" xlink:href="#CMR17-48"/>
      </g>
     </g>
    </g>
    <g id="xtick_8">
     <g id="line2d_50">
      <g>
       <use style="stroke:#000000;stroke-linecap:butt;stroke-width:0.5;" x="380.050550548" xlink:href="#mcb557df647" y="389.091283018"/>
      </g>
     </g>
     <g id="text_29">
      <!-- $15$ -->
      <g transform="translate(369.08483604 408.504157346)scale(0.24 -0.24)">
       <use transform="scale(0.996264009963)" xlink:href="#CMR17-49"/>
       <use transform="translate(45.6904771171 0.0)scale(0.996264009963)" xlink:href="#CMR17-53"/>
      </g>
     </g>
    </g>
    <g id="xtick_9">
     <g id="line2d_51">
      <g>
       <use style="stroke:#000000;stroke-linecap:butt;stroke-width:0.5;" x="421.900550548" xlink:href="#mcb557df647" y="389.091283018"/>
      </g>
     </g>
     <g id="text_30">
      <!-- $20$ -->
      <g transform="translate(410.93483604 408.504157346)scale(0.24 -0.24)">
       <use transform="scale(0.996264009963)" xlink:href="#CMR17-50"/>
       <use transform="translate(45.6904771171 0.0)scale(0.996264009963)" xlink:href="#CMR17-48"/>
      </g>
     </g>
    </g>
    <g id="text_31">
     <!-- r [bohr] -->
     <defs>
      <path d="
M41.5 30.2031
C41.5 35.2969 40.5 43.5938 28.7031 43.5938
C20.5 43.5938 16.5 37 15.2969 33.7031
L15.2031 33.7031
L15.2031 68.6875
L3.29688 67.5938
L3.29688 65
C9.20312 65 10.0938 64.4062 10.0938 59.6406
L10.0938 6.65625
C10.0938 2.875 9.70312 2.39062 3.29688 2.39062
L3.29688 -0.203125
C5.70312 0 10.0938 0 12.7031 0
C15.2969 0 19.7969 0 22.2031 -0.203125
L22.2031 2.39062
C15.7969 2.39062 15.4062 2.78125 15.4062 6.6875
L15.4062 25.9062
C15.4062 35.1094 21 42 28 42
C35.4062 42 36.2031 35.4062 36.2031 30.5938
L36.2031 6.6875
C36.2031 2.875 35.7969 2.39062 29.4062 2.39062
L29.4062 -0.203125
C31.7969 0 36.2031 0 38.7969 0
C41.4062 0 45.9062 0 48.2969 -0.203125
L48.2969 2.39062
C41.9062 2.39062 41.5 2.78125 41.5 6.6875
z
" id="CMR17-104"/>
      <path d="
M43.0938 21.1875
C43.0938 34 33.7969 44 22.9062 44
C12 44 2.70312 34 2.70312 21.1875
C2.70312 8.60938 12 -1 22.9062 -1
C33.7969 -1 43.0938 8.60938 43.0938 21.1875
M22.9062 0.796875
C18.2031 0.796875 14.2031 3.59375 11.9062 7.5
C9.40625 11.9844 9.09375 17.5938 9.09375 22
C9.09375 26.2031 9.29688 31.4062 11.9062 35.9062
C13.9062 39.2031 17.7969 42.4062 22.9062 42.4062
C27.4062 42.4062 31.2031 39.9062 33.5938 36.4062
C36.7031 31.7031 36.7031 25.1094 36.7031 22
C36.7031 18.0938 36.5 12.1094 33.7969 7.29688
C31 2.70312 26.7031 0.796875 22.9062 0.796875" id="CMR17-111"/>
     </defs>
     <g transform="translate(218.444963102 439.365505538)scale(0.24 -0.24)">
      <use transform="translate(0.0 24.8232640781)scale(0.996264009963)" xlink:href="#CMR17-114"/>
      <use transform="translate(65.3567341464 24.8232640781)scale(0.996264009963)" xlink:href="#CMR17-91"/>
      <use transform="translate(90.2277926282 24.8232640781)scale(0.996264009963)" xlink:href="#CMR17-98"/>
      <use transform="translate(143.725601139 24.8232640781)scale(0.996264009963)" xlink:href="#CMR17-111"/>
      <use transform="translate(189.416078256 24.8232640781)scale(0.996264009963)" xlink:href="#CMR17-104"/>
      <use transform="translate(240.311448037 24.8232640781)scale(0.996264009963)" xlink:href="#CMR17-114"/>
      <use transform="translate(275.592215836 24.8232640781)scale(0.996264009963)" xlink:href="#CMR17-93"/>
     </g>
    </g>
   </g>
   <g id="matplotlib.axis_4">
    <g id="ytick_14">
     <g id="line2d_52">
      <g>
       <use style="stroke:#000000;stroke-linecap:butt;stroke-width:0.5;" x="87.1005505478" xlink:href="#mc8fcea1516" y="359.915212397"/>
      </g>
     </g>
     <g id="text_32">
      <!-- $-0.6$ -->
      <g transform="translate(36.0688049696 368.617921172)scale(0.24 -0.24)">
       <use transform="translate(0.0 8.30225582289)scale(0.996264009963)" xlink:href="#CMSY10-0"/>
       <use transform="translate(77.4874676506 8.30225582289)scale(0.996264009963)" xlink:href="#CMR17-48"/>
       <use transform="translate(123.177944768 8.30225582289)scale(0.996264009963)" xlink:href="#CMMI12-58"/>
       <use transform="translate(150.275121857 8.30225582289)scale(0.996264009963)" xlink:href="#CMR17-54"/>
      </g>
     </g>
    </g>
    <g id="ytick_15">
     <g id="line2d_53">
      <g>
       <use style="stroke:#000000;stroke-linecap:butt;stroke-width:0.5;" x="87.1005505478" xlink:href="#mc8fcea1516" y="328.713457351"/>
      </g>
     </g>
     <g id="text_33">
      <!-- $-0.4$ -->
      <g transform="translate(36.0688049696 337.416166126)scale(0.24 -0.24)">
       <use transform="translate(0.0 8.30225582289)scale(0.996264009963)" xlink:href="#CMSY10-0"/>
       <use transform="translate(77.4874676506 8.30225582289)scale(0.996264009963)" xlink:href="#CMR17-48"/>
       <use transform="translate(123.177944768 8.30225582289)scale(0.996264009963)" xlink:href="#CMMI12-58"/>
       <use transform="translate(150.275121857 8.30225582289)scale(0.996264009963)" xlink:href="#CMR17-52"/>
      </g>
     </g>
    </g>
    <g id="ytick_16">
     <g id="line2d_54">
      <g>
       <use style="stroke:#000000;stroke-linecap:butt;stroke-width:0.5;" x="87.1005505478" xlink:href="#mc8fcea1516" y="297.511702304"/>
      </g>
     </g>
     <g id="text_34">
      <!-- $-0.2$ -->
      <g transform="translate(36.0688049696 306.214411079)scale(0.24 -0.24)">
       <use transform="translate(0.0 8.30225582289)scale(0.996264009963)" xlink:href="#CMSY10-0"/>
       <use transform="translate(77.4874676506 8.30225582289)scale(0.996264009963)" xlink:href="#CMR17-48"/>
       <use transform="translate(123.177944768 8.30225582289)scale(0.996264009963)" xlink:href="#CMMI12-58"/>
       <use transform="translate(150.275121857 8.30225582289)scale(0.996264009963)" xlink:href="#CMR17-50"/>
      </g>
     </g>
    </g>
    <g id="ytick_17">
     <g id="line2d_55">
      <g>
       <use style="stroke:#000000;stroke-linecap:butt;stroke-width:0.5;" x="87.1005505478" xlink:href="#mc8fcea1516" y="266.309947257"/>
      </g>
     </g>
     <g id="text_35">
      <!-- $0.0$ -->
      <g transform="translate(54.66579903 274.016384422)scale(0.24 -0.24)">
       <use transform="scale(0.996264009963)" xlink:href="#CMR17-48"/>
       <use transform="translate(45.6904771171 0.0)scale(0.996264009963)" xlink:href="#CMMI12-58"/>
       <use transform="translate(72.7876542069 0.0)scale(0.996264009963)" xlink:href="#CMR17-48"/>
      </g>
     </g>
    </g>
    <g id="ytick_18">
     <g id="line2d_56">
      <g>
       <use style="stroke:#000000;stroke-linecap:butt;stroke-width:0.5;" x="87.1005505478" xlink:href="#mc8fcea1516" y="235.108192211"/>
      </g>
     </g>
     <g id="text_36">
      <!-- $0.2$ -->
      <g transform="translate(54.66579903 242.814629375)scale(0.24 -0.24)">
       <use transform="scale(0.996264009963)" xlink:href="#CMR17-48"/>
       <use transform="translate(45.6904771171 0.0)scale(0.996264009963)" xlink:href="#CMMI12-58"/>
       <use transform="translate(72.7876542069 0.0)scale(0.996264009963)" xlink:href="#CMR17-50"/>
      </g>
     </g>
    </g>
    <g id="ytick_19">
     <g id="line2d_57">
      <g>
       <use style="stroke:#000000;stroke-linecap:butt;stroke-width:0.5;" x="87.1005505478" xlink:href="#mc8fcea1516" y="203.906437164"/>
      </g>
     </g>
     <g id="text_37">
      <!-- $0.4$ -->
      <g transform="translate(54.66579903 211.612874329)scale(0.24 -0.24)">
       <use transform="scale(0.996264009963)" xlink:href="#CMR17-48"/>
       <use transform="translate(45.6904771171 0.0)scale(0.996264009963)" xlink:href="#CMMI12-58"/>
       <use transform="translate(72.7876542069 0.0)scale(0.996264009963)" xlink:href="#CMR17-52"/>
      </g>
     </g>
    </g>
    <g id="text_38">
     <!-- Energy [Hartree] -->
     <g transform="translate(31.0688049696 374.346392945)rotate(-90.0)scale(0.24 -0.24)">
      <use transform="translate(0.0 24.8232640781)scale(0.996264009963)" xlink:href="#CMR17-69"/>
      <use transform="translate(62.5863005186 24.8232640781)scale(0.996264009963)" xlink:href="#CMR17-110"/>
      <use transform="translate(113.481670299 24.8232640781)scale(0.996264009963)" xlink:href="#CMR17-101"/>
      <use transform="translate(153.967330762 24.8232640781)scale(0.996264009963)" xlink:href="#CMR17-114"/>
      <use transform="translate(189.248098561 24.8232640781)scale(0.996264009963)" xlink:href="#CMR17-103"/>
      <use transform="translate(234.938575678 24.8232640781)scale(0.996264009963)" xlink:href="#CMR17-121"/>
      <use transform="translate(313.307457873 24.8232640781)scale(0.996264009963)" xlink:href="#CMR17-91"/>
      <use transform="translate(338.178516355 24.8232640781)scale(0.996264009963)" xlink:href="#CMR17-72"/>
      <use transform="translate(407.250946159 24.8232640781)scale(0.996264009963)" xlink:href="#CMR17-97"/>
      <use transform="translate(452.941423276 24.8232640781)scale(0.996264009963)" xlink:href="#CMR17-114"/>
      <use transform="translate(488.222191075 24.8232640781)scale(0.996264009963)" xlink:href="#CMR17-116"/>
      <use transform="translate(523.502958875 24.8232640781)scale(0.996264009963)" xlink:href="#CMR17-114"/>
      <use transform="translate(558.783726674 24.8232640781)scale(0.996264009963)" xlink:href="#CMR17-101"/>
      <use transform="translate(599.269387137 24.8232640781)scale(0.996264009963)" xlink:href="#CMR17-101"/>
      <use transform="translate(639.7550476 24.8232640781)scale(0.996264009963)" xlink:href="#CMR17-93"/>
     </g>
    </g>
   </g>
   <g id="patch_20">
    <path d="
M87.1006 389.091
L421.901 389.091" style="fill:none;stroke:#000000;"/>
   </g>
   <g id="patch_21">
    <path d="
M87.1006 389.091
L87.1006 200.091" style="fill:none;stroke:#000000;"/>
   </g>
   <g id="patch_22">
    <path clip-path="url(#p782bbe7bf0)" d="
M380.051 263.189
Q380.051 260.302 380.051 257.416" style="fill:none;stroke:#0000ff;stroke-linecap:round;"/>
    <path clip-path="url(#p782bbe7bf0)" d="
M384.851 253.589
L380.051 263.189
L375.251 253.589
L384.851 253.589
z
" style="fill:#0000ff;stroke:#0000ff;stroke-linecap:round;"/>
    <path clip-path="url(#p782bbe7bf0)" d="
M375.251 267.016
L380.051 257.416
L384.851 267.016
L375.251 267.016
z
" style="fill:#0000ff;stroke:#0000ff;stroke-linecap:round;"/>
   </g>
   <g id="text_39">
    <!-- $K_e'$   . -->
    <g style="fill:#0000ff;" transform="translate(338.851333622 272.247638716)scale(0.24 -0.24)">
     <use transform="translate(0.0 24.629350142)scale(0.996264009963)" xlink:href="#CMMI12-75"/>
     <use transform="translate(90.1474208048 60.7829890839)scale(0.697381766617)" xlink:href="#CMSY10-48"/>
     <use transform="translate(82.9926107176 0.0)scale(0.697381766617)" xlink:href="#CMMI12-101"/>
     <use transform="translate(145.214965364 24.629350142)scale(0.996264009963)" xlink:href="#CMR17-46"/>
    </g>
   </g>
   <g id="patch_23">
    <path clip-path="url(#p782bbe7bf0)" d="
M382.051 254.299
Q400.976 254.299 418.783 254.299" style="fill:none;stroke:#0000ff;stroke-linecap:round;"/>
    <path clip-path="url(#p782bbe7bf0)" d="
M409.183 249.499
L418.783 254.299
L409.183 259.099
L409.183 249.499
z
" style="fill:#0000ff;stroke:#0000ff;stroke-linecap:round;"/>
   </g>
   <g id="text_40">
    <!-- $v_e'$ -->
    <g style="fill:#0000ff;" transform="translate(391.518498927 254.298967146)scale(0.24 -0.24)">
     <use transform="translate(0.0 24.629350142)scale(0.996264009963)" xlink:href="#CMMI12-118"/>
     <use transform="translate(50.7351733976 60.7829890839)scale(0.697381766617)" xlink:href="#CMSY10-48"/>
     <use transform="translate(47.1605806838 0.0)scale(0.697381766617)" xlink:href="#CMMI12-101"/>
    </g>
   </g>
   <g id="patch_24">
    <path clip-path="url(#p782bbe7bf0)" d="
M128.951 263.194
Q128.951 251.979 128.951 240.764" style="fill:none;stroke:#ff0000;stroke-linecap:round;"/>
    <path clip-path="url(#p782bbe7bf0)" d="
M133.751 253.594
L128.951 263.194
L124.151 253.594
L133.751 253.594
z
" style="fill:#ff0000;stroke:#ff0000;stroke-linecap:round;"/>
    <path clip-path="url(#p782bbe7bf0)" d="
M124.151 250.364
L128.951 240.764
L133.751 250.364
L124.151 250.364
z
" style="fill:#ff0000;stroke:#ff0000;stroke-linecap:round;"/>
   </g>
   <g id="text_41">
    <!-- $K_{e,2}$ -->
    <defs>
     <path d="
M19.5 -0.484375
C19.5 5.35938 17.5938 9.67188 13.5 9.67188
C10.2969 9.67188 8.70312 7.07812 8.70312 4.89062
C8.70312 2.6875 10.2031 0 13.5938 0
C14.9062 0 16 0.40625 16.9062 1.29688
C17.0938 1.5 17.2031 1.5 17.2969 1.5
C17.5 1.5 17.5 0.078125 17.5 -0.421875
C17.5 -3.75 16.9062 -10.2969 11.0938 -16.875
C10 -18.0781 10 -18.2812 10 -18.4844
C10 -19 10.5 -19.5 11 -19.5
C11.7969 -19.5 19.5 -12.0469 19.5 -0.484375" id="CMMI12-59"/>
    </defs>
    <g style="fill:#ff0000;" transform="translate(88.6903173159 263.566749536)scale(0.24 -0.24)">
     <use transform="translate(0.0 28.5040564436)scale(0.996264009963)" xlink:href="#CMMI12-75"/>
     <use transform="translate(82.9926107176 13.5601418995)scale(0.697381766617)" xlink:href="#CMMI12-101"/>
     <use transform="translate(114.640867012 13.5601418995)scale(0.697381766617)" xlink:href="#CMMI12-59"/>
     <use transform="translate(133.608799765 13.5601418995)scale(0.697381766617)" xlink:href="#CMR17-50"/>
    </g>
   </g>
   <g id="patch_25">
    <path clip-path="url(#p782bbe7bf0)" d="
M130.951 237.644
Q149.876 237.644 167.683 237.644" style="fill:none;stroke:#ff0000;stroke-linecap:round;"/>
    <path clip-path="url(#p782bbe7bf0)" d="
M158.083 232.844
L167.683 237.644
L158.083 242.444
L158.083 232.844
z
" style="fill:#ff0000;stroke:#ff0000;stroke-linecap:round;"/>
   </g>
   <g id="text_42">
    <!-- $v_{e,2}$ -->
    <g style="fill:#ff0000;" transform="translate(134.04528088 254.779566369)scale(0.24 -0.24)">
     <use transform="translate(0.0 28.5040564436)scale(0.996264009963)" xlink:href="#CMMI12-118"/>
     <use transform="translate(47.1605806838 13.5601418995)scale(0.697381766617)" xlink:href="#CMMI12-101"/>
     <use transform="translate(78.8088369785 13.5601418995)scale(0.697381766617)" xlink:href="#CMMI12-59"/>
     <use transform="translate(97.7767697307 13.5601418995)scale(0.697381766617)" xlink:href="#CMR17-50"/>
    </g>
   </g>
   <g id="text_43">
    <!-- c) -->
    <defs>
     <path d="
M34.9062 35
C33 35 30.2031 35 30.2031 31.5156
C30.2031 28.7188 32.5 27.9219 33.7969 27.9219
C34.5 27.9219 37.4062 28.2344 37.4062 31.625
C37.4062 38.5469 30.5938 43.7969 22.9062 43.7969
C12.2969 43.7969 3.29688 34.0312 3.29688 21.2969
C3.29688 8.0625 12.7031 -1 22.9062 -1
C35.2969 -1 38.4062 10.5938 38.4062 11.6875
C38.4062 12.0938 38.2969 12.3906 37.5938 12.3906
C36.9062 12.3906 36.7969 12.2969 36.4062 10.9844
C33.7969 2.8125 28.0938 0.796875 23.7969 0.796875
C17.4062 0.796875 9.70312 6.67188 9.70312 21.3906
C9.70312 36.5312 17.0938 42 23 42
C26.9062 42 32.7031 40.2031 34.9062 35" id="CMR17-99"/>
    </defs>
    <g transform="translate(103.840550548 386.188352766)scale(0.24 -0.24)">
     <use transform="translate(0.0 24.8232640781)scale(0.996264009963)" xlink:href="#CMR17-99"/>
     <use transform="translate(40.4856604627 24.8232640781)scale(0.996264009963)" xlink:href="#CMR17-41"/>
    </g>
   </g>
  </g>
  <g id="axes_4">
   <g id="patch_26">
    <path d="
M421.901 389.091
L756.701 389.091
L756.701 200.091
L421.901 200.091
z
" style="fill:none;opacity:0.0;"/>
   </g>
   <g id="line2d_58">
    <path clip-path="url(#pf35233bef3)" d="
M421.901 274.11
L440.668 275.095
L456.419 276.137
L469.825 277.239
L481.219 278.392
L491.274 279.631
L499.987 280.93
L507.36 282.246
L514.063 283.665
L519.76 285.087
L525.122 286.656
L529.814 288.261
L534.171 289.996
L537.857 291.693
L541.209 293.462
L544.225 295.279
L547.241 297.356
L549.922 299.47
L552.603 301.893
L554.949 304.323
L557.295 307.109
L559.306 309.844
L561.317 312.972
L562.992 315.945
L564.668 319.321
L566.344 323.191
L568.019 327.669
L569.695 332.914
L571.036 337.802
L572.376 343.465
L573.717 350.102
L575.057 357.988
L576.398 367.513
L577.403 376.065
L578.409 386.197
L578.744 390.003
M599.857 390.003
L600.863 379.247
L602.203 367.513
L603.544 357.988
L604.884 350.102
L606.225 343.465
L607.565 337.802
L609.241 331.794
L610.917 326.718
L612.592 322.372
L614.268 318.61
L615.944 315.32
L617.955 311.881
L619.965 308.893
L621.976 306.272
L624.322 303.595
L626.668 301.255
L629.349 298.915
L632.03 296.869
L635.046 294.854
L638.398 292.906
L642.084 291.048
L646.106 289.297
L650.463 287.66
L655.155 286.139
L660.517 284.646
L666.549 283.214
L673.252 281.864
L680.625 280.608
L689.003 279.407
L698.722 278.244
L709.782 277.148
L722.517 276.112
L737.598 275.115
L755.36 274.173
L756.701 274.11
L756.701 274.11" style="fill:none;stroke:#0000ff;stroke-width:3.0;"/>
   </g>
   <g id="line2d_59">
    <path clip-path="url(#pf35233bef3)" d="
M421.901 336.631
L756.701 336.631" style="fill:none;stroke:#bf00bf;stroke-width:3.0;"/>
   </g>
   <g id="line2d_60">
    <path clip-path="url(#pf35233bef3)" d="
M421.901 285.577
L756.701 285.577" style="fill:none;stroke:#0000ff;stroke-dasharray:6.000000,6.000000;stroke-dashoffset:0.0;stroke-linecap:butt;stroke-width:3.0;"/>
   </g>
   <g id="line2d_61">
    <path clip-path="url(#pf35233bef3)" d="
M421.901 279.1
L756.701 279.1" style="fill:none;stroke:#ff0000;stroke-dasharray:6.000000,6.000000;stroke-dashoffset:0.0;stroke-linecap:butt;stroke-width:3.0;"/>
   </g>
   <g id="line2d_62">
    <path clip-path="url(#pf35233bef3)" d="
M421.901 276.259
L756.701 276.259" style="fill:none;stroke:#008000;stroke-dasharray:6.000000,6.000000;stroke-dashoffset:0.0;stroke-linecap:butt;stroke-width:3.0;"/>
   </g>
   <g id="line2d_63">
    <path clip-path="url(#pf35233bef3)" d="
M421.901 269.433
L756.701 269.433" style="fill:none;stroke:#bf00bf;stroke-dasharray:6.000000,6.000000;stroke-dashoffset:0.0;stroke-linecap:butt;stroke-width:3.0;"/>
   </g>
   <g id="line2d_64">
    <g clip-path="url(#pf35233bef3)">
     <use style="fill:#ff0000;stroke:#000000;stroke-linecap:butt;stroke-width:0.5;" x="589.300550548" xlink:href="#m6c731a90aa" y="237.643858842"/>
    </g>
   </g>
   <g id="line2d_65">
    <g clip-path="url(#pf35233bef3)">
     <use style="fill:#008000;opacity:0.4;stroke:#000000;stroke-linecap:butt;stroke-width:0.5;" x="589.300550548" xlink:href="#mac5b7cb608" y="285.577030999"/>
    </g>
   </g>
   <g id="line2d_66">
    <g clip-path="url(#pf35233bef3)">
     <use style="fill:#008000;stroke:#000000;stroke-linecap:butt;stroke-width:0.5;" x="589.300550548" xlink:href="#m04a53dd351" y="256.910942583"/>
    </g>
   </g>
   <g id="line2d_67">
    <path clip-path="url(#pf35233bef3)" d="
M421.901 266.31
L756.701 266.31" style="fill:none;stroke:#000000;stroke-dasharray:1.000000,3.000000;stroke-dashoffset:0.0;stroke-linecap:butt;stroke-width:3.0;"/>
   </g>
   <g id="matplotlib.axis_5">
    <g id="ytick_20">
     <g id="line2d_68">
      <g>
       <use style="stroke:#000000;stroke-linecap:butt;stroke-width:0.5;" x="756.700550548" xlink:href="#m0d5b0a6425" y="380.97430092"/>
      </g>
     </g>
     <g id="text_44">
      <!-- $-20$ -->
      <g transform="translate(760.700550548 389.677009695)scale(0.24 -0.24)">
       <use transform="translate(0.0 8.30225582289)scale(0.996264009963)" xlink:href="#CMSY10-0"/>
       <use transform="translate(77.4874676506 8.30225582289)scale(0.996264009963)" xlink:href="#CMR17-50"/>
       <use transform="translate(123.177944768 8.30225582289)scale(0.996264009963)" xlink:href="#CMR17-48"/>
      </g>
     </g>
    </g>
    <g id="ytick_21">
     <g id="line2d_69">
      <g>
       <use style="stroke:#000000;stroke-linecap:butt;stroke-width:0.5;" x="756.700550548" xlink:href="#m0d5b0a6425" y="352.308212504"/>
      </g>
     </g>
     <g id="text_45">
      <!-- $-15$ -->
      <g transform="translate(760.700550548 361.010921279)scale(0.24 -0.24)">
       <use transform="translate(0.0 8.30225582289)scale(0.996264009963)" xlink:href="#CMSY10-0"/>
       <use transform="translate(77.4874676506 8.30225582289)scale(0.996264009963)" xlink:href="#CMR17-49"/>
       <use transform="translate(123.177944768 8.30225582289)scale(0.996264009963)" xlink:href="#CMR17-53"/>
      </g>
     </g>
    </g>
    <g id="ytick_22">
     <g id="line2d_70">
      <g>
       <use style="stroke:#000000;stroke-linecap:butt;stroke-width:0.5;" x="756.700550548" xlink:href="#m0d5b0a6425" y="323.642124089"/>
      </g>
     </g>
     <g id="text_46">
      <!-- $-10$ -->
      <g transform="translate(760.700550548 332.344832864)scale(0.24 -0.24)">
       <use transform="translate(0.0 8.30225582289)scale(0.996264009963)" xlink:href="#CMSY10-0"/>
       <use transform="translate(77.4874676506 8.30225582289)scale(0.996264009963)" xlink:href="#CMR17-49"/>
       <use transform="translate(123.177944768 8.30225582289)scale(0.996264009963)" xlink:href="#CMR17-48"/>
      </g>
     </g>
    </g>
    <g id="ytick_23">
     <g id="line2d_71">
      <g>
       <use style="stroke:#000000;stroke-linecap:butt;stroke-width:0.5;" x="756.700550548" xlink:href="#m0d5b0a6425" y="294.976035673"/>
      </g>
     </g>
     <g id="text_47">
      <!-- $-5$ -->
      <g transform="translate(760.700550548 303.678744448)scale(0.24 -0.24)">
       <use transform="translate(0.0 8.30225582289)scale(0.996264009963)" xlink:href="#CMSY10-0"/>
       <use transform="translate(77.4874676506 8.30225582289)scale(0.996264009963)" xlink:href="#CMR17-53"/>
      </g>
     </g>
    </g>
    <g id="ytick_24">
     <g id="line2d_72">
      <g>
       <use style="stroke:#000000;stroke-linecap:butt;stroke-width:0.5;" x="756.700550548" xlink:href="#m0d5b0a6425" y="266.309947257"/>
      </g>
     </g>
     <g id="text_48">
      <!-- $0$ -->
      <g transform="translate(760.700550548 274.016384422)scale(0.24 -0.24)">
       <use transform="scale(0.996264009963)" xlink:href="#CMR17-48"/>
      </g>
     </g>
    </g>
    <g id="ytick_25">
     <g id="line2d_73">
      <g>
       <use style="stroke:#000000;stroke-linecap:butt;stroke-width:0.5;" x="756.700550548" xlink:href="#m0d5b0a6425" y="237.643858842"/>
      </g>
     </g>
     <g id="text_49">
      <!-- $5$ -->
      <g transform="translate(760.700550548 245.350296006)scale(0.24 -0.24)">
       <use transform="scale(0.996264009963)" xlink:href="#CMR17-53"/>
      </g>
     </g>
    </g>
    <g id="ytick_26">
     <g id="line2d_74">
      <g>
       <use style="stroke:#000000;stroke-linecap:butt;stroke-width:0.5;" x="756.700550548" xlink:href="#m0d5b0a6425" y="208.977770426"/>
      </g>
     </g>
     <g id="text_50">
      <!-- $10$ -->
      <g transform="translate(760.700550548 216.684207591)scale(0.24 -0.24)">
       <use transform="scale(0.996264009963)" xlink:href="#CMR17-49"/>
       <use transform="translate(45.6904771171 0.0)scale(0.996264009963)" xlink:href="#CMR17-48"/>
      </g>
     </g>
    </g>
    <g id="text_51">
     <!-- Energy [eV] -->
     <g transform="translate(830.097778594 351.304192493)rotate(-90.0)scale(0.24 -0.24)">
      <use transform="translate(0.0 24.8232640781)scale(0.996264009963)" xlink:href="#CMR17-69"/>
      <use transform="translate(62.5863005186 24.8232640781)scale(0.996264009963)" xlink:href="#CMR17-110"/>
      <use transform="translate(113.481670299 24.8232640781)scale(0.996264009963)" xlink:href="#CMR17-101"/>
      <use transform="translate(153.967330762 24.8232640781)scale(0.996264009963)" xlink:href="#CMR17-114"/>
      <use transform="translate(189.248098561 24.8232640781)scale(0.996264009963)" xlink:href="#CMR17-103"/>
      <use transform="translate(234.938575678 24.8232640781)scale(0.996264009963)" xlink:href="#CMR17-121"/>
      <use transform="translate(313.307457873 24.8232640781)scale(0.996264009963)" xlink:href="#CMR17-91"/>
      <use transform="translate(338.178516355 24.8232640781)scale(0.996264009963)" xlink:href="#CMR17-101"/>
      <use transform="translate(378.664176817 24.8232640781)scale(0.996264009963)" xlink:href="#CMR17-86"/>
      <use transform="translate(447.736606622 24.8232640781)scale(0.996264009963)" xlink:href="#CMR17-93"/>
     </g>
    </g>
   </g>
   <g id="patch_27">
    <path d="
M421.901 200.091
L756.701 200.091" style="fill:none;stroke:#000000;"/>
   </g>
   <g id="patch_28">
    <path d="
M756.701 389.091
L756.701 200.091" style="fill:none;stroke:#000000;"/>
   </g>
   <g id="matplotlib.axis_6">
    <g id="xtick_10">
     <g id="line2d_75">
      <g>
       <use style="stroke:#000000;stroke-linecap:butt;stroke-width:0.5;" x="421.900550548" xlink:href="#mcb557df647" y="389.091283018"/>
      </g>
     </g>
     <g id="text_52">
      <!-- $-20$ -->
      <g transform="translate(401.636339009 410.496700568)scale(0.24 -0.24)">
       <use transform="translate(0.0 8.30225582289)scale(0.996264009963)" xlink:href="#CMSY10-0"/>
       <use transform="translate(77.4874676506 8.30225582289)scale(0.996264009963)" xlink:href="#CMR17-50"/>
       <use transform="translate(123.177944768 8.30225582289)scale(0.996264009963)" xlink:href="#CMR17-48"/>
      </g>
     </g>
    </g>
    <g id="xtick_11">
     <g id="line2d_76">
      <g>
       <use style="stroke:#000000;stroke-linecap:butt;stroke-width:0.5;" x="463.750550548" xlink:href="#mcb557df647" y="389.091283018"/>
      </g>
     </g>
     <g id="text_53">
      <!-- $-15$ -->
      <g transform="translate(443.486339009 410.496700568)scale(0.24 -0.24)">
       <use transform="translate(0.0 8.30225582289)scale(0.996264009963)" xlink:href="#CMSY10-0"/>
       <use transform="translate(77.4874676506 8.30225582289)scale(0.996264009963)" xlink:href="#CMR17-49"/>
       <use transform="translate(123.177944768 8.30225582289)scale(0.996264009963)" xlink:href="#CMR17-53"/>
      </g>
     </g>
    </g>
    <g id="xtick_12">
     <g id="line2d_77">
      <g>
       <use style="stroke:#000000;stroke-linecap:butt;stroke-width:0.5;" x="505.600550548" xlink:href="#mcb557df647" y="389.091283018"/>
      </g>
     </g>
     <g id="text_54">
      <!-- $-10$ -->
      <g transform="translate(485.336339009 410.496700568)scale(0.24 -0.24)">
       <use transform="translate(0.0 8.30225582289)scale(0.996264009963)" xlink:href="#CMSY10-0"/>
       <use transform="translate(77.4874676506 8.30225582289)scale(0.996264009963)" xlink:href="#CMR17-49"/>
       <use transform="translate(123.177944768 8.30225582289)scale(0.996264009963)" xlink:href="#CMR17-48"/>
      </g>
     </g>
    </g>
    <g id="xtick_13">
     <g id="line2d_78">
      <g>
       <use style="stroke:#000000;stroke-linecap:butt;stroke-width:0.5;" x="547.450550548" xlink:href="#mcb557df647" y="389.091283018"/>
      </g>
     </g>
     <g id="text_55">
      <!-- $-5$ -->
      <g transform="translate(532.669196264 410.496700568)scale(0.24 -0.24)">
       <use transform="translate(0.0 8.30225582289)scale(0.996264009963)" xlink:href="#CMSY10-0"/>
       <use transform="translate(77.4874676506 8.30225582289)scale(0.996264009963)" xlink:href="#CMR17-53"/>
      </g>
     </g>
    </g>
    <g id="xtick_14">
     <g id="line2d_79">
      <g>
       <use style="stroke:#000000;stroke-linecap:butt;stroke-width:0.5;" x="589.300550548" xlink:href="#mcb557df647" y="389.091283018"/>
      </g>
     </g>
     <g id="text_56">
      <!-- $0$ -->
      <g transform="translate(583.817693294 408.504157346)scale(0.24 -0.24)">
       <use transform="scale(0.996264009963)" xlink:href="#CMR17-48"/>
      </g>
     </g>
    </g>
    <g id="xtick_15">
     <g id="line2d_80">
      <g>
       <use style="stroke:#000000;stroke-linecap:butt;stroke-width:0.5;" x="631.150550548" xlink:href="#mcb557df647" y="389.091283018"/>
      </g>
     </g>
     <g id="text_57">
      <!-- $5$ -->
      <g transform="translate(625.667693294 408.504157346)scale(0.24 -0.24)">
       <use transform="scale(0.996264009963)" xlink:href="#CMR17-53"/>
      </g>
     </g>
    </g>
    <g id="xtick_16">
     <g id="line2d_81">
      <g>
       <use style="stroke:#000000;stroke-linecap:butt;stroke-width:0.5;" x="673.000550548" xlink:href="#mcb557df647" y="389.091283018"/>
      </g>
     </g>
     <g id="text_58">
      <!-- $10$ -->
      <g transform="translate(662.03483604 408.504157346)scale(0.24 -0.24)">
       <use transform="scale(0.996264009963)" xlink:href="#CMR17-49"/>
       <use transform="translate(45.6904771171 0.0)scale(0.996264009963)" xlink:href="#CMR17-48"/>
      </g>
     </g>
    </g>
    <g id="xtick_17">
     <g id="line2d_82">
      <g>
       <use style="stroke:#000000;stroke-linecap:butt;stroke-width:0.5;" x="714.850550548" xlink:href="#mcb557df647" y="389.091283018"/>
      </g>
     </g>
     <g id="text_59">
      <!-- $15$ -->
      <g transform="translate(703.88483604 408.504157346)scale(0.24 -0.24)">
       <use transform="scale(0.996264009963)" xlink:href="#CMR17-49"/>
       <use transform="translate(45.6904771171 0.0)scale(0.996264009963)" xlink:href="#CMR17-53"/>
      </g>
     </g>
    </g>
    <g id="xtick_18">
     <g id="line2d_83">
      <g>
       <use style="stroke:#000000;stroke-linecap:butt;stroke-width:0.5;" x="756.700550548" xlink:href="#mcb557df647" y="389.091283018"/>
      </g>
     </g>
     <g id="text_60">
      <!-- $20$ -->
      <g transform="translate(745.73483604 408.504157346)scale(0.24 -0.24)">
       <use transform="scale(0.996264009963)" xlink:href="#CMR17-50"/>
       <use transform="translate(45.6904771171 0.0)scale(0.996264009963)" xlink:href="#CMR17-48"/>
      </g>
     </g>
    </g>
    <g id="text_61">
     <!-- r [bohr] -->
     <g transform="translate(553.244963102 439.365505538)scale(0.24 -0.24)">
      <use transform="translate(0.0 24.8232640781)scale(0.996264009963)" xlink:href="#CMR17-114"/>
      <use transform="translate(65.3567341464 24.8232640781)scale(0.996264009963)" xlink:href="#CMR17-91"/>
      <use transform="translate(90.2277926282 24.8232640781)scale(0.996264009963)" xlink:href="#CMR17-98"/>
      <use transform="translate(143.725601139 24.8232640781)scale(0.996264009963)" xlink:href="#CMR17-111"/>
      <use transform="translate(189.416078256 24.8232640781)scale(0.996264009963)" xlink:href="#CMR17-104"/>
      <use transform="translate(240.311448037 24.8232640781)scale(0.996264009963)" xlink:href="#CMR17-114"/>
      <use transform="translate(275.592215836 24.8232640781)scale(0.996264009963)" xlink:href="#CMR17-93"/>
     </g>
    </g>
   </g>
   <g id="patch_29">
    <path d="
M421.901 389.091
L756.701 389.091" style="fill:none;stroke:#000000;"/>
   </g>
   <g id="patch_30">
    <path d="
M421.901 389.091
L421.901 200.091" style="fill:none;stroke:#000000;"/>
   </g>
   <g id="patch_31">
    <path clip-path="url(#pf35233bef3)" d="
M591.301 237.644
Q599.763 237.644 607.107 237.644" style="fill:none;stroke:#ff0000;stroke-linecap:round;"/>
    <path clip-path="url(#pf35233bef3)" d="
M597.507 232.844
L607.107 237.644
L597.507 242.444
L597.507 232.844
z
" style="fill:#ff0000;stroke:#ff0000;stroke-linecap:round;"/>
   </g>
   <g id="text_62">
    <!-- $v'_{e,2}$ -->
    <g style="fill:#ff0000;" transform="translate(583.93278088 264.808455837)scale(0.24 -0.24)">
     <use transform="translate(0.0 38.3003130351)scale(0.996264009963)" xlink:href="#CMMI12-118"/>
     <use transform="translate(50.7351733976 74.453951977)scale(0.697381766617)" xlink:href="#CMSY10-48"/>
     <use transform="translate(47.1605806838 13.5601418995)scale(0.697381766617)" xlink:href="#CMMI12-101"/>
     <use transform="translate(78.8088369785 13.5601418995)scale(0.697381766617)" xlink:href="#CMMI12-59"/>
     <use transform="translate(97.7767697307 13.5601418995)scale(0.697381766617)" xlink:href="#CMR17-50"/>
    </g>
   </g>
   <g id="patch_32">
    <path clip-path="url(#pf35233bef3)" d="
M589.301 283.579
Q589.301 271.246 589.301 260.031" style="fill:none;stroke:#008000;stroke-linecap:round;"/>
    <path clip-path="url(#pf35233bef3)" d="
M584.501 269.631
L589.301 260.031
L594.101 269.631
L584.501 269.631
z
" style="fill:#008000;stroke:#008000;stroke-linecap:round;"/>
   </g>
   <g id="patch_33">
    <path clip-path="url(#pf35233bef3)" d="
M591.301 256.911
Q599.763 256.911 607.107 256.911" style="fill:none;stroke:#008000;stroke-linecap:round;"/>
    <path clip-path="url(#pf35233bef3)" d="
M597.507 252.111
L607.107 256.911
L597.507 261.711
L597.507 252.111
z
" style="fill:#008000;stroke:#008000;stroke-linecap:round;"/>
   </g>
   <g id="text_63">
    <!-- $v_{e,3}$ -->
    <defs>
     <path d="
M22.0938 33.7031
C31 33.7031 34.9062 25.9688 34.9062 17.0312
C34.9062 5 28.5 0.390625 22.7031 0.390625
C17.4062 0.390625 8.79688 3.03125 6.09375 10.8281
C6.59375 10.625 7.09375 10.625 7.59375 10.625
C10 10.625 11.7969 12.2188 11.7969 14.8125
C11.7969 17.7031 9.59375 19 7.59375 19
C5.90625 19 3.29688 18.2031 3.29688 14.4688
C3.29688 5.23438 12.2969 -2 22.9062 -2
C34 -2 42.5 6.71875 42.5 16.9531
C42.5 26.6719 34.5 33.6875 25 34.7969
C32.5938 36.375 39.9062 43.0625 39.9062 52.0156
C39.9062 59.6875 32 65.2969 23 65.2969
C13.9062 65.2969 5.90625 59.8281 5.90625 52.0156
C5.90625 48.5938 8.5 48 9.79688 48
C11.9062 48 13.7031 49.2969 13.7031 51.8906
C13.7031 54.4688 11.9062 55.7656 9.79688 55.7656
C9.40625 55.7656 8.90625 55.7656 8.5 55.5625
C11.4062 61.8594 19.2969 63 22.7969 63
C26.2969 63 32.9062 61.3281 32.9062 51.875
C32.9062 49.1094 32.5 44.1875 29.0938 39.8438
C26.0938 36 22.7031 36 19.4062 35.5938
C18.9062 35.5938 16.5938 35.5938 16.2031 35.5938
C15.5 35.4844 15.0938 35.3906 15.0938 34.5938
C15.0938 33.8125 15.2031 33.7031 17.2031 33.7031
z
" id="CMR17-51"/>
    </defs>
    <g style="fill:#008000;" transform="translate(583.93278088 274.046650111)scale(0.24 -0.24)">
     <use transform="translate(0.0 28.5040564436)scale(0.996264009963)" xlink:href="#CMMI12-118"/>
     <use transform="translate(47.1605806838 13.5601418995)scale(0.697381766617)" xlink:href="#CMMI12-101"/>
     <use transform="translate(78.8088369785 13.5601418995)scale(0.697381766617)" xlink:href="#CMMI12-59"/>
     <use transform="translate(97.7767697307 13.5601418995)scale(0.697381766617)" xlink:href="#CMR17-51"/>
    </g>
   </g>
   <g id="text_64">
    <!-- d) -->
    <defs>
     <path d="
M29.2031 67.5938
L29.2031 65
C35.0938 65 36 64.4062 36 59.6875
L36 36.6406
C35.5938 37.1406 31.5 43.5938 23.4062 43.5938
C13.2031 43.5938 3.29688 34.5 3.29688 21.3125
C3.29688 8.20312 12.5938 -1 22.4062 -1
C30.9062 -1 35.2969 5.26562 35.7969 5.9375
L35.7969 -0.984375
L47.9062 -0.984375
L47.9062 2
C42 2 41.0938 2.59375 41.0938 7.39062
L41.0938 68.6875
z

M35.7969 11.7969
C35.7969 8.79688 34 6.09375 31.7031 4.09375
C28.2969 1.09375 24.9062 0.59375 23 0.59375
C20.0938 0.59375 9.70312 2.09375 9.70312 21.1875
C9.70312 40.8125 21.2969 42 23.9062 42
C28.5 42 32.2031 39.4062 34.5 35.7969
C35.7969 33.7031 35.7969 33.4062 35.7969 31.6094
z
" id="CMR17-100"/>
    </defs>
    <g transform="translate(438.640550548 386.188352766)scale(0.24 -0.24)">
     <use transform="translate(0.0 24.8232640781)scale(0.996264009963)" xlink:href="#CMR17-100"/>
     <use transform="translate(50.8953697803 24.8232640781)scale(0.996264009963)" xlink:href="#CMR17-41"/>
    </g>
   </g>
  </g>
 </g>
 <defs>
  <clipPath id="pf35233bef3">
   <rect height="189.0" width="334.8" x="421.900550548" y="200.091283018"/>
  </clipPath>
  <clipPath id="p22fa55cf72">
   <rect height="189.0" width="334.8" x="87.1005505478" y="11.0912830176"/>
  </clipPath>
  <clipPath id="pc68816fddf">
   <rect height="189.0" width="334.8" x="421.900550548" y="11.0912830176"/>
  </clipPath>
  <clipPath id="p782bbe7bf0">
   <rect height="189.0" width="334.8" x="87.1005505478" y="200.091283018"/>
  </clipPath>
 </defs>
</svg>
