<?xml version="1.0" encoding="utf-8" standalone="no"?>
<!DOCTYPE svg PUBLIC "-//W3C//DTD SVG 1.1//EN"
  "http://www.w3.org/Graphics/SVG/1.1/DTD/svg11.dtd">
<!-- Created with matplotlib (http://matplotlib.org/) -->
<svg height="442pt" version="1.1" viewBox="0 0 774 442" width="774pt" xmlns="http://www.w3.org/2000/svg" xmlns:xlink="http://www.w3.org/1999/xlink">
 <defs>
  <style type="text/css">
*{stroke-linecap:square;stroke-linejoin:round;}
  </style>
 </defs>
 <g id="figure_1">
  <g id="patch_1">
   <path d="
M0 442.674
L774.866 442.674
L774.866 0
L0 0
z
" style="fill:none;opacity:0.0;"/>
  </g>
  <g id="axes_1">
   <g id="patch_2">
    <path d="
M87.1006 385.2
L756.701 385.2
L756.701 7.2
L87.1006 7.2
z
" style="fill:none;opacity:0.0;"/>
   </g>
   <g id="patch_3">
    <path clip-path="url(#p7af64924b3)" d="
M87.1006 126.684
L756.701 126.684
L756.701 7.2
L87.1006 7.2
z
" style="fill:url(#h97499df24c);opacity:0.5;stroke:#000000;"/>
   </g>
   <g id="line2d_1">
    <path clip-path="url(#p7af64924b3)" d="
M384.763 342.114
L459.038 342.114" style="fill:none;stroke:#bf00bf;stroke-width:3.0;"/>
   </g>
   <g id="line2d_2">
    <path clip-path="url(#p7af64924b3)" d="
M87.1006 150.58
L109.219 152.271
L129.328 154.029
L147.425 155.832
L164.182 157.727
L178.928 159.612
L193.003 161.636
L205.738 163.696
L217.133 165.755
L227.857 167.915
L237.911 170.168
L247.295 172.505
L256.009 174.911
L264.052 177.369
L271.425 179.852
L278.128 182.331
L284.83 185.052
L290.863 187.739
L296.895 190.686
L302.257 193.554
L307.619 196.692
L312.311 199.689
L317.003 202.954
L321.025 205.995
L325.046 209.288
L329.068 212.867
L333.09 216.77
L336.441 220.302
L339.792 224.124
L343.144 228.27
L346.495 232.785
L349.846 237.72
L353.198 243.136
L355.879 247.865
L358.56 252.995
L361.241 258.577
L363.922 264.677
L366.603 271.367
L369.284 278.74
L371.965 286.904
L374.646 295.994
L376.657 303.519
L378.668 311.744
L380.679 320.771
L382.69 330.725
L384.701 341.754
L386.711 354.044
L388.722 367.823
L390.733 383.38
M453.068 383.38
L455.079 367.823
L457.09 354.044
L459.101 341.754
L461.111 330.725
L463.122 320.771
L465.133 311.744
L467.144 303.519
L469.825 293.626
L472.506 284.782
L475.187 276.827
L477.868 269.634
L480.549 263.1
L483.23 257.136
L485.911 251.672
L488.592 246.647
L491.274 242.011
L494.625 236.696
L497.976 231.85
L501.328 227.413
L504.679 223.335
L508.03 219.574
L512.052 215.43
L516.074 211.64
L520.095 208.161
L524.117 204.955
L528.809 201.52
L533.501 198.374
L538.192 195.481
L543.555 192.449
L548.917 189.672
L554.949 186.817
L560.982 184.208
L567.684 181.564
L574.387 179.151
L581.76 176.731
L589.803 174.334
L598.517 171.983
L607.901 169.698
L617.955 167.492
L628.679 165.375
L640.074 163.354
L652.809 161.332
L666.214 159.431
L680.96 157.567
L697.046 155.761
L714.474 154.029
L733.911 152.326
L755.36 150.676
L756.701 150.58
L756.701 150.58" style="fill:none;stroke:#000000;stroke-width:3.0;"/>
   </g>
   <g id="line2d_3">
    <defs>
     <path d="
M0 7
C1.85642 7 3.63706 6.26244 4.94975 4.94975
C6.26244 3.63706 7 1.85642 7 0
C7 -1.85642 6.26244 -3.63706 4.94975 -4.94975
C3.63706 -6.26244 1.85642 -7 0 -7
C-1.85642 -7 -3.63706 -6.26244 -4.94975 -4.94975
C-6.26244 -3.63706 -7 -1.85642 -7 0
C-7 1.85642 -6.26244 3.63706 -4.94975 4.94975
C-3.63706 6.26244 -1.85642 7 0 7
z
" id="me28cbefb4d" style="stroke:#000000;stroke-linecap:butt;stroke-width:0.5;"/>
    </defs>
    <g clip-path="url(#p7af64924b3)">
     <use style="fill:#0000ff;opacity:0.6;stroke:#000000;stroke-linecap:butt;stroke-width:0.5;" x="421.900550548" xlink:href="#me28cbefb4d" y="342.113916893"/>
    </g>
   </g>
   <g id="line2d_4">
    <defs>
     <path d="
M0 7
C1.85642 7 3.63706 6.26244 4.94975 4.94975
C6.26244 3.63706 7 1.85642 7 0
C7 -1.85642 6.26244 -3.63706 4.94975 -4.94975
C3.63706 -6.26244 1.85642 -7 0 -7
C-1.85642 -7 -3.63706 -6.26244 -4.94975 -4.94975
C-6.26244 -3.63706 -7 -1.85642 -7 0
C-7 1.85642 -6.26244 3.63706 -4.94975 4.94975
C-3.63706 6.26244 -1.85642 7 0 7
z
" id="mdfd1f8ea2e" style="stroke:#000000;stroke-linecap:butt;stroke-width:0.5;"/>
    </defs>
    <g clip-path="url(#p7af64924b3)">
     <use style="fill:#0000ff;stroke:#000000;stroke-linecap:butt;stroke-width:0.5;" x="421.900550548" xlink:href="#mdfd1f8ea2e" y="72.8258974725"/>
    </g>
   </g>
   <g id="line2d_5">
    <path clip-path="url(#p7af64924b3)" d="
M154.061 342.114
L163.712 341.834
L166.93 342.057
L176.045 342.922
L177.922 342.759
L180.067 342.327
L182.748 341.508
L186.234 340.441
L187.842 340.179
L189.183 340.161
L190.523 340.366
L191.864 340.806
L193.204 341.471
L194.813 342.511
L199.371 345.664
L200.443 346.118
L201.516 346.344
L202.588 346.298
L203.392 346.066
L204.465 345.484
L205.537 344.596
L206.61 343.431
L208.218 341.283
L211.972 335.966
L213.044 334.863
L213.849 334.285
L214.653 333.966
L215.457 333.938
L216.262 334.222
L217.066 334.831
L217.87 335.765
L218.675 337.011
L219.747 339.108
L221.088 342.284
L225.377 353.056
L226.45 354.893
L227.254 355.81
L227.79 356.168
L228.326 356.305
L228.863 356.212
L229.399 355.879
L229.935 355.303
L230.739 353.987
L231.544 352.145
L232.616 348.945
L233.957 343.979
L236.37 333.734
L237.978 327.35
L239.051 323.91
L239.855 321.963
L240.659 320.674
L241.196 320.22
L241.732 320.112
L242.268 320.363
L242.804 320.98
L243.341 321.963
L244.145 324.111
L244.949 327.024
L246.022 331.96
L247.362 339.434
L251.384 363.312
L252.456 367.99
L253.261 370.547
L253.797 371.727
L254.333 372.451
L254.869 372.698
L255.137 372.637
L255.674 372.142
L256.21 371.148
L256.746 369.661
L257.55 366.539
L258.355 362.425
L259.427 355.618
L260.768 345.557
L264.253 318.324
L265.325 311.818
L266.13 308.075
L266.934 305.488
L267.47 304.468
L268.006 304.042
L268.275 304.056
L268.543 304.223
L269.079 305.018
L269.615 306.421
L270.151 308.417
L270.956 312.461
L271.76 317.65
L272.832 326.044
L274.441 340.706
L277.122 365.377
L278.195 373.427
L278.999 378.241
L279.803 381.796
L280.339 383.393
L280.876 384.338
L281.144 384.559
L281.412 384.61
L281.68 384.491
L281.948 384.203
L282.484 383.12
L283.021 381.376
L283.825 377.583
L284.629 372.499
L285.702 364.031
L287.042 351.52
L290.528 317.923
L291.6 309.901
L292.404 305.229
L293.209 301.898
L293.745 300.483
L294.281 299.736
L294.549 299.618
L294.817 299.669
L295.085 299.89
L295.622 300.834
L296.158 302.432
L296.694 304.654
L297.498 309.067
L298.571 316.688
L299.911 328.256
L303.933 364.623
L305.005 371.767
L305.81 375.811
L306.614 378.583
L307.15 379.684
L307.686 380.172
L307.955 380.186
L308.223 380.048
L308.759 379.322
L309.295 378.014
L309.831 376.153
L310.636 372.41
L311.708 365.904
L313.049 356.012
L316.802 326.783
L317.875 320.328
L318.679 316.533
L319.483 313.762
L320.019 312.52
L320.556 311.776
L321.092 311.53
L321.36 311.593
L321.896 312.08
L322.432 313.036
L322.969 314.432
L323.773 317.282
L324.845 322.274
L326.186 329.877
L329.939 352.268
L331.012 357.204
L331.816 360.116
L332.621 362.264
L333.157 363.248
L333.693 363.865
L334.229 364.116
L334.765 364.008
L335.302 363.554
L335.838 362.772
L336.642 361.034
L337.446 358.704
L338.519 354.874
L340.396 347.037
L342.541 338.156
L343.881 333.583
L344.954 330.798
L345.758 329.303
L346.562 328.349
L347.098 328.016
L347.635 327.922
L348.171 328.06
L348.707 328.418
L349.511 329.335
L350.316 330.655
L351.388 332.913
L352.997 336.979
L355.678 343.912
L357.018 346.737
L358.091 348.462
L358.895 349.396
L359.699 350.006
L360.504 350.29
L361.308 350.262
L362.112 349.943
L362.917 349.365
L363.989 348.262
L365.33 346.502
L369.619 340.482
L370.692 339.382
L371.764 338.569
L372.837 338.065
L373.909 337.871
L374.982 337.965
L376.054 338.312
L377.395 339.023
L379.271 340.331
L382.489 342.599
L384.097 343.422
L385.438 343.862
L386.778 344.066
L388.119 344.049
L389.728 343.787
L391.872 343.17
L396.43 341.77
L398.575 341.402
L400.452 341.295
L402.597 341.385
L405.814 341.766
L410.372 342.292
L413.589 342.419
L417.343 342.328
L421.901 342.114
L421.901 342.114" style="fill:none;stroke:#ff0000;stroke-width:3.0;"/>
   </g>
   <g id="matplotlib.axis_1">
    <g id="xtick_1">
     <g id="line2d_6">
      <defs>
       <path d="
M0 0
L0 -4" id="mcb557df647" style="stroke:#000000;stroke-linecap:butt;stroke-width:0.5;"/>
      </defs>
      <g>
       <use style="stroke:#000000;stroke-linecap:butt;stroke-width:0.5;" x="87.1005505478" xlink:href="#mcb557df647" y="385.2"/>
      </g>
     </g>
     <g id="line2d_7">
      <defs>
       <path d="
M0 0
L0 4" id="mdad270ee8e" style="stroke:#000000;stroke-linecap:butt;stroke-width:0.5;"/>
      </defs>
      <g>
       <use style="stroke:#000000;stroke-linecap:butt;stroke-width:0.5;" x="87.1005505478" xlink:href="#mdad270ee8e" y="7.2"/>
      </g>
     </g>
     <g id="text_1">
      <!-- $-20$ -->
      <defs>
       <path d="
M65.9062 23
C67.5938 23 69.4062 23 69.4062 25
C69.4062 27 67.5938 27 65.9062 27
L11.7969 27
C10.0938 27 8.29688 27 8.29688 25
C8.29688 23 10.0938 23 11.7969 23
z
" id="CMSY10-0"/>
       <path d="
M41.7031 15.4531
L39.9062 15.4531
C38.9062 8.375 38.0938 7.17188 37.7031 6.5625
C37.2031 5.76562 30 5.76562 28.5938 5.76562
L9.40625 5.76562
C13 9.67188 20 16.75 28.5 24.9531
C34.5938 30.7344 41.7031 37.5312 41.7031 47.4219
C41.7031 59.2188 32.2969 66 21.7969 66
C10.7969 66 4.09375 56.3125 4.09375 47.3438
C4.09375 43.4375 7 42.9375 8.20312 42.9375
C9.20312 42.9375 12.2031 43.5469 12.2031 47.0312
C12.2031 50.1094 9.59375 51 8.20312 51
C7.59375 51 7 50.9062 6.59375 50.7031
C8.5 59.2188 14.2969 63.4062 20.4062 63.4062
C29.0938 63.4062 34.7969 56.5156 34.7969 47.4219
C34.7969 38.7344 29.7031 31.25 24 24.75
L4.09375 2.28125
L4.09375 0
L39.2969 0
z
" id="CMR17-50"/>
       <path d="
M42 31.6406
C42 37.75 41.9062 48.125 37.7031 56.1094
C34 63.1094 28.0938 65.5938 22.9062 65.5938
C18.0938 65.5938 12 63.4062 8.20312 56.2031
C4.20312 48.7188 3.79688 39.4375 3.79688 31.6406
C3.79688 25.9531 3.90625 17.2812 7 9.67188
C11.2969 -0.609375 19 -2 22.9062 -2
C27.5 -2 34.5 -0.109375 38.5938 9.375
C41.5938 16.2812 42 24.3594 42 31.6406
M22.9062 -0.40625
C16.5 -0.40625 12.7031 5.07812 11.2969 12.6875
C10.2031 18.5625 10.2031 27.1562 10.2031 32.75
C10.2031 40.4375 10.2031 46.8281 11.5 52.9219
C13.4062 61.3906 19 64 22.9062 64
C27 64 32.2969 61.2969 34.2031 53.125
C35.5 47.4375 35.5938 40.7344 35.5938 32.75
C35.5938 26.25 35.5938 18.2656 34.4062 12.375
C32.2969 1.48438 26.4062 -0.40625 22.9062 -0.40625" id="CMR17-48"/>
      </defs>
      <g transform="translate(66.8363390095 406.60541755)scale(0.24 -0.24)">
       <use transform="translate(0.0 8.30225582289)scale(0.996264009963)" xlink:href="#CMSY10-0"/>
       <use transform="translate(77.4874676506 8.30225582289)scale(0.996264009963)" xlink:href="#CMR17-50"/>
       <use transform="translate(123.177944768 8.30225582289)scale(0.996264009963)" xlink:href="#CMR17-48"/>
      </g>
     </g>
    </g>
    <g id="xtick_2">
     <g id="line2d_8">
      <g>
       <use style="stroke:#000000;stroke-linecap:butt;stroke-width:0.5;" x="170.800550548" xlink:href="#mcb557df647" y="385.2"/>
      </g>
     </g>
     <g id="line2d_9">
      <g>
       <use style="stroke:#000000;stroke-linecap:butt;stroke-width:0.5;" x="170.800550548" xlink:href="#mdad270ee8e" y="7.2"/>
      </g>
     </g>
     <g id="text_2">
      <!-- $-15$ -->
      <defs>
       <path d="
M26.5938 63.3125
C26.5938 65.4062 26.5 65.5 25.0938 65.5
C21.2031 61.1875 15.2969 59.7969 9.70312 59.7969
C9.40625 59.7969 8.90625 59.7969 8.79688 59.5
C8.70312 59.2969 8.70312 59.0938 8.70312 57
C11.7969 57 17 57.5938 21 59.9844
L21 7.20312
C21 3.6875 20.7969 2.5 12.2031 2.5
L9.20312 2.5
L9.20312 0
C14 0 19 0 23.7969 0
C28.5938 0 33.5938 0 38.4062 0
L38.4062 2.5
L35.4062 2.5
C26.7969 2.5 26.5938 3.59375 26.5938 7.15625
z
" id="CMR17-49"/>
       <path d="
M11.4062 57.6875
C12.4062 57.2812 16.5 56 20.7031 56
C30 56 35.0938 61.0156 38 63.9219
C38 64.7344 38 65.25 37.4062 65.25
C37.2969 65.25 37.0938 65.25 36.2969 64.8281
C32.7969 63.3125 28.7031 62.0781 23.7031 62.0781
C20.7031 62.0781 16.2031 62.5 11.2969 64.7344
C10.2031 65.25 10 65.25 9.90625 65.25
C9.40625 65.25 9.29688 65.1406 9.29688 63.1562
L9.29688 34.2812
C9.29688 32.5 9.29688 32 10.2969 32
C10.7969 32 11 32.2031 11.5 32.9062
C14.7031 37.4844 19.0938 39.4062 24.0938 39.4062
C27.5938 39.4062 35.0938 37.2188 35.0938 20.1406
C35.0938 16.9531 35.0938 11.1719 32.0938 6.57812
C29.5938 2.48438 25.7031 0.390625 21.4062 0.390625
C14.7969 0.390625 8.09375 5 6.29688 12.7188
C6.70312 12.6094 7.5 12.4219 7.90625 12.4219
C9.20312 12.4219 11.7031 13.125 11.7031 16.2188
C11.7031 18.9062 9.79688 20 7.90625 20
C5.59375 20 4.09375 18.5938 4.09375 15.7969
C4.09375 7.09375 11 -2 21.5938 -2
C31.9062 -2 41.7031 6.875 41.7031 19.75
C41.7031 31.7188 33.9062 41 24.2031 41
C19.0938 41 14.7969 39.0938 11.4062 35.4531
z
" id="CMR17-53"/>
      </defs>
      <g transform="translate(150.536339009 406.60541755)scale(0.24 -0.24)">
       <use transform="translate(0.0 8.30225582289)scale(0.996264009963)" xlink:href="#CMSY10-0"/>
       <use transform="translate(77.4874676506 8.30225582289)scale(0.996264009963)" xlink:href="#CMR17-49"/>
       <use transform="translate(123.177944768 8.30225582289)scale(0.996264009963)" xlink:href="#CMR17-53"/>
      </g>
     </g>
    </g>
    <g id="xtick_3">
     <g id="line2d_10">
      <g>
       <use style="stroke:#000000;stroke-linecap:butt;stroke-width:0.5;" x="254.500550548" xlink:href="#mcb557df647" y="385.2"/>
      </g>
     </g>
     <g id="line2d_11">
      <g>
       <use style="stroke:#000000;stroke-linecap:butt;stroke-width:0.5;" x="254.500550548" xlink:href="#mdad270ee8e" y="7.2"/>
      </g>
     </g>
     <g id="text_3">
      <!-- $-10$ -->
      <g transform="translate(234.236339009 406.60541755)scale(0.24 -0.24)">
       <use transform="translate(0.0 8.30225582289)scale(0.996264009963)" xlink:href="#CMSY10-0"/>
       <use transform="translate(77.4874676506 8.30225582289)scale(0.996264009963)" xlink:href="#CMR17-49"/>
       <use transform="translate(123.177944768 8.30225582289)scale(0.996264009963)" xlink:href="#CMR17-48"/>
      </g>
     </g>
    </g>
    <g id="xtick_4">
     <g id="line2d_12">
      <g>
       <use style="stroke:#000000;stroke-linecap:butt;stroke-width:0.5;" x="338.200550548" xlink:href="#mcb557df647" y="385.2"/>
      </g>
     </g>
     <g id="line2d_13">
      <g>
       <use style="stroke:#000000;stroke-linecap:butt;stroke-width:0.5;" x="338.200550548" xlink:href="#mdad270ee8e" y="7.2"/>
      </g>
     </g>
     <g id="text_4">
      <!-- $-5$ -->
      <g transform="translate(323.419196264 406.60541755)scale(0.24 -0.24)">
       <use transform="translate(0.0 8.30225582289)scale(0.996264009963)" xlink:href="#CMSY10-0"/>
       <use transform="translate(77.4874676506 8.30225582289)scale(0.996264009963)" xlink:href="#CMR17-53"/>
      </g>
     </g>
    </g>
    <g id="xtick_5">
     <g id="line2d_14">
      <g>
       <use style="stroke:#000000;stroke-linecap:butt;stroke-width:0.5;" x="421.900550548" xlink:href="#mcb557df647" y="385.2"/>
      </g>
     </g>
     <g id="line2d_15">
      <g>
       <use style="stroke:#000000;stroke-linecap:butt;stroke-width:0.5;" x="421.900550548" xlink:href="#mdad270ee8e" y="7.2"/>
      </g>
     </g>
     <g id="text_5">
      <!-- $0$ -->
      <g transform="translate(416.417693294 404.612874329)scale(0.24 -0.24)">
       <use transform="scale(0.996264009963)" xlink:href="#CMR17-48"/>
      </g>
     </g>
    </g>
    <g id="xtick_6">
     <g id="line2d_16">
      <g>
       <use style="stroke:#000000;stroke-linecap:butt;stroke-width:0.5;" x="505.600550548" xlink:href="#mcb557df647" y="385.2"/>
      </g>
     </g>
     <g id="line2d_17">
      <g>
       <use style="stroke:#000000;stroke-linecap:butt;stroke-width:0.5;" x="505.600550548" xlink:href="#mdad270ee8e" y="7.2"/>
      </g>
     </g>
     <g id="text_6">
      <!-- $5$ -->
      <g transform="translate(500.117693294 404.612874329)scale(0.24 -0.24)">
       <use transform="scale(0.996264009963)" xlink:href="#CMR17-53"/>
      </g>
     </g>
    </g>
    <g id="xtick_7">
     <g id="line2d_18">
      <g>
       <use style="stroke:#000000;stroke-linecap:butt;stroke-width:0.5;" x="589.300550548" xlink:href="#mcb557df647" y="385.2"/>
      </g>
     </g>
     <g id="line2d_19">
      <g>
       <use style="stroke:#000000;stroke-linecap:butt;stroke-width:0.5;" x="589.300550548" xlink:href="#mdad270ee8e" y="7.2"/>
      </g>
     </g>
     <g id="text_7">
      <!-- $10$ -->
      <g transform="translate(578.33483604 404.612874329)scale(0.24 -0.24)">
       <use transform="scale(0.996264009963)" xlink:href="#CMR17-49"/>
       <use transform="translate(45.6904771171 0.0)scale(0.996264009963)" xlink:href="#CMR17-48"/>
      </g>
     </g>
    </g>
    <g id="xtick_8">
     <g id="line2d_20">
      <g>
       <use style="stroke:#000000;stroke-linecap:butt;stroke-width:0.5;" x="673.000550548" xlink:href="#mcb557df647" y="385.2"/>
      </g>
     </g>
     <g id="line2d_21">
      <g>
       <use style="stroke:#000000;stroke-linecap:butt;stroke-width:0.5;" x="673.000550548" xlink:href="#mdad270ee8e" y="7.2"/>
      </g>
     </g>
     <g id="text_8">
      <!-- $15$ -->
      <g transform="translate(662.03483604 404.612874329)scale(0.24 -0.24)">
       <use transform="scale(0.996264009963)" xlink:href="#CMR17-49"/>
       <use transform="translate(45.6904771171 0.0)scale(0.996264009963)" xlink:href="#CMR17-53"/>
      </g>
     </g>
    </g>
    <g id="xtick_9">
     <g id="line2d_22">
      <g>
       <use style="stroke:#000000;stroke-linecap:butt;stroke-width:0.5;" x="756.700550548" xlink:href="#mcb557df647" y="385.2"/>
      </g>
     </g>
     <g id="line2d_23">
      <g>
       <use style="stroke:#000000;stroke-linecap:butt;stroke-width:0.5;" x="756.700550548" xlink:href="#mdad270ee8e" y="7.2"/>
      </g>
     </g>
     <g id="text_9">
      <!-- $20$ -->
      <g transform="translate(745.73483604 404.612874329)scale(0.24 -0.24)">
       <use transform="scale(0.996264009963)" xlink:href="#CMR17-50"/>
       <use transform="translate(45.6904771171 0.0)scale(0.996264009963)" xlink:href="#CMR17-48"/>
      </g>
     </g>
    </g>
    <g id="text_10">
     <!-- r [bohr] -->
     <defs>
      <path d="
M23.5 -25
L23.5 -21.5156
L14.0938 -21.5156
L14.0938 71
L23.5 71
L23.5 74.4844
L10.5938 74.4844
L10.5938 -25
z
" id="CMR17-91"/>
      <path d="
M14.2969 74.4844
L1.40625 74.4844
L1.40625 71
L10.7969 71
L10.7969 -21.5156
L1.40625 -21.5156
L1.40625 -25
L14.2969 -25
z
" id="CMR17-93"/>
      <path d="
M15 68.6875
L3.09375 67.5938
L3.09375 65
C9 65 9.90625 64.4062 9.90625 59.6406
L9.90625 -0.203125
L11.7031 -0.203125
L14.5938 6.89062
C17.5 2.20312 21.7969 -1 27.5938 -1
C37.5938 -1 47.7031 7.8125 47.7031 21.4062
C47.7031 34.1875 38.7031 43.5938 28.5938 43.5938
C22.4062 43.5938 18 40.2969 15 36.4062
z

M15.2031 31.3125
C15.2031 33.0938 15.2031 33.4062 16.5938 35.5
C20.5 41.5156 26.0938 42 28 42
C31 42 41.2969 40.3906 41.2969 21.5
C41.2969 1.6875 29.5 0.59375 27.0938 0.59375
C24 0.59375 19.5 1.78125 16.2969 7.59375
C15.2031 9.5 15.2031 9.70312 15.2031 11.4844
z
" id="CMR17-98"/>
      <path d="
M41.5 30.2031
C41.5 35.2969 40.5 43.5938 28.7031 43.5938
C20.5 43.5938 16.5 37 15.2969 33.7031
L15.2031 33.7031
L15.2031 68.6875
L3.29688 67.5938
L3.29688 65
C9.20312 65 10.0938 64.4062 10.0938 59.6406
L10.0938 6.65625
C10.0938 2.875 9.70312 2.39062 3.29688 2.39062
L3.29688 -0.203125
C5.70312 0 10.0938 0 12.7031 0
C15.2969 0 19.7969 0 22.2031 -0.203125
L22.2031 2.39062
C15.7969 2.39062 15.4062 2.78125 15.4062 6.6875
L15.4062 25.9062
C15.4062 35.1094 21 42 28 42
C35.4062 42 36.2031 35.4062 36.2031 30.5938
L36.2031 6.6875
C36.2031 2.875 35.7969 2.39062 29.4062 2.39062
L29.4062 -0.203125
C31.7969 0 36.2031 0 38.7969 0
C41.4062 0 45.9062 0 48.2969 -0.203125
L48.2969 2.39062
C41.9062 2.39062 41.5 2.78125 41.5 6.6875
z
" id="CMR17-104"/>
      <path d="
M15 23.3906
C15 33 19.0938 42 26.5938 42
C27.2969 42 28 41.9062 28.7031 41.5938
C28.7031 41.5938 26.5 40.8906 26.5 38.3125
C26.5 35.9062 28.4062 34.9062 29.9062 34.9062
C31.0938 34.9062 33.2969 35.6094 33.2969 38.4062
C33.2969 41.6094 30.0938 43.5938 26.7031 43.5938
C19.0938 43.5938 15.7969 36.2031 14.7969 32.7031
L14.7031 32.7031
L14.7031 43.5938
L3.09375 42.5
L3.09375 39.9062
C9 39.9062 9.90625 39.2969 9.90625 34.5
L9.90625 6.6875
C9.90625 2.875 9.5 2.39062 3.09375 2.39062
L3.09375 -0.203125
C5.5 0 10.0938 0 12.7031 0
C15.5938 0 20.7031 0 23.4062 -0.203125
L23.4062 2.39062
C16.2031 2.39062 15 2.39062 15 6.875
z
" id="CMR17-114"/>
      <path d="
M43.0938 21.1875
C43.0938 34 33.7969 44 22.9062 44
C12 44 2.70312 34 2.70312 21.1875
C2.70312 8.60938 12 -1 22.9062 -1
C33.7969 -1 43.0938 8.60938 43.0938 21.1875
M22.9062 0.796875
C18.2031 0.796875 14.2031 3.59375 11.9062 7.5
C9.40625 11.9844 9.09375 17.5938 9.09375 22
C9.09375 26.2031 9.29688 31.4062 11.9062 35.9062
C13.9062 39.2031 17.7969 42.4062 22.9062 42.4062
C27.4062 42.4062 31.2031 39.9062 33.5938 36.4062
C36.7031 31.7031 36.7031 25.1094 36.7031 22
C36.7031 18.0938 36.5 12.1094 33.7969 7.29688
C31 2.70312 26.7031 0.796875 22.9062 0.796875" id="CMR17-111"/>
     </defs>
     <g transform="translate(385.844963102 435.47422252)scale(0.24 -0.24)">
      <use transform="translate(0.0 24.8232640781)scale(0.996264009963)" xlink:href="#CMR17-114"/>
      <use transform="translate(65.3567341464 24.8232640781)scale(0.996264009963)" xlink:href="#CMR17-91"/>
      <use transform="translate(90.2277926282 24.8232640781)scale(0.996264009963)" xlink:href="#CMR17-98"/>
      <use transform="translate(143.725601139 24.8232640781)scale(0.996264009963)" xlink:href="#CMR17-111"/>
      <use transform="translate(189.416078256 24.8232640781)scale(0.996264009963)" xlink:href="#CMR17-104"/>
      <use transform="translate(240.311448037 24.8232640781)scale(0.996264009963)" xlink:href="#CMR17-114"/>
      <use transform="translate(275.592215836 24.8232640781)scale(0.996264009963)" xlink:href="#CMR17-93"/>
     </g>
    </g>
   </g>
   <g id="matplotlib.axis_2">
    <g id="ytick_1">
     <g id="line2d_24">
      <defs>
       <path d="
M0 0
L4 0" id="mc8fcea1516" style="stroke:#000000;stroke-linecap:butt;stroke-width:0.5;"/>
      </defs>
      <g>
       <use style="stroke:#000000;stroke-linecap:butt;stroke-width:0.5;" x="87.1005505478" xlink:href="#mc8fcea1516" y="365.65050407"/>
      </g>
     </g>
     <g id="line2d_25">
      <defs>
       <path d="
M0 0
L-4 0" id="m0d5b0a6425" style="stroke:#000000;stroke-linecap:butt;stroke-width:0.5;"/>
      </defs>
      <g>
       <use style="stroke:#000000;stroke-linecap:butt;stroke-width:0.5;" x="756.700550548" xlink:href="#m0d5b0a6425" y="365.65050407"/>
      </g>
     </g>
     <g id="text_11">
      <!-- $-0.5$ -->
      <defs>
       <path d="
M18.4062 4.79688
C18.4062 7.6875 16 9.67188 13.5938 9.67188
C10.7031 9.67188 8.70312 7.28125 8.70312 4.89062
C8.70312 2 11.0938 0 13.5 0
C16.4062 0 18.4062 2.39062 18.4062 4.79688" id="CMMI12-58"/>
      </defs>
      <g transform="translate(36.0688049696 374.353212845)scale(0.24 -0.24)">
       <use transform="translate(0.0 8.30225582289)scale(0.996264009963)" xlink:href="#CMSY10-0"/>
       <use transform="translate(77.4874676506 8.30225582289)scale(0.996264009963)" xlink:href="#CMR17-48"/>
       <use transform="translate(123.177944768 8.30225582289)scale(0.996264009963)" xlink:href="#CMMI12-58"/>
       <use transform="translate(150.275121857 8.30225582289)scale(0.996264009963)" xlink:href="#CMR17-53"/>
      </g>
     </g>
    </g>
    <g id="ytick_2">
     <g id="line2d_26">
      <g>
       <use style="stroke:#000000;stroke-linecap:butt;stroke-width:0.5;" x="87.1005505478" xlink:href="#mc8fcea1516" y="317.857103527"/>
      </g>
     </g>
     <g id="line2d_27">
      <g>
       <use style="stroke:#000000;stroke-linecap:butt;stroke-width:0.5;" x="756.700550548" xlink:href="#m0d5b0a6425" y="317.857103527"/>
      </g>
     </g>
     <g id="text_12">
      <!-- $-0.4$ -->
      <defs>
       <path d="
M33.5938 64.3281
C33.5938 66.4062 33.5 66.5 31.7031 66.5
L2 19.5938
L2 17
L27.7969 17
L27.7969 7.14062
C27.7969 3.5 27.5938 2.5 20.5938 2.5
L18.7031 2.5
L18.7031 0
C21.9062 0 27.2969 0 30.7031 0
C34.0938 0 39.5 0 42.7031 0
L42.7031 2.5
L40.7969 2.5
C33.7969 2.5 33.5938 3.5 33.5938 7.14062
L33.5938 17
L43.7969 17
L43.7969 19.5938
L33.5938 19.5938
z

M28.0938 57.7656
L28.0938 19.5938
L4 19.5938
z
" id="CMR17-52"/>
      </defs>
      <g transform="translate(36.0688049696 326.559812302)scale(0.24 -0.24)">
       <use transform="translate(0.0 8.30225582289)scale(0.996264009963)" xlink:href="#CMSY10-0"/>
       <use transform="translate(77.4874676506 8.30225582289)scale(0.996264009963)" xlink:href="#CMR17-48"/>
       <use transform="translate(123.177944768 8.30225582289)scale(0.996264009963)" xlink:href="#CMMI12-58"/>
       <use transform="translate(150.275121857 8.30225582289)scale(0.996264009963)" xlink:href="#CMR17-52"/>
      </g>
     </g>
    </g>
    <g id="ytick_3">
     <g id="line2d_28">
      <g>
       <use style="stroke:#000000;stroke-linecap:butt;stroke-width:0.5;" x="87.1005505478" xlink:href="#mc8fcea1516" y="270.063702984"/>
      </g>
     </g>
     <g id="line2d_29">
      <g>
       <use style="stroke:#000000;stroke-linecap:butt;stroke-width:0.5;" x="756.700550548" xlink:href="#m0d5b0a6425" y="270.063702984"/>
      </g>
     </g>
     <g id="text_13">
      <!-- $-0.3$ -->
      <defs>
       <path d="
M22.0938 33.7031
C31 33.7031 34.9062 25.9688 34.9062 17.0312
C34.9062 5 28.5 0.390625 22.7031 0.390625
C17.4062 0.390625 8.79688 3.03125 6.09375 10.8281
C6.59375 10.625 7.09375 10.625 7.59375 10.625
C10 10.625 11.7969 12.2188 11.7969 14.8125
C11.7969 17.7031 9.59375 19 7.59375 19
C5.90625 19 3.29688 18.2031 3.29688 14.4688
C3.29688 5.23438 12.2969 -2 22.9062 -2
C34 -2 42.5 6.71875 42.5 16.9531
C42.5 26.6719 34.5 33.6875 25 34.7969
C32.5938 36.375 39.9062 43.0625 39.9062 52.0156
C39.9062 59.6875 32 65.2969 23 65.2969
C13.9062 65.2969 5.90625 59.8281 5.90625 52.0156
C5.90625 48.5938 8.5 48 9.79688 48
C11.9062 48 13.7031 49.2969 13.7031 51.8906
C13.7031 54.4688 11.9062 55.7656 9.79688 55.7656
C9.40625 55.7656 8.90625 55.7656 8.5 55.5625
C11.4062 61.8594 19.2969 63 22.7969 63
C26.2969 63 32.9062 61.3281 32.9062 51.875
C32.9062 49.1094 32.5 44.1875 29.0938 39.8438
C26.0938 36 22.7031 36 19.4062 35.5938
C18.9062 35.5938 16.5938 35.5938 16.2031 35.5938
C15.5 35.4844 15.0938 35.3906 15.0938 34.5938
C15.0938 33.8125 15.2031 33.7031 17.2031 33.7031
z
" id="CMR17-51"/>
      </defs>
      <g transform="translate(36.0688049696 278.76641176)scale(0.24 -0.24)">
       <use transform="translate(0.0 8.30225582289)scale(0.996264009963)" xlink:href="#CMSY10-0"/>
       <use transform="translate(77.4874676506 8.30225582289)scale(0.996264009963)" xlink:href="#CMR17-48"/>
       <use transform="translate(123.177944768 8.30225582289)scale(0.996264009963)" xlink:href="#CMMI12-58"/>
       <use transform="translate(150.275121857 8.30225582289)scale(0.996264009963)" xlink:href="#CMR17-51"/>
      </g>
     </g>
    </g>
    <g id="ytick_4">
     <g id="line2d_30">
      <g>
       <use style="stroke:#000000;stroke-linecap:butt;stroke-width:0.5;" x="87.1005505478" xlink:href="#mc8fcea1516" y="222.270302442"/>
      </g>
     </g>
     <g id="line2d_31">
      <g>
       <use style="stroke:#000000;stroke-linecap:butt;stroke-width:0.5;" x="756.700550548" xlink:href="#m0d5b0a6425" y="222.270302442"/>
      </g>
     </g>
     <g id="text_14">
      <!-- $-0.2$ -->
      <g transform="translate(36.0688049696 230.973011217)scale(0.24 -0.24)">
       <use transform="translate(0.0 8.30225582289)scale(0.996264009963)" xlink:href="#CMSY10-0"/>
       <use transform="translate(77.4874676506 8.30225582289)scale(0.996264009963)" xlink:href="#CMR17-48"/>
       <use transform="translate(123.177944768 8.30225582289)scale(0.996264009963)" xlink:href="#CMMI12-58"/>
       <use transform="translate(150.275121857 8.30225582289)scale(0.996264009963)" xlink:href="#CMR17-50"/>
      </g>
     </g>
    </g>
    <g id="ytick_5">
     <g id="line2d_32">
      <g>
       <use style="stroke:#000000;stroke-linecap:butt;stroke-width:0.5;" x="87.1005505478" xlink:href="#mc8fcea1516" y="174.476901899"/>
      </g>
     </g>
     <g id="line2d_33">
      <g>
       <use style="stroke:#000000;stroke-linecap:butt;stroke-width:0.5;" x="756.700550548" xlink:href="#m0d5b0a6425" y="174.476901899"/>
      </g>
     </g>
     <g id="text_15">
      <!-- $-0.1$ -->
      <g transform="translate(36.0688049696 183.179610674)scale(0.24 -0.24)">
       <use transform="translate(0.0 8.30225582289)scale(0.996264009963)" xlink:href="#CMSY10-0"/>
       <use transform="translate(77.4874676506 8.30225582289)scale(0.996264009963)" xlink:href="#CMR17-48"/>
       <use transform="translate(123.177944768 8.30225582289)scale(0.996264009963)" xlink:href="#CMMI12-58"/>
       <use transform="translate(150.275121857 8.30225582289)scale(0.996264009963)" xlink:href="#CMR17-49"/>
      </g>
     </g>
    </g>
    <g id="ytick_6">
     <g id="line2d_34">
      <g>
       <use style="stroke:#000000;stroke-linecap:butt;stroke-width:0.5;" x="87.1005505478" xlink:href="#mc8fcea1516" y="126.683501357"/>
      </g>
     </g>
     <g id="line2d_35">
      <g>
       <use style="stroke:#000000;stroke-linecap:butt;stroke-width:0.5;" x="756.700550548" xlink:href="#m0d5b0a6425" y="126.683501357"/>
      </g>
     </g>
     <g id="text_16">
      <!-- $0.0$ -->
      <g transform="translate(54.66579903 134.389938521)scale(0.24 -0.24)">
       <use transform="scale(0.996264009963)" xlink:href="#CMR17-48"/>
       <use transform="translate(45.6904771171 0.0)scale(0.996264009963)" xlink:href="#CMMI12-58"/>
       <use transform="translate(72.7876542069 0.0)scale(0.996264009963)" xlink:href="#CMR17-48"/>
      </g>
     </g>
    </g>
    <g id="ytick_7">
     <g id="line2d_36">
      <g>
       <use style="stroke:#000000;stroke-linecap:butt;stroke-width:0.5;" x="87.1005505478" xlink:href="#mc8fcea1516" y="78.8901008139"/>
      </g>
     </g>
     <g id="line2d_37">
      <g>
       <use style="stroke:#000000;stroke-linecap:butt;stroke-width:0.5;" x="756.700550548" xlink:href="#m0d5b0a6425" y="78.8901008139"/>
      </g>
     </g>
     <g id="text_17">
      <!-- $0.1$ -->
      <g transform="translate(54.66579903 86.5965379783)scale(0.24 -0.24)">
       <use transform="scale(0.996264009963)" xlink:href="#CMR17-48"/>
       <use transform="translate(45.6904771171 0.0)scale(0.996264009963)" xlink:href="#CMMI12-58"/>
       <use transform="translate(72.7876542069 0.0)scale(0.996264009963)" xlink:href="#CMR17-49"/>
      </g>
     </g>
    </g>
    <g id="ytick_8">
     <g id="line2d_38">
      <g>
       <use style="stroke:#000000;stroke-linecap:butt;stroke-width:0.5;" x="87.1005505478" xlink:href="#mc8fcea1516" y="31.0967002713"/>
      </g>
     </g>
     <g id="line2d_39">
      <g>
       <use style="stroke:#000000;stroke-linecap:butt;stroke-width:0.5;" x="756.700550548" xlink:href="#m0d5b0a6425" y="31.0967002713"/>
      </g>
     </g>
     <g id="text_18">
      <!-- $0.2$ -->
      <g transform="translate(54.66579903 38.8031374357)scale(0.24 -0.24)">
       <use transform="scale(0.996264009963)" xlink:href="#CMR17-48"/>
       <use transform="translate(45.6904771171 0.0)scale(0.996264009963)" xlink:href="#CMMI12-58"/>
       <use transform="translate(72.7876542069 0.0)scale(0.996264009963)" xlink:href="#CMR17-50"/>
      </g>
     </g>
    </g>
    <g id="text_19">
     <!-- Energy [Hartree] -->
     <defs>
      <path d="
M60.7031 25.0781
L58.9062 25.0781
C56.7031 10.5156 55.4062 2.59375 37.7969 2.59375
L23.9062 2.59375
C19.9062 2.59375 19.7031 3.07812 19.7031 6.46875
L19.7031 34
L29.0938 34
C38.5 34 39.4062 30.5625 39.4062 22.125
L41.2031 22.125
L41.2031 48
L39.4062 48
C39.4062 39.9219 38.5 36.5938 29.0938 36.5938
L19.7031 36.5938
L19.7031 61.1406
C19.7031 64.5 19.9062 65 23.9062 65
L37.5938 65
C53.0938 65 54.9062 58.8594 56.2969 45.6562
L58.0938 45.6562
L55.7031 67.5781
L5.09375 67.5781
L5.09375 65
C12 65 13.0938 65 13.0938 60.5312
L13.0938 7.04688
C13.0938 2.59375 12 2.59375 5.09375 2.59375
L5.09375 0
L57.0938 0
z
" id="CMR17-69"/>
      <path d="
M36 25.8281
C36 32.375 36 35.8438 31.7969 39.7344
C28.0938 43 23.7969 44 20.4062 44
C12.5 44 6.79688 37.6094 6.79688 30.7969
C6.79688 27 9.79688 27 10.4062 27
C11.7031 27 14 27.7812 14 30.5312
C14 33 12.0938 34.0781 10.4062 34.0781
C10 34.0781 9.5 33.9688 9.20312 33.875
C11.2969 40.5 16.7031 42.4062 20.2031 42.4062
C25.2031 42.4062 30.7031 37.9531 30.7031 29.4531
L30.7031 25
C24.7969 25 17.7031 24.2031 12.0938 21.2031
C5.79688 17.7031 4 12.7031 4 8.90625
C4 1.20312 13 -1 18.2969 -1
C23.7969 -1 28.9062 2.17188 31.0938 7.98438
C31.2969 3.64062 34.0938 -0.28125 38.5 -0.28125
C40.5938 -0.28125 45.9062 1.09375 45.9062 8.85938
L45.9062 14.375
L44.0938 14.375
L44.0938 8.78125
C44.0938 2.78125 41.4062 2 40.0938 2
C36 2 36 7.15625 36 11.5312
z

M30.7031 13.5938
C30.7031 4.95312 24.5 0.59375 19 0.59375
C14 0.59375 10.0938 4.29688 10.0938 8.90625
C10.0938 11.8906 11.4062 17.1875 17.2031 20.3906
C22 23.0938 27.5 23.5 30.7031 23.5
z
" id="CMR17-97"/>
      <path d="
M41.5 30.2031
C41.5 35.2969 40.5 43.5938 28.7031 43.5938
C20.7969 43.5938 16.7031 37.5 15.2031 33.5
L15.0938 33.5
L15.0938 43.5938
L3.29688 42.5
L3.29688 39.9062
C9.20312 39.9062 10.0938 39.2969 10.0938 34.5
L10.0938 6.6875
C10.0938 2.875 9.70312 2.39062 3.29688 2.39062
L3.29688 -0.203125
C5.70312 0 10.0938 0 12.7031 0
C15.2969 0 19.7969 0 22.2031 -0.203125
L22.2031 2.39062
C15.7969 2.39062 15.4062 2.78125 15.4062 6.6875
L15.4062 25.9062
C15.4062 35.1094 21 42 28 42
C35.4062 42 36.2031 35.4062 36.2031 30.5938
L36.2031 6.6875
C36.2031 2.875 35.7969 2.39062 29.4062 2.39062
L29.4062 -0.203125
C31.7969 0 36.2031 0 38.7969 0
C41.4062 0 45.9062 0 48.2969 -0.203125
L48.2969 2.39062
C41.9062 2.39062 41.5 2.78125 41.5 6.6875
z
" id="CMR17-110"/>
      <path d="
M39 34.3281
C41.5 40.4062 46 40.4062 47.4062 40.4062
L47.4062 43
C45.5 43 43 43 41.0938 43
C39 43 35.7031 43 33.7031 43.0938
L33.7031 40.5
C37.5 40.2031 37.5938 37.4062 37.5938 36.6094
C37.5938 35.625 37.4062 35.125 36.9062 33.9219
L26 7.01562
L14.0938 36.0312
C13.5938 37.2188 13.5938 37.9062 13.5938 38.0156
C13.5938 40.2031 15.9062 40.4062 18.2969 40.4062
L18.2969 43.0938
C15.9062 43 11.5938 43 9.09375 43
C6.40625 43 3.20312 43 1 43.0938
L1 40.4062
C6.40625 40.4062 7 39.9062 8.29688 36.7188
L23.2031 0.234375
C18.7031 -11.5312 16.0938 -18.4062 9.79688 -18.4062
C8.70312 -18.4062 6.20312 -18.1094 4.40625 -16.3125
C6.70312 -16.1094 7.70312 -14.7188 7.70312 -13.0156
C7.70312 -11.3281 6.5 -9.82812 4.5 -9.82812
C2.29688 -9.82812 1.20312 -11.3281 1.20312 -13.125
C1.20312 -17.1094 5.29688 -20 9.79688 -20
C15.5938 -20 19.2031 -14.4062 21.2031 -9.4375
z
" id="CMR17-121"/>
      <path d="
M15.0938 40
L29.0938 40
L29.0938 42.5781
L15.0938 42.5781
L15.0938 61
L13.2969 61
C13.0938 50.7031 9.59375 41.6875 1.09375 41.6875
L1.09375 40
L9.79688 40
L9.79688 12.0469
C9.79688 10.1562 9.79688 -1 21.4062 -1
C27.2969 -1 30.7031 4.78125 30.7031 12.1406
L30.7031 17.8125
L28.9062 17.8125
L28.9062 12.2344
C28.9062 5.375 26.2031 0.796875 22 0.796875
C19.0938 0.796875 15.0938 2.78125 15.0938 11.8438
z
" id="CMR17-116"/>
      <path d="
M56.0938 61.0156
C56.0938 65.5 57.2031 65.5 64.0938 65.5
L64.0938 68
C61.2031 68 55.9062 68 52.7969 68
C49.7031 68 44.4062 68 41.5 68
L41.5 65.5
C48.4062 65.5 49.5 65.5 49.5 61
L49.5 36.5781
L19.7031 36.5781
L19.7031 61
C19.7031 65.5 20.7969 65.5 27.7031 65.5
L27.7031 68
C24.7969 68 19.5 68 16.4062 68
C13.2969 68 8 68 5.09375 68
L5.09375 65.5
C12 65.5 13.0938 65.5 13.0938 61.0156
L13.0938 6.98438
C13.0938 2.5 12 2.5 5.09375 2.5
L5.09375 0
C8 0 13.2969 0 16.4062 0
C19.5 0 24.7969 0 27.7031 0
L27.7031 2.5
C20.7969 2.5 19.7031 2.5 19.7031 6.96875
L19.7031 34
L49.5 34
L49.5 6.96875
C49.5 2.5 48.4062 2.5 41.5 2.5
L41.5 0
C44.4062 0 49.7031 0 52.7969 0
C55.9062 0 61.2031 0 64.0938 0
L64.0938 2.5
C57.2031 2.5 56.0938 2.5 56.0938 6.98438
z
" id="CMR17-72"/>
      <path d="
M11.0938 18.1875
C13 16.6875 16.2969 15 20.2969 15
C28.2031 15 35 21.2031 35 29.5
C35 32.0938 34.2031 36.0938 31.2031 39.2031
C34 42.0625 38.0938 43 40.4062 43
C40.7969 43 41.4062 43 41.9062 42.7656
C41.5 42.6719 40.5938 42.2812 40.5938 40.7344
C40.5938 39.4844 41.5 38.6094 42.7969 38.6094
C44.2969 38.6094 45.0938 39.5781 45.0938 40.8438
C45.0938 42.6719 43.5938 44.5938 40.4062 44.5938
C36.4062 44.5938 32.9062 42.7812 30.0938 40.3125
C27.0938 43.0156 23.5 44 20.2969 44
C12.4062 44 5.59375 37.7969 5.59375 29.5
C5.59375 23.7812 8.90625 20.1875 9.90625 19.1875
C6.90625 15.6875 6.90625 11.6094 6.90625 11.1094
C6.90625 8.51562 7.90625 4.71875 11.2969 2.625
C6.09375 1.32812 2 -2.64062 2 -7.59375
C2 -14.7344 11.5 -20 22.9062 -20
C33.9062 -20 43.7969 -14.9375 43.7969 -7.48438
C43.7969 6 29 6 21.2969 6
C19 6 14.9062 6 14.4062 6.10938
C11.2969 6.60938 9.20312 9.40625 9.20312 12.8906
C9.20312 13.7812 9.20312 16 11.0938 18.1875
M20.2969 16.6875
C11.5 16.6875 11.5 27.5 11.5 29.5156
C11.5 31.5 11.5 42.3125 20.2969 42.3125
C29.0938 42.3125 29.0938 31.5 29.0938 29.5156
C29.0938 27.5 29.0938 16.6875 20.2969 16.6875
M22.9062 -18.2969
C12.9062 -18.2969 6 -13.0469 6 -7.59375
C6 -4.51562 7.70312 -1.64062 9.90625 -0.0625
C12.4062 1.625 13.4062 1.625 20.2031 1.625
C28.4062 1.625 39.7969 1.625 39.7969 -7.59375
C39.7969 -13.0469 32.9062 -18.2969 22.9062 -18.2969" id="CMR17-103"/>
      <path d="
M38.0938 23
C38.5 23.4062 38.5 23.6094 38.5 24.625
C38.5 34.9688 33.0938 44 21.7031 44
C11.0938 44 2.70312 33.8906 2.70312 21.6094
C2.70312 8.60938 12.2031 -1 22.7969 -1
C34 -1 38.4062 9.46875 38.4062 11.5469
C38.4062 12.25 37.7969 12.25 37.5938 12.25
C36.9062 12.25 36.7969 12.0469 36.4062 10.875
C34.2031 4.14062 28.7031 0.796875 23.5 0.796875
C19.2031 0.796875 14.9062 3.17188 12.2031 7.5
C9.09375 12.5469 9.09375 18.375 9.09375 23
z

M9.20312 24.5
C9.90625 39.1406 17.5938 42.4062 21.5938 42.4062
C28.4062 42.4062 33 35.8906 33.0938 24.5
z
" id="CMR17-101"/>
     </defs>
     <g transform="translate(31.0688049696 275.955109927)rotate(-90.0)scale(0.24 -0.24)">
      <use transform="translate(0.0 24.8232640781)scale(0.996264009963)" xlink:href="#CMR17-69"/>
      <use transform="translate(62.5863005186 24.8232640781)scale(0.996264009963)" xlink:href="#CMR17-110"/>
      <use transform="translate(113.481670299 24.8232640781)scale(0.996264009963)" xlink:href="#CMR17-101"/>
      <use transform="translate(153.967330762 24.8232640781)scale(0.996264009963)" xlink:href="#CMR17-114"/>
      <use transform="translate(189.248098561 24.8232640781)scale(0.996264009963)" xlink:href="#CMR17-103"/>
      <use transform="translate(234.938575678 24.8232640781)scale(0.996264009963)" xlink:href="#CMR17-121"/>
      <use transform="translate(313.307457873 24.8232640781)scale(0.996264009963)" xlink:href="#CMR17-91"/>
      <use transform="translate(338.178516355 24.8232640781)scale(0.996264009963)" xlink:href="#CMR17-72"/>
      <use transform="translate(407.250946159 24.8232640781)scale(0.996264009963)" xlink:href="#CMR17-97"/>
      <use transform="translate(452.941423276 24.8232640781)scale(0.996264009963)" xlink:href="#CMR17-114"/>
      <use transform="translate(488.222191075 24.8232640781)scale(0.996264009963)" xlink:href="#CMR17-116"/>
      <use transform="translate(523.502958875 24.8232640781)scale(0.996264009963)" xlink:href="#CMR17-114"/>
      <use transform="translate(558.783726674 24.8232640781)scale(0.996264009963)" xlink:href="#CMR17-101"/>
      <use transform="translate(599.269387137 24.8232640781)scale(0.996264009963)" xlink:href="#CMR17-101"/>
      <use transform="translate(639.7550476 24.8232640781)scale(0.996264009963)" xlink:href="#CMR17-93"/>
     </g>
    </g>
   </g>
   <g id="patch_4">
    <path d="
M87.1006 7.2
L756.701 7.2" style="fill:none;stroke:#000000;"/>
   </g>
   <g id="patch_5">
    <path d="
M756.701 385.2
L756.701 7.2" style="fill:none;stroke:#000000;"/>
   </g>
   <g id="patch_6">
    <path d="
M87.1006 385.2
L756.701 385.2" style="fill:none;stroke:#000000;"/>
   </g>
   <g id="patch_7">
    <path d="
M87.1006 385.2
L87.1006 7.2" style="fill:none;stroke:#000000;"/>
   </g>
   <g id="patch_8">
    <path clip-path="url(#p7af64924b3)" d="
M421.901 340.113
Q421.901 207.471 421.901 75.9465" style="fill:none;stroke:#ff0000;stroke-linecap:round;"/>
    <path clip-path="url(#p7af64924b3)" d="
M417.101 85.5465
L421.901 75.9465
L426.701 85.5465
L417.101 85.5465
z
" style="fill:#ff0000;stroke:#ff0000;stroke-linecap:round;"/>
   </g>
   <g id="text_20">
    <!-- $E_\gamma$ -->
    <defs>
     <path d="
M37.7969 12.0781
C37.5938 16.9844 37.4062 24.6875 33.5938 33.7031
C31.5938 38.7031 28.2031 44 20.9062 44
C8.59375 44 1.90625 28.3125 1.90625 25.7031
C1.90625 24.7969 2.59375 24.7969 2.90625 24.7969
C3.79688 24.7969 3.79688 25 4.29688 26.2969
C6.40625 32.5156 12.7969 37.4219 19.7031 37.4219
C33.5938 37.4219 35.5938 21.8906 35.5938 11.9844
C35.5938 5.65625 34.9062 3.5625 34.2969 1.5625
C32.4062 -4.64062 29.0938 -17.0625 29.0938 -19.875
C29.0938 -20.6719 29.4062 -21.5781 30.2031 -21.5781
C31.7031 -21.5781 32.5938 -18.2656 33.7031 -14.25
C36.0938 -5.45312 36.7031 -1.04688 37.2031 2.95312
C37.5 5.35938 43.2031 21.875 51.0938 37.6094
C51.7969 39.2031 53.2031 41.9062 53.2031 42.2031
C53.2031 42.3125 53.0938 43.0156 52.2031 43.0156
C52 43.0156 51.5 43.0156 51.2969 42.6094
C51.0938 42.4062 47.5938 35.6094 44.5938 28.7969
C43.0938 25.4062 41.0938 20.8906 37.7969 12.0781" id="CMMI12-13"/>
     <path d="
M69.5 23.2656
C69.5938 23.5625 69.9062 24.2812 69.9062 24.6719
C69.9062 25.1719 69.5 25.6719 68.9062 25.6719
C68.5 25.6719 68.2969 25.5781 68 25.2656
C67.7969 25.1719 67.7969 24.9688 66.9062 22.9531
C61 8.90625 56.7031 2.89062 40.7031 2.89062
L26.0938 2.89062
C24.7031 2.89062 24.5 2.89062 23.9062 3
C22.7969 3.09375 22.7031 3.29688 22.7031 4.09375
C22.7031 4.8125 22.9062 5.40625 23.0938 6.29688
L30 34
L39.9062 34
C47.7031 34 48.2969 32.2812 48.2969 29.2812
C48.2969 28.2812 48.2969 27.375 47.5938 24.375
C47.4062 23.9688 47.2969 23.5625 47.2969 23.2656
C47.2969 22.5625 47.7969 22.2656 48.4062 22.2656
C49.2969 22.2656 49.4062 22.9531 49.7969 24.3594
L55.5 47.5156
C55.5 48 55.0938 48.5 54.5 48.5
C53.5938 48.5 53.5 48.1094 53.0938 46.7188
C51.0938 39.0781 49.0938 36.8906 40.2031 36.8906
L30.7031 36.8906
L36.9062 61.3281
C37.7969 64.8125 38 65.1094 42.0938 65.1094
L56.4062 65.1094
C68.7031 65.1094 71.2031 61.8281 71.2031 54.2812
C71.2031 54.1719 71.2031 51.4062 70.7969 48.1094
C70.7031 47.7188 70.5938 47.125 70.5938 46.9219
C70.5938 46.125 71.0938 45.8281 71.7031 45.8281
C72.4062 45.8281 72.7969 46.2344 73 48
L75.0938 65.4062
C75.0938 65.7031 75.2969 66.7031 75.2969 66.9062
C75.2969 68 74.4062 68 72.5938 68
L23.7969 68
C21.9062 68 20.9062 68 20.9062 66.2031
C20.9062 65.1094 21.5938 65.1094 23.2969 65.1094
C29.5 65.1094 29.5 64.4062 29.5 63.3125
C29.5 62.8125 29.4062 62.4062 29.0938 61.3125
L15.5938 7.39062
C14.7031 3.89062 14.5 2.89062 7.5 2.89062
C5.59375 2.89062 4.59375 2.89062 4.59375 1.09375
C4.59375 0 5.20312 0 7.20312 0
L57.4062 0
C59.5938 0 59.7031 0.09375 60.4062 1.71875
z
" id="CMMI12-69"/>
    </defs>
    <g style="fill:#ff0000;" transform="translate(421.900550548 219.059753669)scale(0.24 -0.24)">
     <use transform="translate(0.0 28.5040564436)scale(0.996264009963)" xlink:href="#CMMI12-69"/>
     <use transform="translate(72.2112178209 13.5601418995)scale(0.697381766617)" xlink:href="#CMMI12-13"/>
    </g>
   </g>
   <g id="patch_9">
    <path clip-path="url(#p7af64924b3)" d="
M423.901 72.8259
Q463.751 72.8259 502.483 72.8259" style="fill:none;stroke:#0000ff;stroke-linecap:round;"/>
    <path clip-path="url(#p7af64924b3)" d="
M492.883 68.0259
L502.483 72.8259
L492.883 77.6259
L492.883 68.0259
z
" style="fill:#0000ff;stroke:#0000ff;stroke-linecap:round;"/>
   </g>
   <g id="text_21">
    <!-- $v_e$ -->
    <defs>
     <path d="
M17.9062 23.1094
C20.5938 23.1094 27.4062 23.1094 32.2031 24.9219
C39.7969 27.8594 40.5 33.7188 40.5 35.5312
C40.5 39.9688 36.7031 44 30.0938 44
C19.5938 44 4.5 34.5312 4.5 16.7656
C4.5 6.28125 10.5 -1 19.5938 -1
C33.2031 -1 41.7969 9.53125 41.7969 10.8125
C41.7969 11.4062 41.2031 11.9062 40.7969 11.9062
C40.5 11.9062 40.4062 11.8125 39.5 10.9219
C33.0938 2.48438 23.5938 1 19.7969 1
C14.0938 1 11.0938 5.46875 11.0938 12.8438
C11.0938 14.2344 11.0938 16.7344 12.5938 23.1094
z

M13.0938 25
C17.4062 40.5 26.9062 42.0156 30.0938 42.0156
C34.5 42.0156 37.5 39.4062 37.5 35.5781
C37.5 25 21.5 25 17.2969 25
z
" id="CMMI12-101"/>
     <path d="
M45.7031 37.3281
C45.7031 43.6094 42.5 44 41.7031 44
C39.2969 44 37.0938 41.6094 37.0938 39.6094
C37.0938 38.4219 37.7969 37.7188 38.2031 37.3281
C39.2031 36.4219 41.7969 33.7344 41.7969 28.5469
C41.7969 24.3438 35.7969 1 23.7969 1
C17.7031 1 16.5 6.09375 16.5 9.78125
C16.5 14.7656 18.7969 21.75 21.5 28.9375
C23.0938 33.0312 23.5 34.0312 23.5 36.0156
C23.5 40.2188 20.5 44 15.5938 44
C6.40625 44 2.70312 29.5312 2.70312 28.7344
C2.70312 28.3438 3.09375 27.8438 3.79688 27.8438
C4.70312 27.8438 4.79688 28.2344 5.20312 29.6406
C7.59375 38.2188 11.5 42.0156 15.2969 42.0156
C16.2031 42.0156 17.9062 42.0156 17.9062 38.7188
C17.9062 36.125 16.7969 33.2344 15.2969 29.4375
C10.5 16.6719 10.5 13.5781 10.5 11.1719
C10.5 8.98438 10.7969 4.89062 13.9062 2.09375
C17.5 -1 22.5 -1 23.4062 -1
C40 -1 45.7031 31.625 45.7031 37.3281" id="CMMI12-118"/>
    </defs>
    <g style="fill:#0000ff;" transform="translate(454.293498927 72.8258974725)scale(0.24 -0.24)">
     <use transform="translate(0.0 14.9439145441)scale(0.996264009963)" xlink:href="#CMMI12-118"/>
     <use transform="translate(47.1605806838 0.0)scale(0.697381766617)" xlink:href="#CMMI12-101"/>
    </g>
   </g>
   <g id="patch_10">
    <path clip-path="url(#p7af64924b3)" d="
M405.161 123.564
Q405.161 99.7523 405.161 75.9411" style="fill:none;stroke:#008000;stroke-linecap:round;"/>
    <path clip-path="url(#p7af64924b3)" d="
M409.961 113.964
L405.161 123.564
L400.361 113.964
L409.961 113.964
z
" style="fill:#008000;stroke:#008000;stroke-linecap:round;"/>
    <path clip-path="url(#p7af64924b3)" d="
M400.361 85.5411
L405.161 75.9411
L409.961 85.5411
L400.361 85.5411
z
" style="fill:#008000;stroke:#008000;stroke-linecap:round;"/>
   </g>
   <g id="text_22">
    <!-- $\Delta E.$ -->
    <defs>
     <path d="
M40.5938 68.8125
C39.7969 70.5 39.4062 70.5 38.5938 70.5
C37.4062 70.5 37.2969 70.2969 36.5938 68.9062
L4.20312 1.6875
C4.09375 1.5 3.70312 0.59375 3.70312 0.5
C3.70312 0.09375 3.79688 0 5.59375 0
L71.5 0
C73.2969 0 73.4062 0.09375 73.4062 0.5
C73.4062 0.59375 73 1.5 72.9062 1.6875
z

M36.0938 62.9219
L63.7969 5.57812
L8.29688 5.57812
z
" id="CMR17-1"/>
    </defs>
    <g style="fill:#008000;" transform="translate(361.464152032 107.924061256)scale(0.24 -0.24)">
     <use transform="scale(0.996264009963)" xlink:href="#CMR17-1"/>
     <use transform="translate(76.9195898681 0.0)scale(0.996264009963)" xlink:href="#CMMI12-69"/>
     <use transform="translate(154.971226066 0.0)scale(0.996264009963)" xlink:href="#CMMI12-58"/>
    </g>
   </g>
   <g id="patch_11">
    <path clip-path="url(#p7af64924b3)" d="
M421.874 342.114
Q421.887 342.114 420.783 342.114" style="fill:none;stroke:#ff0000;stroke-linecap:round;"/>
    <path clip-path="url(#p7af64924b3)" d="
M411.183 337.314
L420.783 342.114
L411.183 346.914
L411.183 337.314
z
" style="fill:#ff0000;stroke:#ff0000;stroke-linecap:round;"/>
   </g>
  </g>
 </g>
 <defs>
  <clipPath id="p7af64924b3">
   <rect height="378.0" width="669.6" x="87.1005505478" y="7.2"/>
  </clipPath>
 </defs>
 <defs>
  <pattern height="72" id="h97499df24c" patternUnits="userSpaceOnUse" width="72" x="0" y="0">
   <rect fill="none" height="73" width="73" x="0" y="0"/>
   <path d="
M-36 36
L36 -36
M-24 48
L48 -24
M-12 60
L60 -12
M0 72
L72 0
M12 84
L84 12
M24 96
L96 24
M36 108
L108 36" style="fill:#000000;stroke:#000000;stroke-linecap:butt;stroke-linejoin:miter;stroke-width:1.0;"/>
  </pattern>
 </defs>
</svg>
