<?xml version="1.0" encoding="utf-8" standalone="no"?>
<!DOCTYPE svg PUBLIC "-//W3C//DTD SVG 1.1//EN"
  "http://www.w3.org/Graphics/SVG/1.1/DTD/svg11.dtd">
<!-- Created with matplotlib (http://matplotlib.org/) -->
<svg height="442pt" version="1.1" viewBox="0 0 837 442" width="837pt" xmlns="http://www.w3.org/2000/svg" xmlns:xlink="http://www.w3.org/1999/xlink">
 <defs>
  <style type="text/css">
*{stroke-linecap:square;stroke-linejoin:round;}
  </style>
 </defs>
 <g id="figure_1">
  <g id="patch_1">
   <path d="
M0 442.674
L837.298 442.674
L837.298 0
L0 0
z
" style="fill:none;opacity:0.0;"/>
  </g>
  <g id="axes_1">
   <g id="patch_2">
    <path d="
M87.1006 385.2
L756.701 385.2
L756.701 7.2
L87.1006 7.2
z
" style="fill:none;opacity:0.0;"/>
   </g>
   <g id="line2d_1">
    <path clip-path="url(#p7af64924b3)" d="
M384.763 229.405
L459.038 229.405" style="fill:none;stroke:#bf00bf;stroke-width:3.0;"/>
   </g>
   <g id="line2d_2">
    <path clip-path="url(#p7af64924b3)" d="
M87.1006 86.4736
L756.701 86.4736" style="fill:none;opacity:0.5;stroke:#000000;stroke-width:3.0;"/>
   </g>
   <g id="line2d_3">
    <path clip-path="url(#p7af64924b3)" d="
M87.1006 102.328
L113.911 103.708
L137.371 105.129
L158.819 106.65
L177.587 108.2
L194.344 109.8
L209.76 111.495
L223.165 113.183
L235.901 115.012
L247.295 116.874
L257.349 118.732
L266.733 120.683
L275.446 122.718
L283.49 124.824
L290.863 126.982
L297.565 129.166
L303.598 131.343
L309.63 133.754
L314.992 136.125
L320.355 138.747
L325.046 141.279
L329.738 144.069
L333.76 146.697
L337.782 149.577
L341.803 152.745
L345.155 155.639
L348.506 158.797
L351.857 162.258
L355.209 166.066
L358.56 170.277
L361.241 173.981
L363.922 178.028
L366.603 182.467
L369.284 187.358
L371.965 192.775
L374.646 198.806
L376.657 203.798
L378.668 209.255
L380.679 215.245
L382.69 221.848
L384.701 229.166
L386.711 237.32
L388.722 246.462
L390.733 256.784
L392.744 268.529
L394.755 282.015
L396.765 297.658
L398.106 309.556
L399.446 322.874
L400.787 337.884
L402.128 354.929
L403.468 374.453
L404.809 397.039
M438.992 397.039
L439.663 385.32
L440.333 374.453
L441.674 354.929
L443.014 337.884
L444.355 322.874
L446.365 303.444
L448.376 286.965
L450.387 272.813
L452.398 260.527
L454.409 249.761
L456.419 240.249
L458.43 231.784
L460.441 224.203
L462.452 217.373
L464.463 211.189
L466.474 205.563
L469.155 198.806
L471.836 192.775
L474.517 187.358
L477.198 182.467
L479.879 178.028
L482.56 173.981
L485.241 170.277
L488.592 166.066
L491.944 162.258
L495.295 158.797
L498.646 155.639
L501.998 152.745
L506.019 149.577
L510.041 146.697
L514.063 144.069
L518.755 141.279
L523.446 138.747
L528.809 136.125
L534.171 133.754
L540.203 131.343
L546.236 129.166
L552.938 126.982
L560.311 124.824
L568.355 122.718
L577.068 120.683
L586.452 118.732
L596.506 116.874
L607.23 115.115
L619.295 113.365
L632.701 111.655
L647.446 110.008
L663.533 108.441
L681.63 106.911
L701.738 105.442
L723.857 104.053
L748.657 102.719
L756.701 102.328
L756.701 102.328" style="fill:none;opacity:0.5;stroke:#000000;stroke-dasharray:6.000000,6.000000;stroke-dashoffset:0.0;stroke-linecap:butt;stroke-width:3.0;"/>
   </g>
   <g id="line2d_4">
    <path clip-path="url(#p7af64924b3)" d="
M283.364 -1
L756.701 297.87
L756.701 297.87" style="fill:none;stroke:#ff0000;stroke-width:3.0;"/>
   </g>
   <g id="line2d_5">
    <path clip-path="url(#p7af64924b3)" d="
M237.719 -1
L249.976 8.79374
L261.371 18.1799
L271.425 26.7375
L280.809 35.0087
L289.522 42.9869
L297.565 50.6594
L304.938 58.006
L311.641 64.997
L317.674 71.5923
L323.706 78.53
L329.068 85.0382
L333.76 91.0445
L338.452 97.3931
L343.144 104.145
L347.165 110.311
L351.187 116.89
L355.209 123.956
L358.56 130.283
L361.911 137.081
L365.263 144.433
L367.944 150.783
L370.625 157.619
L373.306 165.024
L375.987 173.095
L378.668 181.958
L381.349 191.769
L383.36 199.868
L385.371 208.719
L387.382 218.453
L389.392 229.235
L391.403 241.271
L393.414 254.826
L395.425 270.248
L397.436 287.997
L398.776 301.421
L400.117 316.394
L401.457 333.219
L402.798 352.287
L404.138 374.105
L404.809 386.247
M438.992 407.831
L439.663 396.535
L440.333 386.091
L441.674 367.414
L443.014 351.215
L444.355 337.052
L445.695 324.58
L447.036 313.529
L449.046 299.155
L451.057 286.939
L453.068 276.463
L455.079 267.411
L457.09 259.539
L459.101 252.654
L461.111 246.606
L463.122 241.272
L465.133 236.553
L467.144 232.365
L469.155 228.643
L471.165 225.327
L473.176 222.371
L475.187 219.735
L477.198 217.382
L479.879 214.636
L482.56 212.282
L485.241 210.271
L487.922 208.561
L490.603 207.116
L493.284 205.907
L495.965 204.908
L499.317 203.921
L502.668 203.192
L506.019 202.69
L509.371 202.388
L513.392 202.26
L517.414 202.357
L522.106 202.717
L526.798 203.31
L532.16 204.235
L537.522 205.388
L543.555 206.92
L550.257 208.874
L556.96 211.054
L564.333 213.675
L572.376 216.761
L581.76 220.616
L591.814 224.999
L602.538 229.916
L614.603 235.694
L628.009 242.367
L642.755 249.958
L659.511 258.843
L678.279 269.058
L699.057 280.625
L722.517 293.943
L749.328 309.426
L756.701 313.724
L756.701 313.724" style="fill:none;stroke:#000000;stroke-width:3.0;"/>
   </g>
   <g id="line2d_6">
    <defs>
     <path d="
M0 7
C1.85642 7 3.63706 6.26244 4.94975 4.94975
C6.26244 3.63706 7 1.85642 7 0
C7 -1.85642 6.26244 -3.63706 4.94975 -4.94975
C3.63706 -6.26244 1.85642 -7 0 -7
C-1.85642 -7 -3.63706 -6.26244 -4.94975 -4.94975
C-6.26244 -3.63706 -7 -1.85642 -7 0
C-7 1.85642 -6.26244 3.63706 -4.94975 4.94975
C-3.63706 6.26244 -1.85642 7 0 7
z
" id="mdfd1f8ea2e" style="stroke:#000000;stroke-linecap:butt;stroke-width:0.5;"/>
    </defs>
    <g clip-path="url(#p7af64924b3)">
     <use style="fill:#0000ff;stroke:#000000;stroke-linecap:butt;stroke-width:0.5;" x="421.900550548" xlink:href="#mdfd1f8ea2e" y="229.404866261"/>
    </g>
   </g>
   <g id="patch_3">
    <path d="
M87.1006 7.2
L756.701 7.2" style="fill:none;stroke:#000000;"/>
   </g>
   <g id="matplotlib.axis_1">
    <g id="ytick_1">
     <g id="line2d_7">
      <defs>
       <path d="
M0 0
L-4 0" id="m0d5b0a6425" style="stroke:#000000;stroke-linecap:butt;stroke-width:0.5;"/>
      </defs>
      <g>
       <use style="stroke:#000000;stroke-linecap:butt;stroke-width:0.5;" x="756.700550548" xlink:href="#m0d5b0a6425" y="377.79852488"/>
      </g>
     </g>
     <g id="text_1">
      <!-- $-25$ -->
      <defs>
       <path d="
M65.9062 23
C67.5938 23 69.4062 23 69.4062 25
C69.4062 27 67.5938 27 65.9062 27
L11.7969 27
C10.0938 27 8.29688 27 8.29688 25
C8.29688 23 10.0938 23 11.7969 23
z
" id="CMSY10-0"/>
       <path d="
M41.7031 15.4531
L39.9062 15.4531
C38.9062 8.375 38.0938 7.17188 37.7031 6.5625
C37.2031 5.76562 30 5.76562 28.5938 5.76562
L9.40625 5.76562
C13 9.67188 20 16.75 28.5 24.9531
C34.5938 30.7344 41.7031 37.5312 41.7031 47.4219
C41.7031 59.2188 32.2969 66 21.7969 66
C10.7969 66 4.09375 56.3125 4.09375 47.3438
C4.09375 43.4375 7 42.9375 8.20312 42.9375
C9.20312 42.9375 12.2031 43.5469 12.2031 47.0312
C12.2031 50.1094 9.59375 51 8.20312 51
C7.59375 51 7 50.9062 6.59375 50.7031
C8.5 59.2188 14.2969 63.4062 20.4062 63.4062
C29.0938 63.4062 34.7969 56.5156 34.7969 47.4219
C34.7969 38.7344 29.7031 31.25 24 24.75
L4.09375 2.28125
L4.09375 0
L39.2969 0
z
" id="CMR17-50"/>
       <path d="
M11.4062 57.6875
C12.4062 57.2812 16.5 56 20.7031 56
C30 56 35.0938 61.0156 38 63.9219
C38 64.7344 38 65.25 37.4062 65.25
C37.2969 65.25 37.0938 65.25 36.2969 64.8281
C32.7969 63.3125 28.7031 62.0781 23.7031 62.0781
C20.7031 62.0781 16.2031 62.5 11.2969 64.7344
C10.2031 65.25 10 65.25 9.90625 65.25
C9.40625 65.25 9.29688 65.1406 9.29688 63.1562
L9.29688 34.2812
C9.29688 32.5 9.29688 32 10.2969 32
C10.7969 32 11 32.2031 11.5 32.9062
C14.7031 37.4844 19.0938 39.4062 24.0938 39.4062
C27.5938 39.4062 35.0938 37.2188 35.0938 20.1406
C35.0938 16.9531 35.0938 11.1719 32.0938 6.57812
C29.5938 2.48438 25.7031 0.390625 21.4062 0.390625
C14.7969 0.390625 8.09375 5 6.29688 12.7188
C6.70312 12.6094 7.5 12.4219 7.90625 12.4219
C9.20312 12.4219 11.7031 13.125 11.7031 16.2188
C11.7031 18.9062 9.79688 20 7.90625 20
C5.59375 20 4.09375 18.5938 4.09375 15.7969
C4.09375 7.09375 11 -2 21.5938 -2
C31.9062 -2 41.7031 6.875 41.7031 19.75
C41.7031 31.7188 33.9062 41 24.2031 41
C19.0938 41 14.7969 39.0938 11.4062 35.4531
z
" id="CMR17-53"/>
      </defs>
      <g transform="translate(760.700550548 386.501233655)scale(0.24 -0.24)">
       <use transform="translate(0.0 8.30225582289)scale(0.996264009963)" xlink:href="#CMSY10-0"/>
       <use transform="translate(77.4874676506 8.30225582289)scale(0.996264009963)" xlink:href="#CMR17-50"/>
       <use transform="translate(123.177944768 8.30225582289)scale(0.996264009963)" xlink:href="#CMR17-53"/>
      </g>
     </g>
    </g>
    <g id="ytick_2">
     <g id="line2d_8">
      <g>
       <use style="stroke:#000000;stroke-linecap:butt;stroke-width:0.5;" x="756.700550548" xlink:href="#m0d5b0a6425" y="319.533530085"/>
      </g>
     </g>
     <g id="text_2">
      <!-- $-20$ -->
      <defs>
       <path d="
M42 31.6406
C42 37.75 41.9062 48.125 37.7031 56.1094
C34 63.1094 28.0938 65.5938 22.9062 65.5938
C18.0938 65.5938 12 63.4062 8.20312 56.2031
C4.20312 48.7188 3.79688 39.4375 3.79688 31.6406
C3.79688 25.9531 3.90625 17.2812 7 9.67188
C11.2969 -0.609375 19 -2 22.9062 -2
C27.5 -2 34.5 -0.109375 38.5938 9.375
C41.5938 16.2812 42 24.3594 42 31.6406
M22.9062 -0.40625
C16.5 -0.40625 12.7031 5.07812 11.2969 12.6875
C10.2031 18.5625 10.2031 27.1562 10.2031 32.75
C10.2031 40.4375 10.2031 46.8281 11.5 52.9219
C13.4062 61.3906 19 64 22.9062 64
C27 64 32.2969 61.2969 34.2031 53.125
C35.5 47.4375 35.5938 40.7344 35.5938 32.75
C35.5938 26.25 35.5938 18.2656 34.4062 12.375
C32.2969 1.48438 26.4062 -0.40625 22.9062 -0.40625" id="CMR17-48"/>
      </defs>
      <g transform="translate(760.700550548 328.23623886)scale(0.24 -0.24)">
       <use transform="translate(0.0 8.30225582289)scale(0.996264009963)" xlink:href="#CMSY10-0"/>
       <use transform="translate(77.4874676506 8.30225582289)scale(0.996264009963)" xlink:href="#CMR17-50"/>
       <use transform="translate(123.177944768 8.30225582289)scale(0.996264009963)" xlink:href="#CMR17-48"/>
      </g>
     </g>
    </g>
    <g id="ytick_3">
     <g id="line2d_9">
      <g>
       <use style="stroke:#000000;stroke-linecap:butt;stroke-width:0.5;" x="756.700550548" xlink:href="#m0d5b0a6425" y="261.26853529"/>
      </g>
     </g>
     <g id="text_3">
      <!-- $-15$ -->
      <defs>
       <path d="
M26.5938 63.3125
C26.5938 65.4062 26.5 65.5 25.0938 65.5
C21.2031 61.1875 15.2969 59.7969 9.70312 59.7969
C9.40625 59.7969 8.90625 59.7969 8.79688 59.5
C8.70312 59.2969 8.70312 59.0938 8.70312 57
C11.7969 57 17 57.5938 21 59.9844
L21 7.20312
C21 3.6875 20.7969 2.5 12.2031 2.5
L9.20312 2.5
L9.20312 0
C14 0 19 0 23.7969 0
C28.5938 0 33.5938 0 38.4062 0
L38.4062 2.5
L35.4062 2.5
C26.7969 2.5 26.5938 3.59375 26.5938 7.15625
z
" id="CMR17-49"/>
      </defs>
      <g transform="translate(760.700550548 269.971244065)scale(0.24 -0.24)">
       <use transform="translate(0.0 8.30225582289)scale(0.996264009963)" xlink:href="#CMSY10-0"/>
       <use transform="translate(77.4874676506 8.30225582289)scale(0.996264009963)" xlink:href="#CMR17-49"/>
       <use transform="translate(123.177944768 8.30225582289)scale(0.996264009963)" xlink:href="#CMR17-53"/>
      </g>
     </g>
    </g>
    <g id="ytick_4">
     <g id="line2d_10">
      <g>
       <use style="stroke:#000000;stroke-linecap:butt;stroke-width:0.5;" x="756.700550548" xlink:href="#m0d5b0a6425" y="203.003540495"/>
      </g>
     </g>
     <g id="text_4">
      <!-- $-10$ -->
      <g transform="translate(760.700550548 211.70624927)scale(0.24 -0.24)">
       <use transform="translate(0.0 8.30225582289)scale(0.996264009963)" xlink:href="#CMSY10-0"/>
       <use transform="translate(77.4874676506 8.30225582289)scale(0.996264009963)" xlink:href="#CMR17-49"/>
       <use transform="translate(123.177944768 8.30225582289)scale(0.996264009963)" xlink:href="#CMR17-48"/>
      </g>
     </g>
    </g>
    <g id="ytick_5">
     <g id="line2d_11">
      <g>
       <use style="stroke:#000000;stroke-linecap:butt;stroke-width:0.5;" x="756.700550548" xlink:href="#m0d5b0a6425" y="144.738545699"/>
      </g>
     </g>
     <g id="text_5">
      <!-- $-5$ -->
      <g transform="translate(760.700550548 153.441254475)scale(0.24 -0.24)">
       <use transform="translate(0.0 8.30225582289)scale(0.996264009963)" xlink:href="#CMSY10-0"/>
       <use transform="translate(77.4874676506 8.30225582289)scale(0.996264009963)" xlink:href="#CMR17-53"/>
      </g>
     </g>
    </g>
    <g id="ytick_6">
     <g id="line2d_12">
      <g>
       <use style="stroke:#000000;stroke-linecap:butt;stroke-width:0.5;" x="756.700550548" xlink:href="#m0d5b0a6425" y="86.4735509042"/>
      </g>
     </g>
     <g id="text_6">
      <!-- $0$ -->
      <g transform="translate(760.700550548 94.1799880686)scale(0.24 -0.24)">
       <use transform="scale(0.996264009963)" xlink:href="#CMR17-48"/>
      </g>
     </g>
    </g>
    <g id="ytick_7">
     <g id="line2d_13">
      <g>
       <use style="stroke:#000000;stroke-linecap:butt;stroke-width:0.5;" x="756.700550548" xlink:href="#m0d5b0a6425" y="28.2085561091"/>
      </g>
     </g>
     <g id="text_7">
      <!-- $5$ -->
      <g transform="translate(760.700550548 35.9149932734)scale(0.24 -0.24)">
       <use transform="scale(0.996264009963)" xlink:href="#CMR17-53"/>
      </g>
     </g>
    </g>
    <g id="text_8">
     <!-- Energy [eV] -->
     <defs>
      <path d="
M60.7031 25.0781
L58.9062 25.0781
C56.7031 10.5156 55.4062 2.59375 37.7969 2.59375
L23.9062 2.59375
C19.9062 2.59375 19.7031 3.07812 19.7031 6.46875
L19.7031 34
L29.0938 34
C38.5 34 39.4062 30.5625 39.4062 22.125
L41.2031 22.125
L41.2031 48
L39.4062 48
C39.4062 39.9219 38.5 36.5938 29.0938 36.5938
L19.7031 36.5938
L19.7031 61.1406
C19.7031 64.5 19.9062 65 23.9062 65
L37.5938 65
C53.0938 65 54.9062 58.8594 56.2969 45.6562
L58.0938 45.6562
L55.7031 67.5781
L5.09375 67.5781
L5.09375 65
C12 65 13.0938 65 13.0938 60.5312
L13.0938 7.04688
C13.0938 2.59375 12 2.59375 5.09375 2.59375
L5.09375 0
L57.0938 0
z
" id="CMR17-69"/>
      <path d="
M59 58.5156
C59.9062 60.7188 61.5 65 68.2031 65
L68.2031 67.6875
C65.9062 67.4844 63.2969 67.4844 60.7969 67.4844
C58.4062 67.4844 54.2969 67.4844 52 67.6875
L52 65
C57 65 57.2031 61.5 57.2031 60.9062
C57.2031 59.7969 56.9062 59.1094 56.5938 58.3125
L36.9062 6.96875
L16.2969 60.625
C16 61.3281 15.7969 61.8281 15.7969 62.3125
C15.7969 65 19.7969 65 21.9062 65
L21.9062 67.4844
C18.7031 67.4844 14 67.4844 10.7031 67.4844
C8.09375 67.4844 3.40625 67.4844 1 67.6875
L1 65
C6.79688 65 7.90625 64.6094 9.09375 61.4219
L32.9062 -0.40625
C33.4062 -1.79688 33.5 -2 34.5938 -2
C35.7031 -2 35.7969 -1.79688 36.2969 -0.40625
z
" id="CMR17-86"/>
      <path d="
M41.5 30.2031
C41.5 35.2969 40.5 43.5938 28.7031 43.5938
C20.7969 43.5938 16.7031 37.5 15.2031 33.5
L15.0938 33.5
L15.0938 43.5938
L3.29688 42.5
L3.29688 39.9062
C9.20312 39.9062 10.0938 39.2969 10.0938 34.5
L10.0938 6.6875
C10.0938 2.875 9.70312 2.39062 3.29688 2.39062
L3.29688 -0.203125
C5.70312 0 10.0938 0 12.7031 0
C15.2969 0 19.7969 0 22.2031 -0.203125
L22.2031 2.39062
C15.7969 2.39062 15.4062 2.78125 15.4062 6.6875
L15.4062 25.9062
C15.4062 35.1094 21 42 28 42
C35.4062 42 36.2031 35.4062 36.2031 30.5938
L36.2031 6.6875
C36.2031 2.875 35.7969 2.39062 29.4062 2.39062
L29.4062 -0.203125
C31.7969 0 36.2031 0 38.7969 0
C41.4062 0 45.9062 0 48.2969 -0.203125
L48.2969 2.39062
C41.9062 2.39062 41.5 2.78125 41.5 6.6875
z
" id="CMR17-110"/>
      <path d="
M14.2969 74.4844
L1.40625 74.4844
L1.40625 71
L10.7969 71
L10.7969 -21.5156
L1.40625 -21.5156
L1.40625 -25
L14.2969 -25
z
" id="CMR17-93"/>
      <path d="
M39 34.3281
C41.5 40.4062 46 40.4062 47.4062 40.4062
L47.4062 43
C45.5 43 43 43 41.0938 43
C39 43 35.7031 43 33.7031 43.0938
L33.7031 40.5
C37.5 40.2031 37.5938 37.4062 37.5938 36.6094
C37.5938 35.625 37.4062 35.125 36.9062 33.9219
L26 7.01562
L14.0938 36.0312
C13.5938 37.2188 13.5938 37.9062 13.5938 38.0156
C13.5938 40.2031 15.9062 40.4062 18.2969 40.4062
L18.2969 43.0938
C15.9062 43 11.5938 43 9.09375 43
C6.40625 43 3.20312 43 1 43.0938
L1 40.4062
C6.40625 40.4062 7 39.9062 8.29688 36.7188
L23.2031 0.234375
C18.7031 -11.5312 16.0938 -18.4062 9.79688 -18.4062
C8.70312 -18.4062 6.20312 -18.1094 4.40625 -16.3125
C6.70312 -16.1094 7.70312 -14.7188 7.70312 -13.0156
C7.70312 -11.3281 6.5 -9.82812 4.5 -9.82812
C2.29688 -9.82812 1.20312 -11.3281 1.20312 -13.125
C1.20312 -17.1094 5.29688 -20 9.79688 -20
C15.5938 -20 19.2031 -14.4062 21.2031 -9.4375
z
" id="CMR17-121"/>
      <path d="
M15 23.3906
C15 33 19.0938 42 26.5938 42
C27.2969 42 28 41.9062 28.7031 41.5938
C28.7031 41.5938 26.5 40.8906 26.5 38.3125
C26.5 35.9062 28.4062 34.9062 29.9062 34.9062
C31.0938 34.9062 33.2969 35.6094 33.2969 38.4062
C33.2969 41.6094 30.0938 43.5938 26.7031 43.5938
C19.0938 43.5938 15.7969 36.2031 14.7969 32.7031
L14.7031 32.7031
L14.7031 43.5938
L3.09375 42.5
L3.09375 39.9062
C9 39.9062 9.90625 39.2969 9.90625 34.5
L9.90625 6.6875
C9.90625 2.875 9.5 2.39062 3.09375 2.39062
L3.09375 -0.203125
C5.5 0 10.0938 0 12.7031 0
C15.5938 0 20.7031 0 23.4062 -0.203125
L23.4062 2.39062
C16.2031 2.39062 15 2.39062 15 6.875
z
" id="CMR17-114"/>
      <path d="
M38.0938 23
C38.5 23.4062 38.5 23.6094 38.5 24.625
C38.5 34.9688 33.0938 44 21.7031 44
C11.0938 44 2.70312 33.8906 2.70312 21.6094
C2.70312 8.60938 12.2031 -1 22.7969 -1
C34 -1 38.4062 9.46875 38.4062 11.5469
C38.4062 12.25 37.7969 12.25 37.5938 12.25
C36.9062 12.25 36.7969 12.0469 36.4062 10.875
C34.2031 4.14062 28.7031 0.796875 23.5 0.796875
C19.2031 0.796875 14.9062 3.17188 12.2031 7.5
C9.09375 12.5469 9.09375 18.375 9.09375 23
z

M9.20312 24.5
C9.90625 39.1406 17.5938 42.4062 21.5938 42.4062
C28.4062 42.4062 33 35.8906 33.0938 24.5
z
" id="CMR17-101"/>
      <path d="
M11.0938 18.1875
C13 16.6875 16.2969 15 20.2969 15
C28.2031 15 35 21.2031 35 29.5
C35 32.0938 34.2031 36.0938 31.2031 39.2031
C34 42.0625 38.0938 43 40.4062 43
C40.7969 43 41.4062 43 41.9062 42.7656
C41.5 42.6719 40.5938 42.2812 40.5938 40.7344
C40.5938 39.4844 41.5 38.6094 42.7969 38.6094
C44.2969 38.6094 45.0938 39.5781 45.0938 40.8438
C45.0938 42.6719 43.5938 44.5938 40.4062 44.5938
C36.4062 44.5938 32.9062 42.7812 30.0938 40.3125
C27.0938 43.0156 23.5 44 20.2969 44
C12.4062 44 5.59375 37.7969 5.59375 29.5
C5.59375 23.7812 8.90625 20.1875 9.90625 19.1875
C6.90625 15.6875 6.90625 11.6094 6.90625 11.1094
C6.90625 8.51562 7.90625 4.71875 11.2969 2.625
C6.09375 1.32812 2 -2.64062 2 -7.59375
C2 -14.7344 11.5 -20 22.9062 -20
C33.9062 -20 43.7969 -14.9375 43.7969 -7.48438
C43.7969 6 29 6 21.2969 6
C19 6 14.9062 6 14.4062 6.10938
C11.2969 6.60938 9.20312 9.40625 9.20312 12.8906
C9.20312 13.7812 9.20312 16 11.0938 18.1875
M20.2969 16.6875
C11.5 16.6875 11.5 27.5 11.5 29.5156
C11.5 31.5 11.5 42.3125 20.2969 42.3125
C29.0938 42.3125 29.0938 31.5 29.0938 29.5156
C29.0938 27.5 29.0938 16.6875 20.2969 16.6875
M22.9062 -18.2969
C12.9062 -18.2969 6 -13.0469 6 -7.59375
C6 -4.51562 7.70312 -1.64062 9.90625 -0.0625
C12.4062 1.625 13.4062 1.625 20.2031 1.625
C28.4062 1.625 39.7969 1.625 39.7969 -7.59375
C39.7969 -13.0469 32.9062 -18.2969 22.9062 -18.2969" id="CMR17-103"/>
      <path d="
M23.5 -25
L23.5 -21.5156
L14.0938 -21.5156
L14.0938 71
L23.5 71
L23.5 74.4844
L10.5938 74.4844
L10.5938 -25
z
" id="CMR17-91"/>
     </defs>
     <g transform="translate(830.097778594 252.912909475)rotate(-90.0)scale(0.24 -0.24)">
      <use transform="translate(0.0 24.8232640781)scale(0.996264009963)" xlink:href="#CMR17-69"/>
      <use transform="translate(62.5863005186 24.8232640781)scale(0.996264009963)" xlink:href="#CMR17-110"/>
      <use transform="translate(113.481670299 24.8232640781)scale(0.996264009963)" xlink:href="#CMR17-101"/>
      <use transform="translate(153.967330762 24.8232640781)scale(0.996264009963)" xlink:href="#CMR17-114"/>
      <use transform="translate(189.248098561 24.8232640781)scale(0.996264009963)" xlink:href="#CMR17-103"/>
      <use transform="translate(234.938575678 24.8232640781)scale(0.996264009963)" xlink:href="#CMR17-121"/>
      <use transform="translate(313.307457873 24.8232640781)scale(0.996264009963)" xlink:href="#CMR17-91"/>
      <use transform="translate(338.178516355 24.8232640781)scale(0.996264009963)" xlink:href="#CMR17-101"/>
      <use transform="translate(378.664176817 24.8232640781)scale(0.996264009963)" xlink:href="#CMR17-86"/>
      <use transform="translate(447.736606622 24.8232640781)scale(0.996264009963)" xlink:href="#CMR17-93"/>
     </g>
    </g>
   </g>
   <g id="patch_4">
    <path d="
M756.701 385.2
L756.701 7.2" style="fill:none;stroke:#000000;"/>
   </g>
   <g id="matplotlib.axis_2">
    <g id="xtick_1">
     <g id="line2d_14">
      <defs>
       <path d="
M0 0
L0 -4" id="mcb557df647" style="stroke:#000000;stroke-linecap:butt;stroke-width:0.5;"/>
      </defs>
      <g>
       <use style="stroke:#000000;stroke-linecap:butt;stroke-width:0.5;" x="87.1005505478" xlink:href="#mcb557df647" y="385.2"/>
      </g>
     </g>
     <g id="text_9">
      <!-- $-20$ -->
      <g transform="translate(66.8363390095 406.60541755)scale(0.24 -0.24)">
       <use transform="translate(0.0 8.30225582289)scale(0.996264009963)" xlink:href="#CMSY10-0"/>
       <use transform="translate(77.4874676506 8.30225582289)scale(0.996264009963)" xlink:href="#CMR17-50"/>
       <use transform="translate(123.177944768 8.30225582289)scale(0.996264009963)" xlink:href="#CMR17-48"/>
      </g>
     </g>
    </g>
    <g id="xtick_2">
     <g id="line2d_15">
      <g>
       <use style="stroke:#000000;stroke-linecap:butt;stroke-width:0.5;" x="170.800550548" xlink:href="#mcb557df647" y="385.2"/>
      </g>
     </g>
     <g id="text_10">
      <!-- $-15$ -->
      <g transform="translate(150.536339009 406.60541755)scale(0.24 -0.24)">
       <use transform="translate(0.0 8.30225582289)scale(0.996264009963)" xlink:href="#CMSY10-0"/>
       <use transform="translate(77.4874676506 8.30225582289)scale(0.996264009963)" xlink:href="#CMR17-49"/>
       <use transform="translate(123.177944768 8.30225582289)scale(0.996264009963)" xlink:href="#CMR17-53"/>
      </g>
     </g>
    </g>
    <g id="xtick_3">
     <g id="line2d_16">
      <g>
       <use style="stroke:#000000;stroke-linecap:butt;stroke-width:0.5;" x="254.500550548" xlink:href="#mcb557df647" y="385.2"/>
      </g>
     </g>
     <g id="text_11">
      <!-- $-10$ -->
      <g transform="translate(234.236339009 406.60541755)scale(0.24 -0.24)">
       <use transform="translate(0.0 8.30225582289)scale(0.996264009963)" xlink:href="#CMSY10-0"/>
       <use transform="translate(77.4874676506 8.30225582289)scale(0.996264009963)" xlink:href="#CMR17-49"/>
       <use transform="translate(123.177944768 8.30225582289)scale(0.996264009963)" xlink:href="#CMR17-48"/>
      </g>
     </g>
    </g>
    <g id="xtick_4">
     <g id="line2d_17">
      <g>
       <use style="stroke:#000000;stroke-linecap:butt;stroke-width:0.5;" x="338.200550548" xlink:href="#mcb557df647" y="385.2"/>
      </g>
     </g>
     <g id="text_12">
      <!-- $-5$ -->
      <g transform="translate(323.419196264 406.60541755)scale(0.24 -0.24)">
       <use transform="translate(0.0 8.30225582289)scale(0.996264009963)" xlink:href="#CMSY10-0"/>
       <use transform="translate(77.4874676506 8.30225582289)scale(0.996264009963)" xlink:href="#CMR17-53"/>
      </g>
     </g>
    </g>
    <g id="xtick_5">
     <g id="line2d_18">
      <g>
       <use style="stroke:#000000;stroke-linecap:butt;stroke-width:0.5;" x="421.900550548" xlink:href="#mcb557df647" y="385.2"/>
      </g>
     </g>
     <g id="text_13">
      <!-- $0$ -->
      <g transform="translate(416.417693294 404.612874329)scale(0.24 -0.24)">
       <use transform="scale(0.996264009963)" xlink:href="#CMR17-48"/>
      </g>
     </g>
    </g>
    <g id="xtick_6">
     <g id="line2d_19">
      <g>
       <use style="stroke:#000000;stroke-linecap:butt;stroke-width:0.5;" x="505.600550548" xlink:href="#mcb557df647" y="385.2"/>
      </g>
     </g>
     <g id="text_14">
      <!-- $5$ -->
      <g transform="translate(500.117693294 404.612874329)scale(0.24 -0.24)">
       <use transform="scale(0.996264009963)" xlink:href="#CMR17-53"/>
      </g>
     </g>
    </g>
    <g id="xtick_7">
     <g id="line2d_20">
      <g>
       <use style="stroke:#000000;stroke-linecap:butt;stroke-width:0.5;" x="589.300550548" xlink:href="#mcb557df647" y="385.2"/>
      </g>
     </g>
     <g id="text_15">
      <!-- $10$ -->
      <g transform="translate(578.33483604 404.612874329)scale(0.24 -0.24)">
       <use transform="scale(0.996264009963)" xlink:href="#CMR17-49"/>
       <use transform="translate(45.6904771171 0.0)scale(0.996264009963)" xlink:href="#CMR17-48"/>
      </g>
     </g>
    </g>
    <g id="xtick_8">
     <g id="line2d_21">
      <g>
       <use style="stroke:#000000;stroke-linecap:butt;stroke-width:0.5;" x="673.000550548" xlink:href="#mcb557df647" y="385.2"/>
      </g>
     </g>
     <g id="text_16">
      <!-- $15$ -->
      <g transform="translate(662.03483604 404.612874329)scale(0.24 -0.24)">
       <use transform="scale(0.996264009963)" xlink:href="#CMR17-49"/>
       <use transform="translate(45.6904771171 0.0)scale(0.996264009963)" xlink:href="#CMR17-53"/>
      </g>
     </g>
    </g>
    <g id="xtick_9">
     <g id="line2d_22">
      <g>
       <use style="stroke:#000000;stroke-linecap:butt;stroke-width:0.5;" x="756.700550548" xlink:href="#mcb557df647" y="385.2"/>
      </g>
     </g>
     <g id="text_17">
      <!-- $20$ -->
      <g transform="translate(745.73483604 404.612874329)scale(0.24 -0.24)">
       <use transform="scale(0.996264009963)" xlink:href="#CMR17-50"/>
       <use transform="translate(45.6904771171 0.0)scale(0.996264009963)" xlink:href="#CMR17-48"/>
      </g>
     </g>
    </g>
    <g id="text_18">
     <!-- r [bohr] -->
     <defs>
      <path d="
M41.5 30.2031
C41.5 35.2969 40.5 43.5938 28.7031 43.5938
C20.5 43.5938 16.5 37 15.2969 33.7031
L15.2031 33.7031
L15.2031 68.6875
L3.29688 67.5938
L3.29688 65
C9.20312 65 10.0938 64.4062 10.0938 59.6406
L10.0938 6.65625
C10.0938 2.875 9.70312 2.39062 3.29688 2.39062
L3.29688 -0.203125
C5.70312 0 10.0938 0 12.7031 0
C15.2969 0 19.7969 0 22.2031 -0.203125
L22.2031 2.39062
C15.7969 2.39062 15.4062 2.78125 15.4062 6.6875
L15.4062 25.9062
C15.4062 35.1094 21 42 28 42
C35.4062 42 36.2031 35.4062 36.2031 30.5938
L36.2031 6.6875
C36.2031 2.875 35.7969 2.39062 29.4062 2.39062
L29.4062 -0.203125
C31.7969 0 36.2031 0 38.7969 0
C41.4062 0 45.9062 0 48.2969 -0.203125
L48.2969 2.39062
C41.9062 2.39062 41.5 2.78125 41.5 6.6875
z
" id="CMR17-104"/>
      <path d="
M15 68.6875
L3.09375 67.5938
L3.09375 65
C9 65 9.90625 64.4062 9.90625 59.6406
L9.90625 -0.203125
L11.7031 -0.203125
L14.5938 6.89062
C17.5 2.20312 21.7969 -1 27.5938 -1
C37.5938 -1 47.7031 7.8125 47.7031 21.4062
C47.7031 34.1875 38.7031 43.5938 28.5938 43.5938
C22.4062 43.5938 18 40.2969 15 36.4062
z

M15.2031 31.3125
C15.2031 33.0938 15.2031 33.4062 16.5938 35.5
C20.5 41.5156 26.0938 42 28 42
C31 42 41.2969 40.3906 41.2969 21.5
C41.2969 1.6875 29.5 0.59375 27.0938 0.59375
C24 0.59375 19.5 1.78125 16.2969 7.59375
C15.2031 9.5 15.2031 9.70312 15.2031 11.4844
z
" id="CMR17-98"/>
      <path d="
M43.0938 21.1875
C43.0938 34 33.7969 44 22.9062 44
C12 44 2.70312 34 2.70312 21.1875
C2.70312 8.60938 12 -1 22.9062 -1
C33.7969 -1 43.0938 8.60938 43.0938 21.1875
M22.9062 0.796875
C18.2031 0.796875 14.2031 3.59375 11.9062 7.5
C9.40625 11.9844 9.09375 17.5938 9.09375 22
C9.09375 26.2031 9.29688 31.4062 11.9062 35.9062
C13.9062 39.2031 17.7969 42.4062 22.9062 42.4062
C27.4062 42.4062 31.2031 39.9062 33.5938 36.4062
C36.7031 31.7031 36.7031 25.1094 36.7031 22
C36.7031 18.0938 36.5 12.1094 33.7969 7.29688
C31 2.70312 26.7031 0.796875 22.9062 0.796875" id="CMR17-111"/>
     </defs>
     <g transform="translate(385.844963102 435.47422252)scale(0.24 -0.24)">
      <use transform="translate(0.0 24.8232640781)scale(0.996264009963)" xlink:href="#CMR17-114"/>
      <use transform="translate(65.3567341464 24.8232640781)scale(0.996264009963)" xlink:href="#CMR17-91"/>
      <use transform="translate(90.2277926282 24.8232640781)scale(0.996264009963)" xlink:href="#CMR17-98"/>
      <use transform="translate(143.725601139 24.8232640781)scale(0.996264009963)" xlink:href="#CMR17-111"/>
      <use transform="translate(189.416078256 24.8232640781)scale(0.996264009963)" xlink:href="#CMR17-104"/>
      <use transform="translate(240.311448037 24.8232640781)scale(0.996264009963)" xlink:href="#CMR17-114"/>
      <use transform="translate(275.592215836 24.8232640781)scale(0.996264009963)" xlink:href="#CMR17-93"/>
     </g>
    </g>
   </g>
   <g id="matplotlib.axis_3">
    <g id="ytick_8">
     <g id="line2d_23">
      <defs>
       <path d="
M0 0
L4 0" id="mc8fcea1516" style="stroke:#000000;stroke-linecap:butt;stroke-width:0.5;"/>
      </defs>
      <g>
       <use style="stroke:#000000;stroke-linecap:butt;stroke-width:0.5;" x="87.1005505478" xlink:href="#mc8fcea1516" y="340.148913798"/>
      </g>
     </g>
     <g id="text_19">
      <!-- $-0.8$ -->
      <defs>
       <path d="
M27.2031 35.375
C33.5 38.5625 39.9062 43.3281 39.9062 50.9844
C39.9062 60.0312 31.0938 65.2969 23 65.2969
C13.9062 65.2969 5.90625 58.7344 5.90625 49.6875
C5.90625 47.2031 6.5 42.9219 10.4062 39.1406
C11.4062 38.1562 15.5938 35.1719 18.2969 33.2812
C13.7969 30.9844 3.29688 25.5312 3.29688 14.5938
C3.29688 4.35938 13.0938 -2 22.7969 -2
C33.5 -2 42.5 5.65625 42.5 15.7969
C42.5 24.8438 36.4062 29.0312 32.4062 31.7031
z

M14.0938 44.125
C13.2969 44.625 9.29688 47.7031 9.29688 52.375
C9.29688 58.4375 15.5938 63 22.7969 63
C30.7031 63 36.5 57.4531 36.5 50.9844
C36.5 41.7344 26.0938 36.4688 25.5938 36.4688
C25.5 36.4688 25.4062 36.4688 24.5938 37.0781
z

M32.5 23.7344
C34 22.6406 38.7969 19.375 38.7969 13.2969
C38.7969 5.95312 31.4062 0.390625 23 0.390625
C13.9062 0.390625 7 6.84375 7 14.6875
C7 22.5469 13.0938 29.0938 20 32.1875
z
" id="CMR17-56"/>
       <path d="
M18.4062 4.79688
C18.4062 7.6875 16 9.67188 13.5938 9.67188
C10.7031 9.67188 8.70312 7.28125 8.70312 4.89062
C8.70312 2 11.0938 0 13.5 0
C16.4062 0 18.4062 2.39062 18.4062 4.79688" id="CMMI12-58"/>
      </defs>
      <g transform="translate(36.0688049696 348.851622573)scale(0.24 -0.24)">
       <use transform="translate(0.0 8.30225582289)scale(0.996264009963)" xlink:href="#CMSY10-0"/>
       <use transform="translate(77.4874676506 8.30225582289)scale(0.996264009963)" xlink:href="#CMR17-48"/>
       <use transform="translate(123.177944768 8.30225582289)scale(0.996264009963)" xlink:href="#CMMI12-58"/>
       <use transform="translate(150.275121857 8.30225582289)scale(0.996264009963)" xlink:href="#CMR17-56"/>
      </g>
     </g>
    </g>
    <g id="ytick_9">
     <g id="line2d_24">
      <g>
       <use style="stroke:#000000;stroke-linecap:butt;stroke-width:0.5;" x="87.1005505478" xlink:href="#mc8fcea1516" y="276.730073074"/>
      </g>
     </g>
     <g id="text_20">
      <!-- $-0.6$ -->
      <defs>
       <path d="
M10.5938 34
C10.5938 57.6562 21.7969 63 28.2969 63
C30.4062 63 35.5 62.6406 37.5 59
C35.9062 59 32.9062 59 32.9062 55.5156
C32.9062 52.8281 35.0938 51.9219 36.5 51.9219
C37.4062 51.9219 40.0938 52.3125 40.0938 55.625
C40.0938 61.7812 35.0938 65.2969 28.2031 65.2969
C16.2969 65.2969 3.79688 52.9688 3.79688 31
C3.79688 3.95312 15.0938 -2 23.0938 -2
C32.7969 -2 42 6.67188 42 20.0469
C42 32.5156 33.9062 41.5938 23.7031 41.5938
C17.5938 41.5938 13.0938 37.6094 10.5938 30.625
z

M23.0938 0.390625
C10.7969 0.390625 10.7969 18.75 10.7969 22.4375
C10.7969 29.625 14.2031 40 23.5 40
C25.2031 40 30.0938 40 33.4062 33.125
C35.2031 29.2188 35.2031 25.1406 35.2031 20.1406
C35.2031 14.75 35.2031 10.7812 33.0938 6.78125
C30.9062 2.67188 27.7031 0.390625 23.0938 0.390625" id="CMR17-54"/>
      </defs>
      <g transform="translate(36.0688049696 285.43278185)scale(0.24 -0.24)">
       <use transform="translate(0.0 8.30225582289)scale(0.996264009963)" xlink:href="#CMSY10-0"/>
       <use transform="translate(77.4874676506 8.30225582289)scale(0.996264009963)" xlink:href="#CMR17-48"/>
       <use transform="translate(123.177944768 8.30225582289)scale(0.996264009963)" xlink:href="#CMMI12-58"/>
       <use transform="translate(150.275121857 8.30225582289)scale(0.996264009963)" xlink:href="#CMR17-54"/>
      </g>
     </g>
    </g>
    <g id="ytick_10">
     <g id="line2d_25">
      <g>
       <use style="stroke:#000000;stroke-linecap:butt;stroke-width:0.5;" x="87.1005505478" xlink:href="#mc8fcea1516" y="213.311232351"/>
      </g>
     </g>
     <g id="text_21">
      <!-- $-0.4$ -->
      <defs>
       <path d="
M33.5938 64.3281
C33.5938 66.4062 33.5 66.5 31.7031 66.5
L2 19.5938
L2 17
L27.7969 17
L27.7969 7.14062
C27.7969 3.5 27.5938 2.5 20.5938 2.5
L18.7031 2.5
L18.7031 0
C21.9062 0 27.2969 0 30.7031 0
C34.0938 0 39.5 0 42.7031 0
L42.7031 2.5
L40.7969 2.5
C33.7969 2.5 33.5938 3.5 33.5938 7.14062
L33.5938 17
L43.7969 17
L43.7969 19.5938
L33.5938 19.5938
z

M28.0938 57.7656
L28.0938 19.5938
L4 19.5938
z
" id="CMR17-52"/>
      </defs>
      <g transform="translate(36.0688049696 222.013941126)scale(0.24 -0.24)">
       <use transform="translate(0.0 8.30225582289)scale(0.996264009963)" xlink:href="#CMSY10-0"/>
       <use transform="translate(77.4874676506 8.30225582289)scale(0.996264009963)" xlink:href="#CMR17-48"/>
       <use transform="translate(123.177944768 8.30225582289)scale(0.996264009963)" xlink:href="#CMMI12-58"/>
       <use transform="translate(150.275121857 8.30225582289)scale(0.996264009963)" xlink:href="#CMR17-52"/>
      </g>
     </g>
    </g>
    <g id="ytick_11">
     <g id="line2d_26">
      <g>
       <use style="stroke:#000000;stroke-linecap:butt;stroke-width:0.5;" x="87.1005505478" xlink:href="#mc8fcea1516" y="149.892391628"/>
      </g>
     </g>
     <g id="text_22">
      <!-- $-0.2$ -->
      <g transform="translate(36.0688049696 158.595100403)scale(0.24 -0.24)">
       <use transform="translate(0.0 8.30225582289)scale(0.996264009963)" xlink:href="#CMSY10-0"/>
       <use transform="translate(77.4874676506 8.30225582289)scale(0.996264009963)" xlink:href="#CMR17-48"/>
       <use transform="translate(123.177944768 8.30225582289)scale(0.996264009963)" xlink:href="#CMMI12-58"/>
       <use transform="translate(150.275121857 8.30225582289)scale(0.996264009963)" xlink:href="#CMR17-50"/>
      </g>
     </g>
    </g>
    <g id="ytick_12">
     <g id="line2d_27">
      <g>
       <use style="stroke:#000000;stroke-linecap:butt;stroke-width:0.5;" x="87.1005505478" xlink:href="#mc8fcea1516" y="86.4735509042"/>
      </g>
     </g>
     <g id="text_23">
      <!-- $0.0$ -->
      <g transform="translate(54.66579903 94.1799880686)scale(0.24 -0.24)">
       <use transform="scale(0.996264009963)" xlink:href="#CMR17-48"/>
       <use transform="translate(45.6904771171 0.0)scale(0.996264009963)" xlink:href="#CMMI12-58"/>
       <use transform="translate(72.7876542069 0.0)scale(0.996264009963)" xlink:href="#CMR17-48"/>
      </g>
     </g>
    </g>
    <g id="ytick_13">
     <g id="line2d_28">
      <g>
       <use style="stroke:#000000;stroke-linecap:butt;stroke-width:0.5;" x="87.1005505478" xlink:href="#mc8fcea1516" y="23.0547101808"/>
      </g>
     </g>
     <g id="text_24">
      <!-- $0.2$ -->
      <g transform="translate(54.66579903 30.7611473452)scale(0.24 -0.24)">
       <use transform="scale(0.996264009963)" xlink:href="#CMR17-48"/>
       <use transform="translate(45.6904771171 0.0)scale(0.996264009963)" xlink:href="#CMMI12-58"/>
       <use transform="translate(72.7876542069 0.0)scale(0.996264009963)" xlink:href="#CMR17-50"/>
      </g>
     </g>
    </g>
    <g id="text_25">
     <!-- Energy [Hartree] -->
     <defs>
      <path d="
M15.0938 40
L29.0938 40
L29.0938 42.5781
L15.0938 42.5781
L15.0938 61
L13.2969 61
C13.0938 50.7031 9.59375 41.6875 1.09375 41.6875
L1.09375 40
L9.79688 40
L9.79688 12.0469
C9.79688 10.1562 9.79688 -1 21.4062 -1
C27.2969 -1 30.7031 4.78125 30.7031 12.1406
L30.7031 17.8125
L28.9062 17.8125
L28.9062 12.2344
C28.9062 5.375 26.2031 0.796875 22 0.796875
C19.0938 0.796875 15.0938 2.78125 15.0938 11.8438
z
" id="CMR17-116"/>
      <path d="
M36 25.8281
C36 32.375 36 35.8438 31.7969 39.7344
C28.0938 43 23.7969 44 20.4062 44
C12.5 44 6.79688 37.6094 6.79688 30.7969
C6.79688 27 9.79688 27 10.4062 27
C11.7031 27 14 27.7812 14 30.5312
C14 33 12.0938 34.0781 10.4062 34.0781
C10 34.0781 9.5 33.9688 9.20312 33.875
C11.2969 40.5 16.7031 42.4062 20.2031 42.4062
C25.2031 42.4062 30.7031 37.9531 30.7031 29.4531
L30.7031 25
C24.7969 25 17.7031 24.2031 12.0938 21.2031
C5.79688 17.7031 4 12.7031 4 8.90625
C4 1.20312 13 -1 18.2969 -1
C23.7969 -1 28.9062 2.17188 31.0938 7.98438
C31.2969 3.64062 34.0938 -0.28125 38.5 -0.28125
C40.5938 -0.28125 45.9062 1.09375 45.9062 8.85938
L45.9062 14.375
L44.0938 14.375
L44.0938 8.78125
C44.0938 2.78125 41.4062 2 40.0938 2
C36 2 36 7.15625 36 11.5312
z

M30.7031 13.5938
C30.7031 4.95312 24.5 0.59375 19 0.59375
C14 0.59375 10.0938 4.29688 10.0938 8.90625
C10.0938 11.8906 11.4062 17.1875 17.2031 20.3906
C22 23.0938 27.5 23.5 30.7031 23.5
z
" id="CMR17-97"/>
      <path d="
M56.0938 61.0156
C56.0938 65.5 57.2031 65.5 64.0938 65.5
L64.0938 68
C61.2031 68 55.9062 68 52.7969 68
C49.7031 68 44.4062 68 41.5 68
L41.5 65.5
C48.4062 65.5 49.5 65.5 49.5 61
L49.5 36.5781
L19.7031 36.5781
L19.7031 61
C19.7031 65.5 20.7969 65.5 27.7031 65.5
L27.7031 68
C24.7969 68 19.5 68 16.4062 68
C13.2969 68 8 68 5.09375 68
L5.09375 65.5
C12 65.5 13.0938 65.5 13.0938 61.0156
L13.0938 6.98438
C13.0938 2.5 12 2.5 5.09375 2.5
L5.09375 0
C8 0 13.2969 0 16.4062 0
C19.5 0 24.7969 0 27.7031 0
L27.7031 2.5
C20.7969 2.5 19.7031 2.5 19.7031 6.96875
L19.7031 34
L49.5 34
L49.5 6.96875
C49.5 2.5 48.4062 2.5 41.5 2.5
L41.5 0
C44.4062 0 49.7031 0 52.7969 0
C55.9062 0 61.2031 0 64.0938 0
L64.0938 2.5
C57.2031 2.5 56.0938 2.5 56.0938 6.98438
z
" id="CMR17-72"/>
     </defs>
     <g transform="translate(31.0688049696 275.955109927)rotate(-90.0)scale(0.24 -0.24)">
      <use transform="translate(0.0 24.8232640781)scale(0.996264009963)" xlink:href="#CMR17-69"/>
      <use transform="translate(62.5863005186 24.8232640781)scale(0.996264009963)" xlink:href="#CMR17-110"/>
      <use transform="translate(113.481670299 24.8232640781)scale(0.996264009963)" xlink:href="#CMR17-101"/>
      <use transform="translate(153.967330762 24.8232640781)scale(0.996264009963)" xlink:href="#CMR17-114"/>
      <use transform="translate(189.248098561 24.8232640781)scale(0.996264009963)" xlink:href="#CMR17-103"/>
      <use transform="translate(234.938575678 24.8232640781)scale(0.996264009963)" xlink:href="#CMR17-121"/>
      <use transform="translate(313.307457873 24.8232640781)scale(0.996264009963)" xlink:href="#CMR17-91"/>
      <use transform="translate(338.178516355 24.8232640781)scale(0.996264009963)" xlink:href="#CMR17-72"/>
      <use transform="translate(407.250946159 24.8232640781)scale(0.996264009963)" xlink:href="#CMR17-97"/>
      <use transform="translate(452.941423276 24.8232640781)scale(0.996264009963)" xlink:href="#CMR17-114"/>
      <use transform="translate(488.222191075 24.8232640781)scale(0.996264009963)" xlink:href="#CMR17-116"/>
      <use transform="translate(523.502958875 24.8232640781)scale(0.996264009963)" xlink:href="#CMR17-114"/>
      <use transform="translate(558.783726674 24.8232640781)scale(0.996264009963)" xlink:href="#CMR17-101"/>
      <use transform="translate(599.269387137 24.8232640781)scale(0.996264009963)" xlink:href="#CMR17-101"/>
      <use transform="translate(639.7550476 24.8232640781)scale(0.996264009963)" xlink:href="#CMR17-93"/>
     </g>
    </g>
   </g>
   <g id="patch_5">
    <path d="
M87.1006 385.2
L756.701 385.2" style="fill:none;stroke:#000000;"/>
   </g>
   <g id="patch_6">
    <path d="
M87.1006 385.2
L87.1006 7.2" style="fill:none;stroke:#000000;"/>
   </g>
   <g id="patch_7">
    <path clip-path="url(#p7af64924b3)" d="
M423.901 229.405
Q572.563 229.405 720.107 229.405" style="fill:none;stroke:#008000;stroke-linecap:round;"/>
    <path clip-path="url(#p7af64924b3)" d="
M710.507 224.605
L720.107 229.405
L710.507 234.205
L710.507 224.605
z
" style="fill:#008000;stroke:#008000;stroke-linecap:round;"/>
   </g>
   <g id="legend_1">
    <g id="patch_8">
     <path d="
M101.501 370.8
L397.305 370.8
L397.305 247.318
L101.501 247.318
L101.501 370.8
z
" style="fill:#ffffff;opacity:0.75;stroke:#000000;"/>
    </g>
    <g id="line2d_29">
     <path d="
M121.661 268.918
L161.981 268.918" style="fill:none;opacity:0.5;stroke:#000000;stroke-dasharray:6.000000,6.000000;stroke-dashoffset:0.0;stroke-linecap:butt;stroke-width:3.0;"/>
    </g>
    <g id="line2d_30"/>
    <g id="text_26">
     <!-- Unperturbed ion -->
     <defs>
      <path d="
M15.5 61.0781
C15.5 63.2656 13.7031 65.1562 11.4062 65.1562
C9.20312 65.1562 7.29688 63.375 7.29688 61.0781
C7.29688 58.8906 9.09375 57 11.4062 57
C13.5938 57 15.5 58.7969 15.5 61.0781
M3.79688 42.2812
L3.79688 39.7031
C9.40625 39.7031 10.2031 39.0938 10.2031 34.3281
L10.2031 6.67188
C10.2031 2.875 9.79688 2.39062 3.40625 2.39062
L3.40625 -0.203125
C5.79688 0 10.0938 0 12.5938 0
C15 0 19.0938 0 21.4062 -0.203125
L21.4062 2.39062
C15.5 2.39062 15.2969 2.98438 15.2969 6.5625
L15.2969 43.375
z
" id="CMR17-105"/>
      <path d="
M29.4062 42.0781
L29.4062 39.5
C35.2969 39.5 36.2031 38.8906 36.2031 34.1562
L36.2031 16.125
C36.2031 7.8125 31.7031 0.59375 24.2969 0.59375
C16.0938 0.59375 15.4062 5.4375 15.4062 10.5938
L15.4062 43.1719
L3.29688 42.0781
L3.29688 39.5
C7.29688 39.5 10 39.5 10.0938 35.5312
L10.0938 16.5312
C10.0938 9.89062 10.0938 5.64062 12.7031 2.85938
C14 1.57812 16.5 -1 23.7031 -1
C32.2031 -1 35.5 6.35938 36.2969 8.5
L36.4062 8.5
L36.4062 -0.984375
L48.2969 -0.984375
L48.2969 2
C42.4062 2 41.5 2.59375 41.5 7.39062
L41.5 43.1719
z
" id="CMR17-117"/>
      <path d="
M54 22.3906
C54 9.04688 45.2969 0.59375 35.7969 0.59375
C30.7031 0.59375 26.0938 3.28125 23.2969 7.45312
C20.0938 12.2344 19.7031 18.4062 19.7031 21.8906
L19.7031 60.5312
C19.7031 65 20.7969 65 27.7031 65
L27.7031 67.5
C24.7969 67.5 19.5 67.5 16.4062 67.5
C13.2969 67.5 8 67.5 5.09375 67.5
L5.09375 65
C12 65 13.0938 65 13.0938 60.5312
L13.0938 22.3906
C13.0938 8.0625 24 -2 35.5938 -2
C48.5938 -2 56.0938 11.2344 56.0938 21
L56.0938 58.8438
C56.0938 64.4062 61.2031 65 64.0938 65
L64.0938 67.5938
C61.7969 67.5 57.5938 67.5 55.0938 67.5
C52.5938 67.5 48.2969 67.5 46 67.5938
L46 65
C54 65 54 60.3281 54 57.8438
z
" id="CMR17-85"/>
      <path d="
M22 -16.6094
C15.5938 -16.6094 15.2031 -16.2031 15.2031 -12.3281
L15.2031 6.28125
C18.0938 2.09375 22.2969 -0.59375 27.5938 -0.59375
C37.5938 -0.59375 47.7031 8.17188 47.7031 21.6875
C47.7031 34.2344 39 43.7812 28.7031 43.7812
C22.7031 43.7812 17.7969 40.5 15 36.5312
L15 43.7812
L3.09375 42.6875
L3.09375 40.1094
C9 40.1094 9.90625 39.5 9.90625 34.7344
L9.90625 -12.3281
C9.90625 -16.1094 9.5 -16.6094 3.09375 -16.6094
L3.09375 -19.1875
C5.5 -19 9.90625 -19 12.5 -19
C15.0938 -19 19.5938 -19 22 -19.1875
z

M15.2031 31.4375
C15.2031 32.8438 15.2031 34.9219 19.0938 38.6094
C19.5938 39.0156 23 42 28 42
C35.2969 42 41.2969 32.9375 41.2969 21.5938
C41.2969 10.25 34.9062 1 27 1
C23.4062 1 19.5 2.6875 16.5 7.375
C15.2031 9.5625 15.2031 10.1562 15.2031 11.75
z
" id="CMR17-112"/>
      <path d="
M29.2031 67.5938
L29.2031 65
C35.0938 65 36 64.4062 36 59.6875
L36 36.6406
C35.5938 37.1406 31.5 43.5938 23.4062 43.5938
C13.2031 43.5938 3.29688 34.5 3.29688 21.3125
C3.29688 8.20312 12.5938 -1 22.4062 -1
C30.9062 -1 35.2969 5.26562 35.7969 5.9375
L35.7969 -0.984375
L47.9062 -0.984375
L47.9062 2
C42 2 41.0938 2.59375 41.0938 7.39062
L41.0938 68.6875
z

M35.7969 11.7969
C35.7969 8.79688 34 6.09375 31.7031 4.09375
C28.2969 1.09375 24.9062 0.59375 23 0.59375
C20.0938 0.59375 9.70312 2.09375 9.70312 21.1875
C9.70312 40.8125 21.2969 42 23.9062 42
C28.5 42 32.2031 39.4062 34.5 35.7969
C35.7969 33.7031 35.7969 33.4062 35.7969 31.6094
z
" id="CMR17-100"/>
     </defs>
     <g transform="translate(193.660550548 284.57909125)scale(0.288 -0.288)">
      <use transform="translate(0.0 19.3781832532)scale(0.996264009963)" xlink:href="#CMR17-85"/>
      <use transform="translate(69.0724298042 19.3781832532)scale(0.996264009963)" xlink:href="#CMR17-110"/>
      <use transform="translate(119.967799585 19.3781832532)scale(0.996264009963)" xlink:href="#CMR17-112"/>
      <use transform="translate(173.465608096 19.3781832532)scale(0.996264009963)" xlink:href="#CMR17-101"/>
      <use transform="translate(213.951268558 19.3781832532)scale(0.996264009963)" xlink:href="#CMR17-114"/>
      <use transform="translate(249.232036358 19.3781832532)scale(0.996264009963)" xlink:href="#CMR17-116"/>
      <use transform="translate(284.512804157 19.3781832532)scale(0.996264009963)" xlink:href="#CMR17-117"/>
      <use transform="translate(335.408173938 19.3781832532)scale(0.996264009963)" xlink:href="#CMR17-114"/>
      <use transform="translate(370.688941737 19.3781832532)scale(0.996264009963)" xlink:href="#CMR17-98"/>
      <use transform="translate(424.186750248 19.3781832532)scale(0.996264009963)" xlink:href="#CMR17-101"/>
      <use transform="translate(464.672410711 19.3781832532)scale(0.996264009963)" xlink:href="#CMR17-100"/>
      <use transform="translate(545.643746838 19.3781832532)scale(0.996264009963)" xlink:href="#CMR17-105"/>
      <use transform="translate(570.51480532 19.3781832532)scale(0.996264009963)" xlink:href="#CMR17-111"/>
      <use transform="translate(616.205282437 19.3781832532)scale(0.996264009963)" xlink:href="#CMR17-110"/>
     </g>
    </g>
    <g id="line2d_31">
     <path d="
M121.661 309.059
L161.981 309.059" style="fill:none;stroke:#ff0000;stroke-width:3.0;"/>
    </g>
    <g id="line2d_32"/>
    <g id="text_27">
     <!-- Laser -->
     <defs>
      <path d="
M54.2031 25.2344
L52.4062 25.2344
C51.5938 15.3594 50.2969 2.59375 33.2031 2.59375
L23.9062 2.59375
C19.9062 2.59375 19.7031 3.07812 19.7031 6.46875
L19.7031 60.9062
C19.7031 64.5156 19.9062 65.5 27.5 65.5
L29.7031 65.5
L29.7031 68
C25.5938 68 20.7969 68 16.7031 68
C13.5938 68 8 68 5.09375 68
L5.09375 65.5
C12 65.5 13.0938 65.5 13.0938 61.0312
L13.0938 7.0625
C13.0938 2.59375 12 2.59375 5.09375 2.59375
L5.09375 0
L51.7969 0
z
" id="CMR17-76"/>
      <path d="
M30.9062 42.1094
C30.9062 43.9062 30.7969 44 30.2031 44
C29.7969 44 29.7031 43.9062 28.5 42.4219
C28.2031 42.0156 27.2969 41.0156 27 40.625
C23.7969 44 19.2969 44 17.5938 44
C6.5 44 2.5 38.1719 2.5 32.375
C2.5 23.3438 12.7031 21.25 15.5938 20.6406
C21.9062 19.3438 24.0938 18.9375 26.2031 17.125
C27.5 15.9375 29.7031 13.7344 29.7031 10.125
C29.7031 5.90625 27.2969 0.5 18.0938 0.5
C9.40625 0.5 6.29688 7.0625 4.5 15.8281
C4.20312 17.2188 4.20312 17.3281 3.40625 17.3281
C2.59375 17.3281 2.5 17.2188 2.5 15.2344
L2.5 0.890625
C2.5 -0.890625 2.59375 -1 3.20312 -1
C3.70312 -1 3.79688 -0.890625 4.29688 -0.09375
C4.90625 0.796875 6.40625 3.1875 7 4.1875
C9 1.54688 12.5 -1 18.0938 -1
C28 -1 33.2969 4.40625 33.2969 12.2344
C33.2969 17.3438 30.5938 20.0625 29.2969 21.25
C26.2969 24.375 22.7969 25.0625 18.5938 25.8594
C13.0938 27.0781 6.09375 28.4688 6.09375 34.5938
C6.09375 37.1875 7.5 42.7188 17.5938 42.7188
C28.2969 42.7188 28.9062 32.75 29.0938 29.5625
C29.2031 29.0781 29.7031 28.9688 30 28.9688
C30.9062 28.9688 30.9062 29.2812 30.9062 30.9688
z
" id="CMR17-115"/>
     </defs>
     <g transform="translate(193.660550548 319.13909125)scale(0.288 -0.288)">
      <use transform="scale(0.996264009963)" xlink:href="#CMR17-76"/>
      <use transform="translate(57.3814078553 0.0)scale(0.996264009963)" xlink:href="#CMR17-97"/>
      <use transform="translate(103.071884972 0.0)scale(0.996264009963)" xlink:href="#CMR17-115"/>
      <use transform="translate(138.873222608 0.0)scale(0.996264009963)" xlink:href="#CMR17-101"/>
      <use transform="translate(179.35888307 0.0)scale(0.996264009963)" xlink:href="#CMR17-114"/>
     </g>
    </g>
    <g id="line2d_33">
     <path d="
M121.661 349.2
L161.981 349.2" style="fill:none;stroke:#000000;stroke-width:3.0;"/>
    </g>
    <g id="line2d_34"/>
    <g id="text_28">
     <!-- Effective -->
     <defs>
      <path d="
M39.9062 40
L51.2969 40
L51.2969 42.5781
L39.7031 42.5781
L39.7031 54.5938
C39.7031 62.8438 43.9062 68 48.2031 68
C49.5 68 51 67.6094 52 66.9062
C51.2031 66.7031 49.0938 66.0156 49.0938 63.5312
C49.0938 60.9531 51.0938 60.1562 52.5 60.1562
C53.9062 60.1562 55.9062 60.9531 55.9062 63.5469
C55.9062 67.3125 52.2969 69.5938 48.2969 69.5938
C44.4062 69.5938 41.2031 67.7031 38.7031 65.3281
C36.4062 68.5938 32.5938 69.5938 28.7031 69.5938
C20.9062 69.5938 9.90625 65.125 9.90625 54.2031
L9.90625 42.5781
L1.90625 42.5781
L1.90625 40
L9.90625 40
L9.90625 6.67188
C9.90625 2.875 9.5 2.39062 3.09375 2.39062
L3.09375 -0.203125
C5.5 0 9.90625 0 12.4062 0
C15 0 19.4062 0 21.7969 -0.203125
L21.7969 2.39062
C15.4062 2.39062 15 2.78125 15 6.67188
L15 40
L34.7969 40
L34.7969 6.67188
C34.7969 2.875 34.4062 2.39062 28 2.39062
L28 -0.203125
C30.4062 0 35 0 37.5938 0
C40.5 0 45.5938 0 48.2969 -0.203125
L48.2969 2.39062
C41.0938 2.39062 39.9062 2.39062 39.9062 6.85938
z

M14.7969 42.5781
L14.7969 54.2031
C14.7969 63.2344 21.7969 68 28.5 68
C30 68 33.9062 67.6875 36.2969 65.4219
C34.5 65.4219 32.7969 64.625 32.7969 62.1406
C32.7969 59.5625 35.0938 58.8594 35.2969 58.8594
C34.7969 57.0625 34.7969 55.0938 34.7969 54.3906
L34.7969 42.5781
z
" id="CMR17-11"/>
      <path d="
M39.0938 33.7969
C40 36 41.5938 40 47.4062 40
L47.4062 42.5938
C45.5 42.5938 43 42.5938 41.0938 42.5938
C39 42.5938 35.7031 42.5938 33.7031 42.6875
L33.7031 40.0938
C36.2031 39.8906 37.5938 38.7031 37.5938 36.1094
C37.5938 35.2031 37.5938 35 37 33.6094
L26 5.89062
L14.0938 35.7188
C13.5 37.0156 13.5 37.2031 13.5 37.6094
C13.5 40 16.7969 40 18.2969 40
L18.2969 42.6875
C15.9062 42.5938 11.5 42.5938 9 42.5938
C6.29688 42.5938 3.20312 42.5938 1 42.6875
L1 40
C4.79688 40 6.90625 40 8.09375 36.9062
L22.5938 0.6875
C23.2031 -0.796875 23.2969 -1 24.2031 -1
C25.0938 -1 25.2031 -0.796875 25.7969 0.6875
z
" id="CMR17-118"/>
      <path d="
M34.9062 35
C33 35 30.2031 35 30.2031 31.5156
C30.2031 28.7188 32.5 27.9219 33.7969 27.9219
C34.5 27.9219 37.4062 28.2344 37.4062 31.625
C37.4062 38.5469 30.5938 43.7969 22.9062 43.7969
C12.2969 43.7969 3.29688 34.0312 3.29688 21.2969
C3.29688 8.0625 12.7031 -1 22.9062 -1
C35.2969 -1 38.4062 10.5938 38.4062 11.6875
C38.4062 12.0938 38.2969 12.3906 37.5938 12.3906
C36.9062 12.3906 36.7969 12.2969 36.4062 10.9844
C33.7969 2.8125 28.0938 0.796875 23.7969 0.796875
C17.4062 0.796875 9.70312 6.67188 9.70312 21.3906
C9.70312 36.5312 17.0938 42 23 42
C26.9062 42 32.7031 40.2031 34.9062 35" id="CMR17-99"/>
     </defs>
     <g transform="translate(193.660550548 359.28)scale(0.288 -0.288)">
      <use transform="scale(0.996264009963)" xlink:href="#CMR17-69"/>
      <use transform="translate(62.5863005186 0.0)scale(0.996264009963)" xlink:href="#CMR17-11"/>
      <use transform="translate(114.930977827 0.0)scale(0.996264009963)" xlink:href="#CMR17-101"/>
      <use transform="translate(155.41663829 0.0)scale(0.996264009963)" xlink:href="#CMR17-99"/>
      <use transform="translate(195.902298753 0.0)scale(0.996264009963)" xlink:href="#CMR17-116"/>
      <use transform="translate(231.183066552 0.0)scale(0.996264009963)" xlink:href="#CMR17-105"/>
      <use transform="translate(256.054125034 0.0)scale(0.996264009963)" xlink:href="#CMR17-118"/>
      <use transform="translate(301.744586949 0.0)scale(0.996264009963)" xlink:href="#CMR17-101"/>
     </g>
    </g>
   </g>
  </g>
 </g>
 <defs>
  <clipPath id="p7af64924b3">
   <rect height="378.0" width="669.6" x="87.1005505478" y="7.2"/>
  </clipPath>
 </defs>
</svg>
