<?xml version="1.0" encoding="utf-8" standalone="no"?>
<!DOCTYPE svg PUBLIC "-//W3C//DTD SVG 1.1//EN"
  "http://www.w3.org/Graphics/SVG/1.1/DTD/svg11.dtd">
<!-- Created with matplotlib (http://matplotlib.org/) -->
<svg height="468pt" version="1.1" viewBox="0 0 836 468" width="836pt" xmlns="http://www.w3.org/2000/svg" xmlns:xlink="http://www.w3.org/1999/xlink">
 <defs>
  <style type="text/css">
*{stroke-linecap:square;stroke-linejoin:round;}
  </style>
 </defs>
 <g id="figure_1">
  <g id="patch_1">
   <path d="
M0 468.195
L836.024 468.195
L836.024 0
L0 0
z
" style="fill:none;opacity:0.0;"/>
  </g>
  <g id="axes_1">
   <g id="patch_2">
    <path d="
M83.2122 408.663
L752.812 408.663
L752.812 30.663
L83.2122 30.663
z
" style="fill:none;opacity:0.0;"/>
   </g>
   <g id="line2d_1">
    <path clip-path="url(#p4297ea52ca)" d="
M107.976 283.776
M151.955 260.874
L171.678 251.048
L190.148 284.083
M257.711 275.707
L271.561 270.709
L284.782 295.453
L297.428 326.704
M393.946 332.599
L402.693 326.69
L411.184 303.671
L419.434 293.699
L427.457 279.653
L435.264 300.68
L442.867 297.482
M459.281 302.098
L466.288 286.85
L473.131 292.984
L479.816 294.62
L486.352 320.934
L492.743 293.782
L498.997 362.384
L505.12 329.42
L511.116 289.142
L516.991 304.314
L524.171 295.636
L529.791 289.301
L535.304 298.194
L540.715 308.196
M551.243 314.553
L556.367 280.654
L561.403 305.978
L566.353 286.134
L571.22 317.559
L576.007 303.755
L581.882 303.533
L586.498 306.665
L591.042 274.609
L595.516 288.171
L599.922 279.137
L604.262 311.145
L608.539 307.739
L612.754 271.133
L616.908 300.714
M625.043 278.895
M633.931 290.282
L637.795 307.628
L641.609 304.874
L645.373 277.184
L649.09 280.563
L652.759 285.449
L656.383 337.21
L659.962 294.454
L663.498 283.152
L666.991 331.238
L671.299 270.632
L674.701 276.679
L678.063 276.311
L681.386 301.52
L684.672 300.596
L687.921 278.705
L691.135 279.084
L694.313 276.929
L697.457 277.065
L700.567 274.177
L703.644 298.925
L707.446 279.444
L710.451 272.707
L713.426 283.933
L716.371 374.647
L719.287 274.199
L722.173 282.692
L725.031 275.71
L727.861 276.87
L730.664 272.011
L733.44 272.945
L736.19 328.798
L739.592 285.807
L742.284 269.207
L744.952 304.41
L747.596 297.603
L750.216 266.085
L752.812 274.979" style="fill:none;stroke:#0000ff;stroke-width:6.0;"/>
   </g>
   <g id="line2d_2">
    <path clip-path="url(#p4297ea52ca)" d="
M83.2122 392.689
L130.796 290.132
L211.699 288.211
L227.859 279.043
L243.168 287.711
L309.546 307.305
L321.18 305.299
L332.366 322.02
L343.138 300.092
L356.064 337.833
L366.007 319.424
L375.622 318.153
L384.928 339.388
L452.1 310.556
L546.026 319.655
L621.004 332.58
L630.014 311.027" style="fill:none;stroke:#0000ff;stroke-width:6.0;"/>
    <defs>
     <path d="
M0 1.5
C0.397805 1.5 0.77937 1.34195 1.06066 1.06066
C1.34195 0.77937 1.5 0.397805 1.5 0
C1.5 -0.397805 1.34195 -0.77937 1.06066 -1.06066
C0.77937 -1.34195 0.397805 -1.5 0 -1.5
C-0.397805 -1.5 -0.77937 -1.34195 -1.06066 -1.06066
C-1.34195 -0.77937 -1.5 -0.397805 -1.5 0
C-1.5 0.397805 -1.34195 0.77937 -1.06066 1.06066
C-0.77937 1.34195 -0.397805 1.5 0 1.5
z
" id="mec7afe23ad" style="stroke:#0000ff;stroke-linecap:butt;stroke-width:0.5;"/>
    </defs>
    <g clip-path="url(#p4297ea52ca)">
     <use style="fill:#0000ff;stroke:#0000ff;stroke-linecap:butt;stroke-width:0.5;" x="83.2122082474" xlink:href="#mec7afe23ad" y="392.689043009"/>
     <use style="fill:#0000ff;stroke:#0000ff;stroke-linecap:butt;stroke-width:0.5;" x="130.796231308" xlink:href="#mec7afe23ad" y="290.131860847"/>
     <use style="fill:#0000ff;stroke:#0000ff;stroke-linecap:butt;stroke-width:0.5;" x="211.698756617" xlink:href="#mec7afe23ad" y="288.211333658"/>
     <use style="fill:#0000ff;stroke:#0000ff;stroke-linecap:butt;stroke-width:0.5;" x="227.858668555" xlink:href="#mec7afe23ad" y="279.04308738"/>
     <use style="fill:#0000ff;stroke:#0000ff;stroke-linecap:butt;stroke-width:0.5;" x="243.167654985" xlink:href="#mec7afe23ad" y="287.711180124"/>
     <use style="fill:#0000ff;stroke:#0000ff;stroke-linecap:butt;stroke-width:0.5;" x="309.546089307" xlink:href="#mec7afe23ad" y="307.304501118"/>
     <use style="fill:#0000ff;stroke:#0000ff;stroke-linecap:butt;stroke-width:0.5;" x="321.179784035" xlink:href="#mec7afe23ad" y="305.299022337"/>
     <use style="fill:#0000ff;stroke:#0000ff;stroke-linecap:butt;stroke-width:0.5;" x="332.365916405" xlink:href="#mec7afe23ad" y="322.020441771"/>
     <use style="fill:#0000ff;stroke:#0000ff;stroke-linecap:butt;stroke-width:0.5;" x="343.137651005" xlink:href="#mec7afe23ad" y="300.091977693"/>
     <use style="fill:#0000ff;stroke:#0000ff;stroke-linecap:butt;stroke-width:0.5;" x="356.064382924" xlink:href="#mec7afe23ad" y="337.832770156"/>
     <use style="fill:#0000ff;stroke:#0000ff;stroke-linecap:butt;stroke-width:0.5;" x="366.007354372" xlink:href="#mec7afe23ad" y="319.424106419"/>
     <use style="fill:#0000ff;stroke:#0000ff;stroke-linecap:butt;stroke-width:0.5;" x="375.621571643" xlink:href="#mec7afe23ad" y="318.15329392"/>
     <use style="fill:#0000ff;stroke:#0000ff;stroke-linecap:butt;stroke-width:0.5;" x="384.928080576" xlink:href="#mec7afe23ad" y="339.388038926"/>
     <use style="fill:#0000ff;stroke:#0000ff;stroke-linecap:butt;stroke-width:0.5;" x="452.09984941" xlink:href="#mec7afe23ad" y="310.556212288"/>
     <use style="fill:#0000ff;stroke:#0000ff;stroke-linecap:butt;stroke-width:0.5;" x="546.026175483" xlink:href="#mec7afe23ad" y="319.655082438"/>
     <use style="fill:#0000ff;stroke:#0000ff;stroke-linecap:butt;stroke-width:0.5;" x="621.003804807" xlink:href="#mec7afe23ad" y="332.580238752"/>
     <use style="fill:#0000ff;stroke:#0000ff;stroke-linecap:butt;stroke-width:0.5;" x="630.013930922" xlink:href="#mec7afe23ad" y="311.026801298"/>
    </g>
   </g>
   <g id="line2d_3">
    <path clip-path="url(#p4297ea52ca)" d="
M83.2122 305.196
L107.976 298.017
L130.796 292.509
L151.955 287.588
L171.678 282.442
L190.148 278.673
L211.699 273.199
L227.859 269.082
L243.168 265.072
L257.711 260.822
L271.561 257.04
L284.782 253.561
L297.428 250.236
L309.546 246.766
L321.18 243.883
L332.366 240.718
L343.138 237.734
L356.064 234.644
L366.007 231.971
L375.622 229.226
L384.928 226.577
L393.946 223.951
L402.693 221.497
L411.184 219.016
L419.434 216.734
L427.457 214.479
L435.264 212.268
L442.867 210.052
L452.1 207.965
L459.281 205.908
L466.288 203.858
L473.131 201.911
L479.816 199.997
L486.352 198.082
L492.743 196.325
L498.997 194.478
L505.12 192.752
L511.116 191.023
L516.991 189.337
L524.171 187.678
L529.791 186.05
L535.304 184.481
L540.715 182.93
L546.026 181.367
L551.243 179.874
L556.367 178.39
L561.403 176.956
L566.353 175.53
L571.22 174.127
L576.007 172.759
L581.882 171.409
L586.498 170.056
L591.042 168.746
L595.516 167.454
L599.922 166.177
L604.262 164.932
L608.539 163.704
L612.754 162.48
L616.908 161.271
L621.004 160.097
L625.043 158.931
L630.014 157.778
L633.931 156.64
L637.795 155.522
L641.609 154.42
L645.373 153.331
L649.09 152.257
L652.759 151.191
L656.383 150.144
L659.962 149.105
L663.498 148.08
L666.991 147.07
L671.299 146.066
L674.701 145.082
L678.063 144.108
L681.386 143.14
L684.672 142.183
L687.921 141.24
L691.135 140.307
L694.313 139.384
L697.457 138.471
L700.567 137.565
L703.644 136.671
L707.446 135.787
L710.451 134.91
L713.426 134.042
L716.371 133.184
L719.287 132.335
L722.173 131.491
L725.031 130.658
L727.861 129.831
L730.664 129.013
L733.44 128.203
L736.19 127.4
L739.592 126.605
L742.284 125.816
L744.952 125.035
L747.596 124.261
L750.216 123.492
L752.812 122.731" style="fill:none;stroke:#ff0000;stroke-width:6.0;"/>
   </g>
   <g id="line2d_4">
    <path clip-path="url(#p4297ea52ca)" d="
M83.2122 278.283
L107.976 272.426
L130.796 266.423
L151.955 260.783
L171.678 255.458
L190.148 250.46
L211.699 245.735
L227.859 241.162
L243.168 236.828
L257.711 232.794
L271.561 228.852
L284.782 225.067
L297.428 221.532
L309.546 218.054
L321.18 214.797
L332.366 211.581
L343.138 208.488
L356.064 205.559
L366.007 202.661
L375.622 199.915
L384.928 197.247
L393.946 194.639
L402.693 192.121
L411.184 189.689
L419.434 187.309
L427.457 185.03
L435.264 182.767
L442.867 180.583
L452.1 178.457
L459.281 176.382
L466.288 174.359
L473.131 172.379
L479.816 170.444
L486.352 168.565
L492.743 166.713
L498.997 164.902
L505.12 163.137
L511.116 161.406
L516.991 159.709
L524.171 158.043
L529.791 156.413
L535.304 154.814
L540.715 153.24
L546.026 151.698
L551.243 150.183
L556.367 148.695
L561.403 147.233
L566.353 145.794
L571.22 144.378
L576.007 142.988
L581.882 141.615
L586.498 140.268
L591.042 138.941
L595.516 137.634
L599.922 136.345
L604.262 135.075
L608.539 133.824
L612.754 132.591
L616.908 131.374
L621.004 130.173
L625.043 128.989
L630.014 127.821
L633.931 126.666
L637.795 125.527
L641.609 124.402
L645.373 123.29
L649.09 122.192
L652.759 121.107
L656.383 120.035
L659.962 118.974
L663.498 117.926
L666.991 116.888
L671.299 115.862
L674.701 114.846
L678.063 113.842
L681.386 112.847
L684.672 111.863
L687.921 110.887
L691.135 109.921
L694.313 108.965
L697.457 108.016
L700.567 107.076
L703.644 106.145
L707.446 105.221
L710.451 104.306
L713.426 103.397
L716.371 102.496
L719.287 101.602
L722.173 100.715
L725.031 99.8341
L727.861 98.9599
L730.664 98.0919
L733.44 97.2297
L736.19 96.3737
L739.592 95.5233
L742.284 94.6785
L744.952 93.8389
L747.596 93.0045
L750.216 92.1754
L752.812 91.3511" style="fill:none;stroke:#008000;stroke-width:6.0;"/>
   </g>
   <g id="line2d_5">
    <path clip-path="url(#p4297ea52ca)" d="
M83.2122 263.679
L107.976 256.98
L130.796 251.044
L151.955 245.212
L171.678 239.827
L190.148 234.748
L211.699 229.856
L227.859 225.285
L243.168 220.918
L257.711 216.778
L271.561 212.818
L284.782 209.053
L297.428 205.429
L309.546 201.953
L321.18 198.648
L332.366 195.438
L343.138 192.357
L356.064 189.381
L366.007 186.522
L375.622 183.743
L384.928 181.062
L393.946 178.454
L402.693 175.928
L411.184 173.487
L419.434 171.103
L427.457 168.788
L435.264 166.538
L442.867 164.341
L452.1 162.203
L459.281 160.119
L466.288 158.083
L473.131 156.096
L479.816 154.151
L486.352 152.253
L492.743 150.395
L498.997 148.577
L505.12 146.795
L511.116 145.05
L516.991 143.339
L524.171 141.661
L529.791 140.017
L535.304 138.4
L540.715 136.813
L546.026 135.254
L551.243 133.722
L556.367 132.216
L561.403 130.735
L566.353 129.277
L571.22 127.842
L576.007 126.429
L581.882 125.037
L586.498 123.666
L591.042 122.314
L595.516 120.981
L599.922 119.666
L604.262 118.369
L608.539 117.089
L612.754 115.824
L616.908 114.575
L621.004 113.341
L625.043 112.121
L630.014 110.915
L633.931 109.722
L637.795 108.542
L641.609 107.374
L645.373 106.218
L649.09 105.073
L652.759 103.938
L656.383 102.814
L659.962 101.7
L663.498 100.596
L666.991 99.5002
L671.299 98.4138
L674.701 97.3363
L678.063 96.2673
L681.386 95.2062
L684.672 94.1534
L687.921 93.1084
L691.135 92.0709
L694.313 91.041
L697.457 90.0192
L700.567 89.0042
L703.644 87.9966
L707.446 86.9967
L710.451 86.0043
L713.426 85.019
L716.371 84.0413
L719.287 83.0712
L722.173 82.1086
L725.031 81.1534
L727.861 80.2062
L730.664 79.2675
L733.44 78.3358
L736.19 77.4126
L739.592 76.4977
L742.284 75.5918
L744.952 74.6935
L747.596 73.8033
L750.216 72.9225
L752.812 72.051" style="fill:none;stroke:#bf00bf;stroke-width:6.0;"/>
   </g>
   <g id="line2d_6">
    <path clip-path="url(#p4297ea52ca)" d="
M83.2122 251.968
L107.976 245.26
L130.796 239.017
L151.955 233.26
L171.678 227.743
L190.148 222.645
L211.699 217.738
L227.859 213.155
L243.168 208.775
L257.711 204.606
L271.561 200.641
L284.782 196.871
L297.428 193.246
L309.546 189.775
L321.18 186.439
L332.366 183.225
L343.138 180.134
L356.064 177.155
L366.007 174.275
L375.622 171.497
L384.928 168.801
L393.946 166.192
L402.693 163.658
L411.184 161.2
L419.434 158.81
L427.457 156.482
L435.264 154.22
L442.867 152.015
L452.1 149.863
L459.281 147.764
L466.288 145.715
L473.131 143.712
L479.816 141.755
L486.352 139.839
L492.743 137.965
L498.997 136.128
L505.12 134.328
L511.116 132.563
L516.991 130.832
L524.171 129.131
L529.791 127.462
L535.304 125.821
L540.715 124.207
L546.026 122.62
L551.243 121.059
L556.367 119.521
L561.403 118.005
L566.353 116.512
L571.22 115.039
L576.007 113.586
L581.882 112.151
L586.498 110.734
L591.042 109.334
L595.516 107.95
L599.922 106.582
L604.262 105.228
L608.539 103.888
L612.754 102.562
L616.908 101.248
L621.004 99.9475
L625.043 98.6588
L630.014 97.3816
L633.931 96.1161
L637.795 94.8617
L641.609 93.6188
L645.373 92.3866
L649.09 91.1656
L652.759 89.9553
L656.383 88.7563
L659.962 87.5683
L663.498 86.3917
L666.991 85.2269
L671.299 84.073
L674.701 82.9308
L678.063 81.8012
L681.386 80.6828
L684.672 79.5779
L687.921 78.4849
L691.135 77.4047
L694.313 76.337
L697.457 75.2835
L700.567 74.2423
L703.644 73.2158
L707.446 72.2015
L710.451 71.2026
L713.426 70.216
L716.371 69.2442
L719.287 68.2875
L722.173 67.343
L725.031 66.4137
L727.861 65.4987
L730.664 64.5992
L733.44 63.7128
L736.19 62.8407
L739.592 61.9814
L742.284 61.1376
L744.952 60.3095
L747.596 59.4925
L750.216 58.691
L752.812 57.9051" style="fill:none;stroke:#00bfbf;stroke-width:6.0;"/>
   </g>
   <g id="line2d_7">
    <path clip-path="url(#p4297ea52ca)" d="
M83.2122 243.182
L107.976 236.478
L130.796 230.304
L151.955 224.411
L171.678 218.944
L190.148 213.782
L211.699 208.903
L227.859 204.278
L243.168 199.889
L257.711 195.731
L271.561 191.759
L284.782 187.971
L297.428 184.334
L309.546 180.851
L321.18 177.514
L332.366 174.295
L343.138 171.196
L356.064 168.208
L366.007 165.323
L375.622 162.528
L384.928 159.825
L393.946 157.203
L402.693 154.66
L411.184 152.19
L419.434 149.788
L427.457 147.45
L435.264 145.172
L442.867 142.951
L452.1 140.785
L459.281 138.669
L466.288 136.603
L473.131 134.582
L479.816 132.604
L486.352 130.667
L492.743 128.769
L498.997 126.908
L505.12 125.081
L511.116 123.288
L516.991 121.525
L524.171 119.792
L529.791 118.088
L535.304 116.409
L540.715 114.755
L546.026 113.124
L551.243 111.516
L556.367 109.928
L561.403 108.361
L566.353 106.812
L571.22 105.281
L576.007 103.768
L581.882 102.27
L586.498 100.789
L591.042 99.3232
L595.516 97.8724
L599.922 96.4365
L604.262 95.0156
L608.539 93.6091
L612.754 92.2174
L616.908 90.8406
L621.004 89.4785
L625.043 88.1317
L630.014 86.8007
L633.931 85.4848
L637.795 84.1853
L641.609 82.9021
L645.373 81.6357
L649.09 80.3866
L652.759 79.154
L656.383 77.94
L659.962 76.7428
L663.498 75.5649
L666.991 74.4041
L671.299 73.2624
L674.701 72.1403
L678.063 71.0354
L681.386 69.9503
L684.672 68.8842
L687.921 67.8381
L691.135 66.809
L694.313 65.8
L697.457 64.8101
L700.567 63.8403
L703.644 62.887
L707.446 61.9535
L710.451 61.0403
L713.426 60.1425
L716.371 59.2646
L719.287 58.4048
L722.173 57.5646
L725.031 56.7405
L727.861 55.9321
L730.664 55.1447
L733.44 54.3725
L736.19 53.6171
L739.592 52.8783
L742.284 52.1536
L744.952 51.447
L747.596 50.7583
L750.216 50.0828
L752.812 49.4202" style="fill:none;stroke:#0000ff;stroke-dasharray:6.000000,6.000000;stroke-dashoffset:0.0;stroke-linecap:butt;stroke-width:6.0;"/>
   </g>
   <g id="line2d_8">
    <path clip-path="url(#p4297ea52ca)" d="
M83.2122 235.603
L107.976 228.862
L130.796 222.635
L151.955 216.765
L171.678 211.249
L190.148 206.081
L211.699 201.187
L227.859 196.567
L243.168 192.179
L257.711 187.995
L271.561 184.015
L284.782 180.217
L297.428 176.576
L309.546 173.089
L321.18 169.738
L332.366 166.512
L343.138 163.406
L356.064 160.406
L366.007 157.508
L375.622 154.705
L384.928 151.988
L393.946 149.355
L402.693 146.796
L411.184 144.311
L419.434 141.891
L427.457 139.536
L435.264 137.238
L442.867 134.998
L452.1 132.809
L459.281 130.67
L466.288 128.577
L473.131 126.528
L479.816 124.52
L486.352 122.55
L492.743 120.616
L498.997 118.715
L505.12 116.846
L511.116 115.007
L516.991 113.196
L524.171 111.411
L529.791 109.65
L535.304 107.913
L540.715 106.197
L546.026 104.503
L551.243 102.829
L556.367 101.174
L561.403 99.5395
L566.353 97.9237
L571.22 96.3263
L576.007 94.7481
L581.882 93.1888
L586.498 91.6487
L591.042 90.1285
L595.516 88.6284
L599.922 87.1481
L604.262 85.6895
L608.539 84.2516
L612.754 82.8362
L616.908 81.4423
L621.004 80.072
L625.043 78.7244
L630.014 77.3995
L633.931 76.0997
L637.795 74.8226
L641.609 73.5702
L645.373 72.3423
L649.09 71.1388
L652.759 69.9607
L656.383 68.8053
L659.962 67.6752
L663.498 66.5706
L666.991 65.4881
L671.299 64.4308
L674.701 63.3987
L678.063 62.3877
L681.386 61.4015
L684.672 60.4384
L687.921 59.4998
L691.135 58.5808
L694.313 57.6855
L697.457 56.8121
L700.567 55.9602
L703.644 55.1295
L707.446 54.3215
L710.451 53.53
L713.426 52.7623
L716.371 52.0102
L719.287 51.2812
L722.173 50.5687
L725.031 49.8744
L727.861 49.1955
L730.664 48.536
L733.44 47.8956
L736.19 47.2692
L739.592 46.6587
L742.284 46.0633
L744.952 45.4804
L747.596 44.9142
L750.216 44.3621
L752.812 43.8263" style="fill:none;stroke:#ff0000;stroke-dasharray:6.000000,6.000000;stroke-dashoffset:0.0;stroke-linecap:butt;stroke-width:6.0;"/>
   </g>
   <g id="matplotlib.axis_1">
    <g id="ytick_1">
     <g id="line2d_9">
      <defs>
       <path d="
M0 0
L-4 0" id="m0d5b0a6425" style="stroke:#000000;stroke-linecap:butt;stroke-width:0.5;"/>
      </defs>
      <g>
       <use style="stroke:#000000;stroke-linecap:butt;stroke-width:0.5;" x="752.812208247" xlink:href="#m0d5b0a6425" y="388.121073957"/>
      </g>
     </g>
     <g id="text_1">
      <!-- $10^{-7}$ -->
      <defs>
       <path d="
M65.9062 23
C67.5938 23 69.4062 23 69.4062 25
C69.4062 27 67.5938 27 65.9062 27
L11.7969 27
C10.0938 27 8.29688 27 8.29688 25
C8.29688 23 10.0938 23 11.7969 23
z
" id="CMSY10-0"/>
       <path d="
M26.5938 63.3125
C26.5938 65.4062 26.5 65.5 25.0938 65.5
C21.2031 61.1875 15.2969 59.7969 9.70312 59.7969
C9.40625 59.7969 8.90625 59.7969 8.79688 59.5
C8.70312 59.2969 8.70312 59.0938 8.70312 57
C11.7969 57 17 57.5938 21 59.9844
L21 7.20312
C21 3.6875 20.7969 2.5 12.2031 2.5
L9.20312 2.5
L9.20312 0
C14 0 19 0 23.7969 0
C28.5938 0 33.5938 0 38.4062 0
L38.4062 2.5
L35.4062 2.5
C26.7969 2.5 26.5938 3.59375 26.5938 7.15625
z
" id="CMR17-49"/>
       <path d="
M42 31.6406
C42 37.75 41.9062 48.125 37.7031 56.1094
C34 63.1094 28.0938 65.5938 22.9062 65.5938
C18.0938 65.5938 12 63.4062 8.20312 56.2031
C4.20312 48.7188 3.79688 39.4375 3.79688 31.6406
C3.79688 25.9531 3.90625 17.2812 7 9.67188
C11.2969 -0.609375 19 -2 22.9062 -2
C27.5 -2 34.5 -0.109375 38.5938 9.375
C41.5938 16.2812 42 24.3594 42 31.6406
M22.9062 -0.40625
C16.5 -0.40625 12.7031 5.07812 11.2969 12.6875
C10.2031 18.5625 10.2031 27.1562 10.2031 32.75
C10.2031 40.4375 10.2031 46.8281 11.5 52.9219
C13.4062 61.3906 19 64 22.9062 64
C27 64 32.2969 61.2969 34.2031 53.125
C35.5 47.4375 35.5938 40.7344 35.5938 32.75
C35.5938 26.25 35.5938 18.2656 34.4062 12.375
C32.2969 1.48438 26.4062 -0.40625 22.9062 -0.40625" id="CMR17-48"/>
       <path d="
M45.0938 61.5781
L45.0938 63.7656
L21.5938 63.7656
C9.90625 63.7656 9.70312 65.0781 9.29688 67
L7.5 67
L4.59375 48.3438
L6.40625 48.3438
C6.70312 50.2344 7.40625 55.3125 8.59375 57.2031
C9.20312 58 16.5938 58 18.2969 58
L40.2969 58
L29.2031 41.5781
C21.7969 30.5312 16.7031 15.6094 16.7031 2.57812
C16.7031 1.39062 16.7031 -2 20.2969 -2
C23.9062 -2 23.9062 1.39062 23.9062 2.67188
L23.9062 7.26562
C23.9062 23.5625 26.7031 34.3125 31.2969 41.1875
z
" id="CMR17-55"/>
      </defs>
      <g transform="translate(756.812208247 397.852593758)scale(0.24 -0.24)">
       <use transform="scale(0.996264009963)" xlink:href="#CMR17-49"/>
       <use transform="translate(45.6904771171 0.0)scale(0.996264009963)" xlink:href="#CMR17-48"/>
       <use transform="translate(91.3809542341 36.1536389419)scale(0.697381766617)" xlink:href="#CMSY10-0"/>
       <use transform="translate(145.621947482 36.1536389419)scale(0.697381766617)" xlink:href="#CMR17-55"/>
      </g>
     </g>
    </g>
    <g id="ytick_2">
     <g id="line2d_10">
      <g>
       <use style="stroke:#000000;stroke-linecap:butt;stroke-width:0.5;" x="752.812208247" xlink:href="#m0d5b0a6425" y="340.871073957"/>
      </g>
     </g>
     <g id="text_2">
      <!-- $10^{-6}$ -->
      <defs>
       <path d="
M10.5938 34
C10.5938 57.6562 21.7969 63 28.2969 63
C30.4062 63 35.5 62.6406 37.5 59
C35.9062 59 32.9062 59 32.9062 55.5156
C32.9062 52.8281 35.0938 51.9219 36.5 51.9219
C37.4062 51.9219 40.0938 52.3125 40.0938 55.625
C40.0938 61.7812 35.0938 65.2969 28.2031 65.2969
C16.2969 65.2969 3.79688 52.9688 3.79688 31
C3.79688 3.95312 15.0938 -2 23.0938 -2
C32.7969 -2 42 6.67188 42 20.0469
C42 32.5156 33.9062 41.5938 23.7031 41.5938
C17.5938 41.5938 13.0938 37.6094 10.5938 30.625
z

M23.0938 0.390625
C10.7969 0.390625 10.7969 18.75 10.7969 22.4375
C10.7969 29.625 14.2031 40 23.5 40
C25.2031 40 30.0938 40 33.4062 33.125
C35.2031 29.2188 35.2031 25.1406 35.2031 20.1406
C35.2031 14.75 35.2031 10.7812 33.0938 6.78125
C30.9062 2.67188 27.7031 0.390625 23.0938 0.390625" id="CMR17-54"/>
      </defs>
      <g transform="translate(756.812208247 350.602593758)scale(0.24 -0.24)">
       <use transform="scale(0.996264009963)" xlink:href="#CMR17-49"/>
       <use transform="translate(45.6904771171 0.0)scale(0.996264009963)" xlink:href="#CMR17-48"/>
       <use transform="translate(91.3809542341 36.1536389419)scale(0.697381766617)" xlink:href="#CMSY10-0"/>
       <use transform="translate(145.621947482 36.1536389419)scale(0.697381766617)" xlink:href="#CMR17-54"/>
      </g>
     </g>
    </g>
    <g id="ytick_3">
     <g id="line2d_11">
      <g>
       <use style="stroke:#000000;stroke-linecap:butt;stroke-width:0.5;" x="752.812208247" xlink:href="#m0d5b0a6425" y="293.621073957"/>
      </g>
     </g>
     <g id="text_3">
      <!-- $10^{-5}$ -->
      <defs>
       <path d="
M11.4062 57.6875
C12.4062 57.2812 16.5 56 20.7031 56
C30 56 35.0938 61.0156 38 63.9219
C38 64.7344 38 65.25 37.4062 65.25
C37.2969 65.25 37.0938 65.25 36.2969 64.8281
C32.7969 63.3125 28.7031 62.0781 23.7031 62.0781
C20.7031 62.0781 16.2031 62.5 11.2969 64.7344
C10.2031 65.25 10 65.25 9.90625 65.25
C9.40625 65.25 9.29688 65.1406 9.29688 63.1562
L9.29688 34.2812
C9.29688 32.5 9.29688 32 10.2969 32
C10.7969 32 11 32.2031 11.5 32.9062
C14.7031 37.4844 19.0938 39.4062 24.0938 39.4062
C27.5938 39.4062 35.0938 37.2188 35.0938 20.1406
C35.0938 16.9531 35.0938 11.1719 32.0938 6.57812
C29.5938 2.48438 25.7031 0.390625 21.4062 0.390625
C14.7969 0.390625 8.09375 5 6.29688 12.7188
C6.70312 12.6094 7.5 12.4219 7.90625 12.4219
C9.20312 12.4219 11.7031 13.125 11.7031 16.2188
C11.7031 18.9062 9.79688 20 7.90625 20
C5.59375 20 4.09375 18.5938 4.09375 15.7969
C4.09375 7.09375 11 -2 21.5938 -2
C31.9062 -2 41.7031 6.875 41.7031 19.75
C41.7031 31.7188 33.9062 41 24.2031 41
C19.0938 41 14.7969 39.0938 11.4062 35.4531
z
" id="CMR17-53"/>
      </defs>
      <g transform="translate(756.812208247 303.352593758)scale(0.24 -0.24)">
       <use transform="scale(0.996264009963)" xlink:href="#CMR17-49"/>
       <use transform="translate(45.6904771171 0.0)scale(0.996264009963)" xlink:href="#CMR17-48"/>
       <use transform="translate(91.3809542341 36.1536389419)scale(0.697381766617)" xlink:href="#CMSY10-0"/>
       <use transform="translate(145.621947482 36.1536389419)scale(0.697381766617)" xlink:href="#CMR17-53"/>
      </g>
     </g>
    </g>
    <g id="ytick_4">
     <g id="line2d_12">
      <g>
       <use style="stroke:#000000;stroke-linecap:butt;stroke-width:0.5;" x="752.812208247" xlink:href="#m0d5b0a6425" y="246.371073957"/>
      </g>
     </g>
     <g id="text_4">
      <!-- $10^{-4}$ -->
      <defs>
       <path d="
M33.5938 64.3281
C33.5938 66.4062 33.5 66.5 31.7031 66.5
L2 19.5938
L2 17
L27.7969 17
L27.7969 7.14062
C27.7969 3.5 27.5938 2.5 20.5938 2.5
L18.7031 2.5
L18.7031 0
C21.9062 0 27.2969 0 30.7031 0
C34.0938 0 39.5 0 42.7031 0
L42.7031 2.5
L40.7969 2.5
C33.7969 2.5 33.5938 3.5 33.5938 7.14062
L33.5938 17
L43.7969 17
L43.7969 19.5938
L33.5938 19.5938
z

M28.0938 57.7656
L28.0938 19.5938
L4 19.5938
z
" id="CMR17-52"/>
      </defs>
      <g transform="translate(756.812208247 256.102593758)scale(0.24 -0.24)">
       <use transform="scale(0.996264009963)" xlink:href="#CMR17-49"/>
       <use transform="translate(45.6904771171 0.0)scale(0.996264009963)" xlink:href="#CMR17-48"/>
       <use transform="translate(91.3809542341 36.1536389419)scale(0.697381766617)" xlink:href="#CMSY10-0"/>
       <use transform="translate(145.621947482 36.1536389419)scale(0.697381766617)" xlink:href="#CMR17-52"/>
      </g>
     </g>
    </g>
    <g id="ytick_5">
     <g id="line2d_13">
      <g>
       <use style="stroke:#000000;stroke-linecap:butt;stroke-width:0.5;" x="752.812208247" xlink:href="#m0d5b0a6425" y="199.121073957"/>
      </g>
     </g>
     <g id="text_5">
      <!-- $10^{-3}$ -->
      <defs>
       <path d="
M22.0938 33.7031
C31 33.7031 34.9062 25.9688 34.9062 17.0312
C34.9062 5 28.5 0.390625 22.7031 0.390625
C17.4062 0.390625 8.79688 3.03125 6.09375 10.8281
C6.59375 10.625 7.09375 10.625 7.59375 10.625
C10 10.625 11.7969 12.2188 11.7969 14.8125
C11.7969 17.7031 9.59375 19 7.59375 19
C5.90625 19 3.29688 18.2031 3.29688 14.4688
C3.29688 5.23438 12.2969 -2 22.9062 -2
C34 -2 42.5 6.71875 42.5 16.9531
C42.5 26.6719 34.5 33.6875 25 34.7969
C32.5938 36.375 39.9062 43.0625 39.9062 52.0156
C39.9062 59.6875 32 65.2969 23 65.2969
C13.9062 65.2969 5.90625 59.8281 5.90625 52.0156
C5.90625 48.5938 8.5 48 9.79688 48
C11.9062 48 13.7031 49.2969 13.7031 51.8906
C13.7031 54.4688 11.9062 55.7656 9.79688 55.7656
C9.40625 55.7656 8.90625 55.7656 8.5 55.5625
C11.4062 61.8594 19.2969 63 22.7969 63
C26.2969 63 32.9062 61.3281 32.9062 51.875
C32.9062 49.1094 32.5 44.1875 29.0938 39.8438
C26.0938 36 22.7031 36 19.4062 35.5938
C18.9062 35.5938 16.5938 35.5938 16.2031 35.5938
C15.5 35.4844 15.0938 35.3906 15.0938 34.5938
C15.0938 33.8125 15.2031 33.7031 17.2031 33.7031
z
" id="CMR17-51"/>
      </defs>
      <g transform="translate(756.812208247 208.852593758)scale(0.24 -0.24)">
       <use transform="scale(0.996264009963)" xlink:href="#CMR17-49"/>
       <use transform="translate(45.6904771171 0.0)scale(0.996264009963)" xlink:href="#CMR17-48"/>
       <use transform="translate(91.3809542341 36.1536389419)scale(0.697381766617)" xlink:href="#CMSY10-0"/>
       <use transform="translate(145.621947482 36.1536389419)scale(0.697381766617)" xlink:href="#CMR17-51"/>
      </g>
     </g>
    </g>
    <g id="ytick_6">
     <g id="line2d_14">
      <g>
       <use style="stroke:#000000;stroke-linecap:butt;stroke-width:0.5;" x="752.812208247" xlink:href="#m0d5b0a6425" y="151.871073957"/>
      </g>
     </g>
     <g id="text_6">
      <!-- $10^{-2}$ -->
      <defs>
       <path d="
M41.7031 15.4531
L39.9062 15.4531
C38.9062 8.375 38.0938 7.17188 37.7031 6.5625
C37.2031 5.76562 30 5.76562 28.5938 5.76562
L9.40625 5.76562
C13 9.67188 20 16.75 28.5 24.9531
C34.5938 30.7344 41.7031 37.5312 41.7031 47.4219
C41.7031 59.2188 32.2969 66 21.7969 66
C10.7969 66 4.09375 56.3125 4.09375 47.3438
C4.09375 43.4375 7 42.9375 8.20312 42.9375
C9.20312 42.9375 12.2031 43.5469 12.2031 47.0312
C12.2031 50.1094 9.59375 51 8.20312 51
C7.59375 51 7 50.9062 6.59375 50.7031
C8.5 59.2188 14.2969 63.4062 20.4062 63.4062
C29.0938 63.4062 34.7969 56.5156 34.7969 47.4219
C34.7969 38.7344 29.7031 31.25 24 24.75
L4.09375 2.28125
L4.09375 0
L39.2969 0
z
" id="CMR17-50"/>
      </defs>
      <g transform="translate(756.812208247 161.602593758)scale(0.24 -0.24)">
       <use transform="scale(0.996264009963)" xlink:href="#CMR17-49"/>
       <use transform="translate(45.6904771171 0.0)scale(0.996264009963)" xlink:href="#CMR17-48"/>
       <use transform="translate(91.3809542341 36.1536389419)scale(0.697381766617)" xlink:href="#CMSY10-0"/>
       <use transform="translate(145.621947482 36.1536389419)scale(0.697381766617)" xlink:href="#CMR17-50"/>
      </g>
     </g>
    </g>
    <g id="ytick_7">
     <g id="line2d_15">
      <g>
       <use style="stroke:#000000;stroke-linecap:butt;stroke-width:0.5;" x="752.812208247" xlink:href="#m0d5b0a6425" y="104.621073957"/>
      </g>
     </g>
     <g id="text_7">
      <!-- $10^{-1}$ -->
      <g transform="translate(756.812208247 114.352593758)scale(0.24 -0.24)">
       <use transform="scale(0.996264009963)" xlink:href="#CMR17-49"/>
       <use transform="translate(45.6904771171 0.0)scale(0.996264009963)" xlink:href="#CMR17-48"/>
       <use transform="translate(91.3809542341 36.1536389419)scale(0.697381766617)" xlink:href="#CMSY10-0"/>
       <use transform="translate(145.621947482 36.1536389419)scale(0.697381766617)" xlink:href="#CMR17-49"/>
      </g>
     </g>
    </g>
    <g id="ytick_8">
     <g id="line2d_16">
      <g>
       <use style="stroke:#000000;stroke-linecap:butt;stroke-width:0.5;" x="752.812208247" xlink:href="#m0d5b0a6425" y="57.3710739569"/>
      </g>
     </g>
     <g id="text_8">
      <!-- $10^{0}$ -->
      <g transform="translate(756.812208247 67.1025937581)scale(0.24 -0.24)">
       <use transform="scale(0.996264009963)" xlink:href="#CMR17-49"/>
       <use transform="translate(45.6904771171 0.0)scale(0.996264009963)" xlink:href="#CMR17-48"/>
       <use transform="translate(91.3809542341 36.1536389419)scale(0.697381766617)" xlink:href="#CMR17-48"/>
      </g>
     </g>
    </g>
    <g id="ytick_9">
     <g id="line2d_17">
      <defs>
       <path d="
M0 0
L2 0" id="m57a2c8792a" style="stroke:#000000;stroke-linecap:butt;stroke-width:0.5;"/>
      </defs>
      <g>
       <use style="stroke:#000000;stroke-linecap:butt;stroke-width:0.5;" x="83.2122082474" xlink:href="#m57a2c8792a" y="406.923739367"/>
      </g>
     </g>
     <g id="line2d_18">
      <defs>
       <path d="
M0 0
L-2 0" id="m46a939d668" style="stroke:#000000;stroke-linecap:butt;stroke-width:0.5;"/>
      </defs>
      <g>
       <use style="stroke:#000000;stroke-linecap:butt;stroke-width:0.5;" x="752.812208247" xlink:href="#m46a939d668" y="406.923739367"/>
      </g>
     </g>
    </g>
    <g id="ytick_10">
     <g id="line2d_19">
      <g>
       <use style="stroke:#000000;stroke-linecap:butt;stroke-width:0.5;" x="83.2122082474" xlink:href="#m57a2c8792a" y="398.603427376"/>
      </g>
     </g>
     <g id="line2d_20">
      <g>
       <use style="stroke:#000000;stroke-linecap:butt;stroke-width:0.5;" x="752.812208247" xlink:href="#m46a939d668" y="398.603427376"/>
      </g>
     </g>
    </g>
    <g id="ytick_11">
     <g id="line2d_21">
      <g>
       <use style="stroke:#000000;stroke-linecap:butt;stroke-width:0.5;" x="83.2122082474" xlink:href="#m57a2c8792a" y="392.700072072"/>
      </g>
     </g>
     <g id="line2d_22">
      <g>
       <use style="stroke:#000000;stroke-linecap:butt;stroke-width:0.5;" x="752.812208247" xlink:href="#m46a939d668" y="392.700072072"/>
      </g>
     </g>
    </g>
    <g id="ytick_12">
     <g id="line2d_23">
      <g>
       <use style="stroke:#000000;stroke-linecap:butt;stroke-width:0.5;" x="83.2122082474" xlink:href="#m57a2c8792a" y="373.897406662"/>
      </g>
     </g>
     <g id="line2d_24">
      <g>
       <use style="stroke:#000000;stroke-linecap:butt;stroke-width:0.5;" x="752.812208247" xlink:href="#m46a939d668" y="373.897406662"/>
      </g>
     </g>
    </g>
    <g id="ytick_13">
     <g id="line2d_25">
      <g>
       <use style="stroke:#000000;stroke-linecap:butt;stroke-width:0.5;" x="83.2122082474" xlink:href="#m57a2c8792a" y="359.673739367"/>
      </g>
     </g>
     <g id="line2d_26">
      <g>
       <use style="stroke:#000000;stroke-linecap:butt;stroke-width:0.5;" x="752.812208247" xlink:href="#m46a939d668" y="359.673739367"/>
      </g>
     </g>
    </g>
    <g id="ytick_14">
     <g id="line2d_27">
      <g>
       <use style="stroke:#000000;stroke-linecap:butt;stroke-width:0.5;" x="83.2122082474" xlink:href="#m57a2c8792a" y="351.353427376"/>
      </g>
     </g>
     <g id="line2d_28">
      <g>
       <use style="stroke:#000000;stroke-linecap:butt;stroke-width:0.5;" x="752.812208247" xlink:href="#m46a939d668" y="351.353427376"/>
      </g>
     </g>
    </g>
    <g id="ytick_15">
     <g id="line2d_29">
      <g>
       <use style="stroke:#000000;stroke-linecap:butt;stroke-width:0.5;" x="83.2122082474" xlink:href="#m57a2c8792a" y="345.450072072"/>
      </g>
     </g>
     <g id="line2d_30">
      <g>
       <use style="stroke:#000000;stroke-linecap:butt;stroke-width:0.5;" x="752.812208247" xlink:href="#m46a939d668" y="345.450072072"/>
      </g>
     </g>
    </g>
    <g id="ytick_16">
     <g id="line2d_31">
      <g>
       <use style="stroke:#000000;stroke-linecap:butt;stroke-width:0.5;" x="83.2122082474" xlink:href="#m57a2c8792a" y="326.647406662"/>
      </g>
     </g>
     <g id="line2d_32">
      <g>
       <use style="stroke:#000000;stroke-linecap:butt;stroke-width:0.5;" x="752.812208247" xlink:href="#m46a939d668" y="326.647406662"/>
      </g>
     </g>
    </g>
    <g id="ytick_17">
     <g id="line2d_33">
      <g>
       <use style="stroke:#000000;stroke-linecap:butt;stroke-width:0.5;" x="83.2122082474" xlink:href="#m57a2c8792a" y="312.423739367"/>
      </g>
     </g>
     <g id="line2d_34">
      <g>
       <use style="stroke:#000000;stroke-linecap:butt;stroke-width:0.5;" x="752.812208247" xlink:href="#m46a939d668" y="312.423739367"/>
      </g>
     </g>
    </g>
    <g id="ytick_18">
     <g id="line2d_35">
      <g>
       <use style="stroke:#000000;stroke-linecap:butt;stroke-width:0.5;" x="83.2122082474" xlink:href="#m57a2c8792a" y="304.103427376"/>
      </g>
     </g>
     <g id="line2d_36">
      <g>
       <use style="stroke:#000000;stroke-linecap:butt;stroke-width:0.5;" x="752.812208247" xlink:href="#m46a939d668" y="304.103427376"/>
      </g>
     </g>
    </g>
    <g id="ytick_19">
     <g id="line2d_37">
      <g>
       <use style="stroke:#000000;stroke-linecap:butt;stroke-width:0.5;" x="83.2122082474" xlink:href="#m57a2c8792a" y="298.200072072"/>
      </g>
     </g>
     <g id="line2d_38">
      <g>
       <use style="stroke:#000000;stroke-linecap:butt;stroke-width:0.5;" x="752.812208247" xlink:href="#m46a939d668" y="298.200072072"/>
      </g>
     </g>
    </g>
    <g id="ytick_20">
     <g id="line2d_39">
      <g>
       <use style="stroke:#000000;stroke-linecap:butt;stroke-width:0.5;" x="83.2122082474" xlink:href="#m57a2c8792a" y="279.397406662"/>
      </g>
     </g>
     <g id="line2d_40">
      <g>
       <use style="stroke:#000000;stroke-linecap:butt;stroke-width:0.5;" x="752.812208247" xlink:href="#m46a939d668" y="279.397406662"/>
      </g>
     </g>
    </g>
    <g id="ytick_21">
     <g id="line2d_41">
      <g>
       <use style="stroke:#000000;stroke-linecap:butt;stroke-width:0.5;" x="83.2122082474" xlink:href="#m57a2c8792a" y="265.173739367"/>
      </g>
     </g>
     <g id="line2d_42">
      <g>
       <use style="stroke:#000000;stroke-linecap:butt;stroke-width:0.5;" x="752.812208247" xlink:href="#m46a939d668" y="265.173739367"/>
      </g>
     </g>
    </g>
    <g id="ytick_22">
     <g id="line2d_43">
      <g>
       <use style="stroke:#000000;stroke-linecap:butt;stroke-width:0.5;" x="83.2122082474" xlink:href="#m57a2c8792a" y="256.853427376"/>
      </g>
     </g>
     <g id="line2d_44">
      <g>
       <use style="stroke:#000000;stroke-linecap:butt;stroke-width:0.5;" x="752.812208247" xlink:href="#m46a939d668" y="256.853427376"/>
      </g>
     </g>
    </g>
    <g id="ytick_23">
     <g id="line2d_45">
      <g>
       <use style="stroke:#000000;stroke-linecap:butt;stroke-width:0.5;" x="83.2122082474" xlink:href="#m57a2c8792a" y="250.950072072"/>
      </g>
     </g>
     <g id="line2d_46">
      <g>
       <use style="stroke:#000000;stroke-linecap:butt;stroke-width:0.5;" x="752.812208247" xlink:href="#m46a939d668" y="250.950072072"/>
      </g>
     </g>
    </g>
    <g id="ytick_24">
     <g id="line2d_47">
      <g>
       <use style="stroke:#000000;stroke-linecap:butt;stroke-width:0.5;" x="83.2122082474" xlink:href="#m57a2c8792a" y="232.147406662"/>
      </g>
     </g>
     <g id="line2d_48">
      <g>
       <use style="stroke:#000000;stroke-linecap:butt;stroke-width:0.5;" x="752.812208247" xlink:href="#m46a939d668" y="232.147406662"/>
      </g>
     </g>
    </g>
    <g id="ytick_25">
     <g id="line2d_49">
      <g>
       <use style="stroke:#000000;stroke-linecap:butt;stroke-width:0.5;" x="83.2122082474" xlink:href="#m57a2c8792a" y="217.923739367"/>
      </g>
     </g>
     <g id="line2d_50">
      <g>
       <use style="stroke:#000000;stroke-linecap:butt;stroke-width:0.5;" x="752.812208247" xlink:href="#m46a939d668" y="217.923739367"/>
      </g>
     </g>
    </g>
    <g id="ytick_26">
     <g id="line2d_51">
      <g>
       <use style="stroke:#000000;stroke-linecap:butt;stroke-width:0.5;" x="83.2122082474" xlink:href="#m57a2c8792a" y="209.603427376"/>
      </g>
     </g>
     <g id="line2d_52">
      <g>
       <use style="stroke:#000000;stroke-linecap:butt;stroke-width:0.5;" x="752.812208247" xlink:href="#m46a939d668" y="209.603427376"/>
      </g>
     </g>
    </g>
    <g id="ytick_27">
     <g id="line2d_53">
      <g>
       <use style="stroke:#000000;stroke-linecap:butt;stroke-width:0.5;" x="83.2122082474" xlink:href="#m57a2c8792a" y="203.700072072"/>
      </g>
     </g>
     <g id="line2d_54">
      <g>
       <use style="stroke:#000000;stroke-linecap:butt;stroke-width:0.5;" x="752.812208247" xlink:href="#m46a939d668" y="203.700072072"/>
      </g>
     </g>
    </g>
    <g id="ytick_28">
     <g id="line2d_55">
      <g>
       <use style="stroke:#000000;stroke-linecap:butt;stroke-width:0.5;" x="83.2122082474" xlink:href="#m57a2c8792a" y="184.897406662"/>
      </g>
     </g>
     <g id="line2d_56">
      <g>
       <use style="stroke:#000000;stroke-linecap:butt;stroke-width:0.5;" x="752.812208247" xlink:href="#m46a939d668" y="184.897406662"/>
      </g>
     </g>
    </g>
    <g id="ytick_29">
     <g id="line2d_57">
      <g>
       <use style="stroke:#000000;stroke-linecap:butt;stroke-width:0.5;" x="83.2122082474" xlink:href="#m57a2c8792a" y="170.673739367"/>
      </g>
     </g>
     <g id="line2d_58">
      <g>
       <use style="stroke:#000000;stroke-linecap:butt;stroke-width:0.5;" x="752.812208247" xlink:href="#m46a939d668" y="170.673739367"/>
      </g>
     </g>
    </g>
    <g id="ytick_30">
     <g id="line2d_59">
      <g>
       <use style="stroke:#000000;stroke-linecap:butt;stroke-width:0.5;" x="83.2122082474" xlink:href="#m57a2c8792a" y="162.353427376"/>
      </g>
     </g>
     <g id="line2d_60">
      <g>
       <use style="stroke:#000000;stroke-linecap:butt;stroke-width:0.5;" x="752.812208247" xlink:href="#m46a939d668" y="162.353427376"/>
      </g>
     </g>
    </g>
    <g id="ytick_31">
     <g id="line2d_61">
      <g>
       <use style="stroke:#000000;stroke-linecap:butt;stroke-width:0.5;" x="83.2122082474" xlink:href="#m57a2c8792a" y="156.450072072"/>
      </g>
     </g>
     <g id="line2d_62">
      <g>
       <use style="stroke:#000000;stroke-linecap:butt;stroke-width:0.5;" x="752.812208247" xlink:href="#m46a939d668" y="156.450072072"/>
      </g>
     </g>
    </g>
    <g id="ytick_32">
     <g id="line2d_63">
      <g>
       <use style="stroke:#000000;stroke-linecap:butt;stroke-width:0.5;" x="83.2122082474" xlink:href="#m57a2c8792a" y="137.647406662"/>
      </g>
     </g>
     <g id="line2d_64">
      <g>
       <use style="stroke:#000000;stroke-linecap:butt;stroke-width:0.5;" x="752.812208247" xlink:href="#m46a939d668" y="137.647406662"/>
      </g>
     </g>
    </g>
    <g id="ytick_33">
     <g id="line2d_65">
      <g>
       <use style="stroke:#000000;stroke-linecap:butt;stroke-width:0.5;" x="83.2122082474" xlink:href="#m57a2c8792a" y="123.423739367"/>
      </g>
     </g>
     <g id="line2d_66">
      <g>
       <use style="stroke:#000000;stroke-linecap:butt;stroke-width:0.5;" x="752.812208247" xlink:href="#m46a939d668" y="123.423739367"/>
      </g>
     </g>
    </g>
    <g id="ytick_34">
     <g id="line2d_67">
      <g>
       <use style="stroke:#000000;stroke-linecap:butt;stroke-width:0.5;" x="83.2122082474" xlink:href="#m57a2c8792a" y="115.103427376"/>
      </g>
     </g>
     <g id="line2d_68">
      <g>
       <use style="stroke:#000000;stroke-linecap:butt;stroke-width:0.5;" x="752.812208247" xlink:href="#m46a939d668" y="115.103427376"/>
      </g>
     </g>
    </g>
    <g id="ytick_35">
     <g id="line2d_69">
      <g>
       <use style="stroke:#000000;stroke-linecap:butt;stroke-width:0.5;" x="83.2122082474" xlink:href="#m57a2c8792a" y="109.200072072"/>
      </g>
     </g>
     <g id="line2d_70">
      <g>
       <use style="stroke:#000000;stroke-linecap:butt;stroke-width:0.5;" x="752.812208247" xlink:href="#m46a939d668" y="109.200072072"/>
      </g>
     </g>
    </g>
    <g id="ytick_36">
     <g id="line2d_71">
      <g>
       <use style="stroke:#000000;stroke-linecap:butt;stroke-width:0.5;" x="83.2122082474" xlink:href="#m57a2c8792a" y="90.3974066617"/>
      </g>
     </g>
     <g id="line2d_72">
      <g>
       <use style="stroke:#000000;stroke-linecap:butt;stroke-width:0.5;" x="752.812208247" xlink:href="#m46a939d668" y="90.3974066617"/>
      </g>
     </g>
    </g>
    <g id="ytick_37">
     <g id="line2d_73">
      <g>
       <use style="stroke:#000000;stroke-linecap:butt;stroke-width:0.5;" x="83.2122082474" xlink:href="#m57a2c8792a" y="76.1737393666"/>
      </g>
     </g>
     <g id="line2d_74">
      <g>
       <use style="stroke:#000000;stroke-linecap:butt;stroke-width:0.5;" x="752.812208247" xlink:href="#m46a939d668" y="76.1737393666"/>
      </g>
     </g>
    </g>
    <g id="ytick_38">
     <g id="line2d_75">
      <g>
       <use style="stroke:#000000;stroke-linecap:butt;stroke-width:0.5;" x="83.2122082474" xlink:href="#m57a2c8792a" y="67.8534273762"/>
      </g>
     </g>
     <g id="line2d_76">
      <g>
       <use style="stroke:#000000;stroke-linecap:butt;stroke-width:0.5;" x="752.812208247" xlink:href="#m46a939d668" y="67.8534273762"/>
      </g>
     </g>
    </g>
    <g id="ytick_39">
     <g id="line2d_77">
      <g>
       <use style="stroke:#000000;stroke-linecap:butt;stroke-width:0.5;" x="83.2122082474" xlink:href="#m57a2c8792a" y="61.9500720715"/>
      </g>
     </g>
     <g id="line2d_78">
      <g>
       <use style="stroke:#000000;stroke-linecap:butt;stroke-width:0.5;" x="752.812208247" xlink:href="#m46a939d668" y="61.9500720715"/>
      </g>
     </g>
    </g>
    <g id="ytick_40">
     <g id="line2d_79">
      <g>
       <use style="stroke:#000000;stroke-linecap:butt;stroke-width:0.5;" x="83.2122082474" xlink:href="#m57a2c8792a" y="43.1474066617"/>
      </g>
     </g>
     <g id="line2d_80">
      <g>
       <use style="stroke:#000000;stroke-linecap:butt;stroke-width:0.5;" x="752.812208247" xlink:href="#m46a939d668" y="43.1474066617"/>
      </g>
     </g>
    </g>
    <g id="text_9">
     <!-- Energy change [Hartree] -->
     <defs>
      <path d="
M60.7031 25.0781
L58.9062 25.0781
C56.7031 10.5156 55.4062 2.59375 37.7969 2.59375
L23.9062 2.59375
C19.9062 2.59375 19.7031 3.07812 19.7031 6.46875
L19.7031 34
L29.0938 34
C38.5 34 39.4062 30.5625 39.4062 22.125
L41.2031 22.125
L41.2031 48
L39.4062 48
C39.4062 39.9219 38.5 36.5938 29.0938 36.5938
L19.7031 36.5938
L19.7031 61.1406
C19.7031 64.5 19.9062 65 23.9062 65
L37.5938 65
C53.0938 65 54.9062 58.8594 56.2969 45.6562
L58.0938 45.6562
L55.7031 67.5781
L5.09375 67.5781
L5.09375 65
C12 65 13.0938 65 13.0938 60.5312
L13.0938 7.04688
C13.0938 2.59375 12 2.59375 5.09375 2.59375
L5.09375 0
L57.0938 0
z
" id="CMR17-69"/>
      <path d="
M36 25.8281
C36 32.375 36 35.8438 31.7969 39.7344
C28.0938 43 23.7969 44 20.4062 44
C12.5 44 6.79688 37.6094 6.79688 30.7969
C6.79688 27 9.79688 27 10.4062 27
C11.7031 27 14 27.7812 14 30.5312
C14 33 12.0938 34.0781 10.4062 34.0781
C10 34.0781 9.5 33.9688 9.20312 33.875
C11.2969 40.5 16.7031 42.4062 20.2031 42.4062
C25.2031 42.4062 30.7031 37.9531 30.7031 29.4531
L30.7031 25
C24.7969 25 17.7031 24.2031 12.0938 21.2031
C5.79688 17.7031 4 12.7031 4 8.90625
C4 1.20312 13 -1 18.2969 -1
C23.7969 -1 28.9062 2.17188 31.0938 7.98438
C31.2969 3.64062 34.0938 -0.28125 38.5 -0.28125
C40.5938 -0.28125 45.9062 1.09375 45.9062 8.85938
L45.9062 14.375
L44.0938 14.375
L44.0938 8.78125
C44.0938 2.78125 41.4062 2 40.0938 2
C36 2 36 7.15625 36 11.5312
z

M30.7031 13.5938
C30.7031 4.95312 24.5 0.59375 19 0.59375
C14 0.59375 10.0938 4.29688 10.0938 8.90625
C10.0938 11.8906 11.4062 17.1875 17.2031 20.3906
C22 23.0938 27.5 23.5 30.7031 23.5
z
" id="CMR17-97"/>
      <path d="
M41.5 30.2031
C41.5 35.2969 40.5 43.5938 28.7031 43.5938
C20.7969 43.5938 16.7031 37.5 15.2031 33.5
L15.0938 33.5
L15.0938 43.5938
L3.29688 42.5
L3.29688 39.9062
C9.20312 39.9062 10.0938 39.2969 10.0938 34.5
L10.0938 6.6875
C10.0938 2.875 9.70312 2.39062 3.29688 2.39062
L3.29688 -0.203125
C5.70312 0 10.0938 0 12.7031 0
C15.2969 0 19.7969 0 22.2031 -0.203125
L22.2031 2.39062
C15.7969 2.39062 15.4062 2.78125 15.4062 6.6875
L15.4062 25.9062
C15.4062 35.1094 21 42 28 42
C35.4062 42 36.2031 35.4062 36.2031 30.5938
L36.2031 6.6875
C36.2031 2.875 35.7969 2.39062 29.4062 2.39062
L29.4062 -0.203125
C31.7969 0 36.2031 0 38.7969 0
C41.4062 0 45.9062 0 48.2969 -0.203125
L48.2969 2.39062
C41.9062 2.39062 41.5 2.78125 41.5 6.6875
z
" id="CMR17-110"/>
      <path d="
M14.2969 74.4844
L1.40625 74.4844
L1.40625 71
L10.7969 71
L10.7969 -21.5156
L1.40625 -21.5156
L1.40625 -25
L14.2969 -25
z
" id="CMR17-93"/>
      <path d="
M39 34.3281
C41.5 40.4062 46 40.4062 47.4062 40.4062
L47.4062 43
C45.5 43 43 43 41.0938 43
C39 43 35.7031 43 33.7031 43.0938
L33.7031 40.5
C37.5 40.2031 37.5938 37.4062 37.5938 36.6094
C37.5938 35.625 37.4062 35.125 36.9062 33.9219
L26 7.01562
L14.0938 36.0312
C13.5938 37.2188 13.5938 37.9062 13.5938 38.0156
C13.5938 40.2031 15.9062 40.4062 18.2969 40.4062
L18.2969 43.0938
C15.9062 43 11.5938 43 9.09375 43
C6.40625 43 3.20312 43 1 43.0938
L1 40.4062
C6.40625 40.4062 7 39.9062 8.29688 36.7188
L23.2031 0.234375
C18.7031 -11.5312 16.0938 -18.4062 9.79688 -18.4062
C8.70312 -18.4062 6.20312 -18.1094 4.40625 -16.3125
C6.70312 -16.1094 7.70312 -14.7188 7.70312 -13.0156
C7.70312 -11.3281 6.5 -9.82812 4.5 -9.82812
C2.29688 -9.82812 1.20312 -11.3281 1.20312 -13.125
C1.20312 -17.1094 5.29688 -20 9.79688 -20
C15.5938 -20 19.2031 -14.4062 21.2031 -9.4375
z
" id="CMR17-121"/>
      <path d="
M34.9062 35
C33 35 30.2031 35 30.2031 31.5156
C30.2031 28.7188 32.5 27.9219 33.7969 27.9219
C34.5 27.9219 37.4062 28.2344 37.4062 31.625
C37.4062 38.5469 30.5938 43.7969 22.9062 43.7969
C12.2969 43.7969 3.29688 34.0312 3.29688 21.2969
C3.29688 8.0625 12.7031 -1 22.9062 -1
C35.2969 -1 38.4062 10.5938 38.4062 11.6875
C38.4062 12.0938 38.2969 12.3906 37.5938 12.3906
C36.9062 12.3906 36.7969 12.2969 36.4062 10.9844
C33.7969 2.8125 28.0938 0.796875 23.7969 0.796875
C17.4062 0.796875 9.70312 6.67188 9.70312 21.3906
C9.70312 36.5312 17.0938 42 23 42
C26.9062 42 32.7031 40.2031 34.9062 35" id="CMR17-99"/>
      <path d="
M15.0938 40
L29.0938 40
L29.0938 42.5781
L15.0938 42.5781
L15.0938 61
L13.2969 61
C13.0938 50.7031 9.59375 41.6875 1.09375 41.6875
L1.09375 40
L9.79688 40
L9.79688 12.0469
C9.79688 10.1562 9.79688 -1 21.4062 -1
C27.2969 -1 30.7031 4.78125 30.7031 12.1406
L30.7031 17.8125
L28.9062 17.8125
L28.9062 12.2344
C28.9062 5.375 26.2031 0.796875 22 0.796875
C19.0938 0.796875 15.0938 2.78125 15.0938 11.8438
z
" id="CMR17-116"/>
      <path d="
M41.5 30.2031
C41.5 35.2969 40.5 43.5938 28.7031 43.5938
C20.5 43.5938 16.5 37 15.2969 33.7031
L15.2031 33.7031
L15.2031 68.6875
L3.29688 67.5938
L3.29688 65
C9.20312 65 10.0938 64.4062 10.0938 59.6406
L10.0938 6.65625
C10.0938 2.875 9.70312 2.39062 3.29688 2.39062
L3.29688 -0.203125
C5.70312 0 10.0938 0 12.7031 0
C15.2969 0 19.7969 0 22.2031 -0.203125
L22.2031 2.39062
C15.7969 2.39062 15.4062 2.78125 15.4062 6.6875
L15.4062 25.9062
C15.4062 35.1094 21 42 28 42
C35.4062 42 36.2031 35.4062 36.2031 30.5938
L36.2031 6.6875
C36.2031 2.875 35.7969 2.39062 29.4062 2.39062
L29.4062 -0.203125
C31.7969 0 36.2031 0 38.7969 0
C41.4062 0 45.9062 0 48.2969 -0.203125
L48.2969 2.39062
C41.9062 2.39062 41.5 2.78125 41.5 6.6875
z
" id="CMR17-104"/>
      <path d="
M15 23.3906
C15 33 19.0938 42 26.5938 42
C27.2969 42 28 41.9062 28.7031 41.5938
C28.7031 41.5938 26.5 40.8906 26.5 38.3125
C26.5 35.9062 28.4062 34.9062 29.9062 34.9062
C31.0938 34.9062 33.2969 35.6094 33.2969 38.4062
C33.2969 41.6094 30.0938 43.5938 26.7031 43.5938
C19.0938 43.5938 15.7969 36.2031 14.7969 32.7031
L14.7031 32.7031
L14.7031 43.5938
L3.09375 42.5
L3.09375 39.9062
C9 39.9062 9.90625 39.2969 9.90625 34.5
L9.90625 6.6875
C9.90625 2.875 9.5 2.39062 3.09375 2.39062
L3.09375 -0.203125
C5.5 0 10.0938 0 12.7031 0
C15.5938 0 20.7031 0 23.4062 -0.203125
L23.4062 2.39062
C16.2031 2.39062 15 2.39062 15 6.875
z
" id="CMR17-114"/>
      <path d="
M38.0938 23
C38.5 23.4062 38.5 23.6094 38.5 24.625
C38.5 34.9688 33.0938 44 21.7031 44
C11.0938 44 2.70312 33.8906 2.70312 21.6094
C2.70312 8.60938 12.2031 -1 22.7969 -1
C34 -1 38.4062 9.46875 38.4062 11.5469
C38.4062 12.25 37.7969 12.25 37.5938 12.25
C36.9062 12.25 36.7969 12.0469 36.4062 10.875
C34.2031 4.14062 28.7031 0.796875 23.5 0.796875
C19.2031 0.796875 14.9062 3.17188 12.2031 7.5
C9.09375 12.5469 9.09375 18.375 9.09375 23
z

M9.20312 24.5
C9.90625 39.1406 17.5938 42.4062 21.5938 42.4062
C28.4062 42.4062 33 35.8906 33.0938 24.5
z
" id="CMR17-101"/>
      <path d="
M11.0938 18.1875
C13 16.6875 16.2969 15 20.2969 15
C28.2031 15 35 21.2031 35 29.5
C35 32.0938 34.2031 36.0938 31.2031 39.2031
C34 42.0625 38.0938 43 40.4062 43
C40.7969 43 41.4062 43 41.9062 42.7656
C41.5 42.6719 40.5938 42.2812 40.5938 40.7344
C40.5938 39.4844 41.5 38.6094 42.7969 38.6094
C44.2969 38.6094 45.0938 39.5781 45.0938 40.8438
C45.0938 42.6719 43.5938 44.5938 40.4062 44.5938
C36.4062 44.5938 32.9062 42.7812 30.0938 40.3125
C27.0938 43.0156 23.5 44 20.2969 44
C12.4062 44 5.59375 37.7969 5.59375 29.5
C5.59375 23.7812 8.90625 20.1875 9.90625 19.1875
C6.90625 15.6875 6.90625 11.6094 6.90625 11.1094
C6.90625 8.51562 7.90625 4.71875 11.2969 2.625
C6.09375 1.32812 2 -2.64062 2 -7.59375
C2 -14.7344 11.5 -20 22.9062 -20
C33.9062 -20 43.7969 -14.9375 43.7969 -7.48438
C43.7969 6 29 6 21.2969 6
C19 6 14.9062 6 14.4062 6.10938
C11.2969 6.60938 9.20312 9.40625 9.20312 12.8906
C9.20312 13.7812 9.20312 16 11.0938 18.1875
M20.2969 16.6875
C11.5 16.6875 11.5 27.5 11.5 29.5156
C11.5 31.5 11.5 42.3125 20.2969 42.3125
C29.0938 42.3125 29.0938 31.5 29.0938 29.5156
C29.0938 27.5 29.0938 16.6875 20.2969 16.6875
M22.9062 -18.2969
C12.9062 -18.2969 6 -13.0469 6 -7.59375
C6 -4.51562 7.70312 -1.64062 9.90625 -0.0625
C12.4062 1.625 13.4062 1.625 20.2031 1.625
C28.4062 1.625 39.7969 1.625 39.7969 -7.59375
C39.7969 -13.0469 32.9062 -18.2969 22.9062 -18.2969" id="CMR17-103"/>
      <path d="
M56.0938 61.0156
C56.0938 65.5 57.2031 65.5 64.0938 65.5
L64.0938 68
C61.2031 68 55.9062 68 52.7969 68
C49.7031 68 44.4062 68 41.5 68
L41.5 65.5
C48.4062 65.5 49.5 65.5 49.5 61
L49.5 36.5781
L19.7031 36.5781
L19.7031 61
C19.7031 65.5 20.7969 65.5 27.7031 65.5
L27.7031 68
C24.7969 68 19.5 68 16.4062 68
C13.2969 68 8 68 5.09375 68
L5.09375 65.5
C12 65.5 13.0938 65.5 13.0938 61.0156
L13.0938 6.98438
C13.0938 2.5 12 2.5 5.09375 2.5
L5.09375 0
C8 0 13.2969 0 16.4062 0
C19.5 0 24.7969 0 27.7031 0
L27.7031 2.5
C20.7969 2.5 19.7031 2.5 19.7031 6.96875
L19.7031 34
L49.5 34
L49.5 6.96875
C49.5 2.5 48.4062 2.5 41.5 2.5
L41.5 0
C44.4062 0 49.7031 0 52.7969 0
C55.9062 0 61.2031 0 64.0938 0
L64.0938 2.5
C57.2031 2.5 56.0938 2.5 56.0938 6.98438
z
" id="CMR17-72"/>
      <path d="
M23.5 -25
L23.5 -21.5156
L14.0938 -21.5156
L14.0938 71
L23.5 71
L23.5 74.4844
L10.5938 74.4844
L10.5938 -25
z
" id="CMR17-91"/>
     </defs>
     <g transform="translate(828.824416495 335.612126401)rotate(-90.0)scale(0.24 -0.24)">
      <use transform="translate(0.0 24.8232640781)scale(0.996264009963)" xlink:href="#CMR17-69"/>
      <use transform="translate(62.5863005186 24.8232640781)scale(0.996264009963)" xlink:href="#CMR17-110"/>
      <use transform="translate(113.481670299 24.8232640781)scale(0.996264009963)" xlink:href="#CMR17-101"/>
      <use transform="translate(153.967330762 24.8232640781)scale(0.996264009963)" xlink:href="#CMR17-114"/>
      <use transform="translate(189.248098561 24.8232640781)scale(0.996264009963)" xlink:href="#CMR17-103"/>
      <use transform="translate(234.938575678 24.8232640781)scale(0.996264009963)" xlink:href="#CMR17-121"/>
      <use transform="translate(313.307457873 24.8232640781)scale(0.996264009963)" xlink:href="#CMR17-99"/>
      <use transform="translate(351.190664403 24.8232640781)scale(0.996264009963)" xlink:href="#CMR17-104"/>
      <use transform="translate(402.086034183 24.8232640781)scale(0.996264009963)" xlink:href="#CMR17-97"/>
      <use transform="translate(447.7765113 24.8232640781)scale(0.996264009963)" xlink:href="#CMR17-110"/>
      <use transform="translate(498.671881081 24.8232640781)scale(0.996264009963)" xlink:href="#CMR17-103"/>
      <use transform="translate(544.362358198 24.8232640781)scale(0.996264009963)" xlink:href="#CMR17-101"/>
      <use transform="translate(614.923985007 24.8232640781)scale(0.996264009963)" xlink:href="#CMR17-91"/>
      <use transform="translate(639.795043489 24.8232640781)scale(0.996264009963)" xlink:href="#CMR17-72"/>
      <use transform="translate(708.867473294 24.8232640781)scale(0.996264009963)" xlink:href="#CMR17-97"/>
      <use transform="translate(754.557950411 24.8232640781)scale(0.996264009963)" xlink:href="#CMR17-114"/>
      <use transform="translate(789.83871821 24.8232640781)scale(0.996264009963)" xlink:href="#CMR17-116"/>
      <use transform="translate(825.119486009 24.8232640781)scale(0.996264009963)" xlink:href="#CMR17-114"/>
      <use transform="translate(860.400253809 24.8232640781)scale(0.996264009963)" xlink:href="#CMR17-101"/>
      <use transform="translate(900.885914272 24.8232640781)scale(0.996264009963)" xlink:href="#CMR17-101"/>
      <use transform="translate(941.371574734 24.8232640781)scale(0.996264009963)" xlink:href="#CMR17-93"/>
     </g>
    </g>
   </g>
   <g id="patch_3">
    <path d="
M752.812 408.663
L752.812 30.663" style="fill:none;stroke:#000000;"/>
   </g>
   <g id="matplotlib.axis_2">
    <g id="xtick_1">
     <g id="line2d_81">
      <defs>
       <path d="
M0 0
L0 4" id="mdad270ee8e" style="stroke:#000000;stroke-linecap:butt;stroke-width:0.5;"/>
      </defs>
      <g>
       <use style="stroke:#000000;stroke-linecap:butt;stroke-width:0.5;" x="693.91211016" xlink:href="#mdad270ee8e" y="30.6630396025"/>
      </g>
     </g>
     <g id="text_10">
      <!-- $10^{2}$ -->
      <g transform="translate(678.849325279 26.6630396025)scale(0.24 -0.24)">
       <use transform="scale(0.996264009963)" xlink:href="#CMR17-49"/>
       <use transform="translate(45.6904771171 0.0)scale(0.996264009963)" xlink:href="#CMR17-48"/>
       <use transform="translate(91.3809542341 36.1536389419)scale(0.697381766617)" xlink:href="#CMR17-50"/>
      </g>
     </g>
    </g>
    <g id="xtick_2">
     <g id="line2d_82">
      <defs>
       <path d="
M0 0
L0 -2" id="m6f8f3139b3" style="stroke:#000000;stroke-linecap:butt;stroke-width:0.5;"/>
      </defs>
      <g>
       <use style="stroke:#000000;stroke-linecap:butt;stroke-width:0.5;" x="225.881795257" xlink:href="#m6f8f3139b3" y="408.663039602"/>
      </g>
     </g>
     <g id="line2d_83">
      <defs>
       <path d="
M0 0
L0 2" id="md27378e979" style="stroke:#000000;stroke-linecap:butt;stroke-width:0.5;"/>
      </defs>
      <g>
       <use style="stroke:#000000;stroke-linecap:butt;stroke-width:0.5;" x="225.881795257" xlink:href="#md27378e979" y="30.6630396025"/>
      </g>
     </g>
    </g>
    <g id="xtick_3">
     <g id="line2d_84">
      <g>
       <use style="stroke:#000000;stroke-linecap:butt;stroke-width:0.5;" x="343.79250232" xlink:href="#m6f8f3139b3" y="408.663039602"/>
      </g>
     </g>
     <g id="line2d_85">
      <g>
       <use style="stroke:#000000;stroke-linecap:butt;stroke-width:0.5;" x="343.79250232" xlink:href="#md27378e979" y="30.6630396025"/>
      </g>
     </g>
    </g>
    <g id="xtick_4">
     <g id="line2d_86">
      <g>
       <use style="stroke:#000000;stroke-linecap:butt;stroke-width:0.5;" x="427.451480353" xlink:href="#m6f8f3139b3" y="408.663039602"/>
      </g>
     </g>
     <g id="line2d_87">
      <g>
       <use style="stroke:#000000;stroke-linecap:butt;stroke-width:0.5;" x="427.451480353" xlink:href="#md27378e979" y="30.6630396025"/>
      </g>
     </g>
    </g>
    <g id="xtick_5">
     <g id="line2d_88">
      <g>
       <use style="stroke:#000000;stroke-linecap:butt;stroke-width:0.5;" x="492.342425064" xlink:href="#m6f8f3139b3" y="408.663039602"/>
      </g>
     </g>
     <g id="line2d_89">
      <g>
       <use style="stroke:#000000;stroke-linecap:butt;stroke-width:0.5;" x="492.342425064" xlink:href="#md27378e979" y="30.6630396025"/>
      </g>
     </g>
    </g>
    <g id="xtick_6">
     <g id="line2d_90">
      <g>
       <use style="stroke:#000000;stroke-linecap:butt;stroke-width:0.5;" x="545.362187417" xlink:href="#m6f8f3139b3" y="408.663039602"/>
      </g>
     </g>
     <g id="line2d_91">
      <g>
       <use style="stroke:#000000;stroke-linecap:butt;stroke-width:0.5;" x="545.362187417" xlink:href="#md27378e979" y="30.6630396025"/>
      </g>
     </g>
    </g>
    <g id="xtick_7">
     <g id="line2d_92">
      <g>
       <use style="stroke:#000000;stroke-linecap:butt;stroke-width:0.5;" x="590.189757754" xlink:href="#m6f8f3139b3" y="408.663039602"/>
      </g>
     </g>
     <g id="line2d_93">
      <g>
       <use style="stroke:#000000;stroke-linecap:butt;stroke-width:0.5;" x="590.189757754" xlink:href="#md27378e979" y="30.6630396025"/>
      </g>
     </g>
    </g>
    <g id="xtick_8">
     <g id="line2d_94">
      <g>
       <use style="stroke:#000000;stroke-linecap:butt;stroke-width:0.5;" x="629.02116545" xlink:href="#m6f8f3139b3" y="408.663039602"/>
      </g>
     </g>
     <g id="line2d_95">
      <g>
       <use style="stroke:#000000;stroke-linecap:butt;stroke-width:0.5;" x="629.02116545" xlink:href="#md27378e979" y="30.6630396025"/>
      </g>
     </g>
    </g>
    <g id="xtick_9">
     <g id="line2d_96">
      <g>
       <use style="stroke:#000000;stroke-linecap:butt;stroke-width:0.5;" x="663.272894481" xlink:href="#m6f8f3139b3" y="408.663039602"/>
      </g>
     </g>
     <g id="line2d_97">
      <g>
       <use style="stroke:#000000;stroke-linecap:butt;stroke-width:0.5;" x="663.272894481" xlink:href="#md27378e979" y="30.6630396025"/>
      </g>
     </g>
    </g>
   </g>
   <g id="patch_4">
    <path d="
M83.2122 30.663
L752.812 30.663" style="fill:none;stroke:#000000;"/>
   </g>
   <g id="matplotlib.axis_3">
    <g id="xtick_10">
     <g id="line2d_98">
      <path clip-path="url(#p4297ea52ca)" d="
M315.421 408.663
L315.421 30.663" style="fill:none;stroke:#000000;stroke-dasharray:1.000000,3.000000;stroke-dashoffset:0.0;stroke-linecap:butt;stroke-width:0.5;"/>
     </g>
     <g id="line2d_99">
      <defs>
       <path d="
M0 0
L0 -4" id="mcb557df647" style="stroke:#000000;stroke-linecap:butt;stroke-width:0.5;"/>
      </defs>
      <g>
       <use style="stroke:#000000;stroke-linecap:butt;stroke-width:0.5;" x="315.421109023" xlink:href="#mcb557df647" y="408.663039602"/>
      </g>
     </g>
     <g id="text_11">
      <!-- $10^{0}$ -->
      <g transform="translate(300.358324142 432.126079205)scale(0.24 -0.24)">
       <use transform="scale(0.996264009963)" xlink:href="#CMR17-49"/>
       <use transform="translate(45.6904771171 0.0)scale(0.996264009963)" xlink:href="#CMR17-48"/>
       <use transform="translate(91.3809542341 36.1536389419)scale(0.697381766617)" xlink:href="#CMR17-48"/>
      </g>
     </g>
    </g>
    <g id="xtick_11">
     <g id="line2d_100">
      <g>
       <use style="stroke:#000000;stroke-linecap:butt;stroke-width:0.5;" x="113.851423927" xlink:href="#m6f8f3139b3" y="408.663039602"/>
      </g>
     </g>
     <g id="line2d_101">
      <g>
       <use style="stroke:#000000;stroke-linecap:butt;stroke-width:0.5;" x="113.851423927" xlink:href="#md27378e979" y="30.6630396025"/>
      </g>
     </g>
    </g>
    <g id="xtick_12">
     <g id="line2d_102">
      <g>
       <use style="stroke:#000000;stroke-linecap:butt;stroke-width:0.5;" x="166.87118628" xlink:href="#m6f8f3139b3" y="408.663039602"/>
      </g>
     </g>
     <g id="line2d_103">
      <g>
       <use style="stroke:#000000;stroke-linecap:butt;stroke-width:0.5;" x="166.87118628" xlink:href="#md27378e979" y="30.6630396025"/>
      </g>
     </g>
    </g>
    <g id="xtick_13">
     <g id="line2d_104">
      <g>
       <use style="stroke:#000000;stroke-linecap:butt;stroke-width:0.5;" x="211.698756617" xlink:href="#m6f8f3139b3" y="408.663039602"/>
      </g>
     </g>
     <g id="line2d_105">
      <g>
       <use style="stroke:#000000;stroke-linecap:butt;stroke-width:0.5;" x="211.698756617" xlink:href="#md27378e979" y="30.6630396025"/>
      </g>
     </g>
    </g>
    <g id="xtick_14">
     <g id="line2d_106">
      <g>
       <use style="stroke:#000000;stroke-linecap:butt;stroke-width:0.5;" x="250.530164313" xlink:href="#m6f8f3139b3" y="408.663039602"/>
      </g>
     </g>
     <g id="line2d_107">
      <g>
       <use style="stroke:#000000;stroke-linecap:butt;stroke-width:0.5;" x="250.530164313" xlink:href="#md27378e979" y="30.6630396025"/>
      </g>
     </g>
    </g>
    <g id="xtick_15">
     <g id="line2d_108">
      <g>
       <use style="stroke:#000000;stroke-linecap:butt;stroke-width:0.5;" x="284.781893344" xlink:href="#m6f8f3139b3" y="408.663039602"/>
      </g>
     </g>
     <g id="line2d_109">
      <g>
       <use style="stroke:#000000;stroke-linecap:butt;stroke-width:0.5;" x="284.781893344" xlink:href="#md27378e979" y="30.6630396025"/>
      </g>
     </g>
    </g>
    <g id="xtick_16">
     <g id="line2d_110">
      <g>
       <use style="stroke:#000000;stroke-linecap:butt;stroke-width:0.5;" x="516.99079412" xlink:href="#m6f8f3139b3" y="408.663039602"/>
      </g>
     </g>
     <g id="line2d_111">
      <g>
       <use style="stroke:#000000;stroke-linecap:butt;stroke-width:0.5;" x="516.99079412" xlink:href="#md27378e979" y="30.6630396025"/>
      </g>
     </g>
    </g>
    <g id="xtick_17">
     <g id="line2d_112">
      <g>
       <use style="stroke:#000000;stroke-linecap:butt;stroke-width:0.5;" x="634.901501184" xlink:href="#m6f8f3139b3" y="408.663039602"/>
      </g>
     </g>
     <g id="line2d_113">
      <g>
       <use style="stroke:#000000;stroke-linecap:butt;stroke-width:0.5;" x="634.901501184" xlink:href="#md27378e979" y="30.6630396025"/>
      </g>
     </g>
    </g>
    <g id="xtick_18">
     <g id="line2d_114">
      <g>
       <use style="stroke:#000000;stroke-linecap:butt;stroke-width:0.5;" x="718.560479217" xlink:href="#m6f8f3139b3" y="408.663039602"/>
      </g>
     </g>
     <g id="line2d_115">
      <g>
       <use style="stroke:#000000;stroke-linecap:butt;stroke-width:0.5;" x="718.560479217" xlink:href="#md27378e979" y="30.6630396025"/>
      </g>
     </g>
    </g>
    <g id="text_12">
     <!-- Potential depth [Hartree] -->
     <defs>
      <path d="
M19.7969 31.9062
L35.7969 31.9062
C48.7031 31.9062 58.0938 40.2812 58.0938 49.75
C58.0938 59.2344 48.9062 68 35.7969 68
L5.20312 68
L5.20312 65.4062
C12.0938 65.4062 13.2031 65.4062 13.2031 60.9375
L13.2031 6.96875
C13.2031 2.5 12.0938 2.5 5.20312 2.5
L5.20312 0
C8.09375 0 13.4062 0 16.5 0
C19.5938 0 24.9062 0 27.7969 0
L27.7969 2.5
C20.9062 2.5 19.7969 2.5 19.7969 6.96875
z

M19.5938 34
L19.5938 61.5312
C19.5938 64.9219 19.7969 65.4062 23.7969 65.4062
L33.9062 65.4062
C46.7969 65.4062 50.5 58.0312 50.5 49.75
C50.5 40.6875 46.0938 34 33.9062 34
z
" id="CMR17-80"/>
      <path d="
M15.5 61.0781
C15.5 63.2656 13.7031 65.1562 11.4062 65.1562
C9.20312 65.1562 7.29688 63.375 7.29688 61.0781
C7.29688 58.8906 9.09375 57 11.4062 57
C13.5938 57 15.5 58.7969 15.5 61.0781
M3.79688 42.2812
L3.79688 39.7031
C9.40625 39.7031 10.2031 39.0938 10.2031 34.3281
L10.2031 6.67188
C10.2031 2.875 9.79688 2.39062 3.40625 2.39062
L3.40625 -0.203125
C5.79688 0 10.0938 0 12.5938 0
C15 0 19.0938 0 21.4062 -0.203125
L21.4062 2.39062
C15.5 2.39062 15.2969 2.98438 15.2969 6.5625
L15.2969 43.375
z
" id="CMR17-105"/>
      <path d="
M22 -16.6094
C15.5938 -16.6094 15.2031 -16.2031 15.2031 -12.3281
L15.2031 6.28125
C18.0938 2.09375 22.2969 -0.59375 27.5938 -0.59375
C37.5938 -0.59375 47.7031 8.17188 47.7031 21.6875
C47.7031 34.2344 39 43.7812 28.7031 43.7812
C22.7031 43.7812 17.7969 40.5 15 36.5312
L15 43.7812
L3.09375 42.6875
L3.09375 40.1094
C9 40.1094 9.90625 39.5 9.90625 34.7344
L9.90625 -12.3281
C9.90625 -16.1094 9.5 -16.6094 3.09375 -16.6094
L3.09375 -19.1875
C5.5 -19 9.90625 -19 12.5 -19
C15.0938 -19 19.5938 -19 22 -19.1875
z

M15.2031 31.4375
C15.2031 32.8438 15.2031 34.9219 19.0938 38.6094
C19.5938 39.0156 23 42 28 42
C35.2969 42 41.2969 32.9375 41.2969 21.5938
C41.2969 10.25 34.9062 1 27 1
C23.4062 1 19.5 2.6875 16.5 7.375
C15.2031 9.5625 15.2031 10.1562 15.2031 11.75
z
" id="CMR17-112"/>
      <path d="
M29.2031 67.5938
L29.2031 65
C35.0938 65 36 64.4062 36 59.6875
L36 36.6406
C35.5938 37.1406 31.5 43.5938 23.4062 43.5938
C13.2031 43.5938 3.29688 34.5 3.29688 21.3125
C3.29688 8.20312 12.5938 -1 22.4062 -1
C30.9062 -1 35.2969 5.26562 35.7969 5.9375
L35.7969 -0.984375
L47.9062 -0.984375
L47.9062 2
C42 2 41.0938 2.59375 41.0938 7.39062
L41.0938 68.6875
z

M35.7969 11.7969
C35.7969 8.79688 34 6.09375 31.7031 4.09375
C28.2969 1.09375 24.9062 0.59375 23 0.59375
C20.0938 0.59375 9.70312 2.09375 9.70312 21.1875
C9.70312 40.8125 21.2969 42 23.9062 42
C28.5 42 32.2031 39.4062 34.5 35.7969
C35.7969 33.7031 35.7969 33.4062 35.7969 31.6094
z
" id="CMR17-100"/>
      <path d="
M43.0938 21.1875
C43.0938 34 33.7969 44 22.9062 44
C12 44 2.70312 34 2.70312 21.1875
C2.70312 8.60938 12 -1 22.9062 -1
C33.7969 -1 43.0938 8.60938 43.0938 21.1875
M22.9062 0.796875
C18.2031 0.796875 14.2031 3.59375 11.9062 7.5
C9.40625 11.9844 9.09375 17.5938 9.09375 22
C9.09375 26.2031 9.29688 31.4062 11.9062 35.9062
C13.9062 39.2031 17.7969 42.4062 22.9062 42.4062
C27.4062 42.4062 31.2031 39.9062 33.5938 36.4062
C36.7031 31.7031 36.7031 25.1094 36.7031 22
C36.7031 18.0938 36.5 12.1094 33.7969 7.29688
C31 2.70312 26.7031 0.796875 22.9062 0.796875" id="CMR17-111"/>
      <path d="
M15.2969 68.6875
L3.40625 67.5938
L3.40625 65
C9.29688 65 10.2031 64.4062 10.2031 59.6406
L10.2031 6.65625
C10.2031 2.875 9.79688 2.39062 3.40625 2.39062
L3.40625 -0.203125
C5.79688 0 10.2031 0 12.7031 0
C15.2969 0 19.7031 0 22.0938 -0.203125
L22.0938 2.39062
C15.7031 2.39062 15.2969 2.78125 15.2969 6.65625
z
" id="CMR17-108"/>
     </defs>
     <g transform="translate(297.967822083 460.994884175)scale(0.24 -0.24)">
      <use transform="translate(0.0 24.8232640781)scale(0.996264009963)" xlink:href="#CMR17-80"/>
      <use transform="translate(59.983846586 24.8232640781)scale(0.996264009963)" xlink:href="#CMR17-111"/>
      <use transform="translate(105.674323703 24.8232640781)scale(0.996264009963)" xlink:href="#CMR17-116"/>
      <use transform="translate(140.955091503 24.8232640781)scale(0.996264009963)" xlink:href="#CMR17-101"/>
      <use transform="translate(181.440751965 24.8232640781)scale(0.996264009963)" xlink:href="#CMR17-110"/>
      <use transform="translate(229.733667813 24.8232640781)scale(0.996264009963)" xlink:href="#CMR17-116"/>
      <use transform="translate(265.014435613 24.8232640781)scale(0.996264009963)" xlink:href="#CMR17-105"/>
      <use transform="translate(289.885494094 24.8232640781)scale(0.996264009963)" xlink:href="#CMR17-97"/>
      <use transform="translate(335.575971211 24.8232640781)scale(0.996264009963)" xlink:href="#CMR17-108"/>
      <use transform="translate(390.52299604 24.8232640781)scale(0.996264009963)" xlink:href="#CMR17-100"/>
      <use transform="translate(441.418365821 24.8232640781)scale(0.996264009963)" xlink:href="#CMR17-101"/>
      <use transform="translate(481.904026283 24.8232640781)scale(0.996264009963)" xlink:href="#CMR17-112"/>
      <use transform="translate(532.799396064 24.8232640781)scale(0.996264009963)" xlink:href="#CMR17-116"/>
      <use transform="translate(568.080163863 24.8232640781)scale(0.996264009963)" xlink:href="#CMR17-104"/>
      <use transform="translate(649.05149999 24.8232640781)scale(0.996264009963)" xlink:href="#CMR17-91"/>
      <use transform="translate(673.922558472 24.8232640781)scale(0.996264009963)" xlink:href="#CMR17-72"/>
      <use transform="translate(742.994988276 24.8232640781)scale(0.996264009963)" xlink:href="#CMR17-97"/>
      <use transform="translate(788.685465393 24.8232640781)scale(0.996264009963)" xlink:href="#CMR17-114"/>
      <use transform="translate(823.966233193 24.8232640781)scale(0.996264009963)" xlink:href="#CMR17-116"/>
      <use transform="translate(859.247000992 24.8232640781)scale(0.996264009963)" xlink:href="#CMR17-114"/>
      <use transform="translate(894.527768792 24.8232640781)scale(0.996264009963)" xlink:href="#CMR17-101"/>
      <use transform="translate(935.013429255 24.8232640781)scale(0.996264009963)" xlink:href="#CMR17-101"/>
      <use transform="translate(975.499089717 24.8232640781)scale(0.996264009963)" xlink:href="#CMR17-93"/>
     </g>
    </g>
   </g>
   <g id="matplotlib.axis_4">
    <g id="ytick_41">
     <g id="line2d_116">
      <path clip-path="url(#p4297ea52ca)" d="
M83.2122 408.663
L752.812 408.663" style="fill:none;stroke:#000000;stroke-dasharray:1.000000,3.000000;stroke-dashoffset:0.0;stroke-linecap:butt;stroke-width:0.5;"/>
     </g>
     <g id="line2d_117">
      <defs>
       <path d="
M0 0
L4 0" id="mc8fcea1516" style="stroke:#000000;stroke-linecap:butt;stroke-width:0.5;"/>
      </defs>
      <g>
       <use style="stroke:#000000;stroke-linecap:butt;stroke-width:0.5;" x="83.2122082474" xlink:href="#mc8fcea1516" y="408.663039602"/>
      </g>
     </g>
     <g id="text_13">
      <!-- $10^{-6}$ -->
      <g transform="translate(36.0688049696 418.394559404)scale(0.24 -0.24)">
       <use transform="scale(0.996264009963)" xlink:href="#CMR17-49"/>
       <use transform="translate(45.6904771171 0.0)scale(0.996264009963)" xlink:href="#CMR17-48"/>
       <use transform="translate(91.3809542341 36.1536389419)scale(0.697381766617)" xlink:href="#CMSY10-0"/>
       <use transform="translate(145.621947482 36.1536389419)scale(0.697381766617)" xlink:href="#CMR17-54"/>
      </g>
     </g>
    </g>
    <g id="ytick_42">
     <g id="line2d_118">
      <path clip-path="url(#p4297ea52ca)" d="
M83.2122 361.413
L752.812 361.413" style="fill:none;stroke:#000000;stroke-dasharray:1.000000,3.000000;stroke-dashoffset:0.0;stroke-linecap:butt;stroke-width:0.5;"/>
     </g>
     <g id="line2d_119">
      <g>
       <use style="stroke:#000000;stroke-linecap:butt;stroke-width:0.5;" x="83.2122082474" xlink:href="#mc8fcea1516" y="361.413039602"/>
      </g>
     </g>
     <g id="text_14">
      <!-- $10^{-5}$ -->
      <g transform="translate(36.0688049696 371.144559404)scale(0.24 -0.24)">
       <use transform="scale(0.996264009963)" xlink:href="#CMR17-49"/>
       <use transform="translate(45.6904771171 0.0)scale(0.996264009963)" xlink:href="#CMR17-48"/>
       <use transform="translate(91.3809542341 36.1536389419)scale(0.697381766617)" xlink:href="#CMSY10-0"/>
       <use transform="translate(145.621947482 36.1536389419)scale(0.697381766617)" xlink:href="#CMR17-53"/>
      </g>
     </g>
    </g>
    <g id="ytick_43">
     <g id="line2d_120">
      <path clip-path="url(#p4297ea52ca)" d="
M83.2122 314.163
L752.812 314.163" style="fill:none;stroke:#000000;stroke-dasharray:1.000000,3.000000;stroke-dashoffset:0.0;stroke-linecap:butt;stroke-width:0.5;"/>
     </g>
     <g id="line2d_121">
      <g>
       <use style="stroke:#000000;stroke-linecap:butt;stroke-width:0.5;" x="83.2122082474" xlink:href="#mc8fcea1516" y="314.163039602"/>
      </g>
     </g>
     <g id="text_15">
      <!-- $10^{-4}$ -->
      <g transform="translate(36.0688049696 323.894559404)scale(0.24 -0.24)">
       <use transform="scale(0.996264009963)" xlink:href="#CMR17-49"/>
       <use transform="translate(45.6904771171 0.0)scale(0.996264009963)" xlink:href="#CMR17-48"/>
       <use transform="translate(91.3809542341 36.1536389419)scale(0.697381766617)" xlink:href="#CMSY10-0"/>
       <use transform="translate(145.621947482 36.1536389419)scale(0.697381766617)" xlink:href="#CMR17-52"/>
      </g>
     </g>
    </g>
    <g id="ytick_44">
     <g id="line2d_122">
      <path clip-path="url(#p4297ea52ca)" d="
M83.2122 266.913
L752.812 266.913" style="fill:none;stroke:#000000;stroke-dasharray:1.000000,3.000000;stroke-dashoffset:0.0;stroke-linecap:butt;stroke-width:0.5;"/>
     </g>
     <g id="line2d_123">
      <g>
       <use style="stroke:#000000;stroke-linecap:butt;stroke-width:0.5;" x="83.2122082474" xlink:href="#mc8fcea1516" y="266.913039602"/>
      </g>
     </g>
     <g id="text_16">
      <!-- $10^{-3}$ -->
      <g transform="translate(36.0688049696 276.644559404)scale(0.24 -0.24)">
       <use transform="scale(0.996264009963)" xlink:href="#CMR17-49"/>
       <use transform="translate(45.6904771171 0.0)scale(0.996264009963)" xlink:href="#CMR17-48"/>
       <use transform="translate(91.3809542341 36.1536389419)scale(0.697381766617)" xlink:href="#CMSY10-0"/>
       <use transform="translate(145.621947482 36.1536389419)scale(0.697381766617)" xlink:href="#CMR17-51"/>
      </g>
     </g>
    </g>
    <g id="ytick_45">
     <g id="line2d_124">
      <path clip-path="url(#p4297ea52ca)" d="
M83.2122 219.663
L752.812 219.663" style="fill:none;stroke:#000000;stroke-dasharray:1.000000,3.000000;stroke-dashoffset:0.0;stroke-linecap:butt;stroke-width:0.5;"/>
     </g>
     <g id="line2d_125">
      <g>
       <use style="stroke:#000000;stroke-linecap:butt;stroke-width:0.5;" x="83.2122082474" xlink:href="#mc8fcea1516" y="219.663039602"/>
      </g>
     </g>
     <g id="text_17">
      <!-- $10^{-2}$ -->
      <g transform="translate(36.0688049696 229.394559404)scale(0.24 -0.24)">
       <use transform="scale(0.996264009963)" xlink:href="#CMR17-49"/>
       <use transform="translate(45.6904771171 0.0)scale(0.996264009963)" xlink:href="#CMR17-48"/>
       <use transform="translate(91.3809542341 36.1536389419)scale(0.697381766617)" xlink:href="#CMSY10-0"/>
       <use transform="translate(145.621947482 36.1536389419)scale(0.697381766617)" xlink:href="#CMR17-50"/>
      </g>
     </g>
    </g>
    <g id="ytick_46">
     <g id="line2d_126">
      <path clip-path="url(#p4297ea52ca)" d="
M83.2122 172.413
L752.812 172.413" style="fill:none;stroke:#000000;stroke-dasharray:1.000000,3.000000;stroke-dashoffset:0.0;stroke-linecap:butt;stroke-width:0.5;"/>
     </g>
     <g id="line2d_127">
      <g>
       <use style="stroke:#000000;stroke-linecap:butt;stroke-width:0.5;" x="83.2122082474" xlink:href="#mc8fcea1516" y="172.413039602"/>
      </g>
     </g>
     <g id="text_18">
      <!-- $10^{-1}$ -->
      <g transform="translate(36.0688049696 182.144559404)scale(0.24 -0.24)">
       <use transform="scale(0.996264009963)" xlink:href="#CMR17-49"/>
       <use transform="translate(45.6904771171 0.0)scale(0.996264009963)" xlink:href="#CMR17-48"/>
       <use transform="translate(91.3809542341 36.1536389419)scale(0.697381766617)" xlink:href="#CMSY10-0"/>
       <use transform="translate(145.621947482 36.1536389419)scale(0.697381766617)" xlink:href="#CMR17-49"/>
      </g>
     </g>
    </g>
    <g id="ytick_47">
     <g id="line2d_128">
      <path clip-path="url(#p4297ea52ca)" d="
M83.2122 125.163
L752.812 125.163" style="fill:none;stroke:#000000;stroke-dasharray:1.000000,3.000000;stroke-dashoffset:0.0;stroke-linecap:butt;stroke-width:0.5;"/>
     </g>
     <g id="line2d_129">
      <g>
       <use style="stroke:#000000;stroke-linecap:butt;stroke-width:0.5;" x="83.2122082474" xlink:href="#mc8fcea1516" y="125.163039602"/>
      </g>
     </g>
     <g id="text_19">
      <!-- $10^{0}$ -->
      <g transform="translate(49.0866384846 134.894559404)scale(0.24 -0.24)">
       <use transform="scale(0.996264009963)" xlink:href="#CMR17-49"/>
       <use transform="translate(45.6904771171 0.0)scale(0.996264009963)" xlink:href="#CMR17-48"/>
       <use transform="translate(91.3809542341 36.1536389419)scale(0.697381766617)" xlink:href="#CMR17-48"/>
      </g>
     </g>
    </g>
    <g id="ytick_48">
     <g id="line2d_130">
      <path clip-path="url(#p4297ea52ca)" d="
M83.2122 77.913
L752.812 77.913" style="fill:none;stroke:#000000;stroke-dasharray:1.000000,3.000000;stroke-dashoffset:0.0;stroke-linecap:butt;stroke-width:0.5;"/>
     </g>
     <g id="line2d_131">
      <g>
       <use style="stroke:#000000;stroke-linecap:butt;stroke-width:0.5;" x="83.2122082474" xlink:href="#mc8fcea1516" y="77.9130396025"/>
      </g>
     </g>
     <g id="text_20">
      <!-- $10^{1}$ -->
      <g transform="translate(49.0866384846 87.6445594037)scale(0.24 -0.24)">
       <use transform="scale(0.996264009963)" xlink:href="#CMR17-49"/>
       <use transform="translate(45.6904771171 0.0)scale(0.996264009963)" xlink:href="#CMR17-48"/>
       <use transform="translate(91.3809542341 36.1536389419)scale(0.697381766617)" xlink:href="#CMR17-49"/>
      </g>
     </g>
    </g>
    <g id="ytick_49">
     <g id="line2d_132">
      <path clip-path="url(#p4297ea52ca)" d="
M83.2122 30.663
L752.812 30.663" style="fill:none;stroke:#000000;stroke-dasharray:1.000000,3.000000;stroke-dashoffset:0.0;stroke-linecap:butt;stroke-width:0.5;"/>
     </g>
     <g id="line2d_133">
      <g>
       <use style="stroke:#000000;stroke-linecap:butt;stroke-width:0.5;" x="83.2122082474" xlink:href="#mc8fcea1516" y="30.6630396025"/>
      </g>
     </g>
     <g id="text_21">
      <!-- $10^{2}$ -->
      <g transform="translate(49.0866384846 40.3945594037)scale(0.24 -0.24)">
       <use transform="scale(0.996264009963)" xlink:href="#CMR17-49"/>
       <use transform="translate(45.6904771171 0.0)scale(0.996264009963)" xlink:href="#CMR17-48"/>
       <use transform="translate(91.3809542341 36.1536389419)scale(0.697381766617)" xlink:href="#CMR17-50"/>
      </g>
     </g>
    </g>
    <g id="ytick_50">
     <g id="line2d_134">
      <g>
       <use style="stroke:#000000;stroke-linecap:butt;stroke-width:0.5;" x="83.2122082474" xlink:href="#m57a2c8792a" y="394.439372307"/>
      </g>
     </g>
     <g id="line2d_135">
      <g>
       <use style="stroke:#000000;stroke-linecap:butt;stroke-width:0.5;" x="752.812208247" xlink:href="#m46a939d668" y="394.439372307"/>
      </g>
     </g>
    </g>
    <g id="ytick_51">
     <g id="line2d_136">
      <g>
       <use style="stroke:#000000;stroke-linecap:butt;stroke-width:0.5;" x="83.2122082474" xlink:href="#m57a2c8792a" y="380.215705012"/>
      </g>
     </g>
     <g id="line2d_137">
      <g>
       <use style="stroke:#000000;stroke-linecap:butt;stroke-width:0.5;" x="752.812208247" xlink:href="#m46a939d668" y="380.215705012"/>
      </g>
     </g>
    </g>
    <g id="ytick_52">
     <g id="line2d_138">
      <g>
       <use style="stroke:#000000;stroke-linecap:butt;stroke-width:0.5;" x="83.2122082474" xlink:href="#m57a2c8792a" y="371.895393022"/>
      </g>
     </g>
     <g id="line2d_139">
      <g>
       <use style="stroke:#000000;stroke-linecap:butt;stroke-width:0.5;" x="752.812208247" xlink:href="#m46a939d668" y="371.895393022"/>
      </g>
     </g>
    </g>
    <g id="ytick_53">
     <g id="line2d_140">
      <g>
       <use style="stroke:#000000;stroke-linecap:butt;stroke-width:0.5;" x="83.2122082474" xlink:href="#m57a2c8792a" y="365.992037717"/>
      </g>
     </g>
     <g id="line2d_141">
      <g>
       <use style="stroke:#000000;stroke-linecap:butt;stroke-width:0.5;" x="752.812208247" xlink:href="#m46a939d668" y="365.992037717"/>
      </g>
     </g>
    </g>
    <g id="ytick_54">
     <g id="line2d_142">
      <g>
       <use style="stroke:#000000;stroke-linecap:butt;stroke-width:0.5;" x="83.2122082474" xlink:href="#m57a2c8792a" y="347.189372307"/>
      </g>
     </g>
     <g id="line2d_143">
      <g>
       <use style="stroke:#000000;stroke-linecap:butt;stroke-width:0.5;" x="752.812208247" xlink:href="#m46a939d668" y="347.189372307"/>
      </g>
     </g>
    </g>
    <g id="ytick_55">
     <g id="line2d_144">
      <g>
       <use style="stroke:#000000;stroke-linecap:butt;stroke-width:0.5;" x="83.2122082474" xlink:href="#m57a2c8792a" y="332.965705012"/>
      </g>
     </g>
     <g id="line2d_145">
      <g>
       <use style="stroke:#000000;stroke-linecap:butt;stroke-width:0.5;" x="752.812208247" xlink:href="#m46a939d668" y="332.965705012"/>
      </g>
     </g>
    </g>
    <g id="ytick_56">
     <g id="line2d_146">
      <g>
       <use style="stroke:#000000;stroke-linecap:butt;stroke-width:0.5;" x="83.2122082474" xlink:href="#m57a2c8792a" y="324.645393022"/>
      </g>
     </g>
     <g id="line2d_147">
      <g>
       <use style="stroke:#000000;stroke-linecap:butt;stroke-width:0.5;" x="752.812208247" xlink:href="#m46a939d668" y="324.645393022"/>
      </g>
     </g>
    </g>
    <g id="ytick_57">
     <g id="line2d_148">
      <g>
       <use style="stroke:#000000;stroke-linecap:butt;stroke-width:0.5;" x="83.2122082474" xlink:href="#m57a2c8792a" y="318.742037717"/>
      </g>
     </g>
     <g id="line2d_149">
      <g>
       <use style="stroke:#000000;stroke-linecap:butt;stroke-width:0.5;" x="752.812208247" xlink:href="#m46a939d668" y="318.742037717"/>
      </g>
     </g>
    </g>
    <g id="ytick_58">
     <g id="line2d_150">
      <g>
       <use style="stroke:#000000;stroke-linecap:butt;stroke-width:0.5;" x="83.2122082474" xlink:href="#m57a2c8792a" y="299.939372307"/>
      </g>
     </g>
     <g id="line2d_151">
      <g>
       <use style="stroke:#000000;stroke-linecap:butt;stroke-width:0.5;" x="752.812208247" xlink:href="#m46a939d668" y="299.939372307"/>
      </g>
     </g>
    </g>
    <g id="ytick_59">
     <g id="line2d_152">
      <g>
       <use style="stroke:#000000;stroke-linecap:butt;stroke-width:0.5;" x="83.2122082474" xlink:href="#m57a2c8792a" y="285.715705012"/>
      </g>
     </g>
     <g id="line2d_153">
      <g>
       <use style="stroke:#000000;stroke-linecap:butt;stroke-width:0.5;" x="752.812208247" xlink:href="#m46a939d668" y="285.715705012"/>
      </g>
     </g>
    </g>
    <g id="ytick_60">
     <g id="line2d_154">
      <g>
       <use style="stroke:#000000;stroke-linecap:butt;stroke-width:0.5;" x="83.2122082474" xlink:href="#m57a2c8792a" y="277.395393022"/>
      </g>
     </g>
     <g id="line2d_155">
      <g>
       <use style="stroke:#000000;stroke-linecap:butt;stroke-width:0.5;" x="752.812208247" xlink:href="#m46a939d668" y="277.395393022"/>
      </g>
     </g>
    </g>
    <g id="ytick_61">
     <g id="line2d_156">
      <g>
       <use style="stroke:#000000;stroke-linecap:butt;stroke-width:0.5;" x="83.2122082474" xlink:href="#m57a2c8792a" y="271.492037717"/>
      </g>
     </g>
     <g id="line2d_157">
      <g>
       <use style="stroke:#000000;stroke-linecap:butt;stroke-width:0.5;" x="752.812208247" xlink:href="#m46a939d668" y="271.492037717"/>
      </g>
     </g>
    </g>
    <g id="ytick_62">
     <g id="line2d_158">
      <g>
       <use style="stroke:#000000;stroke-linecap:butt;stroke-width:0.5;" x="83.2122082474" xlink:href="#m57a2c8792a" y="252.689372307"/>
      </g>
     </g>
     <g id="line2d_159">
      <g>
       <use style="stroke:#000000;stroke-linecap:butt;stroke-width:0.5;" x="752.812208247" xlink:href="#m46a939d668" y="252.689372307"/>
      </g>
     </g>
    </g>
    <g id="ytick_63">
     <g id="line2d_160">
      <g>
       <use style="stroke:#000000;stroke-linecap:butt;stroke-width:0.5;" x="83.2122082474" xlink:href="#m57a2c8792a" y="238.465705012"/>
      </g>
     </g>
     <g id="line2d_161">
      <g>
       <use style="stroke:#000000;stroke-linecap:butt;stroke-width:0.5;" x="752.812208247" xlink:href="#m46a939d668" y="238.465705012"/>
      </g>
     </g>
    </g>
    <g id="ytick_64">
     <g id="line2d_162">
      <g>
       <use style="stroke:#000000;stroke-linecap:butt;stroke-width:0.5;" x="83.2122082474" xlink:href="#m57a2c8792a" y="230.145393022"/>
      </g>
     </g>
     <g id="line2d_163">
      <g>
       <use style="stroke:#000000;stroke-linecap:butt;stroke-width:0.5;" x="752.812208247" xlink:href="#m46a939d668" y="230.145393022"/>
      </g>
     </g>
    </g>
    <g id="ytick_65">
     <g id="line2d_164">
      <g>
       <use style="stroke:#000000;stroke-linecap:butt;stroke-width:0.5;" x="83.2122082474" xlink:href="#m57a2c8792a" y="224.242037717"/>
      </g>
     </g>
     <g id="line2d_165">
      <g>
       <use style="stroke:#000000;stroke-linecap:butt;stroke-width:0.5;" x="752.812208247" xlink:href="#m46a939d668" y="224.242037717"/>
      </g>
     </g>
    </g>
    <g id="ytick_66">
     <g id="line2d_166">
      <g>
       <use style="stroke:#000000;stroke-linecap:butt;stroke-width:0.5;" x="83.2122082474" xlink:href="#m57a2c8792a" y="205.439372307"/>
      </g>
     </g>
     <g id="line2d_167">
      <g>
       <use style="stroke:#000000;stroke-linecap:butt;stroke-width:0.5;" x="752.812208247" xlink:href="#m46a939d668" y="205.439372307"/>
      </g>
     </g>
    </g>
    <g id="ytick_67">
     <g id="line2d_168">
      <g>
       <use style="stroke:#000000;stroke-linecap:butt;stroke-width:0.5;" x="83.2122082474" xlink:href="#m57a2c8792a" y="191.215705012"/>
      </g>
     </g>
     <g id="line2d_169">
      <g>
       <use style="stroke:#000000;stroke-linecap:butt;stroke-width:0.5;" x="752.812208247" xlink:href="#m46a939d668" y="191.215705012"/>
      </g>
     </g>
    </g>
    <g id="ytick_68">
     <g id="line2d_170">
      <g>
       <use style="stroke:#000000;stroke-linecap:butt;stroke-width:0.5;" x="83.2122082474" xlink:href="#m57a2c8792a" y="182.895393022"/>
      </g>
     </g>
     <g id="line2d_171">
      <g>
       <use style="stroke:#000000;stroke-linecap:butt;stroke-width:0.5;" x="752.812208247" xlink:href="#m46a939d668" y="182.895393022"/>
      </g>
     </g>
    </g>
    <g id="ytick_69">
     <g id="line2d_172">
      <g>
       <use style="stroke:#000000;stroke-linecap:butt;stroke-width:0.5;" x="83.2122082474" xlink:href="#m57a2c8792a" y="176.992037717"/>
      </g>
     </g>
     <g id="line2d_173">
      <g>
       <use style="stroke:#000000;stroke-linecap:butt;stroke-width:0.5;" x="752.812208247" xlink:href="#m46a939d668" y="176.992037717"/>
      </g>
     </g>
    </g>
    <g id="ytick_70">
     <g id="line2d_174">
      <g>
       <use style="stroke:#000000;stroke-linecap:butt;stroke-width:0.5;" x="83.2122082474" xlink:href="#m57a2c8792a" y="158.189372307"/>
      </g>
     </g>
     <g id="line2d_175">
      <g>
       <use style="stroke:#000000;stroke-linecap:butt;stroke-width:0.5;" x="752.812208247" xlink:href="#m46a939d668" y="158.189372307"/>
      </g>
     </g>
    </g>
    <g id="ytick_71">
     <g id="line2d_176">
      <g>
       <use style="stroke:#000000;stroke-linecap:butt;stroke-width:0.5;" x="83.2122082474" xlink:href="#m57a2c8792a" y="143.965705012"/>
      </g>
     </g>
     <g id="line2d_177">
      <g>
       <use style="stroke:#000000;stroke-linecap:butt;stroke-width:0.5;" x="752.812208247" xlink:href="#m46a939d668" y="143.965705012"/>
      </g>
     </g>
    </g>
    <g id="ytick_72">
     <g id="line2d_178">
      <g>
       <use style="stroke:#000000;stroke-linecap:butt;stroke-width:0.5;" x="83.2122082474" xlink:href="#m57a2c8792a" y="135.645393022"/>
      </g>
     </g>
     <g id="line2d_179">
      <g>
       <use style="stroke:#000000;stroke-linecap:butt;stroke-width:0.5;" x="752.812208247" xlink:href="#m46a939d668" y="135.645393022"/>
      </g>
     </g>
    </g>
    <g id="ytick_73">
     <g id="line2d_180">
      <g>
       <use style="stroke:#000000;stroke-linecap:butt;stroke-width:0.5;" x="83.2122082474" xlink:href="#m57a2c8792a" y="129.742037717"/>
      </g>
     </g>
     <g id="line2d_181">
      <g>
       <use style="stroke:#000000;stroke-linecap:butt;stroke-width:0.5;" x="752.812208247" xlink:href="#m46a939d668" y="129.742037717"/>
      </g>
     </g>
    </g>
    <g id="ytick_74">
     <g id="line2d_182">
      <g>
       <use style="stroke:#000000;stroke-linecap:butt;stroke-width:0.5;" x="83.2122082474" xlink:href="#m57a2c8792a" y="110.939372307"/>
      </g>
     </g>
     <g id="line2d_183">
      <g>
       <use style="stroke:#000000;stroke-linecap:butt;stroke-width:0.5;" x="752.812208247" xlink:href="#m46a939d668" y="110.939372307"/>
      </g>
     </g>
    </g>
    <g id="ytick_75">
     <g id="line2d_184">
      <g>
       <use style="stroke:#000000;stroke-linecap:butt;stroke-width:0.5;" x="83.2122082474" xlink:href="#m57a2c8792a" y="96.7157050122"/>
      </g>
     </g>
     <g id="line2d_185">
      <g>
       <use style="stroke:#000000;stroke-linecap:butt;stroke-width:0.5;" x="752.812208247" xlink:href="#m46a939d668" y="96.7157050122"/>
      </g>
     </g>
    </g>
    <g id="ytick_76">
     <g id="line2d_186">
      <g>
       <use style="stroke:#000000;stroke-linecap:butt;stroke-width:0.5;" x="83.2122082474" xlink:href="#m57a2c8792a" y="88.3953930218"/>
      </g>
     </g>
     <g id="line2d_187">
      <g>
       <use style="stroke:#000000;stroke-linecap:butt;stroke-width:0.5;" x="752.812208247" xlink:href="#m46a939d668" y="88.3953930218"/>
      </g>
     </g>
    </g>
    <g id="ytick_77">
     <g id="line2d_188">
      <g>
       <use style="stroke:#000000;stroke-linecap:butt;stroke-width:0.5;" x="83.2122082474" xlink:href="#m57a2c8792a" y="82.4920377171"/>
      </g>
     </g>
     <g id="line2d_189">
      <g>
       <use style="stroke:#000000;stroke-linecap:butt;stroke-width:0.5;" x="752.812208247" xlink:href="#m46a939d668" y="82.4920377171"/>
      </g>
     </g>
    </g>
    <g id="ytick_78">
     <g id="line2d_190">
      <g>
       <use style="stroke:#000000;stroke-linecap:butt;stroke-width:0.5;" x="83.2122082474" xlink:href="#m57a2c8792a" y="63.6893723073"/>
      </g>
     </g>
     <g id="line2d_191">
      <g>
       <use style="stroke:#000000;stroke-linecap:butt;stroke-width:0.5;" x="752.812208247" xlink:href="#m46a939d668" y="63.6893723073"/>
      </g>
     </g>
    </g>
    <g id="ytick_79">
     <g id="line2d_192">
      <g>
       <use style="stroke:#000000;stroke-linecap:butt;stroke-width:0.5;" x="83.2122082474" xlink:href="#m57a2c8792a" y="49.4657050122"/>
      </g>
     </g>
     <g id="line2d_193">
      <g>
       <use style="stroke:#000000;stroke-linecap:butt;stroke-width:0.5;" x="752.812208247" xlink:href="#m46a939d668" y="49.4657050122"/>
      </g>
     </g>
    </g>
    <g id="ytick_80">
     <g id="line2d_194">
      <g>
       <use style="stroke:#000000;stroke-linecap:butt;stroke-width:0.5;" x="83.2122082474" xlink:href="#m57a2c8792a" y="41.1453930218"/>
      </g>
     </g>
     <g id="line2d_195">
      <g>
       <use style="stroke:#000000;stroke-linecap:butt;stroke-width:0.5;" x="752.812208247" xlink:href="#m46a939d668" y="41.1453930218"/>
      </g>
     </g>
    </g>
    <g id="ytick_81">
     <g id="line2d_196">
      <g>
       <use style="stroke:#000000;stroke-linecap:butt;stroke-width:0.5;" x="83.2122082474" xlink:href="#m57a2c8792a" y="35.2420377171"/>
      </g>
     </g>
     <g id="line2d_197">
      <g>
       <use style="stroke:#000000;stroke-linecap:butt;stroke-width:0.5;" x="752.812208247" xlink:href="#m46a939d668" y="35.2420377171"/>
      </g>
     </g>
    </g>
    <g id="text_22">
     <!-- Energy change [eV] -->
     <defs>
      <path d="
M59 58.5156
C59.9062 60.7188 61.5 65 68.2031 65
L68.2031 67.6875
C65.9062 67.4844 63.2969 67.4844 60.7969 67.4844
C58.4062 67.4844 54.2969 67.4844 52 67.6875
L52 65
C57 65 57.2031 61.5 57.2031 60.9062
C57.2031 59.7969 56.9062 59.1094 56.5938 58.3125
L36.9062 6.96875
L16.2969 60.625
C16 61.3281 15.7969 61.8281 15.7969 62.3125
C15.7969 65 19.7969 65 21.9062 65
L21.9062 67.4844
C18.7031 67.4844 14 67.4844 10.7031 67.4844
C8.09375 67.4844 3.40625 67.4844 1 67.6875
L1 65
C6.79688 65 7.90625 64.6094 9.09375 61.4219
L32.9062 -0.40625
C33.4062 -1.79688 33.5 -2 34.5938 -2
C35.7031 -2 35.7969 -1.79688 36.2969 -0.40625
z
" id="CMR17-86"/>
     </defs>
     <g transform="translate(31.0688049696 312.569925949)rotate(-90.0)scale(0.24 -0.24)">
      <use transform="translate(0.0 24.8232640781)scale(0.996264009963)" xlink:href="#CMR17-69"/>
      <use transform="translate(62.5863005186 24.8232640781)scale(0.996264009963)" xlink:href="#CMR17-110"/>
      <use transform="translate(113.481670299 24.8232640781)scale(0.996264009963)" xlink:href="#CMR17-101"/>
      <use transform="translate(153.967330762 24.8232640781)scale(0.996264009963)" xlink:href="#CMR17-114"/>
      <use transform="translate(189.248098561 24.8232640781)scale(0.996264009963)" xlink:href="#CMR17-103"/>
      <use transform="translate(234.938575678 24.8232640781)scale(0.996264009963)" xlink:href="#CMR17-121"/>
      <use transform="translate(313.307457873 24.8232640781)scale(0.996264009963)" xlink:href="#CMR17-99"/>
      <use transform="translate(351.190664403 24.8232640781)scale(0.996264009963)" xlink:href="#CMR17-104"/>
      <use transform="translate(402.086034183 24.8232640781)scale(0.996264009963)" xlink:href="#CMR17-97"/>
      <use transform="translate(447.7765113 24.8232640781)scale(0.996264009963)" xlink:href="#CMR17-110"/>
      <use transform="translate(498.671881081 24.8232640781)scale(0.996264009963)" xlink:href="#CMR17-103"/>
      <use transform="translate(544.362358198 24.8232640781)scale(0.996264009963)" xlink:href="#CMR17-101"/>
      <use transform="translate(614.923985007 24.8232640781)scale(0.996264009963)" xlink:href="#CMR17-91"/>
      <use transform="translate(639.795043489 24.8232640781)scale(0.996264009963)" xlink:href="#CMR17-101"/>
      <use transform="translate(680.280703952 24.8232640781)scale(0.996264009963)" xlink:href="#CMR17-86"/>
      <use transform="translate(749.353133756 24.8232640781)scale(0.996264009963)" xlink:href="#CMR17-93"/>
     </g>
    </g>
   </g>
   <g id="patch_5">
    <path d="
M83.2122 408.663
L752.812 408.663" style="fill:none;stroke:#000000;"/>
   </g>
   <g id="patch_6">
    <path d="
M83.2122 408.663
L83.2122 30.663" style="fill:none;stroke:#000000;"/>
   </g>
  </g>
 </g>
 <defs>
  <clipPath id="p4297ea52ca">
   <rect height="378.0" width="669.6" x="83.2122082474" y="30.6630396025"/>
  </clipPath>
 </defs>
</svg>
