<?xml version="1.0" encoding="utf-8" standalone="no"?>
<!DOCTYPE svg PUBLIC "-//W3C//DTD SVG 1.1//EN"
  "http://www.w3.org/Graphics/SVG/1.1/DTD/svg11.dtd">
<!-- Created with matplotlib (http://matplotlib.org/) -->
<svg height="448pt" version="1.1" viewBox="0 0 837 448" width="837pt" xmlns="http://www.w3.org/2000/svg" xmlns:xlink="http://www.w3.org/1999/xlink">
 <defs>
  <style type="text/css">
*{stroke-linecap:square;stroke-linejoin:round;}
  </style>
 </defs>
 <g id="figure_1">
  <g id="patch_1">
   <path d="
M0 448.953
L837.298 448.953
L837.298 0
L0 0
z
" style="fill:none;opacity:0.0;"/>
  </g>
  <g id="axes_1">
   <g id="patch_2">
    <path d="
M87.1006 391.478
L756.701 391.478
L756.701 13.4785
L87.1006 13.4785
z
" style="fill:none;opacity:0.0;"/>
   </g>
   <g id="line2d_1">
    <path clip-path="url(#p9eae5ebd90)" d="
M86.9862 282.614
L95.8397 279.939
L104.818 277.458
L113.921 275.175
L123.024 273.122
L132.126 271.294
L141.229 269.692
L150.332 268.315
L159.31 267.182
L168.164 266.287
L176.892 265.629
L185.372 265.21
L193.602 265.023
L201.582 265.059
L209.314 265.312
L216.795 265.775
L224.028 266.444
L231.011 267.312
L237.62 268.354
L243.979 269.577
L250.089 270.975
L255.95 272.541
L261.561 274.268
L266.923 276.148
L272.036 278.17
L277.024 280.381
L281.762 282.723
L286.376 285.254
L290.741 287.9
L294.98 290.729
L299.095 293.746
L303.085 296.954
L306.826 300.241
L310.567 303.829
L314.183 307.614
L317.675 311.595
L321.042 315.772
L324.284 320.138
L327.526 324.878
L330.643 329.82
L333.761 335.177
L336.878 340.984
L339.996 347.279
L343.113 354.1
L346.23 361.483
L349.348 369.46
L352.465 378.054
L355.707 387.662
L359.074 398.365
L362.566 410.218
L366.431 424.164
L370.796 440.771
L373.136 449.953
M445.428 449.953
L452.098 422.208
L456.587 404.481
L460.453 390.089
L464.069 377.456
L467.56 366.06
L470.927 355.821
L474.294 346.305
L477.536 337.794
L480.778 329.89
L484.02 322.552
L487.387 315.484
L490.754 308.933
L494.245 302.636
L497.737 296.796
L501.353 291.183
L505.094 285.793
L508.96 280.624
L512.95 275.668
L517.065 270.919
L521.305 266.369
L525.669 262.008
L530.283 257.717
L535.021 253.614
L540.009 249.591
L545.246 245.658
L550.733 241.823
L556.469 238.091
L562.454 234.466
L568.689 230.948
L575.298 227.476
L582.281 224.063
L589.638 220.717
L597.369 217.448
L605.599 214.211
L614.328 211.023
L623.556 207.893
L633.282 204.829
L643.632 201.802
L654.73 198.793
L666.451 195.846
L679.046 192.913
L692.388 190.035
L706.728 187.173
L722.066 184.343
L738.401 181.557
L755.984 178.787
L756.732 178.674
L756.732 178.674" style="fill:none;stroke:#000000;stroke-dasharray:6.000000,6.000000;stroke-dashoffset:0.0;stroke-linecap:butt;stroke-width:3.0;"/>
   </g>
   <g id="line2d_2">
    <path clip-path="url(#p9eae5ebd90)" d="
M86.9862 125.066
L104.568 127.135
L120.654 129.248
L135.618 131.436
L149.459 133.683
L162.303 135.993
L174.149 138.345
L185.247 140.774
L195.597 143.266
L205.199 145.802
L214.177 148.398
L222.656 151.077
L230.637 153.831
L238.119 156.643
L245.226 159.552
L251.96 162.547
L258.319 165.621
L264.305 168.757
L270.041 172.015
L275.528 175.39
L280.64 178.792
L285.628 182.379
L290.366 186.064
L294.855 189.833
L299.22 193.789
L303.335 197.815
L307.325 202.024
L311.191 206.424
L314.932 211.018
L318.548 215.811
L322.039 220.803
L325.531 226.193
L328.898 231.809
L332.14 237.645
L335.382 243.942
L338.624 250.743
L341.741 257.797
L344.859 265.392
L347.976 273.562
L351.218 282.7
L354.46 292.512
L357.827 303.423
L361.319 315.5
L365.06 329.246
L369.299 345.698
L374.786 367.954
L384.637 408.035
L388.253 421.713
L391.246 432.175
L393.74 440.127
L395.984 446.578
L397.277 449.953
M423.435 449.953
L425.413 444.683
L427.657 438.018
L430.151 429.859
L433.019 419.656
L436.386 406.814
L441 388.246
L453.345 338.096
L457.585 322.045
L461.325 308.721
L464.817 297.07
L468.184 286.581
L471.551 276.824
L474.793 268.103
L478.035 260.017
L481.277 252.527
L484.519 245.594
L487.761 239.175
L491.128 233.007
L494.495 227.303
L497.986 221.829
L501.478 216.762
L505.094 211.899
L508.835 207.24
L512.7 202.781
L516.691 198.516
L520.806 194.439
L525.17 190.435
L529.659 186.621
L534.273 182.989
L539.136 179.443
L544.249 175.993
L549.611 172.646
L555.222 169.409
L561.083 166.285
L567.318 163.219
L573.802 160.277
L580.66 157.41
L587.893 154.626
L595.624 151.891
L603.854 149.22
L612.582 146.624
L621.81 144.113
L631.661 141.663
L642.26 139.259
L653.608 136.919
L665.703 134.652
L678.796 132.43
L692.887 130.267
L707.975 128.179
L724.311 126.145
L742.018 124.166
L756.732 122.675
L756.732 122.675" style="fill:none;stroke:#0000ff;stroke-dasharray:6.000000,6.000000;stroke-dashoffset:0.0;stroke-linecap:butt;stroke-width:3.0;"/>
   </g>
   <g id="line2d_3">
    <path clip-path="url(#p9eae5ebd90)" d="
M86.9862 209.066
L104.568 211.135
L120.654 213.248
L135.618 215.436
L149.459 217.683
L162.303 219.993
L174.149 222.345
L185.247 224.774
L195.597 227.266
L205.199 229.802
L214.177 232.398
L222.656 235.077
L230.637 237.831
L238.119 240.643
L245.226 243.552
L251.96 246.547
L258.319 249.621
L264.305 252.757
L270.041 256.015
L275.528 259.39
L280.64 262.792
L285.628 266.379
L290.366 270.064
L294.855 273.833
L299.22 277.789
L303.335 281.815
L307.325 286.024
L311.191 290.424
L314.932 295.018
L318.548 299.811
L322.039 304.803
L325.531 310.193
L328.898 315.809
L332.14 321.645
L335.382 327.942
L338.624 334.743
L341.741 341.797
L344.859 349.392
L347.976 357.562
L351.218 366.7
L354.46 376.512
L357.827 387.423
L361.319 399.5
L365.06 413.246
L369.299 429.698
L374.299 449.953
M446.412 449.953
L452.472 425.509
L456.836 408.808
L460.702 394.883
L464.318 382.686
L467.685 372.088
L471.052 362.224
L474.294 353.403
L477.536 345.221
L480.778 337.642
L484.02 330.626
L487.262 324.131
L490.629 317.891
L493.996 312.12
L497.487 306.585
L500.979 301.462
L504.595 296.548
L508.336 291.841
L512.202 287.337
L516.192 283.031
L520.307 278.917
L524.547 274.988
L529.036 271.133
L533.649 267.464
L538.513 263.883
L543.625 260.399
L548.987 257.022
L554.599 253.756
L560.459 250.606
L566.569 247.574
L573.054 244.605
L579.912 241.712
L587.144 238.904
L594.751 236.189
L602.856 233.531
L611.46 230.945
L620.688 228.406
L630.539 225.931
L641.013 223.531
L652.236 221.19
L664.207 218.921
L677.175 216.693
L691.141 214.524
L706.105 212.427
L722.315 210.382
L739.898 208.392
L756.732 206.675
L756.732 206.675" style="fill:none;stroke:#0000ff;stroke-dasharray:1.000000,3.000000;stroke-dashoffset:0.0;stroke-linecap:butt;stroke-width:3.0;"/>
   </g>
   <g id="line2d_4">
    <path clip-path="url(#p9eae5ebd90)" d="
M86.9862 246.627
L97.3361 242.332
L108.06 238.123
L119.283 233.958
L130.879 229.892
L142.975 225.887
L155.569 221.952
L168.663 218.095
L182.379 214.287
L196.719 210.539
L211.683 206.86
L227.27 203.257
L243.605 199.711
L260.689 196.23
L278.645 192.801
L297.474 189.432
L317.301 186.114
L338.125 182.857
L359.947 179.671
L383.016 176.53
L407.207 173.462
L432.77 170.446
L459.829 167.479
L488.385 164.574
L518.561 161.73
L550.608 158.934
L584.526 156.201
L620.563 153.522
L658.845 150.901
L699.621 148.334
L743.14 145.819
L756.732 145.077
L756.732 145.077" style="fill:none;stroke:#ff0000;stroke-dasharray:6.000000,6.000000;stroke-dashoffset:0.0;stroke-linecap:butt;stroke-width:3.0;"/>
   </g>
   <g id="line2d_5">
    <defs>
     <path d="
M0 3
C0.795609 3 1.55874 2.6839 2.12132 2.12132
C2.6839 1.55874 3 0.795609 3 0
C3 -0.795609 2.6839 -1.55874 2.12132 -2.12132
C1.55874 -2.6839 0.795609 -3 0 -3
C-0.795609 -3 -1.55874 -2.6839 -2.12132 -2.12132
C-2.6839 -1.55874 -3 -0.795609 -3 0
C-3 0.795609 -2.6839 1.55874 -2.12132 2.12132
C-1.55874 2.6839 -0.795609 3 0 3
z
" id="m4d149c2171" style="stroke:#000000;stroke-linecap:butt;stroke-width:0.5;"/>
    </defs>
    <g clip-path="url(#p9eae5ebd90)">
     <use style="fill:#ff0000;stroke:#000000;stroke-linecap:butt;stroke-width:0.5;" x="410.355722962" xlink:href="#m4d149c2171" y="89.0784632093"/>
    </g>
   </g>
   <g id="line2d_6">
    <defs>
     <path d="
M0 3
C0.795609 3 1.55874 2.6839 2.12132 2.12132
C2.6839 1.55874 3 0.795609 3 0
C3 -0.795609 2.6839 -1.55874 2.12132 -2.12132
C1.55874 -2.6839 0.795609 -3 0 -3
C-0.795609 -3 -1.55874 -2.6839 -2.12132 -2.12132
C-2.6839 -1.55874 -3 -0.795609 -3 0
C-3 0.795609 -2.6839 1.55874 -2.12132 2.12132
C-1.55874 2.6839 -0.795609 3 0 3
z
" id="m365dd9364a" style="stroke:#000000;stroke-linecap:butt;stroke-width:0.5;"/>
    </defs>
    <g clip-path="url(#p9eae5ebd90)">
     <use style="fill:#008000;stroke:#000000;stroke-linecap:butt;stroke-width:0.5;" x="592.763998824" xlink:href="#m365dd9364a" y="89.0784632093"/>
    </g>
   </g>
   <g id="line2d_7">
    <g clip-path="url(#p9eae5ebd90)">
     <use style="fill:#008000;stroke:#000000;stroke-linecap:butt;stroke-width:0.5;" x="597.381929858" xlink:href="#m365dd9364a" y="218.394252683"/>
    </g>
   </g>
   <g id="line2d_8">
    <g clip-path="url(#p9eae5ebd90)">
     <use style="fill:#008000;stroke:#000000;stroke-linecap:butt;stroke-width:0.5;" x="595.072964341" xlink:href="#m365dd9364a" y="89.0784632093"/>
    </g>
   </g>
   <g id="line2d_9">
    <defs>
     <path d="
M0 3
C0.795609 3 1.55874 2.6839 2.12132 2.12132
C2.6839 1.55874 3 0.795609 3 0
C3 -0.795609 2.6839 -1.55874 2.12132 -2.12132
C1.55874 -2.6839 0.795609 -3 0 -3
C-0.795609 -3 -1.55874 -2.6839 -2.12132 -2.12132
C-2.6839 -1.55874 -3 -0.795609 -3 0
C-3 0.795609 -2.6839 1.55874 -2.12132 2.12132
C-1.55874 2.6839 -0.795609 3 0 3
z
" id="m48e673ee5a" style="stroke:#000000;stroke-linecap:butt;stroke-width:0.5;"/>
    </defs>
    <g clip-path="url(#p9eae5ebd90)">
     <use style="fill:#00bfbf;stroke:#000000;stroke-linecap:butt;stroke-width:0.5;" x="604.30882641" xlink:href="#m48e673ee5a" y="173.078463209"/>
    </g>
   </g>
   <g id="line2d_10">
    <path clip-path="url(#p9eae5ebd90)" d="
M592.764 155.394
L606.618 155.394" style="fill:none;stroke:#00bfbf;stroke-width:3.0;"/>
   </g>
   <g id="line2d_11">
    <g clip-path="url(#p9eae5ebd90)">
     <use style="fill:#ff0000;stroke:#000000;stroke-linecap:butt;stroke-width:0.5;" x="590.455033306" xlink:href="#m4d149c2171" y="173.078463209"/>
    </g>
   </g>
   <g id="line2d_12">
    <g clip-path="url(#p9eae5ebd90)">
     <use style="fill:#ff0000;stroke:#000000;stroke-linecap:butt;stroke-width:0.5;" x="590.455033306" xlink:href="#m4d149c2171" y="173.078463209"/>
    </g>
   </g>
   <g id="line2d_13">
    <path clip-path="url(#p9eae5ebd90)" d="
M592.764 89.0785
L597.382 89.0785" style="fill:none;stroke:#008000;stroke-width:3.0;"/>
   </g>
   <g id="line2d_14">
    <path clip-path="url(#p9eae5ebd90)" d="
M592.764 218.394
L597.382 218.394" style="fill:none;stroke:#008000;stroke-width:3.0;"/>
   </g>
   <g id="line2d_15">
    <path clip-path="url(#p9eae5ebd90)" d="
M592.764 29.3943
L597.382 29.3943" style="fill:none;stroke:#008000;stroke-width:3.0;"/>
   </g>
   <g id="line2d_16">
    <path clip-path="url(#p9eae5ebd90)" d="
M592.764 29.3943
L597.382 29.3943" style="fill:none;stroke:#008000;stroke-width:3.0;"/>
   </g>
   <g id="line2d_17">
    <defs>
     <path d="
M0 3
C0.795609 3 1.55874 2.6839 2.12132 2.12132
C2.6839 1.55874 3 0.795609 3 0
C3 -0.795609 2.6839 -1.55874 2.12132 -2.12132
C1.55874 -2.6839 0.795609 -3 0 -3
C-0.795609 -3 -1.55874 -2.6839 -2.12132 -2.12132
C-2.6839 -1.55874 -3 -0.795609 -3 0
C-3 0.795609 -2.6839 1.55874 -2.12132 2.12132
C-1.55874 2.6839 -0.795609 3 0 3
z
" id="m0d6eced38b" style="stroke:#000000;stroke-linecap:butt;stroke-width:0.5;"/>
    </defs>
    <g clip-path="url(#p9eae5ebd90)">
     <use style="fill:#bf00bf;stroke:#000000;stroke-linecap:butt;stroke-width:0.5;" x="391.653102272" xlink:href="#m0d6eced38b" y="287.173420038"/>
    </g>
   </g>
   <g id="line2d_18">
    <path clip-path="url(#p9eae5ebd90)" d="
M364.176 287.173
L456.535 287.173" style="fill:none;stroke:#bf00bf;stroke-dasharray:6.000000,6.000000;stroke-dashoffset:0.0;stroke-linecap:butt;stroke-width:3.0;"/>
   </g>
   <g id="line2d_19">
    <path clip-path="url(#p9eae5ebd90)" d="
M87.1006 89.0785
L756.701 89.0785" style="fill:none;stroke:#bf00bf;stroke-dasharray:1.000000,3.000000;stroke-dashoffset:0.0;stroke-linecap:butt;stroke-width:3.0;"/>
   </g>
   <g id="line2d_20">
    <g clip-path="url(#p9eae5ebd90)">
     <use style="fill:#bf00bf;stroke:#000000;stroke-linecap:butt;stroke-width:0.5;" x="429.058343651" xlink:href="#m0d6eced38b" y="371.173420038"/>
    </g>
   </g>
   <g id="line2d_21">
    <path clip-path="url(#p9eae5ebd90)" d="
M364.176 371.173
L456.535 371.173" style="fill:none;stroke:#bf00bf;stroke-dasharray:6.000000,6.000000;stroke-dashoffset:0.0;stroke-linecap:butt;stroke-width:3.0;"/>
   </g>
   <g id="line2d_22">
    <path clip-path="url(#p9eae5ebd90)" d="
M87.1006 173.078
L756.701 173.078" style="fill:none;stroke:#bf00bf;stroke-dasharray:1.000000,3.000000;stroke-dashoffset:0.0;stroke-linecap:butt;stroke-width:3.0;"/>
   </g>
   <g id="patch_3">
    <path d="
M87.1006 13.4785
L756.701 13.4785" style="fill:none;stroke:#000000;"/>
   </g>
   <g id="matplotlib.axis_1">
    <g id="ytick_1">
     <g id="line2d_23">
      <defs>
       <path d="
M0 0
L-4 0" id="m0d5b0a6425" style="stroke:#000000;stroke-linecap:butt;stroke-width:0.5;"/>
      </defs>
      <g>
       <use style="stroke:#000000;stroke-linecap:butt;stroke-width:0.5;" x="756.700550548" xlink:href="#m0d5b0a6425" y="366.903384401"/>
      </g>
     </g>
     <g id="text_1">
      <!-- $-30$ -->
      <defs>
       <path d="
M65.9062 23
C67.5938 23 69.4062 23 69.4062 25
C69.4062 27 67.5938 27 65.9062 27
L11.7969 27
C10.0938 27 8.29688 27 8.29688 25
C8.29688 23 10.0938 23 11.7969 23
z
" id="CMSY10-0"/>
       <path d="
M22.0938 33.7031
C31 33.7031 34.9062 25.9688 34.9062 17.0312
C34.9062 5 28.5 0.390625 22.7031 0.390625
C17.4062 0.390625 8.79688 3.03125 6.09375 10.8281
C6.59375 10.625 7.09375 10.625 7.59375 10.625
C10 10.625 11.7969 12.2188 11.7969 14.8125
C11.7969 17.7031 9.59375 19 7.59375 19
C5.90625 19 3.29688 18.2031 3.29688 14.4688
C3.29688 5.23438 12.2969 -2 22.9062 -2
C34 -2 42.5 6.71875 42.5 16.9531
C42.5 26.6719 34.5 33.6875 25 34.7969
C32.5938 36.375 39.9062 43.0625 39.9062 52.0156
C39.9062 59.6875 32 65.2969 23 65.2969
C13.9062 65.2969 5.90625 59.8281 5.90625 52.0156
C5.90625 48.5938 8.5 48 9.79688 48
C11.9062 48 13.7031 49.2969 13.7031 51.8906
C13.7031 54.4688 11.9062 55.7656 9.79688 55.7656
C9.40625 55.7656 8.90625 55.7656 8.5 55.5625
C11.4062 61.8594 19.2969 63 22.7969 63
C26.2969 63 32.9062 61.3281 32.9062 51.875
C32.9062 49.1094 32.5 44.1875 29.0938 39.8438
C26.0938 36 22.7031 36 19.4062 35.5938
C18.9062 35.5938 16.5938 35.5938 16.2031 35.5938
C15.5 35.4844 15.0938 35.3906 15.0938 34.5938
C15.0938 33.8125 15.2031 33.7031 17.2031 33.7031
z
" id="CMR17-51"/>
       <path d="
M42 31.6406
C42 37.75 41.9062 48.125 37.7031 56.1094
C34 63.1094 28.0938 65.5938 22.9062 65.5938
C18.0938 65.5938 12 63.4062 8.20312 56.2031
C4.20312 48.7188 3.79688 39.4375 3.79688 31.6406
C3.79688 25.9531 3.90625 17.2812 7 9.67188
C11.2969 -0.609375 19 -2 22.9062 -2
C27.5 -2 34.5 -0.109375 38.5938 9.375
C41.5938 16.2812 42 24.3594 42 31.6406
M22.9062 -0.40625
C16.5 -0.40625 12.7031 5.07812 11.2969 12.6875
C10.2031 18.5625 10.2031 27.1562 10.2031 32.75
C10.2031 40.4375 10.2031 46.8281 11.5 52.9219
C13.4062 61.3906 19 64 22.9062 64
C27 64 32.2969 61.2969 34.2031 53.125
C35.5 47.4375 35.5938 40.7344 35.5938 32.75
C35.5938 26.25 35.5938 18.2656 34.4062 12.375
C32.2969 1.48438 26.4062 -0.40625 22.9062 -0.40625" id="CMR17-48"/>
      </defs>
      <g transform="translate(760.700550548 375.606093176)scale(0.24 -0.24)">
       <use transform="translate(0.0 8.30225582289)scale(0.996264009963)" xlink:href="#CMSY10-0"/>
       <use transform="translate(77.4874676506 8.30225582289)scale(0.996264009963)" xlink:href="#CMR17-51"/>
       <use transform="translate(123.177944768 8.30225582289)scale(0.996264009963)" xlink:href="#CMR17-48"/>
      </g>
     </g>
    </g>
    <g id="ytick_2">
     <g id="line2d_24">
      <g>
       <use style="stroke:#000000;stroke-linecap:butt;stroke-width:0.5;" x="756.700550548" xlink:href="#m0d5b0a6425" y="320.599230869"/>
      </g>
     </g>
     <g id="text_2">
      <!-- $-25$ -->
      <defs>
       <path d="
M41.7031 15.4531
L39.9062 15.4531
C38.9062 8.375 38.0938 7.17188 37.7031 6.5625
C37.2031 5.76562 30 5.76562 28.5938 5.76562
L9.40625 5.76562
C13 9.67188 20 16.75 28.5 24.9531
C34.5938 30.7344 41.7031 37.5312 41.7031 47.4219
C41.7031 59.2188 32.2969 66 21.7969 66
C10.7969 66 4.09375 56.3125 4.09375 47.3438
C4.09375 43.4375 7 42.9375 8.20312 42.9375
C9.20312 42.9375 12.2031 43.5469 12.2031 47.0312
C12.2031 50.1094 9.59375 51 8.20312 51
C7.59375 51 7 50.9062 6.59375 50.7031
C8.5 59.2188 14.2969 63.4062 20.4062 63.4062
C29.0938 63.4062 34.7969 56.5156 34.7969 47.4219
C34.7969 38.7344 29.7031 31.25 24 24.75
L4.09375 2.28125
L4.09375 0
L39.2969 0
z
" id="CMR17-50"/>
       <path d="
M11.4062 57.6875
C12.4062 57.2812 16.5 56 20.7031 56
C30 56 35.0938 61.0156 38 63.9219
C38 64.7344 38 65.25 37.4062 65.25
C37.2969 65.25 37.0938 65.25 36.2969 64.8281
C32.7969 63.3125 28.7031 62.0781 23.7031 62.0781
C20.7031 62.0781 16.2031 62.5 11.2969 64.7344
C10.2031 65.25 10 65.25 9.90625 65.25
C9.40625 65.25 9.29688 65.1406 9.29688 63.1562
L9.29688 34.2812
C9.29688 32.5 9.29688 32 10.2969 32
C10.7969 32 11 32.2031 11.5 32.9062
C14.7031 37.4844 19.0938 39.4062 24.0938 39.4062
C27.5938 39.4062 35.0938 37.2188 35.0938 20.1406
C35.0938 16.9531 35.0938 11.1719 32.0938 6.57812
C29.5938 2.48438 25.7031 0.390625 21.4062 0.390625
C14.7969 0.390625 8.09375 5 6.29688 12.7188
C6.70312 12.6094 7.5 12.4219 7.90625 12.4219
C9.20312 12.4219 11.7031 13.125 11.7031 16.2188
C11.7031 18.9062 9.79688 20 7.90625 20
C5.59375 20 4.09375 18.5938 4.09375 15.7969
C4.09375 7.09375 11 -2 21.5938 -2
C31.9062 -2 41.7031 6.875 41.7031 19.75
C41.7031 31.7188 33.9062 41 24.2031 41
C19.0938 41 14.7969 39.0938 11.4062 35.4531
z
" id="CMR17-53"/>
      </defs>
      <g transform="translate(760.700550548 329.301939644)scale(0.24 -0.24)">
       <use transform="translate(0.0 8.30225582289)scale(0.996264009963)" xlink:href="#CMSY10-0"/>
       <use transform="translate(77.4874676506 8.30225582289)scale(0.996264009963)" xlink:href="#CMR17-50"/>
       <use transform="translate(123.177944768 8.30225582289)scale(0.996264009963)" xlink:href="#CMR17-53"/>
      </g>
     </g>
    </g>
    <g id="ytick_3">
     <g id="line2d_25">
      <g>
       <use style="stroke:#000000;stroke-linecap:butt;stroke-width:0.5;" x="756.700550548" xlink:href="#m0d5b0a6425" y="274.295077337"/>
      </g>
     </g>
     <g id="text_3">
      <!-- $-20$ -->
      <g transform="translate(760.700550548 282.997786112)scale(0.24 -0.24)">
       <use transform="translate(0.0 8.30225582289)scale(0.996264009963)" xlink:href="#CMSY10-0"/>
       <use transform="translate(77.4874676506 8.30225582289)scale(0.996264009963)" xlink:href="#CMR17-50"/>
       <use transform="translate(123.177944768 8.30225582289)scale(0.996264009963)" xlink:href="#CMR17-48"/>
      </g>
     </g>
    </g>
    <g id="ytick_4">
     <g id="line2d_26">
      <g>
       <use style="stroke:#000000;stroke-linecap:butt;stroke-width:0.5;" x="756.700550548" xlink:href="#m0d5b0a6425" y="227.990923805"/>
      </g>
     </g>
     <g id="text_4">
      <!-- $-15$ -->
      <defs>
       <path d="
M26.5938 63.3125
C26.5938 65.4062 26.5 65.5 25.0938 65.5
C21.2031 61.1875 15.2969 59.7969 9.70312 59.7969
C9.40625 59.7969 8.90625 59.7969 8.79688 59.5
C8.70312 59.2969 8.70312 59.0938 8.70312 57
C11.7969 57 17 57.5938 21 59.9844
L21 7.20312
C21 3.6875 20.7969 2.5 12.2031 2.5
L9.20312 2.5
L9.20312 0
C14 0 19 0 23.7969 0
C28.5938 0 33.5938 0 38.4062 0
L38.4062 2.5
L35.4062 2.5
C26.7969 2.5 26.5938 3.59375 26.5938 7.15625
z
" id="CMR17-49"/>
      </defs>
      <g transform="translate(760.700550548 236.69363258)scale(0.24 -0.24)">
       <use transform="translate(0.0 8.30225582289)scale(0.996264009963)" xlink:href="#CMSY10-0"/>
       <use transform="translate(77.4874676506 8.30225582289)scale(0.996264009963)" xlink:href="#CMR17-49"/>
       <use transform="translate(123.177944768 8.30225582289)scale(0.996264009963)" xlink:href="#CMR17-53"/>
      </g>
     </g>
    </g>
    <g id="ytick_5">
     <g id="line2d_27">
      <g>
       <use style="stroke:#000000;stroke-linecap:butt;stroke-width:0.5;" x="756.700550548" xlink:href="#m0d5b0a6425" y="181.686770273"/>
      </g>
     </g>
     <g id="text_5">
      <!-- $-10$ -->
      <g transform="translate(760.700550548 190.389479048)scale(0.24 -0.24)">
       <use transform="translate(0.0 8.30225582289)scale(0.996264009963)" xlink:href="#CMSY10-0"/>
       <use transform="translate(77.4874676506 8.30225582289)scale(0.996264009963)" xlink:href="#CMR17-49"/>
       <use transform="translate(123.177944768 8.30225582289)scale(0.996264009963)" xlink:href="#CMR17-48"/>
      </g>
     </g>
    </g>
    <g id="ytick_6">
     <g id="line2d_28">
      <g>
       <use style="stroke:#000000;stroke-linecap:butt;stroke-width:0.5;" x="756.700550548" xlink:href="#m0d5b0a6425" y="135.382616741"/>
      </g>
     </g>
     <g id="text_6">
      <!-- $-5$ -->
      <g transform="translate(760.700550548 144.085325516)scale(0.24 -0.24)">
       <use transform="translate(0.0 8.30225582289)scale(0.996264009963)" xlink:href="#CMSY10-0"/>
       <use transform="translate(77.4874676506 8.30225582289)scale(0.996264009963)" xlink:href="#CMR17-53"/>
      </g>
     </g>
    </g>
    <g id="ytick_7">
     <g id="line2d_29">
      <g>
       <use style="stroke:#000000;stroke-linecap:butt;stroke-width:0.5;" x="756.700550548" xlink:href="#m0d5b0a6425" y="89.0784632093"/>
      </g>
     </g>
     <g id="text_7">
      <!-- $0$ -->
      <g transform="translate(760.700550548 96.7849003736)scale(0.24 -0.24)">
       <use transform="scale(0.996264009963)" xlink:href="#CMR17-48"/>
      </g>
     </g>
    </g>
    <g id="ytick_8">
     <g id="line2d_30">
      <g>
       <use style="stroke:#000000;stroke-linecap:butt;stroke-width:0.5;" x="756.700550548" xlink:href="#m0d5b0a6425" y="42.7743096773"/>
      </g>
     </g>
     <g id="text_8">
      <!-- $5$ -->
      <g transform="translate(760.700550548 50.4807468416)scale(0.24 -0.24)">
       <use transform="scale(0.996264009963)" xlink:href="#CMR17-53"/>
      </g>
     </g>
    </g>
    <g id="text_9">
     <!-- Potential energy of an electron (eV) -->
     <defs>
      <path d="
M15.5 61.0781
C15.5 63.2656 13.7031 65.1562 11.4062 65.1562
C9.20312 65.1562 7.29688 63.375 7.29688 61.0781
C7.29688 58.8906 9.09375 57 11.4062 57
C13.5938 57 15.5 58.7969 15.5 61.0781
M3.79688 42.2812
L3.79688 39.7031
C9.40625 39.7031 10.2031 39.0938 10.2031 34.3281
L10.2031 6.67188
C10.2031 2.875 9.79688 2.39062 3.40625 2.39062
L3.40625 -0.203125
C5.79688 0 10.0938 0 12.5938 0
C15 0 19.0938 0 21.4062 -0.203125
L21.4062 2.39062
C15.5 2.39062 15.2969 2.98438 15.2969 6.5625
L15.2969 43.375
z
" id="CMR17-105"/>
      <path d="
M36 25.8281
C36 32.375 36 35.8438 31.7969 39.7344
C28.0938 43 23.7969 44 20.4062 44
C12.5 44 6.79688 37.6094 6.79688 30.7969
C6.79688 27 9.79688 27 10.4062 27
C11.7031 27 14 27.7812 14 30.5312
C14 33 12.0938 34.0781 10.4062 34.0781
C10 34.0781 9.5 33.9688 9.20312 33.875
C11.2969 40.5 16.7031 42.4062 20.2031 42.4062
C25.2031 42.4062 30.7031 37.9531 30.7031 29.4531
L30.7031 25
C24.7969 25 17.7031 24.2031 12.0938 21.2031
C5.79688 17.7031 4 12.7031 4 8.90625
C4 1.20312 13 -1 18.2969 -1
C23.7969 -1 28.9062 2.17188 31.0938 7.98438
C31.2969 3.64062 34.0938 -0.28125 38.5 -0.28125
C40.5938 -0.28125 45.9062 1.09375 45.9062 8.85938
L45.9062 14.375
L44.0938 14.375
L44.0938 8.78125
C44.0938 2.78125 41.4062 2 40.0938 2
C36 2 36 7.15625 36 11.5312
z

M30.7031 13.5938
C30.7031 4.95312 24.5 0.59375 19 0.59375
C14 0.59375 10.0938 4.29688 10.0938 8.90625
C10.0938 11.8906 11.4062 17.1875 17.2031 20.3906
C22 23.0938 27.5 23.5 30.7031 23.5
z
" id="CMR17-97"/>
      <path d="
M11.0938 18.1875
C13 16.6875 16.2969 15 20.2969 15
C28.2031 15 35 21.2031 35 29.5
C35 32.0938 34.2031 36.0938 31.2031 39.2031
C34 42.0625 38.0938 43 40.4062 43
C40.7969 43 41.4062 43 41.9062 42.7656
C41.5 42.6719 40.5938 42.2812 40.5938 40.7344
C40.5938 39.4844 41.5 38.6094 42.7969 38.6094
C44.2969 38.6094 45.0938 39.5781 45.0938 40.8438
C45.0938 42.6719 43.5938 44.5938 40.4062 44.5938
C36.4062 44.5938 32.9062 42.7812 30.0938 40.3125
C27.0938 43.0156 23.5 44 20.2969 44
C12.4062 44 5.59375 37.7969 5.59375 29.5
C5.59375 23.7812 8.90625 20.1875 9.90625 19.1875
C6.90625 15.6875 6.90625 11.6094 6.90625 11.1094
C6.90625 8.51562 7.90625 4.71875 11.2969 2.625
C6.09375 1.32812 2 -2.64062 2 -7.59375
C2 -14.7344 11.5 -20 22.9062 -20
C33.9062 -20 43.7969 -14.9375 43.7969 -7.48438
C43.7969 6 29 6 21.2969 6
C19 6 14.9062 6 14.4062 6.10938
C11.2969 6.60938 9.20312 9.40625 9.20312 12.8906
C9.20312 13.7812 9.20312 16 11.0938 18.1875
M20.2969 16.6875
C11.5 16.6875 11.5 27.5 11.5 29.5156
C11.5 31.5 11.5 42.3125 20.2969 42.3125
C29.0938 42.3125 29.0938 31.5 29.0938 29.5156
C29.0938 27.5 29.0938 16.6875 20.2969 16.6875
M22.9062 -18.2969
C12.9062 -18.2969 6 -13.0469 6 -7.59375
C6 -4.51562 7.70312 -1.64062 9.90625 -0.0625
C12.4062 1.625 13.4062 1.625 20.2031 1.625
C28.4062 1.625 39.7969 1.625 39.7969 -7.59375
C39.7969 -13.0469 32.9062 -18.2969 22.9062 -18.2969" id="CMR17-103"/>
      <path d="
M19.7969 31.9062
L35.7969 31.9062
C48.7031 31.9062 58.0938 40.2812 58.0938 49.75
C58.0938 59.2344 48.9062 68 35.7969 68
L5.20312 68
L5.20312 65.4062
C12.0938 65.4062 13.2031 65.4062 13.2031 60.9375
L13.2031 6.96875
C13.2031 2.5 12.0938 2.5 5.20312 2.5
L5.20312 0
C8.09375 0 13.4062 0 16.5 0
C19.5938 0 24.9062 0 27.7969 0
L27.7969 2.5
C20.9062 2.5 19.7969 2.5 19.7969 6.96875
z

M19.5938 34
L19.5938 61.5312
C19.5938 64.9219 19.7969 65.4062 23.7969 65.4062
L33.9062 65.4062
C46.7969 65.4062 50.5 58.0312 50.5 49.75
C50.5 40.6875 46.0938 34 33.9062 34
z
" id="CMR17-80"/>
      <path d="
M39 34.3281
C41.5 40.4062 46 40.4062 47.4062 40.4062
L47.4062 43
C45.5 43 43 43 41.0938 43
C39 43 35.7031 43 33.7031 43.0938
L33.7031 40.5
C37.5 40.2031 37.5938 37.4062 37.5938 36.6094
C37.5938 35.625 37.4062 35.125 36.9062 33.9219
L26 7.01562
L14.0938 36.0312
C13.5938 37.2188 13.5938 37.9062 13.5938 38.0156
C13.5938 40.2031 15.9062 40.4062 18.2969 40.4062
L18.2969 43.0938
C15.9062 43 11.5938 43 9.09375 43
C6.40625 43 3.20312 43 1 43.0938
L1 40.4062
C6.40625 40.4062 7 39.9062 8.29688 36.7188
L23.2031 0.234375
C18.7031 -11.5312 16.0938 -18.4062 9.79688 -18.4062
C8.70312 -18.4062 6.20312 -18.1094 4.40625 -16.3125
C6.70312 -16.1094 7.70312 -14.7188 7.70312 -13.0156
C7.70312 -11.3281 6.5 -9.82812 4.5 -9.82812
C2.29688 -9.82812 1.20312 -11.3281 1.20312 -13.125
C1.20312 -17.1094 5.29688 -20 9.79688 -20
C15.5938 -20 19.2031 -14.4062 21.2031 -9.4375
z
" id="CMR17-121"/>
      <path d="
M15.2969 40
L26.7031 40
L26.7031 42.5781
L15.0938 42.5781
L15.0938 54.5938
C15.0938 62.8438 19.2969 68 23.5938 68
C24.9062 68 26.4062 67.6094 27.4062 66.9062
C26.5938 66.7031 24.5 66.0156 24.5 63.5312
C24.5 60.9531 26.5 60.1562 27.9062 60.1562
C29.2969 60.1562 31.2969 60.9531 31.2969 63.5469
C31.2969 67.3125 27.7031 69.5938 23.7031 69.5938
C18 69.5938 10.2031 64.9375 10.2031 54.3906
L10.2031 42.5781
L2.20312 42.5781
L2.20312 40
L10.2031 40
L10.2031 6.67188
C10.2031 2.875 9.79688 2.39062 3.40625 2.39062
L3.40625 -0.203125
C5.79688 0 10.4062 0 13 0
C15.9062 0 21 0 23.7031 -0.203125
L23.7031 2.39062
C16.5 2.39062 15.2969 2.39062 15.2969 6.85938
z
" id="CMR17-102"/>
      <path d="
M34.9062 35
C33 35 30.2031 35 30.2031 31.5156
C30.2031 28.7188 32.5 27.9219 33.7969 27.9219
C34.5 27.9219 37.4062 28.2344 37.4062 31.625
C37.4062 38.5469 30.5938 43.7969 22.9062 43.7969
C12.2969 43.7969 3.29688 34.0312 3.29688 21.2969
C3.29688 8.0625 12.7031 -1 22.9062 -1
C35.2969 -1 38.4062 10.5938 38.4062 11.6875
C38.4062 12.0938 38.2969 12.3906 37.5938 12.3906
C36.9062 12.3906 36.7969 12.2969 36.4062 10.9844
C33.7969 2.8125 28.0938 0.796875 23.7969 0.796875
C17.4062 0.796875 9.70312 6.67188 9.70312 21.3906
C9.70312 36.5312 17.0938 42 23 42
C26.9062 42 32.7031 40.2031 34.9062 35" id="CMR17-99"/>
      <path d="
M15.0938 40
L29.0938 40
L29.0938 42.5781
L15.0938 42.5781
L15.0938 61
L13.2969 61
C13.0938 50.7031 9.59375 41.6875 1.09375 41.6875
L1.09375 40
L9.79688 40
L9.79688 12.0469
C9.79688 10.1562 9.79688 -1 21.4062 -1
C27.2969 -1 30.7031 4.78125 30.7031 12.1406
L30.7031 17.8125
L28.9062 17.8125
L28.9062 12.2344
C28.9062 5.375 26.2031 0.796875 22 0.796875
C19.0938 0.796875 15.0938 2.78125 15.0938 11.8438
z
" id="CMR17-116"/>
      <path d="
M59 58.5156
C59.9062 60.7188 61.5 65 68.2031 65
L68.2031 67.6875
C65.9062 67.4844 63.2969 67.4844 60.7969 67.4844
C58.4062 67.4844 54.2969 67.4844 52 67.6875
L52 65
C57 65 57.2031 61.5 57.2031 60.9062
C57.2031 59.7969 56.9062 59.1094 56.5938 58.3125
L36.9062 6.96875
L16.2969 60.625
C16 61.3281 15.7969 61.8281 15.7969 62.3125
C15.7969 65 19.7969 65 21.9062 65
L21.9062 67.4844
C18.7031 67.4844 14 67.4844 10.7031 67.4844
C8.09375 67.4844 3.40625 67.4844 1 67.6875
L1 65
C6.79688 65 7.90625 64.6094 9.09375 61.4219
L32.9062 -0.40625
C33.4062 -1.79688 33.5 -2 34.5938 -2
C35.7031 -2 35.7969 -1.79688 36.2969 -0.40625
z
" id="CMR17-86"/>
      <path d="
M15 23.3906
C15 33 19.0938 42 26.5938 42
C27.2969 42 28 41.9062 28.7031 41.5938
C28.7031 41.5938 26.5 40.8906 26.5 38.3125
C26.5 35.9062 28.4062 34.9062 29.9062 34.9062
C31.0938 34.9062 33.2969 35.6094 33.2969 38.4062
C33.2969 41.6094 30.0938 43.5938 26.7031 43.5938
C19.0938 43.5938 15.7969 36.2031 14.7969 32.7031
L14.7031 32.7031
L14.7031 43.5938
L3.09375 42.5
L3.09375 39.9062
C9 39.9062 9.90625 39.2969 9.90625 34.5
L9.90625 6.6875
C9.90625 2.875 9.5 2.39062 3.09375 2.39062
L3.09375 -0.203125
C5.5 0 10.0938 0 12.7031 0
C15.5938 0 20.7031 0 23.4062 -0.203125
L23.4062 2.39062
C16.2031 2.39062 15 2.39062 15 6.875
z
" id="CMR17-114"/>
      <path d="
M30.5938 -24.3906
C30.5938 -24.2969 30.5938 -24.0938 30.2969 -23.7969
C25.7031 -19.125 13.4062 -6.375 13.4062 24.6875
C13.4062 55.75 25.5 68.3906 30.4062 73.3594
C30.4062 73.4688 30.5938 73.6719 30.5938 73.9531
C30.5938 74.25 30.2969 74.4531 29.9062 74.4531
C28.7969 74.4531 20.2969 67.0781 15.4062 56.125
C10.4062 45.0781 9 34.3281 9 24.7812
C9 17.6094 9.70312 5.46875 15.7031 -7.375
C20.5 -17.7344 28.7031 -25 29.9062 -25
C30.4062 -25 30.5938 -24.7969 30.5938 -24.3906" id="CMR17-40"/>
      <path d="
M38.0938 23
C38.5 23.4062 38.5 23.6094 38.5 24.625
C38.5 34.9688 33.0938 44 21.7031 44
C11.0938 44 2.70312 33.8906 2.70312 21.6094
C2.70312 8.60938 12.2031 -1 22.7969 -1
C34 -1 38.4062 9.46875 38.4062 11.5469
C38.4062 12.25 37.7969 12.25 37.5938 12.25
C36.9062 12.25 36.7969 12.0469 36.4062 10.875
C34.2031 4.14062 28.7031 0.796875 23.5 0.796875
C19.2031 0.796875 14.9062 3.17188 12.2031 7.5
C9.09375 12.5469 9.09375 18.375 9.09375 23
z

M9.20312 24.5
C9.90625 39.1406 17.5938 42.4062 21.5938 42.4062
C28.4062 42.4062 33 35.8906 33.0938 24.5
z
" id="CMR17-101"/>
      <path d="
M41.5 30.2031
C41.5 35.2969 40.5 43.5938 28.7031 43.5938
C20.7969 43.5938 16.7031 37.5 15.2031 33.5
L15.0938 33.5
L15.0938 43.5938
L3.29688 42.5
L3.29688 39.9062
C9.20312 39.9062 10.0938 39.2969 10.0938 34.5
L10.0938 6.6875
C10.0938 2.875 9.70312 2.39062 3.29688 2.39062
L3.29688 -0.203125
C5.70312 0 10.0938 0 12.7031 0
C15.2969 0 19.7969 0 22.2031 -0.203125
L22.2031 2.39062
C15.7969 2.39062 15.4062 2.78125 15.4062 6.6875
L15.4062 25.9062
C15.4062 35.1094 21 42 28 42
C35.4062 42 36.2031 35.4062 36.2031 30.5938
L36.2031 6.6875
C36.2031 2.875 35.7969 2.39062 29.4062 2.39062
L29.4062 -0.203125
C31.7969 0 36.2031 0 38.7969 0
C41.4062 0 45.9062 0 48.2969 -0.203125
L48.2969 2.39062
C41.9062 2.39062 41.5 2.78125 41.5 6.6875
z
" id="CMR17-110"/>
      <path d="
M43.0938 21.1875
C43.0938 34 33.7969 44 22.9062 44
C12 44 2.70312 34 2.70312 21.1875
C2.70312 8.60938 12 -1 22.9062 -1
C33.7969 -1 43.0938 8.60938 43.0938 21.1875
M22.9062 0.796875
C18.2031 0.796875 14.2031 3.59375 11.9062 7.5
C9.40625 11.9844 9.09375 17.5938 9.09375 22
C9.09375 26.2031 9.29688 31.4062 11.9062 35.9062
C13.9062 39.2031 17.7969 42.4062 22.9062 42.4062
C27.4062 42.4062 31.2031 39.9062 33.5938 36.4062
C36.7031 31.7031 36.7031 25.1094 36.7031 22
C36.7031 18.0938 36.5 12.1094 33.7969 7.29688
C31 2.70312 26.7031 0.796875 22.9062 0.796875" id="CMR17-111"/>
      <path d="
M26.2969 24.6719
C26.2969 31.8438 25.5938 43.9844 19.5938 56.8281
C14.7969 67.1875 6.59375 74.4531 5.40625 74.4531
C5.09375 74.4531 4.70312 74.3438 4.70312 73.8438
C4.70312 73.6562 4.79688 73.5469 4.90625 73.3438
C9.70312 68.375 21.9062 55.7344 21.9062 24.7812
C21.9062 -6.28125 9.79688 -18.9219 4.90625 -23.9062
C4.79688 -24.0938 4.70312 -24.2031 4.70312 -24.3906
C4.70312 -24.8906 5.09375 -25 5.40625 -25
C6.5 -25 15 -17.625 19.9062 -6.67188
C24.9062 4.375 26.2969 15.125 26.2969 24.6719" id="CMR17-41"/>
      <path d="
M15.2969 68.6875
L3.40625 67.5938
L3.40625 65
C9.29688 65 10.2031 64.4062 10.2031 59.6406
L10.2031 6.65625
C10.2031 2.875 9.79688 2.39062 3.40625 2.39062
L3.40625 -0.203125
C5.79688 0 10.2031 0 12.7031 0
C15.2969 0 19.7031 0 22.0938 -0.203125
L22.0938 2.39062
C15.7031 2.39062 15.2969 2.78125 15.2969 6.65625
z
" id="CMR17-108"/>
     </defs>
     <g transform="translate(830.097778594 374.714725967)rotate(-90.0)scale(0.24 -0.24)">
      <use transform="translate(0.0 24.8232640781)scale(0.996264009963)" xlink:href="#CMR17-80"/>
      <use transform="translate(59.983846586 24.8232640781)scale(0.996264009963)" xlink:href="#CMR17-111"/>
      <use transform="translate(105.674323703 24.8232640781)scale(0.996264009963)" xlink:href="#CMR17-116"/>
      <use transform="translate(140.955091503 24.8232640781)scale(0.996264009963)" xlink:href="#CMR17-101"/>
      <use transform="translate(181.440751965 24.8232640781)scale(0.996264009963)" xlink:href="#CMR17-110"/>
      <use transform="translate(229.733667813 24.8232640781)scale(0.996264009963)" xlink:href="#CMR17-116"/>
      <use transform="translate(265.014435613 24.8232640781)scale(0.996264009963)" xlink:href="#CMR17-105"/>
      <use transform="translate(289.885494094 24.8232640781)scale(0.996264009963)" xlink:href="#CMR17-97"/>
      <use transform="translate(335.575971211 24.8232640781)scale(0.996264009963)" xlink:href="#CMR17-108"/>
      <use transform="translate(390.52299604 24.8232640781)scale(0.996264009963)" xlink:href="#CMR17-101"/>
      <use transform="translate(431.008656503 24.8232640781)scale(0.996264009963)" xlink:href="#CMR17-110"/>
      <use transform="translate(481.904026283 24.8232640781)scale(0.996264009963)" xlink:href="#CMR17-101"/>
      <use transform="translate(522.389686746 24.8232640781)scale(0.996264009963)" xlink:href="#CMR17-114"/>
      <use transform="translate(557.670454545 24.8232640781)scale(0.996264009963)" xlink:href="#CMR17-103"/>
      <use transform="translate(603.360931663 24.8232640781)scale(0.996264009963)" xlink:href="#CMR17-121"/>
      <use transform="translate(681.729813857 24.8232640781)scale(0.996264009963)" xlink:href="#CMR17-111"/>
      <use transform="translate(727.420290974 24.8232640781)scale(0.996264009963)" xlink:href="#CMR17-102"/>
      <use transform="translate(784.969769736 24.8232640781)scale(0.996264009963)" xlink:href="#CMR17-97"/>
      <use transform="translate(830.660246853 24.8232640781)scale(0.996264009963)" xlink:href="#CMR17-110"/>
      <use transform="translate(911.63158298 24.8232640781)scale(0.996264009963)" xlink:href="#CMR17-101"/>
      <use transform="translate(952.117243443 24.8232640781)scale(0.996264009963)" xlink:href="#CMR17-108"/>
      <use transform="translate(976.988301924 24.8232640781)scale(0.996264009963)" xlink:href="#CMR17-101"/>
      <use transform="translate(1017.47396239 24.8232640781)scale(0.996264009963)" xlink:href="#CMR17-99"/>
      <use transform="translate(1057.95962285 24.8232640781)scale(0.996264009963)" xlink:href="#CMR17-116"/>
      <use transform="translate(1093.24039065 24.8232640781)scale(0.996264009963)" xlink:href="#CMR17-114"/>
      <use transform="translate(1128.52115845 24.8232640781)scale(0.996264009963)" xlink:href="#CMR17-111"/>
      <use transform="translate(1174.21163557 24.8232640781)scale(0.996264009963)" xlink:href="#CMR17-110"/>
      <use transform="translate(1255.18297169 24.8232640781)scale(0.996264009963)" xlink:href="#CMR17-40"/>
      <use transform="translate(1290.46373949 24.8232640781)scale(0.996264009963)" xlink:href="#CMR17-101"/>
      <use transform="translate(1330.94939996 24.8232640781)scale(0.996264009963)" xlink:href="#CMR17-86"/>
      <use transform="translate(1400.02182976 24.8232640781)scale(0.996264009963)" xlink:href="#CMR17-41"/>
     </g>
    </g>
   </g>
   <g id="matplotlib.axis_2">
    <g id="xtick_1">
     <g id="line2d_31">
      <defs>
       <path d="
M0 0
L0 4" id="mdad270ee8e" style="stroke:#000000;stroke-linecap:butt;stroke-width:0.5;"/>
      </defs>
      <g>
       <use style="stroke:#000000;stroke-linecap:butt;stroke-width:0.5;" x="133.279860893" xlink:href="#mdad270ee8e" y="13.4784632093"/>
      </g>
     </g>
    </g>
    <g id="xtick_2">
     <g id="line2d_32">
      <g>
       <use style="stroke:#000000;stroke-linecap:butt;stroke-width:0.5;" x="225.638481582" xlink:href="#mdad270ee8e" y="13.4784632093"/>
      </g>
     </g>
    </g>
    <g id="xtick_3">
     <g id="line2d_33">
      <g>
       <use style="stroke:#000000;stroke-linecap:butt;stroke-width:0.5;" x="317.997102272" xlink:href="#mdad270ee8e" y="13.4784632093"/>
      </g>
     </g>
    </g>
    <g id="xtick_4">
     <g id="line2d_34">
      <g>
       <use style="stroke:#000000;stroke-linecap:butt;stroke-width:0.5;" x="410.355722962" xlink:href="#mdad270ee8e" y="13.4784632093"/>
      </g>
     </g>
    </g>
    <g id="xtick_5">
     <g id="line2d_35">
      <g>
       <use style="stroke:#000000;stroke-linecap:butt;stroke-width:0.5;" x="502.714343651" xlink:href="#mdad270ee8e" y="13.4784632093"/>
      </g>
     </g>
    </g>
    <g id="xtick_6">
     <g id="line2d_36">
      <g>
       <use style="stroke:#000000;stroke-linecap:butt;stroke-width:0.5;" x="595.072964341" xlink:href="#mdad270ee8e" y="13.4784632093"/>
      </g>
     </g>
    </g>
    <g id="xtick_7">
     <g id="line2d_37">
      <g>
       <use style="stroke:#000000;stroke-linecap:butt;stroke-width:0.5;" x="687.431585031" xlink:href="#mdad270ee8e" y="13.4784632093"/>
      </g>
     </g>
    </g>
   </g>
   <g id="patch_4">
    <path d="
M756.701 391.478
L756.701 13.4785" style="fill:none;stroke:#000000;"/>
   </g>
   <g id="matplotlib.axis_3">
    <g id="xtick_8">
     <g id="line2d_38">
      <path clip-path="url(#p9eae5ebd90)" d="
M133.28 391.478
L133.28 13.4785" style="fill:none;stroke:#000000;stroke-dasharray:1.000000,3.000000;stroke-dashoffset:0.0;stroke-linecap:butt;stroke-width:0.5;"/>
     </g>
     <g id="line2d_39">
      <defs>
       <path d="
M0 0
L0 -4" id="mcb557df647" style="stroke:#000000;stroke-linecap:butt;stroke-width:0.5;"/>
      </defs>
      <g>
       <use style="stroke:#000000;stroke-linecap:butt;stroke-width:0.5;" x="133.279860893" xlink:href="#mcb557df647" y="391.478463209"/>
      </g>
     </g>
     <g id="text_10">
      <!-- $-6$ -->
      <defs>
       <path d="
M10.5938 34
C10.5938 57.6562 21.7969 63 28.2969 63
C30.4062 63 35.5 62.6406 37.5 59
C35.9062 59 32.9062 59 32.9062 55.5156
C32.9062 52.8281 35.0938 51.9219 36.5 51.9219
C37.4062 51.9219 40.0938 52.3125 40.0938 55.625
C40.0938 61.7812 35.0938 65.2969 28.2031 65.2969
C16.2969 65.2969 3.79688 52.9688 3.79688 31
C3.79688 3.95312 15.0938 -2 23.0938 -2
C32.7969 -2 42 6.67188 42 20.0469
C42 32.5156 33.9062 41.5938 23.7031 41.5938
C17.5938 41.5938 13.0938 37.6094 10.5938 30.625
z

M23.0938 0.390625
C10.7969 0.390625 10.7969 18.75 10.7969 22.4375
C10.7969 29.625 14.2031 40 23.5 40
C25.2031 40 30.0938 40 33.4062 33.125
C35.2031 29.2188 35.2031 25.1406 35.2031 20.1406
C35.2031 14.75 35.2031 10.7812 33.0938 6.78125
C30.9062 2.67188 27.7031 0.390625 23.0938 0.390625" id="CMR17-54"/>
      </defs>
      <g transform="translate(118.498506608 412.88388076)scale(0.24 -0.24)">
       <use transform="translate(0.0 8.30225582289)scale(0.996264009963)" xlink:href="#CMSY10-0"/>
       <use transform="translate(77.4874676506 8.30225582289)scale(0.996264009963)" xlink:href="#CMR17-54"/>
      </g>
     </g>
    </g>
    <g id="xtick_9">
     <g id="line2d_40">
      <path clip-path="url(#p9eae5ebd90)" d="
M225.638 391.478
L225.638 13.4785" style="fill:none;stroke:#000000;stroke-dasharray:1.000000,3.000000;stroke-dashoffset:0.0;stroke-linecap:butt;stroke-width:0.5;"/>
     </g>
     <g id="line2d_41">
      <g>
       <use style="stroke:#000000;stroke-linecap:butt;stroke-width:0.5;" x="225.638481582" xlink:href="#mcb557df647" y="391.478463209"/>
      </g>
     </g>
     <g id="text_11">
      <!-- $-4$ -->
      <defs>
       <path d="
M33.5938 64.3281
C33.5938 66.4062 33.5 66.5 31.7031 66.5
L2 19.5938
L2 17
L27.7969 17
L27.7969 7.14062
C27.7969 3.5 27.5938 2.5 20.5938 2.5
L18.7031 2.5
L18.7031 0
C21.9062 0 27.2969 0 30.7031 0
C34.0938 0 39.5 0 42.7031 0
L42.7031 2.5
L40.7969 2.5
C33.7969 2.5 33.5938 3.5 33.5938 7.14062
L33.5938 17
L43.7969 17
L43.7969 19.5938
L33.5938 19.5938
z

M28.0938 57.7656
L28.0938 19.5938
L4 19.5938
z
" id="CMR17-52"/>
      </defs>
      <g transform="translate(210.857127298 412.88388076)scale(0.24 -0.24)">
       <use transform="translate(0.0 8.30225582289)scale(0.996264009963)" xlink:href="#CMSY10-0"/>
       <use transform="translate(77.4874676506 8.30225582289)scale(0.996264009963)" xlink:href="#CMR17-52"/>
      </g>
     </g>
    </g>
    <g id="xtick_10">
     <g id="line2d_42">
      <path clip-path="url(#p9eae5ebd90)" d="
M317.997 391.478
L317.997 13.4785" style="fill:none;stroke:#000000;stroke-dasharray:1.000000,3.000000;stroke-dashoffset:0.0;stroke-linecap:butt;stroke-width:0.5;"/>
     </g>
     <g id="line2d_43">
      <g>
       <use style="stroke:#000000;stroke-linecap:butt;stroke-width:0.5;" x="317.997102272" xlink:href="#mcb557df647" y="391.478463209"/>
      </g>
     </g>
     <g id="text_12">
      <!-- $-2$ -->
      <g transform="translate(303.215747988 412.88388076)scale(0.24 -0.24)">
       <use transform="translate(0.0 8.30225582289)scale(0.996264009963)" xlink:href="#CMSY10-0"/>
       <use transform="translate(77.4874676506 8.30225582289)scale(0.996264009963)" xlink:href="#CMR17-50"/>
      </g>
     </g>
    </g>
    <g id="xtick_11">
     <g id="line2d_44">
      <path clip-path="url(#p9eae5ebd90)" d="
M410.356 391.478
L410.356 13.4785" style="fill:none;stroke:#000000;stroke-dasharray:1.000000,3.000000;stroke-dashoffset:0.0;stroke-linecap:butt;stroke-width:0.5;"/>
     </g>
     <g id="line2d_45">
      <g>
       <use style="stroke:#000000;stroke-linecap:butt;stroke-width:0.5;" x="410.355722962" xlink:href="#mcb557df647" y="391.478463209"/>
      </g>
     </g>
     <g id="text_13">
      <!-- $0$ -->
      <g transform="translate(404.872865707 410.891337538)scale(0.24 -0.24)">
       <use transform="scale(0.996264009963)" xlink:href="#CMR17-48"/>
      </g>
     </g>
    </g>
    <g id="xtick_12">
     <g id="line2d_46">
      <path clip-path="url(#p9eae5ebd90)" d="
M502.714 391.478
L502.714 13.4785" style="fill:none;stroke:#000000;stroke-dasharray:1.000000,3.000000;stroke-dashoffset:0.0;stroke-linecap:butt;stroke-width:0.5;"/>
     </g>
     <g id="line2d_47">
      <g>
       <use style="stroke:#000000;stroke-linecap:butt;stroke-width:0.5;" x="502.714343651" xlink:href="#mcb557df647" y="391.478463209"/>
      </g>
     </g>
     <g id="text_14">
      <!-- $2$ -->
      <g transform="translate(497.231486397 410.891337538)scale(0.24 -0.24)">
       <use transform="scale(0.996264009963)" xlink:href="#CMR17-50"/>
      </g>
     </g>
    </g>
    <g id="xtick_13">
     <g id="line2d_48">
      <path clip-path="url(#p9eae5ebd90)" d="
M595.073 391.478
L595.073 13.4785" style="fill:none;stroke:#000000;stroke-dasharray:1.000000,3.000000;stroke-dashoffset:0.0;stroke-linecap:butt;stroke-width:0.5;"/>
     </g>
     <g id="line2d_49">
      <g>
       <use style="stroke:#000000;stroke-linecap:butt;stroke-width:0.5;" x="595.072964341" xlink:href="#mcb557df647" y="391.478463209"/>
      </g>
     </g>
     <g id="text_15">
      <!-- $4$ -->
      <g transform="translate(589.590107087 410.891337538)scale(0.24 -0.24)">
       <use transform="scale(0.996264009963)" xlink:href="#CMR17-52"/>
      </g>
     </g>
    </g>
    <g id="xtick_14">
     <g id="line2d_50">
      <path clip-path="url(#p9eae5ebd90)" d="
M687.432 391.478
L687.432 13.4785" style="fill:none;stroke:#000000;stroke-dasharray:1.000000,3.000000;stroke-dashoffset:0.0;stroke-linecap:butt;stroke-width:0.5;"/>
     </g>
     <g id="line2d_51">
      <g>
       <use style="stroke:#000000;stroke-linecap:butt;stroke-width:0.5;" x="687.431585031" xlink:href="#mcb557df647" y="391.478463209"/>
      </g>
     </g>
     <g id="text_16">
      <!-- $6$ -->
      <g transform="translate(681.948727776 410.891337538)scale(0.24 -0.24)">
       <use transform="scale(0.996264009963)" xlink:href="#CMR17-54"/>
      </g>
     </g>
    </g>
    <g id="text_17">
     <!-- Position (Bohr) -->
     <defs>
      <path d="
M41.5 30.2031
C41.5 35.2969 40.5 43.5938 28.7031 43.5938
C20.5 43.5938 16.5 37 15.2969 33.7031
L15.2031 33.7031
L15.2031 68.6875
L3.29688 67.5938
L3.29688 65
C9.20312 65 10.0938 64.4062 10.0938 59.6406
L10.0938 6.65625
C10.0938 2.875 9.70312 2.39062 3.29688 2.39062
L3.29688 -0.203125
C5.70312 0 10.0938 0 12.7031 0
C15.2969 0 19.7969 0 22.2031 -0.203125
L22.2031 2.39062
C15.7969 2.39062 15.4062 2.78125 15.4062 6.6875
L15.4062 25.9062
C15.4062 35.1094 21 42 28 42
C35.4062 42 36.2031 35.4062 36.2031 30.5938
L36.2031 6.6875
C36.2031 2.875 35.7969 2.39062 29.4062 2.39062
L29.4062 -0.203125
C31.7969 0 36.2031 0 38.7969 0
C41.4062 0 45.9062 0 48.2969 -0.203125
L48.2969 2.39062
C41.9062 2.39062 41.5 2.78125 41.5 6.6875
z
" id="CMR17-104"/>
      <path d="
M30.9062 42.1094
C30.9062 43.9062 30.7969 44 30.2031 44
C29.7969 44 29.7031 43.9062 28.5 42.4219
C28.2031 42.0156 27.2969 41.0156 27 40.625
C23.7969 44 19.2969 44 17.5938 44
C6.5 44 2.5 38.1719 2.5 32.375
C2.5 23.3438 12.7031 21.25 15.5938 20.6406
C21.9062 19.3438 24.0938 18.9375 26.2031 17.125
C27.5 15.9375 29.7031 13.7344 29.7031 10.125
C29.7031 5.90625 27.2969 0.5 18.0938 0.5
C9.40625 0.5 6.29688 7.0625 4.5 15.8281
C4.20312 17.2188 4.20312 17.3281 3.40625 17.3281
C2.59375 17.3281 2.5 17.2188 2.5 15.2344
L2.5 0.890625
C2.5 -0.890625 2.59375 -1 3.20312 -1
C3.70312 -1 3.79688 -0.890625 4.29688 -0.09375
C4.90625 0.796875 6.40625 3.1875 7 4.1875
C9 1.54688 12.5 -1 18.0938 -1
C28 -1 33.2969 4.40625 33.2969 12.2344
C33.2969 17.3438 30.5938 20.0625 29.2969 21.25
C26.2969 24.375 22.7969 25.0625 18.5938 25.8594
C13.0938 27.0781 6.09375 28.4688 6.09375 34.5938
C6.09375 37.1875 7.5 42.7188 17.5938 42.7188
C28.2969 42.7188 28.9062 32.75 29.0938 29.5625
C29.2031 29.0781 29.7031 28.9688 30 28.9688
C30.9062 28.9688 30.9062 29.2812 30.9062 30.9688
z
" id="CMR17-115"/>
      <path d="
M5.20312 68
L5.20312 65.4062
C12.0938 65.4062 13.2031 65.4062 13.2031 60.9375
L13.2031 7.0625
C13.2031 2.59375 12.0938 2.59375 5.20312 2.59375
L5.20312 0
L39.5938 0
C52.4062 0 60.7031 9.10938 60.7031 18.1875
C60.7031 27.2031 52.5 34.8906 41.7969 34.8906
C51.4062 36.8125 58.0938 43.2969 58.0938 51
C58.0938 59.4062 49.9062 68 37 68
z

M19.5 36
L19.5 61.5156
C19.5 64.9219 19.7031 65.4062 23.7031 65.4062
L36.5 65.4062
C46.4062 65.4062 50.7969 57.4062 50.7969 51.2031
C50.7969 43.6094 44.7031 36 33.9062 36
z

M23.7031 2.59375
C19.7031 2.59375 19.5 3.07812 19.5 6.45312
L19.5 34.4062
L38 34.4062
C48.2969 34.4062 53.2969 25.3906 53.2969 18.1562
C53.2969 10.9219 47.5938 2.59375 36.7031 2.59375
z
" id="CMR17-66"/>
     </defs>
     <g transform="translate(347.407294362 441.752685729)scale(0.24 -0.24)">
      <use transform="translate(0.0 24.8232640781)scale(0.996264009963)" xlink:href="#CMR17-80"/>
      <use transform="translate(59.983846586 24.8232640781)scale(0.996264009963)" xlink:href="#CMR17-111"/>
      <use transform="translate(105.674323703 24.8232640781)scale(0.996264009963)" xlink:href="#CMR17-115"/>
      <use transform="translate(141.475661338 24.8232640781)scale(0.996264009963)" xlink:href="#CMR17-105"/>
      <use transform="translate(166.34671982 24.8232640781)scale(0.996264009963)" xlink:href="#CMR17-116"/>
      <use transform="translate(201.62748762 24.8232640781)scale(0.996264009963)" xlink:href="#CMR17-105"/>
      <use transform="translate(226.498546102 24.8232640781)scale(0.996264009963)" xlink:href="#CMR17-111"/>
      <use transform="translate(272.189023219 24.8232640781)scale(0.996264009963)" xlink:href="#CMR17-110"/>
      <use transform="translate(353.160359346 24.8232640781)scale(0.996264009963)" xlink:href="#CMR17-40"/>
      <use transform="translate(388.441127145 24.8232640781)scale(0.996264009963)" xlink:href="#CMR17-66"/>
      <use transform="translate(453.629881596 24.8232640781)scale(0.996264009963)" xlink:href="#CMR17-111"/>
      <use transform="translate(499.320358713 24.8232640781)scale(0.996264009963)" xlink:href="#CMR17-104"/>
      <use transform="translate(550.215728494 24.8232640781)scale(0.996264009963)" xlink:href="#CMR17-114"/>
      <use transform="translate(585.496496293 24.8232640781)scale(0.996264009963)" xlink:href="#CMR17-41"/>
     </g>
    </g>
   </g>
   <g id="matplotlib.axis_4">
    <g id="ytick_9">
     <g id="line2d_52">
      <path clip-path="url(#p9eae5ebd90)" d="
M87.1006 341.078
L756.701 341.078" style="fill:none;stroke:#000000;stroke-dasharray:1.000000,3.000000;stroke-dashoffset:0.0;stroke-linecap:butt;stroke-width:0.5;"/>
     </g>
     <g id="line2d_53">
      <defs>
       <path d="
M0 0
L4 0" id="mc8fcea1516" style="stroke:#000000;stroke-linecap:butt;stroke-width:0.5;"/>
      </defs>
      <g>
       <use style="stroke:#000000;stroke-linecap:butt;stroke-width:0.5;" x="87.1005505478" xlink:href="#mc8fcea1516" y="341.078463209"/>
      </g>
     </g>
     <g id="text_18">
      <!-- $-1.0$ -->
      <defs>
       <path d="
M18.4062 4.79688
C18.4062 7.6875 16 9.67188 13.5938 9.67188
C10.7031 9.67188 8.70312 7.28125 8.70312 4.89062
C8.70312 2 11.0938 0 13.5 0
C16.4062 0 18.4062 2.39062 18.4062 4.79688" id="CMMI12-58"/>
      </defs>
      <g transform="translate(36.0688049696 349.781171984)scale(0.24 -0.24)">
       <use transform="translate(0.0 8.30225582289)scale(0.996264009963)" xlink:href="#CMSY10-0"/>
       <use transform="translate(77.4874676506 8.30225582289)scale(0.996264009963)" xlink:href="#CMR17-49"/>
       <use transform="translate(123.177944768 8.30225582289)scale(0.996264009963)" xlink:href="#CMMI12-58"/>
       <use transform="translate(150.275121857 8.30225582289)scale(0.996264009963)" xlink:href="#CMR17-48"/>
      </g>
     </g>
    </g>
    <g id="ytick_10">
     <g id="line2d_54">
      <path clip-path="url(#p9eae5ebd90)" d="
M87.1006 290.678
L756.701 290.678" style="fill:none;stroke:#000000;stroke-dasharray:1.000000,3.000000;stroke-dashoffset:0.0;stroke-linecap:butt;stroke-width:0.5;"/>
     </g>
     <g id="line2d_55">
      <g>
       <use style="stroke:#000000;stroke-linecap:butt;stroke-width:0.5;" x="87.1005505478" xlink:href="#mc8fcea1516" y="290.678463209"/>
      </g>
     </g>
     <g id="text_19">
      <!-- $-0.8$ -->
      <defs>
       <path d="
M27.2031 35.375
C33.5 38.5625 39.9062 43.3281 39.9062 50.9844
C39.9062 60.0312 31.0938 65.2969 23 65.2969
C13.9062 65.2969 5.90625 58.7344 5.90625 49.6875
C5.90625 47.2031 6.5 42.9219 10.4062 39.1406
C11.4062 38.1562 15.5938 35.1719 18.2969 33.2812
C13.7969 30.9844 3.29688 25.5312 3.29688 14.5938
C3.29688 4.35938 13.0938 -2 22.7969 -2
C33.5 -2 42.5 5.65625 42.5 15.7969
C42.5 24.8438 36.4062 29.0312 32.4062 31.7031
z

M14.0938 44.125
C13.2969 44.625 9.29688 47.7031 9.29688 52.375
C9.29688 58.4375 15.5938 63 22.7969 63
C30.7031 63 36.5 57.4531 36.5 50.9844
C36.5 41.7344 26.0938 36.4688 25.5938 36.4688
C25.5 36.4688 25.4062 36.4688 24.5938 37.0781
z

M32.5 23.7344
C34 22.6406 38.7969 19.375 38.7969 13.2969
C38.7969 5.95312 31.4062 0.390625 23 0.390625
C13.9062 0.390625 7 6.84375 7 14.6875
C7 22.5469 13.0938 29.0938 20 32.1875
z
" id="CMR17-56"/>
      </defs>
      <g transform="translate(36.0688049696 299.381171984)scale(0.24 -0.24)">
       <use transform="translate(0.0 8.30225582289)scale(0.996264009963)" xlink:href="#CMSY10-0"/>
       <use transform="translate(77.4874676506 8.30225582289)scale(0.996264009963)" xlink:href="#CMR17-48"/>
       <use transform="translate(123.177944768 8.30225582289)scale(0.996264009963)" xlink:href="#CMMI12-58"/>
       <use transform="translate(150.275121857 8.30225582289)scale(0.996264009963)" xlink:href="#CMR17-56"/>
      </g>
     </g>
    </g>
    <g id="ytick_11">
     <g id="line2d_56">
      <path clip-path="url(#p9eae5ebd90)" d="
M87.1006 240.278
L756.701 240.278" style="fill:none;stroke:#000000;stroke-dasharray:1.000000,3.000000;stroke-dashoffset:0.0;stroke-linecap:butt;stroke-width:0.5;"/>
     </g>
     <g id="line2d_57">
      <g>
       <use style="stroke:#000000;stroke-linecap:butt;stroke-width:0.5;" x="87.1005505478" xlink:href="#mc8fcea1516" y="240.278463209"/>
      </g>
     </g>
     <g id="text_20">
      <!-- $-0.6$ -->
      <g transform="translate(36.0688049696 248.981171984)scale(0.24 -0.24)">
       <use transform="translate(0.0 8.30225582289)scale(0.996264009963)" xlink:href="#CMSY10-0"/>
       <use transform="translate(77.4874676506 8.30225582289)scale(0.996264009963)" xlink:href="#CMR17-48"/>
       <use transform="translate(123.177944768 8.30225582289)scale(0.996264009963)" xlink:href="#CMMI12-58"/>
       <use transform="translate(150.275121857 8.30225582289)scale(0.996264009963)" xlink:href="#CMR17-54"/>
      </g>
     </g>
    </g>
    <g id="ytick_12">
     <g id="line2d_58">
      <path clip-path="url(#p9eae5ebd90)" d="
M87.1006 189.878
L756.701 189.878" style="fill:none;stroke:#000000;stroke-dasharray:1.000000,3.000000;stroke-dashoffset:0.0;stroke-linecap:butt;stroke-width:0.5;"/>
     </g>
     <g id="line2d_59">
      <g>
       <use style="stroke:#000000;stroke-linecap:butt;stroke-width:0.5;" x="87.1005505478" xlink:href="#mc8fcea1516" y="189.878463209"/>
      </g>
     </g>
     <g id="text_21">
      <!-- $-0.4$ -->
      <g transform="translate(36.0688049696 198.581171984)scale(0.24 -0.24)">
       <use transform="translate(0.0 8.30225582289)scale(0.996264009963)" xlink:href="#CMSY10-0"/>
       <use transform="translate(77.4874676506 8.30225582289)scale(0.996264009963)" xlink:href="#CMR17-48"/>
       <use transform="translate(123.177944768 8.30225582289)scale(0.996264009963)" xlink:href="#CMMI12-58"/>
       <use transform="translate(150.275121857 8.30225582289)scale(0.996264009963)" xlink:href="#CMR17-52"/>
      </g>
     </g>
    </g>
    <g id="ytick_13">
     <g id="line2d_60">
      <path clip-path="url(#p9eae5ebd90)" d="
M87.1006 139.478
L756.701 139.478" style="fill:none;stroke:#000000;stroke-dasharray:1.000000,3.000000;stroke-dashoffset:0.0;stroke-linecap:butt;stroke-width:0.5;"/>
     </g>
     <g id="line2d_61">
      <g>
       <use style="stroke:#000000;stroke-linecap:butt;stroke-width:0.5;" x="87.1005505478" xlink:href="#mc8fcea1516" y="139.478463209"/>
      </g>
     </g>
     <g id="text_22">
      <!-- $-0.2$ -->
      <g transform="translate(36.0688049696 148.181171984)scale(0.24 -0.24)">
       <use transform="translate(0.0 8.30225582289)scale(0.996264009963)" xlink:href="#CMSY10-0"/>
       <use transform="translate(77.4874676506 8.30225582289)scale(0.996264009963)" xlink:href="#CMR17-48"/>
       <use transform="translate(123.177944768 8.30225582289)scale(0.996264009963)" xlink:href="#CMMI12-58"/>
       <use transform="translate(150.275121857 8.30225582289)scale(0.996264009963)" xlink:href="#CMR17-50"/>
      </g>
     </g>
    </g>
    <g id="ytick_14">
     <g id="line2d_62">
      <path clip-path="url(#p9eae5ebd90)" d="
M87.1006 89.0785
L756.701 89.0785" style="fill:none;stroke:#000000;stroke-dasharray:1.000000,3.000000;stroke-dashoffset:0.0;stroke-linecap:butt;stroke-width:0.5;"/>
     </g>
     <g id="line2d_63">
      <g>
       <use style="stroke:#000000;stroke-linecap:butt;stroke-width:0.5;" x="87.1005505478" xlink:href="#mc8fcea1516" y="89.0784632093"/>
      </g>
     </g>
     <g id="text_23">
      <!-- $0.0$ -->
      <g transform="translate(54.66579903 96.7849003736)scale(0.24 -0.24)">
       <use transform="scale(0.996264009963)" xlink:href="#CMR17-48"/>
       <use transform="translate(45.6904771171 0.0)scale(0.996264009963)" xlink:href="#CMMI12-58"/>
       <use transform="translate(72.7876542069 0.0)scale(0.996264009963)" xlink:href="#CMR17-48"/>
      </g>
     </g>
    </g>
    <g id="ytick_15">
     <g id="line2d_64">
      <path clip-path="url(#p9eae5ebd90)" d="
M87.1006 38.6785
L756.701 38.6785" style="fill:none;stroke:#000000;stroke-dasharray:1.000000,3.000000;stroke-dashoffset:0.0;stroke-linecap:butt;stroke-width:0.5;"/>
     </g>
     <g id="line2d_65">
      <g>
       <use style="stroke:#000000;stroke-linecap:butt;stroke-width:0.5;" x="87.1005505478" xlink:href="#mc8fcea1516" y="38.6784632093"/>
      </g>
     </g>
     <g id="text_24">
      <!-- $0.2$ -->
      <g transform="translate(54.66579903 46.3849003736)scale(0.24 -0.24)">
       <use transform="scale(0.996264009963)" xlink:href="#CMR17-48"/>
       <use transform="translate(45.6904771171 0.0)scale(0.996264009963)" xlink:href="#CMMI12-58"/>
       <use transform="translate(72.7876542069 0.0)scale(0.996264009963)" xlink:href="#CMR17-50"/>
      </g>
     </g>
    </g>
    <g id="text_25">
     <!-- Potential energy of an electron (Hartree) -->
     <defs>
      <path d="
M56.0938 61.0156
C56.0938 65.5 57.2031 65.5 64.0938 65.5
L64.0938 68
C61.2031 68 55.9062 68 52.7969 68
C49.7031 68 44.4062 68 41.5 68
L41.5 65.5
C48.4062 65.5 49.5 65.5 49.5 61
L49.5 36.5781
L19.7031 36.5781
L19.7031 61
C19.7031 65.5 20.7969 65.5 27.7031 65.5
L27.7031 68
C24.7969 68 19.5 68 16.4062 68
C13.2969 68 8 68 5.09375 68
L5.09375 65.5
C12 65.5 13.0938 65.5 13.0938 61.0156
L13.0938 6.98438
C13.0938 2.5 12 2.5 5.09375 2.5
L5.09375 0
C8 0 13.2969 0 16.4062 0
C19.5 0 24.7969 0 27.7031 0
L27.7031 2.5
C20.7969 2.5 19.7031 2.5 19.7031 6.96875
L19.7031 34
L49.5 34
L49.5 6.96875
C49.5 2.5 48.4062 2.5 41.5 2.5
L41.5 0
C44.4062 0 49.7031 0 52.7969 0
C55.9062 0 61.2031 0 64.0938 0
L64.0938 2.5
C57.2031 2.5 56.0938 2.5 56.0938 6.98438
z
" id="CMR17-72"/>
     </defs>
     <g transform="translate(31.0688049696 397.756926419)rotate(-90.0)scale(0.24 -0.24)">
      <use transform="translate(0.0 24.8232640781)scale(0.996264009963)" xlink:href="#CMR17-80"/>
      <use transform="translate(59.983846586 24.8232640781)scale(0.996264009963)" xlink:href="#CMR17-111"/>
      <use transform="translate(105.674323703 24.8232640781)scale(0.996264009963)" xlink:href="#CMR17-116"/>
      <use transform="translate(140.955091503 24.8232640781)scale(0.996264009963)" xlink:href="#CMR17-101"/>
      <use transform="translate(181.440751965 24.8232640781)scale(0.996264009963)" xlink:href="#CMR17-110"/>
      <use transform="translate(229.733667813 24.8232640781)scale(0.996264009963)" xlink:href="#CMR17-116"/>
      <use transform="translate(265.014435613 24.8232640781)scale(0.996264009963)" xlink:href="#CMR17-105"/>
      <use transform="translate(289.885494094 24.8232640781)scale(0.996264009963)" xlink:href="#CMR17-97"/>
      <use transform="translate(335.575971211 24.8232640781)scale(0.996264009963)" xlink:href="#CMR17-108"/>
      <use transform="translate(390.52299604 24.8232640781)scale(0.996264009963)" xlink:href="#CMR17-101"/>
      <use transform="translate(431.008656503 24.8232640781)scale(0.996264009963)" xlink:href="#CMR17-110"/>
      <use transform="translate(481.904026283 24.8232640781)scale(0.996264009963)" xlink:href="#CMR17-101"/>
      <use transform="translate(522.389686746 24.8232640781)scale(0.996264009963)" xlink:href="#CMR17-114"/>
      <use transform="translate(557.670454545 24.8232640781)scale(0.996264009963)" xlink:href="#CMR17-103"/>
      <use transform="translate(603.360931663 24.8232640781)scale(0.996264009963)" xlink:href="#CMR17-121"/>
      <use transform="translate(681.729813857 24.8232640781)scale(0.996264009963)" xlink:href="#CMR17-111"/>
      <use transform="translate(727.420290974 24.8232640781)scale(0.996264009963)" xlink:href="#CMR17-102"/>
      <use transform="translate(784.969769736 24.8232640781)scale(0.996264009963)" xlink:href="#CMR17-97"/>
      <use transform="translate(830.660246853 24.8232640781)scale(0.996264009963)" xlink:href="#CMR17-110"/>
      <use transform="translate(911.63158298 24.8232640781)scale(0.996264009963)" xlink:href="#CMR17-101"/>
      <use transform="translate(952.117243443 24.8232640781)scale(0.996264009963)" xlink:href="#CMR17-108"/>
      <use transform="translate(976.988301924 24.8232640781)scale(0.996264009963)" xlink:href="#CMR17-101"/>
      <use transform="translate(1017.47396239 24.8232640781)scale(0.996264009963)" xlink:href="#CMR17-99"/>
      <use transform="translate(1057.95962285 24.8232640781)scale(0.996264009963)" xlink:href="#CMR17-116"/>
      <use transform="translate(1093.24039065 24.8232640781)scale(0.996264009963)" xlink:href="#CMR17-114"/>
      <use transform="translate(1128.52115845 24.8232640781)scale(0.996264009963)" xlink:href="#CMR17-111"/>
      <use transform="translate(1174.21163557 24.8232640781)scale(0.996264009963)" xlink:href="#CMR17-110"/>
      <use transform="translate(1255.18297169 24.8232640781)scale(0.996264009963)" xlink:href="#CMR17-40"/>
      <use transform="translate(1290.46373949 24.8232640781)scale(0.996264009963)" xlink:href="#CMR17-72"/>
      <use transform="translate(1359.5361693 24.8232640781)scale(0.996264009963)" xlink:href="#CMR17-97"/>
      <use transform="translate(1405.22664641 24.8232640781)scale(0.996264009963)" xlink:href="#CMR17-114"/>
      <use transform="translate(1440.50741421 24.8232640781)scale(0.996264009963)" xlink:href="#CMR17-116"/>
      <use transform="translate(1475.78818201 24.8232640781)scale(0.996264009963)" xlink:href="#CMR17-114"/>
      <use transform="translate(1511.06894981 24.8232640781)scale(0.996264009963)" xlink:href="#CMR17-101"/>
      <use transform="translate(1551.55461027 24.8232640781)scale(0.996264009963)" xlink:href="#CMR17-101"/>
      <use transform="translate(1592.04027074 24.8232640781)scale(0.996264009963)" xlink:href="#CMR17-41"/>
     </g>
    </g>
   </g>
   <g id="patch_5">
    <path d="
M87.1006 391.478
L756.701 391.478" style="fill:none;stroke:#000000;"/>
   </g>
   <g id="patch_6">
    <path d="
M87.1006 391.478
L87.1006 13.4785" style="fill:none;stroke:#000000;"/>
   </g>
   <g id="patch_7">
    <path clip-path="url(#p9eae5ebd90)" d="
M410.356 91.0805
Q410.356 131.08 410.356 168.843" style="fill:none;stroke:#ff0000;stroke-linecap:round;stroke-width:2.0;"/>
    <path clip-path="url(#p9eae5ebd90)" d="
M415.156 159.243
L410.356 168.843
L405.556 159.243
L415.156 159.243
z
" style="fill:#ff0000;stroke:#ff0000;stroke-linecap:round;stroke-width:2.0;"/>
   </g>
   <g id="text_26">
    <!-- $U_b$ -->
    <defs>
     <path d="
M23.0938 66.5156
C23.2031 66.9219 23.4062 67.5156 23.4062 68.0156
C23.4062 69 22.4062 69 22.2031 69
C22.0938 69 18.5 68.6406 16.7031 68.3906
C15 68.3906 13.5 68.0938 11.7031 68.0938
C9.29688 67.8906 8.59375 67.7969 8.59375 66
C8.59375 65 9.59375 65 10.5938 65
C15.7031 65 15.7031 64.0938 15.7031 63.0938
C15.7031 62.4219 14.9062 59.5156 14.5 57.7344
L12.0938 48.1875
C11.0938 44.2188 5.40625 21.6562 5 19.875
C4.5 17.3906 4.5 15.7031 4.5 14.4062
C4.5 4.28125 10.2031 -1 16.7031 -1
C28.2969 -1 40.2969 13.875 40.2969 28.3438
C40.2969 37.5156 35.0938 44 27.5938 44
C22.4062 44 17.7031 39.7188 15.7969 37.7188
z

M16.7969 1
C13.5938 1 10.0938 3.39062 10.0938 11.1719
C10.0938 14.4688 10.4062 16.3594 12.2031 23.3438
C12.5 24.6406 14.0938 31.0312 14.5 32.3281
C14.7031 33.125 20.5938 42.0156 27.4062 42.0156
C31.7969 42.0156 33.7969 37.625 33.7969 32.4375
C33.7969 27.6406 31 16.3594 28.5 11.1719
C26 5.78125 21.4062 1 16.7969 1" id="CMMI12-98"/>
     <path d="
M50.5938 23.0312
C47.0938 9.07812 35.5 0.890625 26.0938 0.890625
C18.9062 0.890625 14 5.67188 14 13.9219
C14 14.3125 14 17.2969 15.0938 21.6719
L24.9062 60.7344
C25.7969 64.1094 26 65.1094 33.0938 65.1094
C34.9062 65.1094 35.9062 65.1094 35.9062 66.9062
C35.9062 68 35 68 34.4062 68
C32.5938 68 30.5 68 28.5938 68
L16.7969 68
C14.9062 68 12.7969 68 10.9062 68
C10.2031 68 9 68 9 66.1094
C9 65.1094 9.70312 65.1094 11.5938 65.1094
C17.5938 65.1094 17.5938 64.3125 17.5938 63.2031
C17.5938 62.625 16.9062 59.7344 16.4062 58.0469
L7.70312 23.25
C7.40625 22.1562 6.79688 19.4688 6.79688 16.7969
C6.79688 5.84375 14.7031 -2 25.5938 -2
C35.7031 -2 46.9062 6 52 18.7031
C52.7031 20.3906 53.5938 23.9062 54.2031 26.5938
C55.2031 30.2031 57.2969 39 58 41.5938
L61.7969 56.6094
C63.0938 61.8125 63.9062 65.1094 72.7031 65.1094
C73.5 65.2031 73.9062 66 73.9062 66.9062
C73.9062 68 73 68 72.5938 68
C71.2031 68 69.4062 68 68 68
L63.2969 68
C57.0938 68 53.9062 68 53.7969 68
C53.2031 68 52 68 52 66.1094
C52 65.1094 52.7969 65.1094 53.5 65.1094
C59.5 65.1094 59.9062 62.8125 59.9062 61.0156
C59.9062 60.125 59.9062 59.8125 59.5 58.4219
z
" id="CMMI12-85"/>
    </defs>
    <g style="fill:#ff0000;" transform="translate(410.355722962 141.041095708)scale(0.24 -0.24)">
     <use transform="translate(0.0 14.9439145441)scale(0.996264009963)" xlink:href="#CMMI12-85"/>
     <use transform="translate(66.2521191285 0.0)scale(0.697381766617)" xlink:href="#CMMI12-98"/>
    </g>
   </g>
   <g id="patch_8">
    <path clip-path="url(#p9eae5ebd90)" d="
M592.764 91.0793
Q592.764 153.736 592.764 214.157" style="fill:none;stroke:#008000;stroke-linecap:round;stroke-width:2.0;"/>
    <path clip-path="url(#p9eae5ebd90)" d="
M597.564 204.557
L592.764 214.157
L587.964 204.557
L597.564 204.557
z
" style="fill:#008000;stroke:#008000;stroke-linecap:round;stroke-width:2.0;"/>
   </g>
   <g id="text_27">
    <!-- $U_e$ -->
    <defs>
     <path d="
M17.9062 23.1094
C20.5938 23.1094 27.4062 23.1094 32.2031 24.9219
C39.7969 27.8594 40.5 33.7188 40.5 35.5312
C40.5 39.9688 36.7031 44 30.0938 44
C19.5938 44 4.5 34.5312 4.5 16.7656
C4.5 6.28125 10.5 -1 19.5938 -1
C33.2031 -1 41.7969 9.53125 41.7969 10.8125
C41.7969 11.4062 41.2031 11.9062 40.7969 11.9062
C40.5 11.9062 40.4062 11.8125 39.5 10.9219
C33.0938 2.48438 23.5938 1 19.7969 1
C14.0938 1 11.0938 5.46875 11.0938 12.8438
C11.0938 14.2344 11.0938 16.7344 12.5938 23.1094
z

M13.0938 25
C17.4062 40.5 26.9062 42.0156 30.0938 42.0156
C34.5 42.0156 37.5 39.4062 37.5 35.5781
C37.5 25 21.5 25 17.2969 25
z
" id="CMMI12-101"/>
    </defs>
    <g style="fill:#008000;" transform="translate(569.267926356 163.698990445)scale(0.24 -0.24)">
     <use transform="translate(0.0 14.9439145441)scale(0.996264009963)" xlink:href="#CMMI12-85"/>
     <use transform="translate(66.2521191285 0.0)scale(0.697381766617)" xlink:href="#CMMI12-101"/>
    </g>
   </g>
   <g id="patch_9">
    <path clip-path="url(#p9eae5ebd90)" d="
M597.382 216.396
Q597.382 123.895 597.382 33.6306" style="fill:none;stroke:#008000;stroke-linecap:round;stroke-width:2.0;"/>
    <path clip-path="url(#p9eae5ebd90)" d="
M592.582 43.2306
L597.382 33.6306
L602.182 43.2306
L592.582 43.2306
z
" style="fill:#008000;stroke:#008000;stroke-linecap:round;stroke-width:2.0;"/>
   </g>
   <g id="text_28">
    <!-- $K_e$ -->
    <defs>
     <path d="
M50 40.1719
C49.9062 40.4688 49.5 41.2656 49.5 41.5781
C49.5 41.6719 49.5938 41.7656 51.2969 43.0625
L61 50.6562
C74.4062 61.0156 78.7969 64.5 85.7031 65.1094
C86.4062 65.2031 87.4062 65.2031 87.4062 66.9062
C87.4062 67.5 87.0938 68 86.2969 68
C85.2031 68 84 68 82.9062 68
L79.0938 68
C76 68 72.7031 68 69.7031 68
C69 68 67.7969 68 67.7969 66.2656
C67.7969 65.2969 68.5 65.2031 69.0938 65.2031
C70.2031 65.0938 71.5 64.7031 71.5 63.2969
C71.5 61.3125 68.5 58.9062 67.7031 58.3125
L28.5 27.875
L36.7969 60.8125
C37.7031 64.2031 37.9062 65.2031 45 65.2031
C46.9062 65.2031 47.7969 65.2031 47.7969 67.0312
C47.7969 68 46.7969 68 46.2969 68
C44.5 68 42.4062 68 40.5 68
L28.7031 68
C26.9062 68 24.7031 68 22.9062 68
C22.0938 68 21 68 21 66.1719
C21 65.2031 21.9062 65.2031 23.4062 65.2031
C29.5 65.2031 29.5 64.4062 29.5 63.2969
C29.5 63.1094 29.5 62.5 29.0938 61
L15.5938 7.39062
C14.7031 3.89062 14.5 2.89062 7.5 2.89062
C5.59375 2.89062 4.59375 2.89062 4.59375 1.09375
C4.59375 0 5.5 0 6.09375 0
C8 0 10 0 11.9062 0
L23.5938 0
C25.5 0 27.5938 0 29.5 0
C30.2969 0 31.4062 0 31.4062 1.89062
C31.4062 2.89062 30.5 2.89062 29 2.89062
C22.9062 2.89062 22.9062 3.6875 22.9062 4.6875
C22.9062 5.39062 23.5 7.875 23.9062 9.46875
L27.7969 24.8906
L43 36.7344
C45.9062 30.3438 51.2031 17.5469 55.2969 7.78125
C55.5938 7.17188 55.7969 6.57812 55.7969 5.875
C55.7969 2.89062 51.7969 2.89062 50.9062 2.89062
C50 2.89062 49 2.89062 49 1
C49 0 50.0938 0 50.4062 0
C53.9062 0 57.5938 0 61.0938 0
L65.9062 0
C67.4062 0 69.0938 0 70.5938 0
C71.2031 0 72.2969 0 72.2969 1.89062
C72.2969 2.89062 71.4062 2.89062 70.4062 2.89062
C66.7031 2.89062 65.4062 3.6875 63.9062 7.28125
z
" id="CMMI12-75"/>
    </defs>
    <g style="fill:#008000;" transform="translate(597.381929858 133.856885182)scale(0.24 -0.24)">
     <use transform="translate(0.0 14.9439145441)scale(0.996264009963)" xlink:href="#CMMI12-75"/>
     <use transform="translate(82.9926107176 0.0)scale(0.697381766617)" xlink:href="#CMMI12-101"/>
    </g>
   </g>
   <g id="patch_10">
    <path clip-path="url(#p9eae5ebd90)" d="
M595.073 87.0785
Q595.073 59.2381 595.073 33.6336" style="fill:none;stroke:#008000;stroke-linecap:round;stroke-width:2.0;"/>
    <path clip-path="url(#p9eae5ebd90)" d="
M590.273 43.2336
L595.073 33.6336
L599.873 43.2336
L590.273 43.2336
z
" style="fill:#008000;stroke:#008000;stroke-linecap:round;stroke-width:2.0;"/>
   </g>
   <g id="text_29">
    <!--  $E_e$ -->
    <defs>
     <path d="
M69.5 23.2656
C69.5938 23.5625 69.9062 24.2812 69.9062 24.6719
C69.9062 25.1719 69.5 25.6719 68.9062 25.6719
C68.5 25.6719 68.2969 25.5781 68 25.2656
C67.7969 25.1719 67.7969 24.9688 66.9062 22.9531
C61 8.90625 56.7031 2.89062 40.7031 2.89062
L26.0938 2.89062
C24.7031 2.89062 24.5 2.89062 23.9062 3
C22.7969 3.09375 22.7031 3.29688 22.7031 4.09375
C22.7031 4.8125 22.9062 5.40625 23.0938 6.29688
L30 34
L39.9062 34
C47.7031 34 48.2969 32.2812 48.2969 29.2812
C48.2969 28.2812 48.2969 27.375 47.5938 24.375
C47.4062 23.9688 47.2969 23.5625 47.2969 23.2656
C47.2969 22.5625 47.7969 22.2656 48.4062 22.2656
C49.2969 22.2656 49.4062 22.9531 49.7969 24.3594
L55.5 47.5156
C55.5 48 55.0938 48.5 54.5 48.5
C53.5938 48.5 53.5 48.1094 53.0938 46.7188
C51.0938 39.0781 49.0938 36.8906 40.2031 36.8906
L30.7031 36.8906
L36.9062 61.3281
C37.7969 64.8125 38 65.1094 42.0938 65.1094
L56.4062 65.1094
C68.7031 65.1094 71.2031 61.8281 71.2031 54.2812
C71.2031 54.1719 71.2031 51.4062 70.7969 48.1094
C70.7031 47.7188 70.5938 47.125 70.5938 46.9219
C70.5938 46.125 71.0938 45.8281 71.7031 45.8281
C72.4062 45.8281 72.7969 46.2344 73 48
L75.0938 65.4062
C75.0938 65.7031 75.2969 66.7031 75.2969 66.9062
C75.2969 68 74.4062 68 72.5938 68
L23.7969 68
C21.9062 68 20.9062 68 20.9062 66.2031
C20.9062 65.1094 21.5938 65.1094 23.2969 65.1094
C29.5 65.1094 29.5 64.4062 29.5 63.3125
C29.5 62.8125 29.4062 62.4062 29.0938 61.3125
L15.5938 7.39062
C14.7031 3.89062 14.5 2.89062 7.5 2.89062
C5.59375 2.89062 4.59375 2.89062 4.59375 1.09375
C4.59375 0 5.20312 0 7.20312 0
L57.4062 0
C59.5938 0 59.7031 0.09375 60.4062 1.71875
z
" id="CMMI12-69"/>
    </defs>
    <g style="fill:#008000;" transform="translate(595.072964341 69.1989904448)scale(0.24 -0.24)">
     <use transform="translate(0.0 14.9439145441)scale(0.996264009963)" xlink:href="#CMMI12-69"/>
     <use transform="translate(72.2112178209 0.0)scale(0.697381766617)" xlink:href="#CMMI12-101"/>
    </g>
   </g>
   <g id="patch_11">
    <path clip-path="url(#p9eae5ebd90)" d="
M604.309 171.079
Q604.309 164.238 604.309 159.633" style="fill:none;stroke:#00bfbf;stroke-linecap:round;stroke-width:2.0;"/>
    <path clip-path="url(#p9eae5ebd90)" d="
M599.509 169.233
L604.309 159.633
L609.109 169.233
L599.509 169.233
z
" style="fill:#00bfbf;stroke:#00bfbf;stroke-linecap:round;stroke-width:2.0;"/>
   </g>
   <g id="text_30">
    <!-- $\Delta U$ -->
    <defs>
     <path d="
M40.5938 68.8125
C39.7969 70.5 39.4062 70.5 38.5938 70.5
C37.4062 70.5 37.2969 70.2969 36.5938 68.9062
L4.20312 1.6875
C4.09375 1.5 3.70312 0.59375 3.70312 0.5
C3.70312 0.09375 3.79688 0 5.59375 0
L71.5 0
C73.2969 0 73.4062 0.09375 73.4062 0.5
C73.4062 0.59375 73 1.5 72.9062 1.6875
z

M36.0938 62.9219
L63.7969 5.57812
L8.29688 5.57812
z
" id="CMR17-1"/>
    </defs>
    <g style="fill:#00bfbf;" transform="translate(604.30882641 172.405719787)scale(0.24 -0.24)">
     <use transform="scale(0.996264009963)" xlink:href="#CMR17-1"/>
     <use transform="translate(76.9195898681 0.0)scale(0.996264009963)" xlink:href="#CMMI12-85"/>
    </g>
   </g>
   <g id="patch_12">
    <path clip-path="url(#p9eae5ebd90)" d="
M590.455 171.075
Q590.455 101.235 590.455 33.6322" style="fill:none;stroke:#ff0000;stroke-linecap:round;stroke-width:2.0;"/>
    <path clip-path="url(#p9eae5ebd90)" d="
M585.655 43.2322
L590.455 33.6322
L595.255 43.2322
L585.655 43.2322
z
" style="fill:#ff0000;stroke:#ff0000;stroke-linecap:round;stroke-width:2.0;"/>
   </g>
   <g id="text_31">
    <!-- $K_{\rm thresh}$ -->
    <g style="fill:#ff0000;" transform="translate(525.833198926 111.198990445)scale(0.24 -0.24)">
     <use transform="translate(0.0 14.9439145441)scale(0.996264009963)" xlink:href="#CMMI12-75"/>
     <use transform="translate(82.9926107176 0.0)scale(0.697381766617)" xlink:href="#CMR17-116"/>
     <use transform="translate(107.689031124 0.0)scale(0.697381766617)" xlink:href="#CMR17-104"/>
     <use transform="translate(143.315639472 0.0)scale(0.697381766617)" xlink:href="#CMR17-114"/>
     <use transform="translate(168.012059878 0.0)scale(0.697381766617)" xlink:href="#CMR17-101"/>
     <use transform="translate(196.351891467 0.0)scale(0.697381766617)" xlink:href="#CMR17-115"/>
     <use transform="translate(221.412713798 0.0)scale(0.697381766617)" xlink:href="#CMR17-104"/>
    </g>
   </g>
   <g id="patch_13">
    <path clip-path="url(#p9eae5ebd90)" d="
M590.455 175.082
Q590.455 204.581 590.455 231.843" style="fill:none;stroke:#ff0000;stroke-linecap:round;stroke-width:2.0;"/>
    <path clip-path="url(#p9eae5ebd90)" d="
M595.255 222.243
L590.455 231.843
L585.655 222.243
L595.255 222.243
z
" style="fill:#ff0000;stroke:#ff0000;stroke-linecap:round;stroke-width:2.0;"/>
   </g>
   <g id="text_32">
    <!-- $U_{\rm 0,2 (thresh)}$ -->
    <defs>
     <path d="
M19.5 -0.484375
C19.5 5.35938 17.5938 9.67188 13.5 9.67188
C10.2969 9.67188 8.70312 7.07812 8.70312 4.89062
C8.70312 2.6875 10.2031 0 13.5938 0
C14.9062 0 16 0.40625 16.9062 1.29688
C17.0938 1.5 17.2031 1.5 17.2969 1.5
C17.5 1.5 17.5 0.078125 17.5 -0.421875
C17.5 -3.75 16.9062 -10.2969 11.0938 -16.875
C10 -18.0781 10 -18.2812 10 -18.4844
C10 -19 10.5 -19.5 11 -19.5
C11.7969 -19.5 19.5 -12.0469 19.5 -0.484375" id="CMMI12-59"/>
    </defs>
    <g style="fill:#ff0000;" transform="translate(496.163895459 216.998517036)scale(0.24 -0.24)">
     <use transform="translate(0.0 35.301335811)scale(0.996264009963)" xlink:href="#CMMI12-85"/>
     <use transform="translate(66.2521191285 17.3762149264)scale(0.697381766617)" xlink:href="#CMR17-48"/>
     <use transform="translate(98.2353010926 17.3762149264)scale(0.697381766617)" xlink:href="#CMMI12-59"/>
     <use transform="translate(117.203233845 17.3762149264)scale(0.697381766617)" xlink:href="#CMR17-50"/>
     <use transform="translate(149.186415809 17.3762149264)scale(0.697381766617)" xlink:href="#CMR17-40"/>
     <use transform="translate(173.882836215 17.3762149264)scale(0.697381766617)" xlink:href="#CMR17-116"/>
     <use transform="translate(198.579256621 17.3762149264)scale(0.697381766617)" xlink:href="#CMR17-104"/>
     <use transform="translate(234.205864969 17.3762149264)scale(0.697381766617)" xlink:href="#CMR17-114"/>
     <use transform="translate(258.902285375 17.3762149264)scale(0.697381766617)" xlink:href="#CMR17-101"/>
     <use transform="translate(287.242116964 17.3762149264)scale(0.697381766617)" xlink:href="#CMR17-115"/>
     <use transform="translate(312.302939295 17.3762149264)scale(0.697381766617)" xlink:href="#CMR17-104"/>
     <use transform="translate(347.929547644 17.3762149264)scale(0.697381766617)" xlink:href="#CMR17-41"/>
    </g>
   </g>
   <g id="patch_14">
    <path clip-path="url(#p9eae5ebd90)" d="
M391.653 285.175
Q391.653 188.128 391.653 93.3163" style="fill:none;stroke:#bf00bf;stroke-linecap:round;stroke-width:2.0;"/>
    <path clip-path="url(#p9eae5ebd90)" d="
M386.853 102.916
L391.653 93.3163
L396.453 102.916
L386.853 102.916
z
" style="fill:#bf00bf;stroke:#bf00bf;stroke-linecap:round;stroke-width:2.0;"/>
   </g>
   <g id="text_33">
    <!-- $Ip_{\rm ion}$ -->
    <defs>
     <path d="
M4.29688 -12.3281
C3.59375 -15.3125 3.20312 -16.1094 -0.90625 -16.1094
C-2.09375 -16.1094 -3.09375 -16.1094 -3.09375 -18
C-3.09375 -18.2031 -3 -19 -1.90625 -19
C-0.59375 -19 0.796875 -19 2.09375 -19
L6.40625 -19
C8.5 -19 13.5938 -19 15.7031 -19
C16.2969 -19 17.5 -19 17.5 -17.2031
C17.5 -16.1094 16.7969 -16.1094 15.0938 -16.1094
C10.5 -16.1094 10.2031 -15.4219 10.2031 -14.6406
C10.2031 -13.4531 14.7031 3.42188 15.2969 5.6875
C16.4062 2.89062 19.0938 -1 24.2969 -1
C35.5938 -1 47.7969 13.6719 47.7969 28.3438
C47.7969 37.5156 42.5938 44 35.0938 44
C28.7031 44 23.2969 37.8125 22.2031 36.4219
C21.4062 41.4062 17.5 44 13.5 44
C10.5938 44 8.29688 42.6094 6.40625 38.8125
C4.59375 35.2188 3.20312 29.1406 3.20312 28.7344
C3.20312 28.3438 3.59375 27.8438 4.29688 27.8438
C5.09375 27.8438 5.20312 27.9375 5.79688 30.2344
C7.29688 36.125 9.20312 42.0156 13.2031 42.0156
C15.5 42.0156 16.2969 40.4219 16.2969 37.4531
C16.2969 35.0781 16 34.0781 15.5938 32.2969
z

M21.5938 31.1406
C22.2969 33.9219 25.0938 36.8281 26.7031 38.2188
C27.7969 39.2188 31.0938 42.0156 34.9062 42.0156
C39.2969 42.0156 41.2969 37.625 41.2969 32.4375
C41.2969 27.6406 38.5 16.3594 36 11.1719
C33.5 5.78125 28.9062 1 24.2969 1
C17.5 1 16.4062 9.57812 16.4062 9.98438
C16.4062 10.2812 16.5938 11.0781 16.7031 11.5781
z
" id="CMMI12-112"/>
     <path d="
M36.7969 60.625
C37.7031 64.1094 37.9062 65.1094 45.2031 65.1094
C47.4062 65.1094 48.2031 65.1094 48.2031 67
C48.2031 68 47.0938 68 46.7969 68
C45 68 42.7969 68 41 68
L28.7031 68
C26.7031 68 24.4062 68 22.4062 68
C21.5938 68 20.5 68 20.5 66.1094
C20.5 65.1094 21.2969 65.1094 23.2969 65.1094
C29.5 65.1094 29.5 64.3125 29.5 63.2031
C29.5 62.5156 29.2969 61.9219 29.0938 61.0312
L15.5938 7.375
C14.7031 3.89062 14.5 2.89062 7.20312 2.89062
C5 2.89062 4.09375 2.89062 4.09375 1
C4.09375 0 5.09375 0 5.59375 0
C7.40625 0 9.59375 0 11.4062 0
L23.7031 0
C25.7031 0 27.9062 0 29.9062 0
C30.7031 0 31.9062 0 31.9062 1.79688
C31.9062 2.89062 31.2969 2.89062 29.0938 2.89062
C22.9062 2.89062 22.9062 3.6875 22.9062 4.89062
C22.9062 5.09375 22.9062 5.59375 23.2969 7.17188
z
" id="CMMI12-73"/>
    </defs>
    <g style="fill:#bf00bf;" transform="translate(345.846225107 198.61990682)scale(0.24 -0.24)">
     <use transform="translate(0.0 19.3717224957)scale(0.996264009963)" xlink:href="#CMMI12-73"/>
     <use transform="translate(50.8565140246 19.3717224957)scale(0.996264009963)" xlink:href="#CMMI12-112"/>
     <use transform="translate(99.8160280297 4.42780795163)scale(0.697381766617)" xlink:href="#CMR17-105"/>
     <use transform="translate(117.225686877 4.42780795163)scale(0.697381766617)" xlink:href="#CMR17-111"/>
     <use transform="translate(149.208868841 4.42780795163)scale(0.697381766617)" xlink:href="#CMR17-110"/>
    </g>
   </g>
   <g id="patch_15">
    <path clip-path="url(#p9eae5ebd90)" d="
M429.058 369.175
Q429.058 272.128 429.058 177.316" style="fill:none;stroke:#bf00bf;stroke-linecap:round;stroke-width:2.0;"/>
    <path clip-path="url(#p9eae5ebd90)" d="
M424.258 186.916
L429.058 177.316
L433.858 186.916
L424.258 186.916
z
" style="fill:#bf00bf;stroke:#bf00bf;stroke-linecap:round;stroke-width:2.0;"/>
   </g>
   <g id="text_34">
    <!-- $Ip'_{\rm ion}$ -->
    <defs>
     <path d="
M25.2969 47.5
C25.7969 48.7031 26.2031 49.5938 26.2031 50.5938
C26.2031 53.5 23.5938 55.9062 20.5 55.9062
C17.7031 55.9062 15.9062 54 15.2031 51.4062
L3.29688 7.70312
C3.29688 7.5 2.90625 6.40625 2.90625 6.29688
C2.90625 5.20312 5.5 4.5 6.29688 4.5
C6.90625 4.5 7 4.79688 7.59375 6.09375
z
" id="CMSY10-48"/>
    </defs>
    <g style="fill:#bf00bf;" transform="translate(429.058343651 284.24210422)scale(0.24 -0.24)">
     <use transform="translate(0.0 25.5330048938)scale(0.996264009963)" xlink:href="#CMMI12-73"/>
     <use transform="translate(50.8565140246 25.5330048938)scale(0.996264009963)" xlink:href="#CMMI12-112"/>
     <use transform="translate(99.8160280297 61.6866438356)scale(0.697381766617)" xlink:href="#CMSY10-48"/>
     <use transform="translate(99.8160280297 0.0)scale(0.697381766617)" xlink:href="#CMR17-105"/>
     <use transform="translate(117.225686877 0.0)scale(0.697381766617)" xlink:href="#CMR17-111"/>
     <use transform="translate(149.208868841 0.0)scale(0.697381766617)" xlink:href="#CMR17-110"/>
    </g>
   </g>
  </g>
 </g>
 <defs>
  <clipPath id="p9eae5ebd90">
   <rect height="378.0" width="669.6" x="87.1005505478" y="13.4784632093"/>
  </clipPath>
 </defs>
</svg>
